<svg width="95" height="114" viewBox="0 0 95 114" fill="none" xmlns="http://www.w3.org/2000/svg">
<g filter="url(#filter0_d)">
<path fill-rule="evenodd" clip-rule="evenodd" d="M48 81C70.0914 81 88 63.0914 88 41C88 18.9086 70.0914 1 48 1C25.9086 1 8 18.9086 8 41C8 63.0914 25.9086 81 48 81ZM42.5469 36.8984C41.8125 36.2422 40.7109 35.9141 39.2422 35.9141C38.4844 35.9141 37.7266 36.0078 36.9688 36.1953C36.2188 36.375 35.5156 36.6367 34.8594 36.9805C34.5703 37.1289 34.4258 37.3398 34.4258 37.6133C34.4258 37.7383 34.4688 37.8945 34.5547 38.082C34.7266 38.457 34.9414 38.6445 35.1992 38.6445C35.3086 38.6445 35.4297 38.6094 35.5625 38.5391C36.1328 38.25 36.7344 38.0234 37.3672 37.8594C38 37.6953 38.6094 37.6133 39.1953 37.6133C40.1406 37.6133 40.8242 37.793 41.2461 38.1523C41.6758 38.5039 41.8906 39.0586 41.8906 39.8164V40.8125C40.7578 40.4141 39.5703 40.2148 38.3281 40.2148C36.9297 40.2148 35.7891 40.5117 34.9062 41.1055C34.0234 41.6914 33.582 42.6016 33.582 43.8359C33.582 44.5469 33.7539 45.1602 34.0977 45.6758C34.4414 46.1914 34.9141 46.5859 35.5156 46.8594C36.125 47.125 36.8242 47.2578 37.6133 47.2578C38.4492 47.2578 39.2383 47.1055 39.9805 46.8008C40.7305 46.4961 41.4258 46.0625 42.0664 45.5C42.1758 45.9922 42.4102 46.3672 42.7695 46.625C43.1367 46.875 43.5742 47 44.082 47H44.832C45.0977 47 45.2852 46.9414 45.3945 46.8242C45.5117 46.6992 45.5703 46.4922 45.5703 46.2031C45.5703 45.9141 45.5117 45.7109 45.3945 45.5938C45.2852 45.4688 45.0977 45.4062 44.832 45.4062H44.4219C43.9062 45.4062 43.6484 45.0977 43.6484 44.4805V39.8164C43.6484 38.5273 43.2812 37.5547 42.5469 36.8984ZM36.207 42.3359C36.7305 42.0234 37.4414 41.8672 38.3398 41.8672C38.957 41.8672 39.5703 41.9141 40.1797 42.0078C40.7891 42.0938 41.3594 42.2227 41.8906 42.3945V43.6719C40.6406 44.9609 39.2383 45.6055 37.6836 45.6055C36.9727 45.6055 36.418 45.4492 36.0195 45.1367C35.6289 44.8164 35.4336 44.3711 35.4336 43.8008C35.4336 43.1289 35.6914 42.6406 36.207 42.3359ZM63.4391 50.1055C63.4 50.0039 63.3336 49.9531 63.2398 49.9531H48.732C48.6383 49.9531 48.5719 50.0039 48.5328 50.1055C48.4859 50.207 48.4625 50.4219 48.4625 50.75C48.4625 51.0781 48.4859 51.293 48.5328 51.3945C48.5719 51.4961 48.6383 51.5469 48.732 51.5469H63.2398C63.3336 51.5469 63.4 51.4961 63.4391 51.3945C63.4859 51.293 63.5094 51.0781 63.5094 50.75C63.5094 50.4219 63.4859 50.207 63.4391 50.1055Z" fill="white"/>
</g>
<path d="M0 108.344C0 108.151 0.0442708 107.984 0.132812 107.844C0.221354 107.698 0.364583 107.625 0.5625 107.625H1.64844L6.82031 95.9453C6.89844 95.763 7.01562 95.599 7.17188 95.4531C7.32812 95.3021 7.53125 95.2266 7.78125 95.2266C8.04167 95.2266 8.23958 95.3047 8.375 95.4609C8.51562 95.612 8.625 95.7839 8.70312 95.9766L13.3984 107.625H14.7891C14.987 107.625 15.1276 107.698 15.2109 107.844C15.2995 107.984 15.3438 108.151 15.3438 108.344C15.3438 108.516 15.2943 108.669 15.1953 108.805C15.0964 108.935 14.9557 109 14.7734 109H9.73438C9.55208 109 9.40885 108.935 9.30469 108.805C9.20573 108.669 9.15625 108.516 9.15625 108.344C9.15625 108.151 9.20052 107.984 9.28906 107.844C9.3776 107.698 9.52083 107.625 9.71875 107.625H11.4297L10.2734 104.57H4.60938L3.38281 107.625H4.83594C5.03385 107.625 5.17708 107.698 5.26562 107.844C5.35417 107.984 5.39844 108.151 5.39844 108.344C5.39844 108.516 5.34635 108.669 5.24219 108.805C5.14323 108.935 5.0026 109 4.82031 109H0.578125C0.395833 109 0.252604 108.935 0.148438 108.805C0.0494792 108.669 0 108.516 0 108.344ZM5.09375 103.367H9.82812L7.53906 97.2891L5.09375 103.367ZM25.7406 104.453C25.7406 103.552 25.5167 102.76 25.0688 102.078C24.626 101.391 23.9646 101.047 23.0844 101.047C22.4542 101.047 21.9099 101.143 21.4516 101.336C20.9984 101.529 20.6156 101.789 20.3031 102.117V106.469C20.5792 106.87 20.9385 107.203 21.3813 107.469C21.8292 107.734 22.3708 107.867 23.0063 107.867C23.9125 107.867 24.5948 107.526 25.0531 106.844C25.5115 106.161 25.7406 105.365 25.7406 104.453ZM27.4672 104.453C27.4672 105.833 27.0818 106.969 26.3109 107.859C25.5401 108.75 24.475 109.195 23.1156 109.195C22.475 109.195 21.8995 109.06 21.3891 108.789C20.8839 108.518 20.4672 108.198 20.1391 107.828C20.1391 108.146 20.087 108.432 19.9828 108.688C19.8839 108.938 19.6859 109.062 19.3891 109.062C19.1234 109.062 18.9411 108.964 18.8422 108.766C18.7484 108.568 18.7016 108.341 18.7016 108.086V97.0938L16.8578 97.5781C16.837 97.5781 16.824 97.5807 16.8188 97.5859C16.8135 97.5911 16.8005 97.5938 16.7797 97.5938C16.6182 97.5938 16.475 97.5234 16.35 97.3828C16.2198 97.237 16.1547 97.0833 16.1547 96.9219C16.1547 96.6979 16.2146 96.5521 16.3344 96.4844C16.449 96.4115 16.5922 96.349 16.7641 96.2969L19.7719 95.4297C19.7823 95.4245 19.7953 95.4219 19.8109 95.4219C19.8318 95.4167 19.8552 95.4141 19.8813 95.4141C19.9906 95.4141 20.087 95.4505 20.1703 95.5234C20.2589 95.5911 20.3031 95.6823 20.3031 95.7969V100.914C20.6729 100.555 21.0792 100.266 21.5219 100.047C21.9646 99.8281 22.5063 99.7188 23.1469 99.7188C24.4698 99.7188 25.5193 100.172 26.2953 101.078C27.0766 101.979 27.4672 103.104 27.4672 104.453ZM35.0203 101.047C34.0307 101.047 33.2625 101.367 32.7156 102.008C32.174 102.648 31.9031 103.464 31.9031 104.453C31.9031 105.448 32.174 106.266 32.7156 106.906C33.2625 107.547 34.0307 107.867 35.0203 107.867C35.9839 107.867 36.7286 107.542 37.2547 106.891C37.7807 106.24 38.0438 105.427 38.0438 104.453C38.0438 103.479 37.7807 102.669 37.2547 102.023C36.7286 101.372 35.9839 101.047 35.0203 101.047ZM35.0203 109.195C33.5776 109.195 32.4083 108.766 31.5125 107.906C30.6167 107.047 30.1688 105.896 30.1688 104.453C30.1688 103.005 30.6167 101.854 31.5125 101C32.4135 100.146 33.5828 99.7188 35.0203 99.7188C36.437 99.7188 37.5828 100.154 38.4578 101.023C39.3328 101.888 39.7703 103.031 39.7703 104.453C39.7703 105.875 39.3328 107.021 38.4578 107.891C37.5828 108.76 36.437 109.195 35.0203 109.195ZM47.1437 107.867C47.8104 107.867 48.4146 107.711 48.9562 107.398C49.5031 107.081 49.8859 106.693 50.1047 106.234V101.352L48.9875 101.625C48.9771 101.63 48.9615 101.635 48.9406 101.641C48.9198 101.641 48.8964 101.641 48.8703 101.641C48.7141 101.641 48.5682 101.578 48.4328 101.453C48.2974 101.323 48.2297 101.177 48.2297 101.016C48.2297 100.849 48.2687 100.708 48.3469 100.594C48.425 100.474 48.537 100.396 48.6828 100.359L51.175 99.7344C51.1906 99.7292 51.2089 99.7266 51.2297 99.7266C51.2557 99.7214 51.2818 99.7188 51.3078 99.7188C51.4276 99.7188 51.524 99.7526 51.5969 99.8203C51.6698 99.8828 51.7062 99.9766 51.7062 100.102V107.516H52.8859C53.063 107.516 53.1984 107.578 53.2922 107.703C53.3859 107.823 53.4328 107.971 53.4328 108.148C53.4328 108.315 53.3937 108.458 53.3156 108.578C53.2427 108.693 53.1333 108.768 52.9875 108.805L50.8547 109.031C50.7036 109.031 50.5812 108.982 50.4875 108.883C50.399 108.779 50.3365 108.599 50.3 108.344L50.1828 107.578C49.8807 108.026 49.4198 108.409 48.8 108.727C48.1802 109.039 47.5318 109.195 46.8547 109.195C45.9276 109.195 45.2036 108.901 44.6828 108.312C44.1672 107.719 43.9094 106.951 43.9094 106.008V101.352L42.7922 101.625C42.7818 101.63 42.7661 101.635 42.7453 101.641C42.7297 101.641 42.7089 101.641 42.6828 101.641C42.5266 101.641 42.3807 101.578 42.2453 101.453C42.1099 101.323 42.0422 101.177 42.0422 101.016C42.0422 100.849 42.0786 100.708 42.1516 100.594C42.2297 100.474 42.3417 100.396 42.4875 100.359L44.9875 99.7344C45.0031 99.7292 45.0214 99.7266 45.0422 99.7266C45.063 99.7214 45.0865 99.7188 45.1125 99.7188C45.2323 99.7188 45.3286 99.7526 45.4016 99.8203C45.4745 99.8828 45.5109 99.9766 45.5109 100.102V105.867C45.5109 106.44 45.6437 106.917 45.9094 107.297C46.1802 107.677 46.5917 107.867 47.1437 107.867ZM59.65 107.953C60.15 107.953 60.4729 107.812 60.6188 107.531C60.7646 107.25 60.9859 107.109 61.2828 107.109C61.4443 107.109 61.5771 107.169 61.6813 107.289C61.7906 107.404 61.8453 107.542 61.8453 107.703C61.8453 108.167 61.5667 108.534 61.0094 108.805C60.4521 109.076 59.9104 109.211 59.3844 109.211C58.775 109.211 58.2411 108.997 57.7828 108.57C57.3245 108.138 57.0953 107.635 57.0953 107.062V101.531H55.9234C55.7047 101.531 55.5432 101.469 55.4391 101.344C55.3349 101.219 55.2828 101.057 55.2828 100.859C55.2828 100.667 55.3297 100.5 55.4234 100.359C55.5224 100.219 55.6734 100.148 55.8766 100.148H57.0953C57.0953 99.6745 57.137 99.0417 57.2203 98.25C57.3036 97.4583 57.5693 97.0625 58.0172 97.0625C58.1474 97.0625 58.2594 97.0781 58.3531 97.1094C58.4521 97.1406 58.5484 97.1901 58.6422 97.2578V97.4141C58.6422 97.4818 58.6448 97.5599 58.65 97.6484C58.6552 97.7318 58.6578 97.8073 58.6578 97.875V100.148H60.7047C60.9026 100.148 61.0458 100.221 61.1344 100.367C61.2229 100.513 61.2672 100.682 61.2672 100.875C61.2672 101.047 61.2151 101.201 61.1109 101.336C61.012 101.466 60.8714 101.531 60.6891 101.531H58.6578V106.82C58.6578 107.227 58.7516 107.518 58.9391 107.695C59.1266 107.867 59.3635 107.953 59.65 107.953ZM76.35 109.195C74.7875 109.195 73.5089 108.763 72.5141 107.898C71.5193 107.029 71.0219 105.823 71.0219 104.281V96.9844H69.8422C69.6443 96.9844 69.501 96.9141 69.4125 96.7734C69.324 96.6276 69.2797 96.4583 69.2797 96.2656C69.2797 96.0938 69.3292 95.9427 69.4281 95.8125C69.5323 95.6771 69.6755 95.6094 69.8578 95.6094H74.4203C74.6026 95.6094 74.7432 95.6771 74.8422 95.8125C74.9411 95.9427 74.9906 96.0938 74.9906 96.2656C74.9906 96.4583 74.9464 96.6276 74.8578 96.7734C74.7745 96.9141 74.6339 96.9844 74.4359 96.9844H72.85V104.281C72.85 105.391 73.1521 106.255 73.7562 106.875C74.3656 107.49 75.2302 107.797 76.35 107.797C77.3708 107.797 78.1859 107.469 78.7953 106.812C79.4099 106.156 79.7172 105.318 79.7172 104.297V96.9844H78.225C78.0271 96.9844 77.8839 96.9141 77.7953 96.7734C77.7068 96.6276 77.6625 96.4583 77.6625 96.2656C77.6625 96.0938 77.712 95.9427 77.8109 95.8125C77.9151 95.6771 78.0583 95.6094 78.2406 95.6094H82.5609C82.7432 95.6094 82.8839 95.6771 82.9828 95.8125C83.087 95.9427 83.1391 96.0938 83.1391 96.2656C83.1391 96.4583 83.0948 96.6276 83.0062 96.7734C82.9177 96.9141 82.7745 96.9844 82.5766 96.9844H81.2172V104.297C81.2172 105.745 80.7667 106.924 79.8656 107.836C78.9646 108.742 77.7927 109.195 76.35 109.195ZM86.2703 102.273C86.2703 101.268 86.6297 100.591 87.3484 100.242C88.0672 99.8932 88.8354 99.7188 89.6531 99.7188C90.1844 99.7188 90.7104 99.8307 91.2312 100.055C91.7521 100.273 92.1089 100.555 92.3016 100.898L92.3094 100.234C92.3094 100.073 92.3667 99.9453 92.4812 99.8516C92.5958 99.7526 92.7339 99.7031 92.8953 99.7031C93.1245 99.7031 93.2964 99.7552 93.4109 99.8594C93.5255 99.9635 93.5828 100.115 93.5828 100.312L93.5516 102.57C93.5307 102.747 93.463 102.883 93.3484 102.977C93.2339 103.065 93.088 103.109 92.9109 103.109C92.7391 103.109 92.6245 103.057 92.5672 102.953C92.5099 102.849 92.4552 102.701 92.4031 102.508C92.226 101.961 91.8589 101.542 91.3016 101.25C90.7495 100.958 90.1948 100.812 89.6375 100.812C89.1583 100.812 88.7391 100.906 88.3797 101.094C88.0203 101.281 87.8406 101.565 87.8406 101.945C87.8406 102.273 87.9474 102.529 88.1609 102.711C88.3745 102.893 88.7208 103.044 89.2 103.164L91.2 103.82C91.8979 104.055 92.5307 104.352 93.0984 104.711C93.6661 105.07 93.95 105.69 93.95 106.57C93.95 107.435 93.6531 108.091 93.0594 108.539C92.4708 108.987 91.6427 109.211 90.575 109.211C90.0177 109.211 89.4057 109.122 88.7391 108.945C88.0724 108.763 87.5906 108.508 87.2937 108.18C87.2937 108.523 87.2312 108.747 87.1062 108.852C86.9865 108.951 86.838 109 86.6609 109C86.463 109 86.2964 108.956 86.1609 108.867C86.0307 108.779 85.9656 108.63 85.9656 108.422V105.781C85.9708 105.62 86.0333 105.497 86.1531 105.414C86.2729 105.331 86.4083 105.289 86.5594 105.289C86.7885 105.289 86.9474 105.344 87.0359 105.453C87.1297 105.557 87.2 105.711 87.2469 105.914C87.4083 106.622 87.7807 107.154 88.3641 107.508C88.9474 107.862 89.6557 108.039 90.4891 108.039C90.9943 108.039 91.4266 107.943 91.7859 107.75C92.1505 107.557 92.3328 107.242 92.3328 106.805C92.3328 106.367 92.2286 106.047 92.0203 105.844C91.812 105.641 91.4422 105.458 90.9109 105.297L88.7859 104.633C88.1245 104.424 87.5385 104.148 87.0281 103.805C86.5229 103.461 86.2703 102.951 86.2703 102.273Z" fill="white"/>
<defs>
<filter id="filter0_d" x="6" y="0" width="84" height="84" filterUnits="userSpaceOnUse" color-interpolation-filters="sRGB">
<feFlood flood-opacity="0" result="BackgroundImageFix"/>
<feColorMatrix in="SourceAlpha" type="matrix" values="0 0 0 0 0 0 0 0 0 0 0 0 0 0 0 0 0 0 127 0"/>
<feOffset dy="1"/>
<feGaussianBlur stdDeviation="1"/>
<feColorMatrix type="matrix" values="0 0 0 0 0 0 0 0 0 0 0 0 0 0 0 0 0 0 0.1 0"/>
<feBlend mode="normal" in2="BackgroundImageFix" result="effect1_dropShadow"/>
<feBlend mode="normal" in="SourceGraphic" in2="effect1_dropShadow" result="shape"/>
</filter>
</defs>
</svg>
