<svg width="320" height="77" viewBox="0 0 320 77" fill="none" xmlns="http://www.w3.org/2000/svg">
<rect x="0.5" y="0.5" width="319" height="31" rx="9.5" stroke="white"/>
<rect x="0.5" y="45.5" width="319" height="31" rx="9.5" stroke="white"/>
<path d="M18.1953 11.7266C18.3776 11.7266 18.5052 11.7865 18.5781 11.9062C18.651 12.026 18.6875 12.2474 18.6875 12.5703C18.6875 12.8932 18.651 13.1146 18.5781 13.2344C18.5052 13.349 18.3776 13.4062 18.1953 13.4062H14.7422L14.6328 15.1484C15.1328 14.9557 15.6328 14.8594 16.1328 14.8594C16.7786 14.8594 17.3281 14.9922 17.7812 15.2578C18.2396 15.5182 18.5859 15.8854 18.8203 16.3594C19.0547 16.8281 19.1719 17.3698 19.1719 17.9844C19.1719 19.0312 18.8438 19.8255 18.1875 20.3672C17.5365 20.9036 16.6354 21.1719 15.4844 21.1719C14.9896 21.1719 14.4974 21.112 14.0078 20.9922C13.5234 20.8672 13.0781 20.6953 12.6719 20.4766C12.474 20.3672 12.375 20.2005 12.375 19.9766C12.375 19.8359 12.4193 19.6484 12.5078 19.4141C12.6849 18.9766 12.8828 18.7578 13.1016 18.7578C13.1432 18.7578 13.1953 18.7708 13.2578 18.7969C14.0599 19.1979 14.8021 19.3984 15.4844 19.3984C15.9635 19.3984 16.349 19.2734 16.6406 19.0234C16.9323 18.7734 17.0781 18.4271 17.0781 17.9844C17.0781 17.5625 16.9583 17.2318 16.7188 16.9922C16.4844 16.7526 16.151 16.6328 15.7188 16.6328C15.2292 16.6328 14.7292 16.7266 14.2188 16.9141C14 16.9974 13.7865 17.0391 13.5781 17.0391C13.2448 17.0391 13.0078 17 12.8672 16.9219C12.7318 16.8438 12.6693 16.7135 12.6797 16.5312L12.9375 12.2344C12.9479 12.0521 12.9896 11.9219 13.0625 11.8438C13.1406 11.7656 13.2682 11.7266 13.4453 11.7266H18.1953ZM26.9906 11.5547C27.7563 11.5547 28.4229 11.7604 28.9906 12.1719C29.5583 12.5781 29.9932 13.1458 30.2953 13.875C30.5974 14.599 30.7484 15.4297 30.7484 16.3672C30.7484 17.3047 30.5974 18.138 30.2953 18.8672C29.9932 19.5911 29.5583 20.1562 28.9906 20.5625C28.4229 20.9688 27.7563 21.1719 26.9906 21.1719C26.225 21.1719 25.5583 20.9688 24.9906 20.5625C24.4229 20.1562 23.988 19.5911 23.6859 18.8672C23.3839 18.138 23.2328 17.3047 23.2328 16.3672C23.2328 15.4297 23.3839 14.599 23.6859 13.875C23.988 13.1458 24.4229 12.5781 24.9906 12.1719C25.5583 11.7604 26.225 11.5547 26.9906 11.5547ZM26.9906 13.3281C26.449 13.3281 26.0349 13.5859 25.7484 14.1016C25.4672 14.612 25.3266 15.3672 25.3266 16.3672C25.3266 17.3672 25.4672 18.1224 25.7484 18.6328C26.0349 19.1432 26.449 19.3984 26.9906 19.3984C27.5323 19.3984 27.9438 19.1432 28.225 18.6328C28.5115 18.1224 28.6547 17.3672 28.6547 16.3672C28.6547 15.3672 28.5115 14.612 28.225 14.1016C27.9438 13.5859 27.5323 13.3281 26.9906 13.3281ZM38.1844 11.5547C38.95 11.5547 39.6167 11.7604 40.1844 12.1719C40.7521 12.5781 41.187 13.1458 41.4891 13.875C41.7911 14.599 41.9422 15.4297 41.9422 16.3672C41.9422 17.3047 41.7911 18.138 41.4891 18.8672C41.187 19.5911 40.7521 20.1562 40.1844 20.5625C39.6167 20.9688 38.95 21.1719 38.1844 21.1719C37.4188 21.1719 36.7521 20.9688 36.1844 20.5625C35.6167 20.1562 35.1818 19.5911 34.8797 18.8672C34.5776 18.138 34.4266 17.3047 34.4266 16.3672C34.4266 15.4297 34.5776 14.599 34.8797 13.875C35.1818 13.1458 35.6167 12.5781 36.1844 12.1719C36.7521 11.7604 37.4188 11.5547 38.1844 11.5547ZM38.1844 13.3281C37.6427 13.3281 37.2286 13.5859 36.9422 14.1016C36.6609 14.612 36.5203 15.3672 36.5203 16.3672C36.5203 17.3672 36.6609 18.1224 36.9422 18.6328C37.2286 19.1432 37.6427 19.3984 38.1844 19.3984C38.726 19.3984 39.1375 19.1432 39.4188 18.6328C39.7052 18.1224 39.8484 17.3672 39.8484 16.3672C39.8484 15.3672 39.7052 14.612 39.4188 14.1016C39.1375 13.5859 38.726 13.3281 38.1844 13.3281ZM63.3219 13.6094C63.801 13.6094 64.1786 13.8047 64.4547 14.1953C64.7307 14.5859 64.8688 15.1797 64.8688 15.9766V20.5078C64.8688 20.6849 64.8297 20.8125 64.7516 20.8906C64.6786 20.9635 64.5536 21 64.3766 21H63.4078C63.2307 21 63.1031 20.9635 63.025 20.8906C62.9521 20.8125 62.9156 20.6849 62.9156 20.5078V16.4219C62.9156 16.1458 62.8818 15.9427 62.8141 15.8125C62.7516 15.6823 62.65 15.6172 62.5094 15.6172C62.2646 15.6172 62.0693 15.8073 61.9234 16.1875C61.7828 16.5677 61.7125 17.1224 61.7125 17.8516V20.5078C61.7125 20.6849 61.6734 20.8125 61.5953 20.8906C61.5224 20.9635 61.3974 21 61.2203 21H60.2516C60.0745 21 59.9469 20.9635 59.8688 20.8906C59.7958 20.8125 59.7594 20.6849 59.7594 20.5078V16.4219C59.7594 16.1458 59.7255 15.9427 59.6578 15.8125C59.5953 15.6823 59.4938 15.6172 59.3531 15.6172C59.1083 15.6172 58.913 15.8073 58.7672 16.1875C58.6266 16.5677 58.5563 17.1224 58.5563 17.8516V20.5078C58.5563 20.6849 58.5172 20.8125 58.4391 20.8906C58.3661 20.9635 58.2411 21 58.0641 21H57.0953C56.9182 21 56.7906 20.9635 56.7125 20.8906C56.6396 20.8125 56.6031 20.6849 56.6031 20.5078V15.3828H56.1578C56.0328 15.3828 55.9365 15.362 55.8688 15.3203C55.801 15.2786 55.7516 15.2005 55.7203 15.0859C55.6839 14.9714 55.6656 14.8047 55.6656 14.5859C55.6656 14.3672 55.6839 14.2005 55.7203 14.0859C55.7516 13.9714 55.801 13.8932 55.8688 13.8516C55.9365 13.8047 56.0328 13.7812 56.1578 13.7812H57.5172C57.6943 13.7812 57.8193 13.8203 57.8922 13.8984C57.9703 13.9714 58.0094 14.0964 58.0094 14.2734V15.3984C58.2542 14.8099 58.5406 14.3646 58.8688 14.0625C59.2021 13.7604 59.5667 13.6094 59.9625 13.6094C60.7333 13.6094 61.2307 14.138 61.4547 15.1953C61.6943 14.6745 61.9729 14.2812 62.2906 14.0156C62.6083 13.7448 62.9521 13.6094 63.3219 13.6094ZM72.2812 10.75C72.4583 10.75 72.5833 10.7891 72.6562 10.8672C72.7344 10.9401 72.7734 11.0651 72.7734 11.2422V19.3984H74.9688C75.0938 19.3984 75.1901 19.4219 75.2578 19.4688C75.3255 19.5104 75.375 19.5885 75.4062 19.7031C75.4427 19.8177 75.4609 19.9844 75.4609 20.2031C75.4609 20.4219 75.4427 20.5885 75.4062 20.7031C75.375 20.8177 75.3255 20.8958 75.2578 20.9375C75.1901 20.9792 75.0938 21 74.9688 21H68.6875C68.5625 21 68.4661 20.9792 68.3984 20.9375C68.3307 20.8958 68.2786 20.8177 68.2422 20.7031C68.2109 20.5885 68.1953 20.4219 68.1953 20.2031C68.1953 19.9844 68.2109 19.8177 68.2422 19.7031C68.2786 19.5885 68.3307 19.5104 68.3984 19.4688C68.4661 19.4219 68.5625 19.3984 68.6875 19.3984H70.8203V12.3516H69C68.875 12.3516 68.7786 12.3307 68.7109 12.2891C68.6432 12.2474 68.5911 12.1693 68.5547 12.0547C68.5234 11.9401 68.5078 11.7734 68.5078 11.5547C68.5078 11.3359 68.5234 11.1693 68.5547 11.0547C68.5911 10.9401 68.6432 10.862 68.7109 10.8203C68.7786 10.7734 68.875 10.75 69 10.75H72.2812Z" fill="white"/>
<path d="M18.1953 56.7266C18.3776 56.7266 18.5052 56.7865 18.5781 56.9062C18.651 57.026 18.6875 57.2474 18.6875 57.5703C18.6875 57.8932 18.651 58.1146 18.5781 58.2344C18.5052 58.349 18.3776 58.4062 18.1953 58.4062H14.7422L14.6328 60.1484C15.1328 59.9557 15.6328 59.8594 16.1328 59.8594C16.7786 59.8594 17.3281 59.9922 17.7812 60.2578C18.2396 60.5182 18.5859 60.8854 18.8203 61.3594C19.0547 61.8281 19.1719 62.3698 19.1719 62.9844C19.1719 64.0312 18.8438 64.8255 18.1875 65.3672C17.5365 65.9036 16.6354 66.1719 15.4844 66.1719C14.9896 66.1719 14.4974 66.112 14.0078 65.9922C13.5234 65.8672 13.0781 65.6953 12.6719 65.4766C12.474 65.3672 12.375 65.2005 12.375 64.9766C12.375 64.8359 12.4193 64.6484 12.5078 64.4141C12.6849 63.9766 12.8828 63.7578 13.1016 63.7578C13.1432 63.7578 13.1953 63.7708 13.2578 63.7969C14.0599 64.1979 14.8021 64.3984 15.4844 64.3984C15.9635 64.3984 16.349 64.2734 16.6406 64.0234C16.9323 63.7734 17.0781 63.4271 17.0781 62.9844C17.0781 62.5625 16.9583 62.2318 16.7188 61.9922C16.4844 61.7526 16.151 61.6328 15.7188 61.6328C15.2292 61.6328 14.7292 61.7266 14.2188 61.9141C14 61.9974 13.7865 62.0391 13.5781 62.0391C13.2448 62.0391 13.0078 62 12.8672 61.9219C12.7318 61.8438 12.6693 61.7135 12.6797 61.5312L12.9375 57.2344C12.9479 57.0521 12.9896 56.9219 13.0625 56.8438C13.1406 56.7656 13.2682 56.7266 13.4453 56.7266H18.1953ZM40.5438 56.5547C40.8771 56.5547 41.1141 56.5938 41.2547 56.6719C41.3953 56.7448 41.4656 56.8698 41.4656 57.0469V59.1875C41.4656 59.3646 41.4083 59.4922 41.2938 59.5703C41.1844 59.6432 41.0021 59.6797 40.7469 59.6797C40.575 59.6797 40.4396 59.6589 40.3406 59.6172C40.2417 59.5755 40.1635 59.513 40.1063 59.4297C39.8615 59.0443 39.5464 58.7474 39.1609 58.5391C38.7755 58.3255 38.3302 58.2188 37.825 58.2188C37.4448 58.2188 37.1453 58.3151 36.9266 58.5078C36.713 58.7005 36.6063 58.9505 36.6063 59.2578C36.6063 59.4089 36.6531 59.5339 36.7469 59.6328C36.8406 59.7266 36.976 59.8099 37.1531 59.8828C37.3823 59.9714 37.7755 60.0625 38.3328 60.1562C38.8745 60.2604 39.3172 60.3594 39.6609 60.4531C40.0047 60.5417 40.3276 60.6797 40.6297 60.8672C41.463 61.3724 41.8797 62.1875 41.8797 63.3125C41.8797 63.8854 41.7573 64.3854 41.5125 64.8125C41.2729 65.2396 40.9109 65.5729 40.4266 65.8125C39.9422 66.0521 39.3458 66.1719 38.6375 66.1719C37.7677 66.1719 37.0307 65.9089 36.4266 65.3828V65.6797C36.4266 65.8568 36.3615 65.9818 36.2313 66.0547C36.1063 66.1328 35.8797 66.1719 35.5516 66.1719C35.2182 66.1719 34.9813 66.1328 34.8406 66.0547C34.7 65.9818 34.6297 65.8568 34.6297 65.6797V63.0703C34.6297 62.8932 34.6844 62.7682 34.7938 62.6953C34.9083 62.6172 35.0932 62.5781 35.3484 62.5781C35.5307 62.5781 35.674 62.6016 35.7781 62.6484C35.8875 62.6953 35.9708 62.776 36.0281 62.8906C36.3094 63.4271 36.6453 63.8307 37.0359 64.1016C37.4266 64.3724 37.8823 64.5078 38.4031 64.5078C38.8615 64.5078 39.2104 64.4141 39.45 64.2266C39.6896 64.0391 39.8094 63.7786 39.8094 63.4453C39.8094 63.237 39.7547 63.0625 39.6453 62.9219C39.5411 62.776 39.3875 62.6536 39.1844 62.5547C39.0177 62.4714 38.8328 62.4036 38.6297 62.3516C38.4318 62.2995 38.1375 62.2318 37.7469 62.1484C37.299 62.0547 36.9292 61.9688 36.6375 61.8906C36.3458 61.8125 36.0724 61.7057 35.8172 61.5703C35.4214 61.362 35.1115 61.0859 34.8875 60.7422C34.6635 60.3932 34.5516 59.9427 34.5516 59.3906C34.5516 58.8385 34.6792 58.349 34.9344 57.9219C35.1896 57.4896 35.5464 57.1536 36.0047 56.9141C36.4682 56.6745 36.9969 56.5547 37.5906 56.5547C38.0073 56.5547 38.3927 56.6224 38.7469 56.7578C39.101 56.8932 39.4083 57.0859 39.6688 57.3359V57.0469C39.6688 56.8698 39.7313 56.7448 39.8563 56.6719C39.9865 56.5938 40.2156 56.5547 40.5438 56.5547ZM49.4875 58.6094C50.2792 58.6094 50.9536 58.7812 51.5109 59.125C52.0682 59.4635 52.4875 59.9375 52.7687 60.5469C53.0552 61.151 53.1984 61.8438 53.1984 62.625C53.1984 62.8021 53.1594 62.9271 53.0812 63C53.0083 63.0729 52.8833 63.1094 52.7062 63.1094H47.6906C47.7896 63.526 48.0005 63.8464 48.3234 64.0703C48.6516 64.2891 49.0656 64.3984 49.5656 64.3984C50.3729 64.3984 51.2479 64.2552 52.1906 63.9688C52.2531 63.9479 52.3156 63.9375 52.3781 63.9375C52.4927 63.9375 52.5917 63.9896 52.675 64.0938C52.7583 64.1979 52.8339 64.375 52.9016 64.625C52.9536 64.8177 52.9797 64.9818 52.9797 65.1172C52.9797 65.2526 52.9484 65.3594 52.8859 65.4375C52.8286 65.5104 52.7323 65.5703 52.5969 65.6172C52.076 65.7891 51.5448 65.9245 51.0031 66.0234C50.4615 66.1224 49.9302 66.1719 49.4094 66.1719C48.6177 66.1719 47.9354 66.0104 47.3625 65.6875C46.7896 65.3646 46.3521 64.9193 46.05 64.3516C45.7531 63.7786 45.6047 63.125 45.6047 62.3906C45.6047 61.6615 45.7609 61.0104 46.0734 60.4375C46.3859 59.8646 46.8365 59.4167 47.425 59.0938C48.0135 58.7708 48.701 58.6094 49.4875 58.6094ZM49.4875 60.3828C48.5344 60.3828 47.9458 60.7839 47.7219 61.5859H51.1594C51.0708 61.2057 50.8807 60.9115 50.5891 60.7031C50.3026 60.4896 49.9354 60.3828 49.4875 60.3828ZM63.0172 58.6094C63.4599 58.6094 63.8766 58.7552 64.2672 59.0469C64.4964 59.2135 64.6109 59.4323 64.6109 59.7031C64.6109 59.875 64.5641 60.0781 64.4703 60.3125C64.3766 60.5469 64.2698 60.724 64.15 60.8438C64.0354 60.9635 63.913 61.0234 63.7828 61.0234C63.7099 61.0234 63.6318 61.0026 63.5484 60.9609C63.2568 60.7995 62.9547 60.7188 62.6422 60.7188C62.2411 60.7188 61.8661 60.8464 61.5172 61.1016C61.1682 61.3568 60.887 61.7083 60.6734 62.1562C60.4651 62.6042 60.3609 63.1042 60.3609 63.6562V64.3984H62.6031C62.7281 64.3984 62.8245 64.4219 62.8922 64.4688C62.9599 64.5104 63.0094 64.5885 63.0406 64.7031C63.0771 64.8177 63.0953 64.9844 63.0953 65.2031C63.0953 65.4219 63.0771 65.5885 63.0406 65.7031C63.0094 65.8177 62.9599 65.8958 62.8922 65.9375C62.8245 65.9792 62.7281 66 62.6031 66H57.2594C57.1344 66 57.038 65.9792 56.9703 65.9375C56.9026 65.8958 56.8505 65.8177 56.8141 65.7031C56.7828 65.5885 56.7672 65.4219 56.7672 65.2031C56.7672 64.9844 56.7828 64.8177 56.8141 64.7031C56.8505 64.5885 56.9026 64.5104 56.9703 64.4688C57.038 64.4219 57.1344 64.3984 57.2594 64.3984H58.4078V60.3828H57.4938C57.3688 60.3828 57.2724 60.362 57.2047 60.3203C57.137 60.2786 57.0849 60.2005 57.0484 60.0859C57.0172 59.9714 57.0016 59.8047 57.0016 59.5859C57.0016 59.3672 57.0172 59.2005 57.0484 59.0859C57.0849 58.9714 57.137 58.8932 57.2047 58.8516C57.2724 58.8047 57.3688 58.7812 57.4938 58.7812H59.6344C59.8115 58.7812 59.9365 58.8203 60.0094 58.8984C60.0875 58.9714 60.1266 59.0964 60.1266 59.2734V60.9688C60.5172 60.2135 60.9651 59.6328 61.4703 59.2266C61.9807 58.8151 62.4964 58.6094 63.0172 58.6094ZM75.7578 58.7812C75.8828 58.7812 75.9792 58.8047 76.0469 58.8516C76.1146 58.8932 76.1641 58.9714 76.1953 59.0859C76.2318 59.2005 76.25 59.3672 76.25 59.5859C76.25 59.8047 76.2318 59.9714 76.1953 60.0859C76.1641 60.2005 76.1146 60.2786 76.0469 60.3203C75.9792 60.362 75.8828 60.3828 75.7578 60.3828H75.2266L72.9375 65.6641C72.8594 65.8464 72.7318 65.9766 72.5547 66.0547C72.3776 66.1328 72.1068 66.1719 71.7422 66.1719C71.3776 66.1719 71.1094 66.1328 70.9375 66.0547C70.7656 65.9766 70.6406 65.8464 70.5625 65.6641L68.2891 60.3828H67.7734C67.6484 60.3828 67.5521 60.362 67.4844 60.3203C67.4167 60.2786 67.3646 60.2005 67.3281 60.0859C67.2969 59.9714 67.2812 59.8047 67.2812 59.5859C67.2812 59.3672 67.2969 59.2005 67.3281 59.0859C67.3646 58.9714 67.4167 58.8932 67.4844 58.8516C67.5521 58.8047 67.6484 58.7812 67.7734 58.7812H70.9297C71.0547 58.7812 71.151 58.8047 71.2188 58.8516C71.2865 58.8932 71.3359 58.9714 71.3672 59.0859C71.4036 59.2005 71.4219 59.3672 71.4219 59.5859C71.4219 59.8047 71.4036 59.9714 71.3672 60.0859C71.3359 60.2005 71.2865 60.2786 71.2188 60.3203C71.151 60.362 71.0547 60.3828 70.9297 60.3828H70.4062L71.7891 63.8281L73.1875 60.3828H72.7578C72.6328 60.3828 72.5365 60.362 72.4688 60.3203C72.401 60.2786 72.349 60.2005 72.3125 60.0859C72.2812 59.9714 72.2656 59.8047 72.2656 59.5859C72.2656 59.3672 72.2812 59.2005 72.3125 59.0859C72.349 58.9714 72.401 58.8932 72.4688 58.8516C72.5365 58.8047 72.6328 58.7812 72.7578 58.7812H75.7578ZM83.5531 58.7812C83.7302 58.7812 83.8552 58.8203 83.9281 58.8984C84.0062 58.9714 84.0453 59.0964 84.0453 59.2734V64.3984H86.2406C86.3656 64.3984 86.462 64.4219 86.5297 64.4688C86.5974 64.5104 86.6469 64.5885 86.6781 64.7031C86.7146 64.8177 86.7328 64.9844 86.7328 65.2031C86.7328 65.4219 86.7146 65.5885 86.6781 65.7031C86.6469 65.8177 86.5974 65.8958 86.5297 65.9375C86.462 65.9792 86.3656 66 86.2406 66H79.9594C79.8344 66 79.738 65.9792 79.6703 65.9375C79.6026 65.8958 79.5505 65.8177 79.5141 65.7031C79.4828 65.5885 79.4672 65.4219 79.4672 65.2031C79.4672 64.9844 79.4828 64.8177 79.5141 64.7031C79.5505 64.5885 79.6026 64.5104 79.6703 64.4688C79.738 64.4219 79.8344 64.3984 79.9594 64.3984H82.0922V60.3828H80.4281C80.3031 60.3828 80.2068 60.362 80.1391 60.3203C80.0714 60.2786 80.0193 60.2005 79.9828 60.0859C79.9516 59.9714 79.9359 59.8047 79.9359 59.5859C79.9359 59.3672 79.9516 59.2005 79.9828 59.0859C80.0193 58.9714 80.0714 58.8932 80.1391 58.8516C80.2068 58.8047 80.3031 58.7812 80.4281 58.7812H83.5531ZM83.0453 55.3516C83.4151 55.3516 83.6729 55.3906 83.8187 55.4688C83.9698 55.5417 84.0453 55.6667 84.0453 55.8438V57.125C84.0453 57.3021 83.975 57.4297 83.8344 57.5078C83.699 57.5807 83.449 57.6172 83.0844 57.6172C82.7198 57.6172 82.462 57.5807 82.3109 57.5078C82.1651 57.4297 82.0922 57.3021 82.0922 57.125V55.8438C82.0922 55.6615 82.1599 55.5339 82.2953 55.4609C82.4307 55.388 82.6807 55.3516 83.0453 55.3516ZM95.2703 58.6094C95.7443 58.6094 96.1583 58.7135 96.5125 58.9219C96.8719 59.1302 97.1479 59.4271 97.3406 59.8125C97.5333 60.1927 97.6297 60.6406 97.6297 61.1562V64.3984H98.2312C98.3562 64.3984 98.4526 64.4219 98.5203 64.4688C98.588 64.5104 98.6375 64.5885 98.6687 64.7031C98.7052 64.8177 98.7234 64.9844 98.7234 65.2031C98.7234 65.4219 98.7052 65.5885 98.6687 65.7031C98.6375 65.8177 98.588 65.8958 98.5203 65.9375C98.4526 65.9792 98.3562 66 98.2312 66H95.3094C95.1844 66 95.088 65.9792 95.0203 65.9375C94.9526 65.8958 94.9005 65.8177 94.8641 65.7031C94.8328 65.5885 94.8172 65.4219 94.8172 65.2031C94.8172 64.9844 94.8328 64.8177 94.8641 64.7031C94.9005 64.5885 94.9526 64.5104 95.0203 64.4688C95.088 64.4219 95.1844 64.3984 95.3094 64.3984H95.6766V61.6172C95.6766 61.2109 95.6062 60.9036 95.4656 60.6953C95.325 60.487 95.0906 60.3828 94.7625 60.3828C94.4604 60.3828 94.174 60.5104 93.9031 60.7656C93.6323 61.0156 93.4135 61.3516 93.2469 61.7734C93.0854 62.1953 93.0047 62.6458 93.0047 63.125V64.3984H93.3719C93.4969 64.3984 93.5932 64.4219 93.6609 64.4688C93.7286 64.5104 93.7781 64.5885 93.8094 64.7031C93.8458 64.8177 93.8641 64.9844 93.8641 65.2031C93.8641 65.4219 93.8458 65.5885 93.8094 65.7031C93.7781 65.8177 93.7286 65.8958 93.6609 65.9375C93.5932 65.9792 93.4969 66 93.3719 66H90.45C90.325 66 90.2286 65.9792 90.1609 65.9375C90.0932 65.8958 90.0411 65.8177 90.0047 65.7031C89.9734 65.5885 89.9578 65.4219 89.9578 65.2031C89.9578 64.9844 89.9734 64.8177 90.0047 64.7031C90.0411 64.5885 90.0932 64.5104 90.1609 64.4688C90.2286 64.4219 90.325 64.3984 90.45 64.3984H91.0516V60.3828H90.2937C90.1687 60.3828 90.0724 60.362 90.0047 60.3203C89.937 60.2786 89.8849 60.2005 89.8484 60.0859C89.8172 59.9714 89.8016 59.8047 89.8016 59.5859C89.8016 59.3672 89.8172 59.2005 89.8484 59.0859C89.8849 58.9714 89.937 58.8932 90.0047 58.8516C90.0724 58.8047 90.1687 58.7812 90.2937 58.7812H92.2C92.3771 58.7812 92.5021 58.8203 92.575 58.8984C92.6531 58.9714 92.6922 59.0964 92.6922 59.2734V60.4062C93.3797 59.2083 94.2391 58.6094 95.2703 58.6094ZM104.675 58.6094C105.17 58.6094 105.62 58.7135 106.027 58.9219C106.433 59.1302 106.771 59.4297 107.042 59.8203V59.2734C107.042 59.0964 107.079 58.9714 107.152 58.8984C107.23 58.8203 107.357 58.7812 107.534 58.7812H109.363C109.488 58.7812 109.584 58.8047 109.652 58.8516C109.719 58.8932 109.769 58.9714 109.8 59.0859C109.836 59.2005 109.855 59.3672 109.855 59.5859C109.855 59.8047 109.836 59.9714 109.8 60.0859C109.769 60.2005 109.719 60.2786 109.652 60.3203C109.584 60.362 109.488 60.3828 109.363 60.3828H108.683V65.9922C108.683 67.013 108.376 67.8021 107.761 68.3594C107.152 68.9219 106.238 69.2031 105.019 69.2031C104.571 69.2031 104.081 69.1589 103.55 69.0703C103.019 68.987 102.511 68.8698 102.027 68.7188C101.777 68.6406 101.652 68.4609 101.652 68.1797C101.652 68.0547 101.685 67.8724 101.753 67.6328C101.831 67.388 101.917 67.2109 102.011 67.1016C102.11 66.9922 102.224 66.9375 102.355 66.9375C102.422 66.9375 102.485 66.9479 102.542 66.9688C103.537 67.276 104.336 67.4297 104.941 67.4297C105.571 67.4297 106.027 67.2969 106.308 67.0312C106.589 66.7708 106.73 66.3724 106.73 65.8359V65.0391C106.464 65.3255 106.157 65.5469 105.808 65.7031C105.459 65.8594 105.081 65.9375 104.675 65.9375C104.003 65.9375 103.412 65.7812 102.902 65.4688C102.391 65.151 101.998 64.7161 101.722 64.1641C101.446 63.6068 101.308 62.9766 101.308 62.2734C101.308 61.5703 101.446 60.9427 101.722 60.3906C101.998 59.8333 102.391 59.3984 102.902 59.0859C103.412 58.7682 104.003 58.6094 104.675 58.6094ZM104.988 60.3828C104.503 60.3828 104.118 60.5495 103.831 60.8828C103.545 61.2109 103.402 61.6745 103.402 62.2734C103.402 62.8724 103.545 63.3385 103.831 63.6719C104.118 64 104.503 64.1641 104.988 64.1641C105.321 64.1641 105.623 64.0938 105.894 63.9531C106.17 63.8073 106.386 63.5938 106.542 63.3125C106.704 63.026 106.784 62.6797 106.784 62.2734C106.784 61.8672 106.704 61.5234 106.542 61.2422C106.386 60.9557 106.17 60.7422 105.894 60.6016C105.623 60.4557 105.321 60.3828 104.988 60.3828ZM118.822 58.6094C119.155 58.6094 119.392 58.6484 119.533 58.7266C119.673 58.7995 119.744 58.9245 119.744 59.1016V60.75C119.744 60.9271 119.686 61.0547 119.572 61.1328C119.463 61.2057 119.28 61.2422 119.025 61.2422C118.749 61.2422 118.559 61.1875 118.455 61.0781C118.147 60.75 117.796 60.5182 117.4 60.3828C117.004 60.2422 116.546 60.1719 116.025 60.1719C115.718 60.1719 115.476 60.2266 115.298 60.3359C115.127 60.4453 115.041 60.5911 115.041 60.7734C115.041 60.9922 115.233 61.1484 115.619 61.2422C115.822 61.2943 116.168 61.3438 116.658 61.3906C117.142 61.4479 117.543 61.5052 117.861 61.5625C118.184 61.6198 118.489 61.7057 118.775 61.8203C119.192 61.9922 119.517 62.2318 119.752 62.5391C119.986 62.8464 120.103 63.2526 120.103 63.7578C120.103 64.2526 119.981 64.6823 119.736 65.0469C119.496 65.4062 119.142 65.6849 118.673 65.8828C118.21 66.0755 117.65 66.1719 116.994 66.1719C116.27 66.1719 115.598 65.987 114.978 65.6172V65.6797C114.978 65.8568 114.903 65.9818 114.752 66.0547C114.601 66.1328 114.358 66.1719 114.025 66.1719C113.692 66.1719 113.455 66.1328 113.314 66.0547C113.173 65.9818 113.103 65.8568 113.103 65.6797V63.9375C113.103 63.7656 113.163 63.6406 113.283 63.5625C113.408 63.4844 113.598 63.4453 113.853 63.4453C114.171 63.4453 114.387 63.5182 114.502 63.6641C114.762 63.9922 115.095 64.2318 115.502 64.3828C115.908 64.5339 116.353 64.6094 116.838 64.6094C117.671 64.6094 118.088 64.3932 118.088 63.9609C118.088 63.8307 118.028 63.7266 117.908 63.6484C117.793 63.5703 117.621 63.5052 117.392 63.4531C117.262 63.4271 116.96 63.3802 116.486 63.3125C115.96 63.25 115.507 63.1797 115.127 63.1016C114.752 63.0182 114.41 62.8906 114.103 62.7188C113.384 62.3229 113.025 61.6979 113.025 60.8438C113.025 60.3906 113.147 59.9948 113.392 59.6562C113.637 59.3177 113.973 59.0599 114.4 58.8828C114.832 58.7005 115.317 58.6094 115.853 58.6094C116.64 58.6094 117.338 58.7995 117.947 59.1797V59.1016C117.947 58.9245 118.009 58.7995 118.134 58.7266C118.265 58.6484 118.494 58.6094 118.822 58.6094ZM139.6 58.6094C140.282 58.6094 140.879 58.776 141.389 59.1094C141.899 59.4427 142.29 59.8958 142.561 60.4688C142.832 61.0417 142.967 61.6823 142.967 62.3906C142.967 63.099 142.832 63.7396 142.561 64.3125C142.29 64.8854 141.899 65.3385 141.389 65.6719C140.879 66.0052 140.282 66.1719 139.6 66.1719C139.194 66.1719 138.816 66.0938 138.467 65.9375C138.118 65.776 137.811 65.5469 137.545 65.25V67.4297H138.85C138.975 67.4297 139.071 67.4505 139.139 67.4922C139.207 67.5339 139.256 67.612 139.287 67.7266C139.324 67.8411 139.342 68.0078 139.342 68.2266C139.342 68.4453 139.324 68.612 139.287 68.7266C139.256 68.8411 139.207 68.9193 139.139 68.9609C139.071 69.0078 138.975 69.0312 138.85 69.0312H134.912C134.787 69.0312 134.691 69.0104 134.623 68.9688C134.556 68.9271 134.504 68.849 134.467 68.7344C134.436 68.6198 134.42 68.4531 134.42 68.2344C134.42 68.0156 134.436 67.849 134.467 67.7344C134.504 67.6198 134.556 67.5391 134.623 67.4922C134.691 67.4505 134.787 67.4297 134.912 67.4297H135.592V60.3828H134.912C134.787 60.3828 134.691 60.362 134.623 60.3203C134.556 60.2786 134.504 60.2005 134.467 60.0859C134.436 59.9714 134.42 59.8047 134.42 59.5859C134.42 59.3672 134.436 59.2005 134.467 59.0859C134.504 58.9714 134.556 58.8932 134.623 58.8516C134.691 58.8047 134.787 58.7812 134.912 58.7812H136.741C136.918 58.7812 137.043 58.8203 137.116 58.8984C137.194 58.9714 137.233 59.0964 137.233 59.2734V59.9297C137.504 59.513 137.842 59.1901 138.248 58.9609C138.655 58.7266 139.105 58.6094 139.6 58.6094ZM139.287 60.3828C138.954 60.3828 138.652 60.4609 138.381 60.6172C138.11 60.7734 137.894 61.0052 137.733 61.3125C137.571 61.6146 137.491 61.974 137.491 62.3906C137.491 62.8073 137.571 63.1693 137.733 63.4766C137.894 63.7786 138.11 64.0078 138.381 64.1641C138.652 64.3203 138.954 64.3984 139.287 64.3984C139.61 64.3984 139.892 64.3177 140.131 64.1562C140.371 63.9896 140.553 63.7552 140.678 63.4531C140.808 63.151 140.873 62.7969 140.873 62.3906C140.873 61.9844 140.808 61.6302 140.678 61.3281C140.553 61.026 140.371 60.7943 140.131 60.6328C139.892 60.4661 139.61 60.3828 139.287 60.3828ZM150.231 58.6094C151.023 58.6094 151.697 58.7812 152.255 59.125C152.812 59.4635 153.231 59.9375 153.512 60.5469C153.799 61.151 153.942 61.8438 153.942 62.625C153.942 62.8021 153.903 62.9271 153.825 63C153.752 63.0729 153.627 63.1094 153.45 63.1094H148.434C148.533 63.526 148.744 63.8464 149.067 64.0703C149.395 64.2891 149.809 64.3984 150.309 64.3984C151.117 64.3984 151.992 64.2552 152.934 63.9688C152.997 63.9479 153.059 63.9375 153.122 63.9375C153.236 63.9375 153.335 63.9896 153.419 64.0938C153.502 64.1979 153.578 64.375 153.645 64.625C153.697 64.8177 153.723 64.9818 153.723 65.1172C153.723 65.2526 153.692 65.3594 153.63 65.4375C153.572 65.5104 153.476 65.5703 153.341 65.6172C152.82 65.7891 152.289 65.9245 151.747 66.0234C151.205 66.1224 150.674 66.1719 150.153 66.1719C149.361 66.1719 148.679 66.0104 148.106 65.6875C147.533 65.3646 147.096 64.9193 146.794 64.3516C146.497 63.7786 146.348 63.125 146.348 62.3906C146.348 61.6615 146.505 61.0104 146.817 60.4375C147.13 59.8646 147.58 59.4167 148.169 59.0938C148.757 58.7708 149.445 58.6094 150.231 58.6094ZM150.231 60.3828C149.278 60.3828 148.69 60.7839 148.466 61.5859H151.903C151.815 61.2057 151.624 60.9115 151.333 60.7031C151.046 60.4896 150.679 60.3828 150.231 60.3828ZM163.761 58.6094C164.204 58.6094 164.62 58.7552 165.011 59.0469C165.24 59.2135 165.355 59.4323 165.355 59.7031C165.355 59.875 165.308 60.0781 165.214 60.3125C165.12 60.5469 165.014 60.724 164.894 60.8438C164.779 60.9635 164.657 61.0234 164.527 61.0234C164.454 61.0234 164.376 61.0026 164.292 60.9609C164.001 60.7995 163.698 60.7188 163.386 60.7188C162.985 60.7188 162.61 60.8464 162.261 61.1016C161.912 61.3568 161.631 61.7083 161.417 62.1562C161.209 62.6042 161.105 63.1042 161.105 63.6562V64.3984H163.347C163.472 64.3984 163.568 64.4219 163.636 64.4688C163.704 64.5104 163.753 64.5885 163.784 64.7031C163.821 64.8177 163.839 64.9844 163.839 65.2031C163.839 65.4219 163.821 65.5885 163.784 65.7031C163.753 65.8177 163.704 65.8958 163.636 65.9375C163.568 65.9792 163.472 66 163.347 66H158.003C157.878 66 157.782 65.9792 157.714 65.9375C157.646 65.8958 157.594 65.8177 157.558 65.7031C157.527 65.5885 157.511 65.4219 157.511 65.2031C157.511 64.9844 157.527 64.8177 157.558 64.7031C157.594 64.5885 157.646 64.5104 157.714 64.4688C157.782 64.4219 157.878 64.3984 158.003 64.3984H159.152V60.3828H158.238C158.113 60.3828 158.016 60.362 157.948 60.3203C157.881 60.2786 157.829 60.2005 157.792 60.0859C157.761 59.9714 157.745 59.8047 157.745 59.5859C157.745 59.3672 157.761 59.2005 157.792 59.0859C157.829 58.9714 157.881 58.8932 157.948 58.8516C158.016 58.8047 158.113 58.7812 158.238 58.7812H160.378C160.555 58.7812 160.68 58.8203 160.753 58.8984C160.831 58.9714 160.87 59.0964 160.87 59.2734V60.9688C161.261 60.2135 161.709 59.6328 162.214 59.2266C162.724 58.8151 163.24 58.6094 163.761 58.6094ZM181.828 55.75C182.005 55.75 182.13 55.7891 182.203 55.8672C182.281 55.9401 182.32 56.0651 182.32 56.2422V59.5312C182.586 59.2344 182.893 59.0078 183.242 58.8516C183.591 58.6901 183.969 58.6094 184.375 58.6094C185.057 58.6094 185.654 58.776 186.164 59.1094C186.674 59.4427 187.065 59.8958 187.336 60.4688C187.607 61.0417 187.742 61.6823 187.742 62.3906C187.742 63.099 187.607 63.7396 187.336 64.3125C187.065 64.8854 186.674 65.3385 186.164 65.6719C185.654 66.0052 185.057 66.1719 184.375 66.1719C183.88 66.1719 183.43 66.0573 183.023 65.8281C182.617 65.5938 182.279 65.2682 182.008 64.8516V65.5078C182.008 65.6849 181.969 65.8125 181.891 65.8906C181.818 65.9635 181.693 66 181.516 66H179.766C179.641 66 179.544 65.9792 179.477 65.9375C179.409 65.8906 179.357 65.8099 179.32 65.6953C179.289 65.5807 179.273 65.4141 179.273 65.1953C179.273 64.9766 179.289 64.8099 179.32 64.6953C179.357 64.5807 179.409 64.5026 179.477 64.4609C179.544 64.4193 179.641 64.3984 179.766 64.3984H180.367V57.3516H179.609C179.484 57.3516 179.388 57.3307 179.32 57.2891C179.253 57.2474 179.201 57.1693 179.164 57.0547C179.133 56.9401 179.117 56.7734 179.117 56.5547C179.117 56.3359 179.133 56.1693 179.164 56.0547C179.201 55.9401 179.253 55.862 179.32 55.8203C179.388 55.7734 179.484 55.75 179.609 55.75H181.828ZM184.062 60.3828C183.729 60.3828 183.427 60.4609 183.156 60.6172C182.885 60.7734 182.669 61.0052 182.508 61.3125C182.346 61.6146 182.266 61.974 182.266 62.3906C182.266 62.8073 182.346 63.1693 182.508 63.4766C182.669 63.7786 182.885 64.0078 183.156 64.1641C183.427 64.3203 183.729 64.3984 184.062 64.3984C184.385 64.3984 184.667 64.3177 184.906 64.1562C185.146 63.9896 185.328 63.7552 185.453 63.4531C185.583 63.151 185.648 62.7969 185.648 62.3906C185.648 61.9844 185.583 61.6302 185.453 61.3281C185.328 61.026 185.146 60.7943 184.906 60.6328C184.667 60.4661 184.385 60.3828 184.062 60.3828ZM194.897 58.6094C195.689 58.6094 196.381 58.7708 196.975 59.0938C197.569 59.4167 198.024 59.8646 198.342 60.4375C198.665 61.0104 198.827 61.6615 198.827 62.3906C198.827 63.1198 198.665 63.7708 198.342 64.3438C198.024 64.9167 197.569 65.3646 196.975 65.6875C196.381 66.0104 195.689 66.1719 194.897 66.1719C194.105 66.1719 193.413 66.0104 192.819 65.6875C192.225 65.3646 191.767 64.9167 191.444 64.3438C191.126 63.7708 190.967 63.1198 190.967 62.3906C190.967 61.6615 191.126 61.0104 191.444 60.4375C191.767 59.8646 192.225 59.4167 192.819 59.0938C193.413 58.7708 194.105 58.6094 194.897 58.6094ZM194.897 60.3828C194.522 60.3828 194.196 60.4661 193.92 60.6328C193.644 60.7943 193.431 61.026 193.28 61.3281C193.134 61.6302 193.061 61.9844 193.061 62.3906C193.061 62.7969 193.134 63.151 193.28 63.4531C193.431 63.7552 193.644 63.9896 193.92 64.1562C194.196 64.3177 194.522 64.3984 194.897 64.3984C195.272 64.3984 195.597 64.3177 195.873 64.1562C196.149 63.9896 196.36 63.7552 196.506 63.4531C196.657 63.151 196.733 62.7969 196.733 62.3906C196.733 61.9844 196.657 61.6302 196.506 61.3281C196.36 61.026 196.149 60.7943 195.873 60.6328C195.597 60.4661 195.272 60.3828 194.897 60.3828ZM205.083 56.5547C205.328 56.5547 205.515 56.5729 205.645 56.6094C205.781 56.6406 205.874 56.6901 205.927 56.7578C205.979 56.8255 206.005 56.9219 206.005 57.0469V59.25H208.903C209.085 59.25 209.213 59.3099 209.286 59.4297C209.359 59.5495 209.395 59.7708 209.395 60.0938C209.395 60.4167 209.359 60.638 209.286 60.7578C209.213 60.8724 209.085 60.9297 208.903 60.9297H206.005V63.1016C206.005 63.9661 206.341 64.3984 207.012 64.3984C207.252 64.3984 207.531 64.3464 207.848 64.2422C208.171 64.1328 208.546 63.9818 208.973 63.7891C209.088 63.7422 209.179 63.7188 209.247 63.7188C209.356 63.7188 209.458 63.7656 209.552 63.8594C209.645 63.9479 209.734 64.0964 209.817 64.3047C209.911 64.5391 209.958 64.7292 209.958 64.875C209.958 64.9896 209.929 65.0859 209.872 65.1641C209.82 65.237 209.739 65.3021 209.63 65.3594C208.557 65.901 207.627 66.1719 206.841 66.1719C205.934 66.1719 205.242 65.9193 204.762 65.4141C204.289 64.9089 204.052 64.1719 204.052 63.2031V60.9297H202.544C202.361 60.9297 202.234 60.8724 202.161 60.7578C202.088 60.638 202.052 60.4167 202.052 60.0938C202.052 59.7708 202.088 59.5495 202.161 59.4297C202.234 59.3099 202.361 59.25 202.544 59.25H204.052V57.0469C204.052 56.8698 204.13 56.7448 204.286 56.6719C204.447 56.5938 204.713 56.5547 205.083 56.5547ZM216.277 56.5547C216.521 56.5547 216.709 56.5729 216.839 56.6094C216.974 56.6406 217.068 56.6901 217.12 56.7578C217.172 56.8255 217.198 56.9219 217.198 57.0469V59.25H220.097C220.279 59.25 220.407 59.3099 220.48 59.4297C220.553 59.5495 220.589 59.7708 220.589 60.0938C220.589 60.4167 220.553 60.638 220.48 60.7578C220.407 60.8724 220.279 60.9297 220.097 60.9297H217.198V63.1016C217.198 63.9661 217.534 64.3984 218.206 64.3984C218.446 64.3984 218.724 64.3464 219.042 64.2422C219.365 64.1328 219.74 63.9818 220.167 63.7891C220.282 63.7422 220.373 63.7188 220.441 63.7188C220.55 63.7188 220.652 63.7656 220.745 63.8594C220.839 63.9479 220.928 64.0964 221.011 64.3047C221.105 64.5391 221.152 64.7292 221.152 64.875C221.152 64.9896 221.123 65.0859 221.066 65.1641C221.014 65.237 220.933 65.3021 220.823 65.3594C219.751 65.901 218.821 66.1719 218.034 66.1719C217.128 66.1719 216.435 65.9193 215.956 65.4141C215.482 64.9089 215.245 64.1719 215.245 63.2031V60.9297H213.738C213.555 60.9297 213.428 60.8724 213.355 60.7578C213.282 60.638 213.245 60.4167 213.245 60.0938C213.245 59.7708 213.282 59.5495 213.355 59.4297C213.428 59.3099 213.555 59.25 213.738 59.25H215.245V57.0469C215.245 56.8698 215.323 56.7448 215.48 56.6719C215.641 56.5938 215.907 56.5547 216.277 56.5547ZM228.994 55.75C229.171 55.75 229.296 55.7891 229.369 55.8672C229.447 55.9401 229.486 56.0651 229.486 56.2422V64.3984H231.681C231.806 64.3984 231.903 64.4219 231.97 64.4688C232.038 64.5104 232.087 64.5885 232.119 64.7031C232.155 64.8177 232.173 64.9844 232.173 65.2031C232.173 65.4219 232.155 65.5885 232.119 65.7031C232.087 65.8177 232.038 65.8958 231.97 65.9375C231.903 65.9792 231.806 66 231.681 66H225.4C225.275 66 225.179 65.9792 225.111 65.9375C225.043 65.8958 224.991 65.8177 224.955 65.7031C224.923 65.5885 224.908 65.4219 224.908 65.2031C224.908 64.9844 224.923 64.8177 224.955 64.7031C224.991 64.5885 225.043 64.5104 225.111 64.4688C225.179 64.4219 225.275 64.3984 225.4 64.3984H227.533V57.3516H225.712C225.587 57.3516 225.491 57.3307 225.423 57.2891C225.356 57.2474 225.304 57.1693 225.267 57.0547C225.236 56.9401 225.22 56.7734 225.22 56.5547C225.22 56.3359 225.236 56.1693 225.267 56.0547C225.304 55.9401 225.356 55.862 225.423 55.8203C225.491 55.7734 225.587 55.75 225.712 55.75H228.994ZM239.781 58.6094C240.573 58.6094 241.247 58.7812 241.805 59.125C242.362 59.4635 242.781 59.9375 243.062 60.5469C243.349 61.151 243.492 61.8438 243.492 62.625C243.492 62.8021 243.453 62.9271 243.375 63C243.302 63.0729 243.177 63.1094 243 63.1094H237.984C238.083 63.526 238.294 63.8464 238.617 64.0703C238.945 64.2891 239.359 64.3984 239.859 64.3984C240.667 64.3984 241.542 64.2552 242.484 63.9688C242.547 63.9479 242.609 63.9375 242.672 63.9375C242.786 63.9375 242.885 63.9896 242.969 64.0938C243.052 64.1979 243.128 64.375 243.195 64.625C243.247 64.8177 243.273 64.9818 243.273 65.1172C243.273 65.2526 243.242 65.3594 243.18 65.4375C243.122 65.5104 243.026 65.5703 242.891 65.6172C242.37 65.7891 241.839 65.9245 241.297 66.0234C240.755 66.1224 240.224 66.1719 239.703 66.1719C238.911 66.1719 238.229 66.0104 237.656 65.6875C237.083 65.3646 236.646 64.9193 236.344 64.3516C236.047 63.7786 235.898 63.125 235.898 62.3906C235.898 61.6615 236.055 61.0104 236.367 60.4375C236.68 59.8646 237.13 59.4167 237.719 59.0938C238.307 58.7708 238.995 58.6094 239.781 58.6094ZM239.781 60.3828C238.828 60.3828 238.24 60.7839 238.016 61.5859H241.453C241.365 61.2057 241.174 60.9115 240.883 60.7031C240.596 60.4896 240.229 60.3828 239.781 60.3828Z" fill="white"/>
</svg>
