<svg width="84" height="114" viewBox="0 0 84 114" fill="none" xmlns="http://www.w3.org/2000/svg">
<path d="M15.2344 104.539C15.2344 105.789 14.7109 106.878 13.6641 107.805C12.6172 108.732 11.2214 109.195 9.47656 109.195C7.51302 109.195 5.875 108.549 4.5625 107.258C3.25521 105.961 2.60156 104.227 2.60156 102.055C2.60156 100.07 3.26823 98.4688 4.60156 97.25C5.9401 96.026 7.61458 95.4141 9.625 95.4141C10.474 95.4141 11.2031 95.5573 11.8125 95.8438C12.4219 96.125 12.9609 96.5052 13.4297 96.9844V96.1719C13.4297 95.974 13.5 95.8307 13.6406 95.7422C13.7865 95.6536 13.9557 95.6094 14.1484 95.6094C14.3203 95.6094 14.4714 95.6615 14.6016 95.7656C14.737 95.8646 14.8047 96.0052 14.8047 96.1875V99.1094C14.8047 99.2917 14.737 99.4349 14.6016 99.5391C14.4714 99.638 14.3203 99.6875 14.1484 99.6875C13.9714 99.6875 13.8411 99.6198 13.7578 99.4844C13.6745 99.3438 13.5859 99.2083 13.4922 99.0781C13.112 98.4531 12.6146 97.9323 12 97.5156C11.3906 97.099 10.599 96.8906 9.625 96.8906C8.08333 96.8906 6.86979 97.388 5.98438 98.3828C5.09896 99.3724 4.65625 100.625 4.65625 102.141C4.65625 103.849 5.08854 105.198 5.95312 106.188C6.81771 107.172 8.04167 107.664 9.625 107.664C10.724 107.664 11.6146 107.367 12.2969 106.773C12.9792 106.174 13.4167 105.38 13.6094 104.391C13.6458 104.203 13.7422 104.065 13.8984 103.977C14.0599 103.883 14.2292 103.836 14.4062 103.836C14.6094 103.836 14.7969 103.896 14.9688 104.016C15.1458 104.135 15.2344 104.31 15.2344 104.539ZM23.0766 101.047C22.087 101.047 21.3188 101.367 20.7719 102.008C20.2302 102.648 19.9594 103.464 19.9594 104.453C19.9594 105.448 20.2302 106.266 20.7719 106.906C21.3188 107.547 22.087 107.867 23.0766 107.867C24.0401 107.867 24.7849 107.542 25.3109 106.891C25.837 106.24 26.1 105.427 26.1 104.453C26.1 103.479 25.837 102.669 25.3109 102.023C24.7849 101.372 24.0401 101.047 23.0766 101.047ZM23.0766 109.195C21.6339 109.195 20.4646 108.766 19.5688 107.906C18.6729 107.047 18.225 105.896 18.225 104.453C18.225 103.005 18.6729 101.854 19.5688 101C20.4698 100.146 21.6391 99.7188 23.0766 99.7188C24.4932 99.7188 25.6391 100.154 26.5141 101.023C27.3891 101.888 27.8266 103.031 27.8266 104.453C27.8266 105.875 27.3891 107.021 26.5141 107.891C25.6391 108.76 24.4932 109.195 23.0766 109.195ZM36.7703 101.047C36.0724 101.047 35.4083 101.279 34.7781 101.742C34.1531 102.201 33.8406 102.779 33.8406 103.477V107.625H34.9813C35.1792 107.625 35.3198 107.698 35.4031 107.844C35.4917 107.984 35.5359 108.151 35.5359 108.344C35.5359 108.516 35.4865 108.669 35.3875 108.805C35.2885 108.935 35.1479 109 34.9656 109H31.3172C31.0984 109 30.937 108.938 30.8328 108.812C30.7286 108.688 30.6766 108.526 30.6766 108.328C30.6766 108.135 30.7234 107.971 30.8172 107.836C30.9161 107.695 31.0672 107.625 31.2703 107.625H32.2391V101.352L31.1219 101.625C31.1115 101.63 31.0958 101.635 31.075 101.641C31.0594 101.641 31.0385 101.641 31.0125 101.641C30.8563 101.641 30.7104 101.578 30.575 101.453C30.4396 101.323 30.3719 101.177 30.3719 101.016C30.3719 100.839 30.4083 100.698 30.4813 100.594C30.5594 100.484 30.6714 100.406 30.8172 100.359L32.9969 99.7344C33.0177 99.7344 33.0307 99.7318 33.0359 99.7266C33.0411 99.7214 33.0542 99.7188 33.075 99.7188H33.1219C33.2313 99.7188 33.325 99.7526 33.4031 99.8203C33.4813 99.8828 33.5203 99.9714 33.5203 100.086L33.6844 101.562C33.95 101.083 34.3953 100.656 35.0203 100.281C35.6505 99.9062 36.3302 99.7188 37.0594 99.7188C38.0333 99.7188 38.8068 100.005 39.3797 100.578C39.9526 101.151 40.2391 101.927 40.2391 102.906V107.625H41.2156C41.4135 107.625 41.5568 107.698 41.6453 107.844C41.7339 107.984 41.7781 108.151 41.7781 108.344C41.7781 108.516 41.726 108.669 41.6219 108.805C41.5229 108.935 41.3823 109 41.2 109H37.3953C37.1766 109 37.0151 108.938 36.9109 108.812C36.8068 108.688 36.7547 108.526 36.7547 108.328C36.7547 108.135 36.8016 107.971 36.8953 107.836C36.9943 107.695 37.1453 107.625 37.3484 107.625H38.6609V103.047C38.6609 102.427 38.5021 101.94 38.1844 101.586C37.8719 101.227 37.4005 101.047 36.7703 101.047ZM48.1125 107.953C48.6125 107.953 48.9354 107.812 49.0812 107.531C49.2271 107.25 49.4484 107.109 49.7453 107.109C49.9068 107.109 50.0396 107.169 50.1437 107.289C50.2531 107.404 50.3078 107.542 50.3078 107.703C50.3078 108.167 50.0292 108.534 49.4719 108.805C48.9146 109.076 48.3729 109.211 47.8469 109.211C47.2375 109.211 46.7036 108.997 46.2453 108.57C45.787 108.138 45.5578 107.635 45.5578 107.062V101.531H44.3859C44.1672 101.531 44.0057 101.469 43.9016 101.344C43.7974 101.219 43.7453 101.057 43.7453 100.859C43.7453 100.667 43.7922 100.5 43.8859 100.359C43.9849 100.219 44.1359 100.148 44.3391 100.148H45.5578C45.5578 99.6745 45.5995 99.0417 45.6828 98.25C45.7661 97.4583 46.0318 97.0625 46.4797 97.0625C46.6099 97.0625 46.7219 97.0781 46.8156 97.1094C46.9146 97.1406 47.0109 97.1901 47.1047 97.2578V97.4141C47.1047 97.4818 47.1073 97.5599 47.1125 97.6484C47.1177 97.7318 47.1203 97.8073 47.1203 97.875V100.148H49.1672C49.3651 100.148 49.5083 100.221 49.5969 100.367C49.6854 100.513 49.7297 100.682 49.7297 100.875C49.7297 101.047 49.6776 101.201 49.5734 101.336C49.4745 101.466 49.3339 101.531 49.1516 101.531H47.1203V106.82C47.1203 107.227 47.2141 107.518 47.4016 107.695C47.5891 107.867 47.826 107.953 48.1125 107.953ZM62.6891 107.688C62.6891 108.104 62.413 108.461 61.8609 108.758C61.3089 109.049 60.8557 109.195 60.5016 109.195C60.0745 109.195 59.7307 109.091 59.4703 108.883C59.2099 108.674 59.0328 108.357 58.9391 107.93C58.5589 108.367 58.0615 108.693 57.4469 108.906C56.8323 109.115 56.176 109.219 55.4781 109.219C54.6813 109.219 54.0146 108.977 53.4781 108.492C52.9469 108.008 52.6813 107.378 52.6813 106.602C52.6813 105.206 53.3635 104.352 54.7281 104.039C56.0927 103.727 57.426 103.513 58.7281 103.398V102.133C58.7281 101.727 58.5536 101.445 58.2047 101.289C57.8557 101.128 57.4807 101.047 57.0797 101.047C56.3505 101.047 55.7958 101.125 55.4156 101.281C55.0406 101.438 54.6031 101.674 54.1031 101.992C54.0563 102.018 54.0094 102.039 53.9625 102.055C53.9208 102.07 53.8766 102.078 53.8297 102.078C53.6526 102.078 53.4938 101.995 53.3531 101.828C53.2125 101.661 53.1422 101.487 53.1422 101.305C53.1422 100.68 53.5979 100.26 54.5094 100.047C55.426 99.8281 56.2073 99.7188 56.8531 99.7188C58.1708 99.7188 59.0719 100 59.5563 100.562C60.0406 101.12 60.2828 102.049 60.2828 103.352V107.289C60.2828 107.451 60.3089 107.586 60.3609 107.695C60.4182 107.799 60.5068 107.852 60.6266 107.852C60.8609 107.852 61.124 107.711 61.4156 107.43C61.7073 107.148 61.9469 107.008 62.1344 107.008C62.249 107.008 62.3688 107.086 62.4938 107.242C62.624 107.393 62.6891 107.542 62.6891 107.688ZM58.7281 104.57C57.9052 104.659 56.9703 104.794 55.9234 104.977C54.8818 105.154 54.3609 105.68 54.3609 106.555C54.3609 106.997 54.525 107.328 54.8531 107.547C55.1813 107.76 55.5719 107.867 56.025 107.867C56.5667 107.867 57.0615 107.768 57.5094 107.57C57.9625 107.367 58.3688 107.125 58.7281 106.844V104.57ZM69.9375 99.7188C70.724 99.7188 71.4792 99.8802 72.2031 100.203C72.9323 100.521 73.2969 101.167 73.2969 102.141C73.2969 102.448 73.237 102.708 73.1172 102.922C72.9974 103.13 72.8047 103.234 72.5391 103.234C72.1484 103.234 71.8984 103.008 71.7891 102.555C71.6797 102.096 71.5755 101.659 71.4766 101.242C71.2214 101.174 70.9688 101.125 70.7188 101.094C70.474 101.062 70.2318 101.047 69.9922 101.047C68.987 101.047 68.1458 101.341 67.4688 101.93C66.7917 102.513 66.4531 103.318 66.4531 104.344C66.4531 105.453 66.7839 106.281 67.4453 106.828C68.112 107.37 68.8698 107.641 69.7188 107.641C70.1615 107.641 70.6068 107.557 71.0547 107.391C71.5026 107.219 71.9115 106.969 72.2812 106.641C72.3542 106.578 72.4323 106.529 72.5156 106.492C72.599 106.456 72.6849 106.438 72.7734 106.438C72.987 106.438 73.1641 106.492 73.3047 106.602C73.4505 106.706 73.5234 106.854 73.5234 107.047C73.5234 107.714 73.0755 108.24 72.1797 108.625C71.2839 109.005 70.4948 109.195 69.8125 109.195C68.3177 109.195 67.0938 108.766 66.1406 107.906C65.1927 107.042 64.7188 105.854 64.7188 104.344C64.7188 102.865 65.237 101.724 66.2734 100.922C67.3151 100.12 68.5365 99.7188 69.9375 99.7188ZM80.0219 107.953C80.5219 107.953 80.8448 107.812 80.9906 107.531C81.1365 107.25 81.3578 107.109 81.6547 107.109C81.8161 107.109 81.949 107.169 82.0531 107.289C82.1625 107.404 82.2172 107.542 82.2172 107.703C82.2172 108.167 81.9385 108.534 81.3812 108.805C80.824 109.076 80.2823 109.211 79.7562 109.211C79.1469 109.211 78.613 108.997 78.1547 108.57C77.6964 108.138 77.4672 107.635 77.4672 107.062V101.531H76.2953C76.0766 101.531 75.9151 101.469 75.8109 101.344C75.7068 101.219 75.6547 101.057 75.6547 100.859C75.6547 100.667 75.7016 100.5 75.7953 100.359C75.8943 100.219 76.0453 100.148 76.2484 100.148H77.4672C77.4672 99.6745 77.5089 99.0417 77.5922 98.25C77.6755 97.4583 77.9411 97.0625 78.3891 97.0625C78.5193 97.0625 78.6312 97.0781 78.725 97.1094C78.824 97.1406 78.9203 97.1901 79.0141 97.2578V97.4141C79.0141 97.4818 79.0167 97.5599 79.0219 97.6484C79.0271 97.7318 79.0297 97.8073 79.0297 97.875V100.148H81.0766C81.2745 100.148 81.4177 100.221 81.5062 100.367C81.5948 100.513 81.6391 100.682 81.6391 100.875C81.6391 101.047 81.587 101.201 81.4828 101.336C81.3839 101.466 81.2432 101.531 81.0609 101.531H79.0297V106.82C79.0297 107.227 79.1234 107.518 79.3109 107.695C79.4984 107.867 79.7354 107.953 80.0219 107.953Z" fill="white"/>
<g filter="url(#filter0_d)">
<path fill-rule="evenodd" clip-rule="evenodd" d="M42 81C64.0914 81 82 63.0914 82 41C82 18.9086 64.0914 1 42 1C19.9086 1 2 18.9086 2 41C2 63.0914 19.9086 81 42 81ZM50.6641 43.453L54.2924 47.0814C55.1996 47.9885 55.1996 49.5435 54.2924 50.5802L51.8303 53.0423C49.2386 55.634 42.3706 52.7831 36.2802 46.6926C30.1896 40.6021 27.4684 33.7341 29.9305 31.1424L32.3926 28.6803C33.2997 27.7732 34.8547 27.7732 35.8914 28.6803L39.5198 32.3087C40.8156 33.6046 40.2972 35.8075 38.6127 36.3258C37.4464 36.7145 36.6689 38.0104 37.0576 39.1767C37.7056 41.898 41.2043 45.2672 43.7961 45.9151C44.9623 46.1743 46.2582 45.5264 46.6469 44.3601C47.1653 42.6755 49.3682 42.1572 50.6641 43.453Z" fill="white"/>
</g>
<defs>
<filter id="filter0_d" x="0" y="0" width="84" height="84" filterUnits="userSpaceOnUse" color-interpolation-filters="sRGB">
<feFlood flood-opacity="0" result="BackgroundImageFix"/>
<feColorMatrix in="SourceAlpha" type="matrix" values="0 0 0 0 0 0 0 0 0 0 0 0 0 0 0 0 0 0 127 0"/>
<feOffset dy="1"/>
<feGaussianBlur stdDeviation="1"/>
<feColorMatrix type="matrix" values="0 0 0 0 0 0 0 0 0 0 0 0 0 0 0 0 0 0 0.1 0"/>
<feBlend mode="normal" in2="BackgroundImageFix" result="effect1_dropShadow"/>
<feBlend mode="normal" in="SourceGraphic" in2="effect1_dropShadow" result="shape"/>
</filter>
</defs>
</svg>
