<svg width="311" height="187" viewBox="0 0 311 187" fill="none" xmlns="http://www.w3.org/2000/svg">
<path d="M14.4238 2.77148C14.7428 2.77148 14.9707 2.83984 15.1074 2.97656C15.2441 3.11328 15.3125 3.34115 15.3125 3.66016V7.78906C15.3125 8.09896 15.1803 8.32227 14.916 8.45898C14.6517 8.58659 14.2279 8.65039 13.6445 8.65039C13.0794 8.65039 12.6921 8.58659 12.4824 8.45898C12.2728 8.33138 12.168 8.10807 12.168 7.78906V5.71094H6.83594V9.88086H10.9922C11.3112 9.88086 11.5345 9.98568 11.6621 10.1953C11.7897 10.4049 11.8535 10.7923 11.8535 11.3574C11.8535 11.9225 11.7897 12.3099 11.6621 12.5195C11.5345 12.7201 11.3112 12.8203 10.9922 12.8203H6.83594V16.1973H9.80273C10.0215 16.1973 10.1901 16.2383 10.3086 16.3203C10.4271 16.3932 10.5137 16.5299 10.5684 16.7305C10.6322 16.931 10.6641 17.2227 10.6641 17.6055C10.6641 17.9883 10.6322 18.2799 10.5684 18.4805C10.5137 18.681 10.4271 18.8177 10.3086 18.8906C10.1901 18.9635 10.0215 19 9.80273 19H1.68164C1.46289 19 1.29427 18.9635 1.17578 18.8906C1.05729 18.8177 0.966146 18.681 0.902344 18.4805C0.847656 18.2799 0.820312 17.9883 0.820312 17.6055C0.820312 17.2227 0.847656 16.931 0.902344 16.7305C0.966146 16.5299 1.05729 16.3932 1.17578 16.3203C1.29427 16.2383 1.46289 16.1973 1.68164 16.1973H3.41797V5.57422H1.68164C1.46289 5.57422 1.29427 5.53776 1.17578 5.46484C1.05729 5.39193 0.966146 5.25521 0.902344 5.05469C0.847656 4.85417 0.820312 4.5625 0.820312 4.17969C0.820312 3.79688 0.847656 3.50521 0.902344 3.30469C0.966146 3.10417 1.05729 2.96745 1.17578 2.89453C1.29427 2.8125 1.46289 2.77148 1.68164 2.77148H14.4238ZM27.9836 6.06641C29.369 6.06641 30.5812 6.34896 31.6203 6.91406C32.6594 7.47917 33.4569 8.26302 34.0129 9.26562C34.578 10.2682 34.8605 11.4076 34.8605 12.6836C34.8605 13.9596 34.578 15.099 34.0129 16.1016C33.4569 17.1042 32.6594 17.888 31.6203 18.4531C30.5812 19.0182 29.369 19.3008 27.9836 19.3008C26.5982 19.3008 25.3859 19.0182 24.3469 18.4531C23.3078 17.888 22.5057 17.1042 21.9406 16.1016C21.3846 15.099 21.1066 13.9596 21.1066 12.6836C21.1066 11.4076 21.3846 10.2682 21.9406 9.26562C22.5057 8.26302 23.3078 7.47917 24.3469 6.91406C25.3859 6.34896 26.5982 6.06641 27.9836 6.06641ZM27.9836 9.16992C27.3273 9.16992 26.7577 9.31576 26.2746 9.60742C25.7915 9.88997 25.4178 10.2956 25.1535 10.8242C24.8983 11.3529 24.7707 11.9727 24.7707 12.6836C24.7707 13.3945 24.8983 14.0143 25.1535 14.543C25.4178 15.0716 25.7915 15.4818 26.2746 15.7734C26.7577 16.056 27.3273 16.1973 27.9836 16.1973C28.6398 16.1973 29.2095 16.056 29.6926 15.7734C30.1757 15.4818 30.5448 15.0716 30.8 14.543C31.0643 14.0143 31.1965 13.3945 31.1965 12.6836C31.1965 11.9727 31.0643 11.3529 30.8 10.8242C30.5448 10.2956 30.1757 9.88997 29.6926 9.60742C29.2095 9.31576 28.6398 9.16992 27.9836 9.16992ZM51.852 6.06641C52.6267 6.06641 53.3559 6.32161 54.0395 6.83203C54.4405 7.1237 54.641 7.50651 54.641 7.98047C54.641 8.28125 54.559 8.63672 54.3949 9.04688C54.2309 9.45703 54.044 9.76693 53.8344 9.97656C53.6339 10.1862 53.4197 10.291 53.1918 10.291C53.0642 10.291 52.9275 10.2546 52.7816 10.1816C52.2712 9.89909 51.7426 9.75781 51.1957 9.75781C50.4939 9.75781 49.8376 9.98112 49.227 10.4277C48.6163 10.8743 48.1241 11.4896 47.7504 12.2734C47.3858 13.0573 47.2035 13.9323 47.2035 14.8984V16.1973H51.1273C51.3461 16.1973 51.5147 16.2383 51.6332 16.3203C51.7517 16.3932 51.8383 16.5299 51.893 16.7305C51.9568 16.931 51.9887 17.2227 51.9887 17.6055C51.9887 17.9883 51.9568 18.2799 51.893 18.4805C51.8383 18.681 51.7517 18.8177 51.6332 18.8906C51.5147 18.9635 51.3461 19 51.1273 19H41.7758C41.557 19 41.3884 18.9635 41.2699 18.8906C41.1514 18.8177 41.0603 18.681 40.9965 18.4805C40.9418 18.2799 40.9145 17.9883 40.9145 17.6055C40.9145 17.2227 40.9418 16.931 40.9965 16.7305C41.0603 16.5299 41.1514 16.3932 41.2699 16.3203C41.3884 16.2383 41.557 16.1973 41.7758 16.1973H43.7855V9.16992H42.1859C41.9672 9.16992 41.7986 9.13346 41.6801 9.06055C41.5616 8.98763 41.4704 8.85091 41.4066 8.65039C41.352 8.44987 41.3246 8.1582 41.3246 7.77539C41.3246 7.39258 41.352 7.10091 41.4066 6.90039C41.4704 6.69987 41.5616 6.56315 41.6801 6.49023C41.7986 6.4082 41.9672 6.36719 42.1859 6.36719H45.932C46.2419 6.36719 46.4607 6.43555 46.5883 6.57227C46.725 6.69987 46.7934 6.91862 46.7934 7.22852V10.1953C47.477 8.8737 48.2608 7.85742 49.1449 7.14648C50.0381 6.42643 50.9405 6.06641 51.852 6.06641ZM86.6004 6.06641C88.6056 6.06641 90.0548 6.49935 90.948 7.36523C91.8413 8.23112 92.2879 9.4707 92.2879 11.084V15.0352C92.2879 15.3997 92.3654 15.6868 92.5203 15.8965C92.6753 16.097 92.8986 16.1973 93.1902 16.1973H93.6141C93.8328 16.1973 94.0014 16.2383 94.1199 16.3203C94.2384 16.3932 94.325 16.5299 94.3797 16.7305C94.4435 16.931 94.4754 17.2227 94.4754 17.6055C94.4754 17.9883 94.4435 18.2799 94.3797 18.4805C94.325 18.681 94.2384 18.8177 94.1199 18.8906C94.0014 18.9635 93.8328 19 93.6141 19H92.0828C91.5177 19 91.0164 18.8861 90.5789 18.6582C90.1505 18.4212 89.8224 18.0521 89.5945 17.5508C88.8745 18.1068 88.1134 18.5397 87.3113 18.8496C86.5092 19.1504 85.6844 19.3008 84.8367 19.3008C83.8068 19.3008 82.9181 19.1276 82.1707 18.7812C81.4233 18.4258 80.8491 17.9245 80.448 17.2773C80.0561 16.6211 79.8602 15.8509 79.8602 14.9668C79.8602 13.6908 80.3113 12.7018 81.2137 12C82.116 11.2982 83.3784 10.9473 85.0008 10.9473C86.213 10.9473 87.5027 11.084 88.8699 11.3574V10.9609C88.8699 10.3503 88.6785 9.89909 88.2957 9.60742C87.9129 9.31576 87.2384 9.16992 86.2723 9.16992C85.7345 9.16992 85.1329 9.23828 84.4676 9.375C83.8113 9.5026 83.1596 9.67578 82.5125 9.89453C82.3575 9.9401 82.2254 9.96289 82.116 9.96289C81.8881 9.96289 81.6831 9.88086 81.5008 9.7168C81.3276 9.54362 81.1681 9.25651 81.0223 8.85547C80.8855 8.45443 80.8172 8.1263 80.8172 7.87109C80.8172 7.40625 81.0268 7.09635 81.4461 6.94141C82.2573 6.64974 83.1186 6.43099 84.0301 6.28516C84.9415 6.13932 85.7983 6.06641 86.6004 6.06641ZM85.3426 13.7637C84.7046 13.7637 84.2169 13.8776 83.8797 14.1055C83.5516 14.3333 83.3875 14.666 83.3875 15.1035C83.3875 15.5319 83.547 15.86 83.866 16.0879C84.1941 16.3066 84.6635 16.416 85.2742 16.416C85.9031 16.416 86.5229 16.293 87.1336 16.0469C87.7534 15.7917 88.3322 15.4453 88.8699 15.0078V14.1328C87.6668 13.8867 86.491 13.7637 85.3426 13.7637ZM108.295 6.06641C109.124 6.06641 109.849 6.2487 110.469 6.61328C111.098 6.97786 111.581 7.4974 111.918 8.17188C112.255 8.83724 112.424 9.62109 112.424 10.5234V16.1973H113.477C113.695 16.1973 113.864 16.2383 113.982 16.3203C114.101 16.3932 114.188 16.5299 114.242 16.7305C114.306 16.931 114.338 17.2227 114.338 17.6055C114.338 17.9883 114.306 18.2799 114.242 18.4805C114.188 18.681 114.101 18.8177 113.982 18.8906C113.864 18.9635 113.695 19 113.477 19H108.363C108.145 19 107.976 18.9635 107.857 18.8906C107.739 18.8177 107.648 18.681 107.584 18.4805C107.529 18.2799 107.502 17.9883 107.502 17.6055C107.502 17.2227 107.529 16.931 107.584 16.7305C107.648 16.5299 107.739 16.3932 107.857 16.3203C107.976 16.2383 108.145 16.1973 108.363 16.1973H109.006V11.3301C109.006 10.6191 108.883 10.0814 108.637 9.7168C108.391 9.35221 107.98 9.16992 107.406 9.16992C106.878 9.16992 106.376 9.39323 105.902 9.83984C105.428 10.2773 105.046 10.8652 104.754 11.6035C104.471 12.3418 104.33 13.1302 104.33 13.9688V16.1973H104.973C105.191 16.1973 105.36 16.2383 105.479 16.3203C105.597 16.3932 105.684 16.5299 105.738 16.7305C105.802 16.931 105.834 17.2227 105.834 17.6055C105.834 17.9883 105.802 18.2799 105.738 18.4805C105.684 18.681 105.597 18.8177 105.479 18.8906C105.36 18.9635 105.191 19 104.973 19H99.8594C99.6406 19 99.472 18.9635 99.3535 18.8906C99.235 18.8177 99.1439 18.681 99.0801 18.4805C99.0254 18.2799 98.998 17.9883 98.998 17.6055C98.998 17.2227 99.0254 16.931 99.0801 16.7305C99.1439 16.5299 99.235 16.3932 99.3535 16.3203C99.472 16.2383 99.6406 16.1973 99.8594 16.1973H100.912V9.16992H99.5859C99.3672 9.16992 99.1986 9.13346 99.0801 9.06055C98.9616 8.98763 98.8704 8.85091 98.8066 8.65039C98.752 8.44987 98.7246 8.1582 98.7246 7.77539C98.7246 7.39258 98.752 7.10091 98.8066 6.90039C98.8704 6.69987 98.9616 6.56315 99.0801 6.49023C99.1986 6.4082 99.3672 6.36719 99.5859 6.36719H102.922C103.232 6.36719 103.451 6.43555 103.578 6.57227C103.715 6.69987 103.783 6.91862 103.783 7.22852V9.21094C104.986 7.11458 106.49 6.06641 108.295 6.06641ZM132.915 6.36719C133.134 6.36719 133.303 6.4082 133.421 6.49023C133.54 6.56315 133.626 6.69987 133.681 6.90039C133.745 7.10091 133.777 7.39258 133.777 7.77539C133.777 8.1582 133.745 8.44987 133.681 8.65039C133.626 8.85091 133.54 8.98763 133.421 9.06055C133.303 9.13346 133.134 9.16992 132.915 9.16992H132.04L126.804 19.7793C126.166 21.0645 125.555 22.0397 124.972 22.7051C124.398 23.3796 123.737 23.8535 122.989 24.127C122.251 24.4095 121.294 24.569 120.118 24.6055C119.79 24.6146 119.54 24.4915 119.366 24.2363C119.202 23.9811 119.12 23.5163 119.12 22.8418C119.12 22.377 119.18 22.0443 119.298 21.8438C119.426 21.6432 119.603 21.5339 119.831 21.5156C120.551 21.4701 121.135 21.3333 121.581 21.1055C122.037 20.8776 122.447 20.513 122.812 20.0117C123.185 19.5195 123.632 18.7721 124.152 17.7695L119.968 9.16992H118.943C118.724 9.16992 118.555 9.13346 118.437 9.06055C118.318 8.98763 118.227 8.85091 118.163 8.65039C118.109 8.44987 118.081 8.1582 118.081 7.77539C118.081 7.39258 118.109 7.10091 118.163 6.90039C118.227 6.69987 118.318 6.56315 118.437 6.49023C118.555 6.4082 118.724 6.36719 118.943 6.36719H124.466C124.685 6.36719 124.853 6.4082 124.972 6.49023C125.09 6.56315 125.177 6.69987 125.232 6.90039C125.295 7.10091 125.327 7.39258 125.327 7.77539C125.327 8.1582 125.295 8.44987 125.232 8.65039C125.177 8.85091 125.09 8.98763 124.972 9.06055C124.853 9.13346 124.685 9.16992 124.466 9.16992H123.646L126.025 14.3652L128.404 9.16992H127.665C127.446 9.16992 127.278 9.13346 127.159 9.06055C127.041 8.98763 126.95 8.85091 126.886 8.65039C126.831 8.44987 126.804 8.1582 126.804 7.77539C126.804 7.39258 126.831 7.10091 126.886 6.90039C126.95 6.69987 127.041 6.56315 127.159 6.49023C127.278 6.4082 127.446 6.36719 127.665 6.36719H132.915ZM165.107 2.4707C166.602 2.4707 167.919 2.79427 169.058 3.44141C170.198 4.08854 171.077 5.00456 171.697 6.18945C172.326 7.37435 172.64 8.75521 172.64 10.332C172.64 11.9089 172.326 13.2943 171.697 14.4883C171.077 15.6732 170.198 16.5892 169.058 17.2363C167.919 17.8835 166.602 18.207 165.107 18.207C164.879 18.207 164.674 18.1979 164.492 18.1797L163.043 19.6289C163.754 19.3646 164.464 19.2324 165.175 19.2324C165.458 19.2324 165.754 19.2507 166.064 19.2871C166.383 19.3327 166.684 19.3828 166.966 19.4375C167.222 19.4831 167.481 19.5241 167.746 19.5605C168.019 19.6061 168.274 19.6289 168.511 19.6289C169.222 19.6289 169.92 19.4466 170.603 19.082C170.712 19.0273 170.826 19 170.945 19C171.145 19 171.341 19.082 171.533 19.2461C171.733 19.4102 171.902 19.6335 172.039 19.916C172.212 20.2624 172.298 20.5768 172.298 20.8594C172.298 21.2422 172.139 21.5521 171.82 21.7891C171.3 22.1719 170.79 22.4408 170.289 22.5957C169.796 22.7598 169.291 22.8418 168.771 22.8418C168.443 22.8418 168.106 22.8145 167.759 22.7598C167.422 22.7142 167.021 22.6458 166.556 22.5547C165.964 22.4453 165.476 22.3633 165.093 22.3086C164.72 22.263 164.323 22.2402 163.904 22.2402C162.828 22.2402 161.785 22.4544 160.773 22.8828C160.718 22.9102 160.655 22.9238 160.582 22.9238C160.408 22.9238 160.226 22.8418 160.035 22.6777C159.843 22.5137 159.679 22.304 159.543 22.0488C159.342 21.6934 159.242 21.3561 159.242 21.0371C159.242 20.7637 159.319 20.5495 159.474 20.3945L162.045 17.6602C160.65 17.1042 159.556 16.1882 158.763 14.9121C157.97 13.6361 157.574 12.1094 157.574 10.332C157.574 8.75521 157.884 7.37435 158.504 6.18945C159.132 5.00456 160.017 4.08854 161.156 3.44141C162.295 2.79427 163.612 2.4707 165.107 2.4707ZM165.107 5.57422C163.849 5.57422 162.888 5.98893 162.222 6.81836C161.566 7.64779 161.238 8.81901 161.238 10.332C161.238 11.8451 161.566 13.0208 162.222 13.8594C162.888 14.6888 163.849 15.1035 165.107 15.1035C166.365 15.1035 167.322 14.6888 167.978 13.8594C168.643 13.0208 168.976 11.8451 168.976 10.332C168.976 8.81901 168.643 7.64779 167.978 6.81836C167.322 5.98893 166.365 5.57422 165.107 5.57422ZM189.55 6.36719C189.86 6.36719 190.078 6.43555 190.206 6.57227C190.343 6.69987 190.411 6.91862 190.411 7.22852V16.1973H191.464C191.682 16.1973 191.851 16.2337 191.97 16.3066C192.088 16.3796 192.175 16.5163 192.229 16.7168C192.293 16.9173 192.325 17.209 192.325 17.5918C192.325 17.9746 192.293 18.2663 192.229 18.4668C192.175 18.6673 192.088 18.8086 191.97 18.8906C191.851 18.9635 191.682 19 191.464 19H188.401C188.091 19 187.868 18.9362 187.731 18.8086C187.604 18.6719 187.54 18.4486 187.54 18.1387V16.1562C186.337 18.2526 184.833 19.3008 183.028 19.3008C182.199 19.3008 181.47 19.1185 180.841 18.7539C180.221 18.3893 179.742 17.8743 179.405 17.209C179.068 16.5345 178.899 15.7461 178.899 14.8438V9.16992H177.846C177.628 9.16992 177.459 9.13346 177.341 9.06055C177.222 8.97852 177.131 8.83724 177.067 8.63672C177.012 8.4362 176.985 8.14453 176.985 7.76172C176.985 7.37891 177.012 7.08724 177.067 6.88672C177.131 6.6862 177.222 6.54948 177.341 6.47656C177.459 6.40365 177.628 6.36719 177.846 6.36719H181.456C181.766 6.36719 181.985 6.43555 182.112 6.57227C182.249 6.69987 182.317 6.91862 182.317 7.22852V14.0371C182.317 14.748 182.44 15.2858 182.686 15.6504C182.932 16.015 183.343 16.1973 183.917 16.1973C184.445 16.1973 184.947 15.9785 185.421 15.541C185.895 15.0944 186.273 14.502 186.555 13.7637C186.847 13.0254 186.993 12.237 186.993 11.3984V9.16992H185.53C185.311 9.16992 185.143 9.13346 185.024 9.06055C184.906 8.97852 184.815 8.83724 184.751 8.63672C184.696 8.4362 184.669 8.14453 184.669 7.76172C184.669 7.37891 184.696 7.08724 184.751 6.88672C184.815 6.6862 184.906 6.54948 185.024 6.47656C185.143 6.40365 185.311 6.36719 185.53 6.36719H189.55ZM204.477 6.06641C205.862 6.06641 207.042 6.36719 208.018 6.96875C208.993 7.5612 209.727 8.39062 210.219 9.45703C210.72 10.5143 210.971 11.7266 210.971 13.0938C210.971 13.4036 210.902 13.6224 210.766 13.75C210.638 13.8776 210.419 13.9414 210.109 13.9414H201.332C201.505 14.6706 201.874 15.2311 202.439 15.623C203.014 16.0059 203.738 16.1973 204.613 16.1973C206.026 16.1973 207.557 15.9466 209.207 15.4453C209.316 15.4089 209.426 15.3906 209.535 15.3906C209.736 15.3906 209.909 15.4818 210.055 15.6641C210.201 15.8464 210.333 16.1562 210.451 16.5938C210.542 16.931 210.588 17.2181 210.588 17.4551C210.588 17.6921 210.533 17.8789 210.424 18.0156C210.324 18.1432 210.155 18.248 209.918 18.3301C209.007 18.6309 208.077 18.8678 207.129 19.041C206.181 19.2142 205.251 19.3008 204.34 19.3008C202.954 19.3008 201.76 19.0182 200.758 18.4531C199.755 17.888 198.99 17.1087 198.461 16.1152C197.941 15.1126 197.682 13.9688 197.682 12.6836C197.682 11.4076 197.955 10.2682 198.502 9.26562C199.049 8.26302 199.837 7.47917 200.867 6.91406C201.897 6.34896 203.1 6.06641 204.477 6.06641ZM204.477 9.16992C202.809 9.16992 201.779 9.87174 201.387 11.2754H207.402C207.247 10.61 206.915 10.0951 206.404 9.73047C205.903 9.35677 205.26 9.16992 204.477 9.16992ZM228.154 6.06641C228.928 6.06641 229.657 6.32161 230.341 6.83203C230.742 7.1237 230.943 7.50651 230.943 7.98047C230.943 8.28125 230.861 8.63672 230.696 9.04688C230.532 9.45703 230.346 9.76693 230.136 9.97656C229.935 10.1862 229.721 10.291 229.493 10.291C229.366 10.291 229.229 10.2546 229.083 10.1816C228.573 9.89909 228.044 9.75781 227.497 9.75781C226.795 9.75781 226.139 9.98112 225.529 10.4277C224.918 10.8743 224.426 11.4896 224.052 12.2734C223.687 13.0573 223.505 13.9323 223.505 14.8984V16.1973H227.429C227.648 16.1973 227.816 16.2383 227.935 16.3203C228.053 16.3932 228.14 16.5299 228.195 16.7305C228.258 16.931 228.29 17.2227 228.29 17.6055C228.29 17.9883 228.258 18.2799 228.195 18.4805C228.14 18.681 228.053 18.8177 227.935 18.8906C227.816 18.9635 227.648 19 227.429 19H218.077C217.859 19 217.69 18.9635 217.571 18.8906C217.453 18.8177 217.362 18.681 217.298 18.4805C217.243 18.2799 217.216 17.9883 217.216 17.6055C217.216 17.2227 217.243 16.931 217.298 16.7305C217.362 16.5299 217.453 16.3932 217.571 16.3203C217.69 16.2383 217.859 16.1973 218.077 16.1973H220.087V9.16992H218.488C218.269 9.16992 218.1 9.13346 217.982 9.06055C217.863 8.98763 217.772 8.85091 217.708 8.65039C217.654 8.44987 217.626 8.1582 217.626 7.77539C217.626 7.39258 217.654 7.10091 217.708 6.90039C217.772 6.69987 217.863 6.56315 217.982 6.49023C218.1 6.4082 218.269 6.36719 218.488 6.36719H222.234C222.543 6.36719 222.762 6.43555 222.89 6.57227C223.027 6.69987 223.095 6.91862 223.095 7.22852V10.1953C223.779 8.8737 224.562 7.85742 225.446 7.14648C226.34 6.42643 227.242 6.06641 228.154 6.06641ZM244.502 6.36719C244.812 6.36719 245.031 6.43555 245.159 6.57227C245.295 6.69987 245.364 6.91862 245.364 7.22852V16.1973H249.205C249.424 16.1973 249.593 16.2383 249.711 16.3203C249.83 16.3932 249.916 16.5299 249.971 16.7305C250.035 16.931 250.067 17.2227 250.067 17.6055C250.067 17.9883 250.035 18.2799 249.971 18.4805C249.916 18.681 249.83 18.8177 249.711 18.8906C249.593 18.9635 249.424 19 249.205 19H238.213C237.995 19 237.826 18.9635 237.707 18.8906C237.589 18.8177 237.498 18.681 237.434 18.4805C237.379 18.2799 237.352 17.9883 237.352 17.6055C237.352 17.2227 237.379 16.931 237.434 16.7305C237.498 16.5299 237.589 16.3932 237.707 16.3203C237.826 16.2383 237.995 16.1973 238.213 16.1973H241.946V9.16992H239.034C238.815 9.16992 238.646 9.13346 238.528 9.06055C238.409 8.98763 238.318 8.85091 238.254 8.65039C238.2 8.44987 238.172 8.1582 238.172 7.77539C238.172 7.39258 238.2 7.10091 238.254 6.90039C238.318 6.69987 238.409 6.56315 238.528 6.49023C238.646 6.4082 238.815 6.36719 239.034 6.36719H244.502ZM243.614 0.365234C244.261 0.365234 244.712 0.433594 244.967 0.570312C245.232 0.697917 245.364 0.916667 245.364 1.22656V3.46875C245.364 3.77865 245.241 4.00195 244.995 4.13867C244.758 4.26628 244.32 4.33008 243.682 4.33008C243.044 4.33008 242.593 4.26628 242.329 4.13867C242.073 4.00195 241.946 3.77865 241.946 3.46875V1.22656C241.946 0.907552 242.064 0.684245 242.301 0.556641C242.538 0.429036 242.976 0.365234 243.614 0.365234ZM263.244 6.06641C264.629 6.06641 265.809 6.36719 266.785 6.96875C267.76 7.5612 268.494 8.39062 268.986 9.45703C269.487 10.5143 269.738 11.7266 269.738 13.0938C269.738 13.4036 269.67 13.6224 269.533 13.75C269.405 13.8776 269.186 13.9414 268.877 13.9414H260.099C260.272 14.6706 260.642 15.2311 261.207 15.623C261.781 16.0059 262.505 16.1973 263.38 16.1973C264.793 16.1973 266.324 15.9466 267.974 15.4453C268.084 15.4089 268.193 15.3906 268.302 15.3906C268.503 15.3906 268.676 15.4818 268.822 15.6641C268.968 15.8464 269.1 16.1562 269.218 16.5938C269.309 16.931 269.355 17.2181 269.355 17.4551C269.355 17.6921 269.3 17.8789 269.191 18.0156C269.091 18.1432 268.922 18.248 268.685 18.3301C267.774 18.6309 266.844 18.8678 265.896 19.041C264.948 19.2142 264.018 19.3008 263.107 19.3008C261.722 19.3008 260.528 19.0182 259.525 18.4531C258.522 17.888 257.757 17.1087 257.228 16.1152C256.709 15.1126 256.449 13.9688 256.449 12.6836C256.449 11.4076 256.722 10.2682 257.269 9.26562C257.816 8.26302 258.604 7.47917 259.634 6.91406C260.664 6.34896 261.867 6.06641 263.244 6.06641ZM263.244 9.16992C261.576 9.16992 260.546 9.87174 260.154 11.2754H266.17C266.015 10.61 265.682 10.0951 265.171 9.73047C264.67 9.35677 264.028 9.16992 263.244 9.16992ZM286.634 6.06641C287.217 6.06641 287.632 6.13477 287.878 6.27148C288.124 6.39909 288.247 6.61784 288.247 6.92773V9.8125C288.247 10.1224 288.147 10.3457 287.946 10.4824C287.755 10.61 287.436 10.6738 286.989 10.6738C286.506 10.6738 286.173 10.5781 285.991 10.3867C285.453 9.8125 284.838 9.4069 284.145 9.16992C283.453 8.92383 282.651 8.80078 281.739 8.80078C281.201 8.80078 280.777 8.89648 280.468 9.08789C280.167 9.2793 280.016 9.53451 280.016 9.85352C280.016 10.2363 280.354 10.5098 281.028 10.6738C281.384 10.765 281.99 10.8516 282.846 10.9336C283.694 11.0339 284.396 11.1341 284.952 11.2344C285.517 11.3346 286.05 11.485 286.552 11.6855C287.281 11.9863 287.85 12.4056 288.261 12.9434C288.671 13.4811 288.876 14.1921 288.876 15.0762C288.876 15.9421 288.662 16.694 288.233 17.332C287.814 17.9609 287.194 18.4486 286.374 18.7949C285.563 19.1322 284.583 19.3008 283.434 19.3008C282.167 19.3008 280.992 18.9772 279.907 18.3301V18.4395C279.907 18.7493 279.775 18.9681 279.511 19.0957C279.246 19.2324 278.822 19.3008 278.239 19.3008C277.656 19.3008 277.241 19.2324 276.995 19.0957C276.749 18.9681 276.626 18.7493 276.626 18.4395V15.3906C276.626 15.0898 276.731 14.8711 276.94 14.7344C277.159 14.5977 277.492 14.5293 277.938 14.5293C278.494 14.5293 278.873 14.6569 279.073 14.9121C279.529 15.4863 280.112 15.9056 280.823 16.1699C281.534 16.4342 282.313 16.5664 283.161 16.5664C284.619 16.5664 285.348 16.1882 285.348 15.4316C285.348 15.2038 285.244 15.0215 285.034 14.8848C284.833 14.748 284.533 14.6341 284.132 14.543C283.904 14.4974 283.375 14.4154 282.546 14.2969C281.625 14.1875 280.832 14.0645 280.167 13.9277C279.511 13.7819 278.914 13.5586 278.376 13.2578C277.118 12.5651 276.489 11.4714 276.489 9.97656C276.489 9.18359 276.703 8.49089 277.132 7.89844C277.56 7.30599 278.148 6.85482 278.895 6.54492C279.652 6.22591 280.499 6.06641 281.438 6.06641C282.815 6.06641 284.036 6.39909 285.102 7.06445V6.92773C285.102 6.61784 285.212 6.39909 285.43 6.27148C285.658 6.13477 286.059 6.06641 286.634 6.06641ZM302.23 10.8789C301.438 10.8789 300.863 10.8151 300.508 10.6875C300.152 10.5508 299.975 10.3275 299.975 10.0176V7.0918C299.975 6.7819 300.152 6.56315 300.508 6.43555C300.863 6.29883 301.438 6.23047 302.23 6.23047C303.023 6.23047 303.598 6.29883 303.953 6.43555C304.309 6.56315 304.486 6.7819 304.486 7.0918V10.0176C304.486 10.3275 304.309 10.5508 303.953 10.6875C303.598 10.8151 303.023 10.8789 302.23 10.8789ZM302.23 19.1367C301.438 19.1367 300.863 19.0729 300.508 18.9453C300.152 18.8086 299.975 18.5853 299.975 18.2754V15.3496C299.975 15.0397 300.152 14.821 300.508 14.6934C300.863 14.5566 301.438 14.4883 302.23 14.4883C303.023 14.4883 303.598 14.5566 303.953 14.6934C304.309 14.821 304.486 15.0397 304.486 15.3496V18.2754C304.486 18.5853 304.309 18.8086 303.953 18.9453C303.598 19.0729 303.023 19.1367 302.23 19.1367Z" fill="white"/>
<rect x="14" y="55" width="283" height="36" rx="10" fill="white"/>
<path fill-rule="evenodd" clip-rule="evenodd" d="M45.7906 64.1756C43.598 61.9803 40.6819 60.7708 37.5752 60.7695C31.1737 60.7695 25.9638 65.9793 25.9612 72.3826C25.9603 74.4295 26.4951 76.4276 27.5114 78.1889L25.8638 84.207L32.0205 82.592C33.717 83.5174 35.6269 84.005 37.5705 84.0056H37.5754C43.9762 84.0056 49.1867 78.7954 49.1891 72.3919C49.1904 69.2885 47.9835 66.3707 45.7906 64.1756ZM37.5752 82.0442H37.5712C35.8392 82.0435 34.1404 81.578 32.6581 80.6987L32.3058 80.4894L28.6523 81.4479L29.6274 77.8857L29.3978 77.5205C28.4315 75.9836 27.9213 74.2072 27.9221 72.3833C27.9241 67.0611 32.2546 62.731 37.5791 62.731C40.1574 62.7319 42.5812 63.7373 44.4036 65.5619C46.2261 67.3865 47.2292 69.8118 47.2283 72.3911C47.226 77.7138 42.8959 82.0442 37.5752 82.0442V82.0442ZM42.8701 74.8146C42.58 74.6692 41.1532 73.9674 40.8871 73.8704C40.6214 73.7736 40.4277 73.7254 40.2344 74.0158C40.0409 74.3062 39.4848 74.9599 39.3154 75.1535C39.1461 75.3472 38.977 75.3715 38.6867 75.2261C38.3965 75.0809 37.4615 74.7744 36.353 73.7858C35.4904 73.0163 34.908 72.066 34.7387 71.7756C34.5696 71.4849 34.7372 71.343 34.866 71.1834C35.1801 70.7933 35.4947 70.3843 35.5914 70.1907C35.6882 69.997 35.6397 69.8275 35.5671 69.6823C35.4947 69.5371 34.9143 68.1088 34.6726 67.5276C34.4368 66.9619 34.1978 67.0383 34.0195 67.0294C33.8505 67.021 33.6569 67.0193 33.4634 67.0193C33.27 67.0193 32.9555 67.0918 32.6895 67.3825C32.4235 67.673 31.6739 68.375 31.6739 69.8034C31.6739 71.2317 32.7138 72.6116 32.8588 72.8053C33.0039 72.999 34.9052 75.9301 37.8161 77.1869C38.5085 77.4862 39.0489 77.6646 39.4705 77.7983C40.1657 78.0192 40.7982 77.988 41.2983 77.9133C41.8559 77.83 43.015 77.2113 43.2571 76.5335C43.4988 75.8556 43.4988 75.2746 43.4262 75.1535C43.3538 75.0324 43.1602 74.9599 42.8701 74.8146V74.8146Z" fill="#CFB284"/>
<path d="M62.1973 69.9863C62.4115 69.9863 62.5732 70.0023 62.6826 70.0342C62.792 70.0615 62.8649 70.1048 62.9014 70.1641C62.9424 70.2233 62.9629 70.3076 62.9629 70.417V72.249H64.8018C64.9111 72.249 64.9954 72.2695 65.0547 72.3105C65.1139 72.3516 65.1572 72.4268 65.1846 72.5361C65.2165 72.6455 65.2324 72.8073 65.2324 73.0215C65.2324 73.2357 65.2165 73.3975 65.1846 73.5068C65.1572 73.6162 65.1139 73.6914 65.0547 73.7324C64.9954 73.7689 64.9111 73.7871 64.8018 73.7871H62.9629V75.626C62.9629 75.7354 62.9424 75.8197 62.9014 75.8789C62.8649 75.9382 62.792 75.9837 62.6826 76.0156C62.5732 76.043 62.4115 76.0566 62.1973 76.0566C61.9831 76.0566 61.8213 76.043 61.7119 76.0156C61.6025 75.9837 61.5273 75.9382 61.4863 75.8789C61.4453 75.8197 61.4248 75.7354 61.4248 75.626V73.7871H59.5928C59.4834 73.7871 59.3991 73.7689 59.3398 73.7324C59.2806 73.6914 59.235 73.6162 59.2031 73.5068C59.1758 73.3975 59.1621 73.2357 59.1621 73.0215C59.1621 72.8073 59.1758 72.6455 59.2031 72.5361C59.235 72.4268 59.2806 72.3516 59.3398 72.3105C59.3991 72.2695 59.4834 72.249 59.5928 72.249H61.4248V70.417C61.4248 70.3076 61.4453 70.2233 61.4863 70.1641C61.5273 70.1048 61.6025 70.0615 61.7119 70.0342C61.8213 70.0023 61.9831 69.9863 62.1973 69.9863ZM71.8756 68.7354C72.4498 68.7354 72.9579 68.8516 73.4 69.084C73.8421 69.3164 74.2112 69.6514 74.5074 70.0889C74.6943 70.3669 74.8378 70.7041 74.9381 71.1006C75.0429 71.4971 75.0953 71.9255 75.0953 72.3857C75.0953 73.8714 74.676 75.0199 73.8375 75.8311C73.0035 76.6423 71.6979 77.082 69.9205 77.1504C69.802 77.1549 69.7086 77.098 69.6402 76.9795C69.5764 76.861 69.5331 76.6742 69.5104 76.4189C69.5012 76.3415 69.4967 76.2389 69.4967 76.1113C69.4967 75.7148 69.5901 75.5098 69.777 75.4961C70.6064 75.4551 71.2649 75.3503 71.7525 75.1816C72.2447 75.0085 72.6116 74.7601 72.8531 74.4365C73.0947 74.113 73.2496 73.6846 73.318 73.1514C73.0719 73.4248 72.7962 73.6276 72.4908 73.7598C72.1855 73.8874 71.8346 73.9512 71.4381 73.9512C70.9322 73.9512 70.4811 73.8441 70.0846 73.6299C69.6881 73.4111 69.3782 73.1081 69.1549 72.7207C68.9316 72.3333 68.8199 71.889 68.8199 71.3877C68.8199 70.8773 68.9498 70.4215 69.2096 70.0205C69.4739 69.6149 69.8385 69.3005 70.3033 69.0771C70.7682 68.8493 71.2923 68.7354 71.8756 68.7354ZM71.8824 70.2598C71.4905 70.2598 71.176 70.3623 70.9391 70.5674C70.7021 70.7679 70.5836 71.0391 70.5836 71.3809C70.5836 71.7318 70.693 72.0075 70.9117 72.208C71.135 72.404 71.4404 72.502 71.8277 72.502C72.0921 72.502 72.3268 72.4564 72.5318 72.3652C72.7369 72.2741 72.8964 72.1465 73.0104 71.9824C73.1243 71.8184 73.1812 71.6315 73.1812 71.4219C73.1812 71.2122 73.1288 71.0186 73.024 70.8408C72.9238 70.6631 72.7734 70.5218 72.5729 70.417C72.3769 70.3122 72.1467 70.2598 71.8824 70.2598ZM84.4592 75.5986C84.5686 75.5986 84.6529 75.6191 84.7121 75.6602C84.7714 75.6966 84.8146 75.765 84.842 75.8652C84.8739 75.9655 84.8898 76.1113 84.8898 76.3027C84.8898 76.4941 84.8739 76.64 84.842 76.7402C84.8146 76.8405 84.7714 76.9089 84.7121 76.9453C84.6529 76.9818 84.5686 77 84.4592 77H79.4553C79.3459 77 79.2616 76.9818 79.2023 76.9453C79.1431 76.9089 79.0975 76.8405 79.0656 76.7402C79.0383 76.64 79.0246 76.4941 79.0246 76.3027C79.0246 76.1113 79.0383 75.9655 79.0656 75.8652C79.0975 75.765 79.1431 75.6966 79.2023 75.6602C79.2616 75.6191 79.3459 75.5986 79.4553 75.5986H81.1369V70.9912L79.7082 71.8047C79.6262 71.8503 79.5533 71.873 79.4895 71.873C79.4029 71.873 79.3186 71.832 79.2365 71.75C79.159 71.668 79.0793 71.5381 78.9973 71.3604C78.9061 71.1598 78.8605 70.9935 78.8605 70.8613C78.8605 70.7656 78.8811 70.6859 78.9221 70.6221C78.9676 70.5583 79.036 70.5013 79.1271 70.4512L82.0119 68.8242C82.1395 68.7513 82.2694 68.7148 82.4016 68.7148C82.5337 68.7148 82.6408 68.7513 82.7229 68.8242C82.8049 68.8971 82.8459 69.0065 82.8459 69.1523V75.5986H84.4592ZM101.259 68.7354C101.833 68.7354 102.342 68.8516 102.784 69.084C103.226 69.3164 103.595 69.6514 103.891 70.0889C104.078 70.3669 104.221 70.7041 104.322 71.1006C104.426 71.4971 104.479 71.9255 104.479 72.3857C104.479 73.8714 104.06 75.0199 103.221 75.8311C102.387 76.6423 101.081 77.082 99.3041 77.1504C99.1856 77.1549 99.0922 77.098 99.0238 76.9795C98.96 76.861 98.9167 76.6742 98.8939 76.4189C98.8848 76.3415 98.8803 76.2389 98.8803 76.1113C98.8803 75.7148 98.9737 75.5098 99.1605 75.4961C99.99 75.4551 100.649 75.3503 101.136 75.1816C101.628 75.0085 101.995 74.7601 102.237 74.4365C102.478 74.113 102.633 73.6846 102.702 73.1514C102.455 73.4248 102.18 73.6276 101.874 73.7598C101.569 73.8874 101.218 73.9512 100.822 73.9512C100.316 73.9512 99.8646 73.8441 99.4682 73.6299C99.0717 73.4111 98.7618 73.1081 98.5385 72.7207C98.3152 72.3333 98.2035 71.889 98.2035 71.3877C98.2035 70.8773 98.3334 70.4215 98.5932 70.0205C98.8575 69.6149 99.2221 69.3005 99.6869 69.0771C100.152 68.8493 100.676 68.7354 101.259 68.7354ZM101.266 70.2598C100.874 70.2598 100.56 70.3623 100.323 70.5674C100.086 70.7679 99.9672 71.0391 99.9672 71.3809C99.9672 71.7318 100.077 72.0075 100.295 72.208C100.519 72.404 100.824 72.502 101.211 72.502C101.476 72.502 101.71 72.4564 101.915 72.3652C102.121 72.2741 102.28 72.1465 102.394 71.9824C102.508 71.8184 102.565 71.6315 102.565 71.4219C102.565 71.2122 102.512 71.0186 102.408 70.8408C102.307 70.6631 102.157 70.5218 101.956 70.417C101.76 70.3122 101.53 70.2598 101.266 70.2598ZM113.651 68.7354C113.77 68.7308 113.861 68.7878 113.925 68.9062C113.993 69.0247 114.039 69.2116 114.062 69.4668C114.071 69.5443 114.075 69.6468 114.075 69.7744C114.075 70.1709 113.982 70.376 113.795 70.3896C112.956 70.4307 112.261 70.5378 111.71 70.7109C111.163 70.8841 110.737 71.1348 110.432 71.4629C110.131 71.791 109.935 72.2148 109.844 72.7344C110.09 72.4609 110.366 72.2604 110.671 72.1328C110.976 72.0007 111.327 71.9346 111.724 71.9346C112.229 71.9346 112.681 72.0439 113.077 72.2627C113.474 72.4769 113.784 72.7777 114.007 73.165C114.23 73.5524 114.342 73.9967 114.342 74.498C114.342 75.0085 114.21 75.4665 113.945 75.8721C113.686 76.2731 113.323 76.5876 112.858 76.8154C112.394 77.0387 111.869 77.1504 111.286 77.1504C110.712 77.1504 110.204 77.0342 109.762 76.8018C109.32 76.5693 108.951 76.2344 108.654 75.7969C108.467 75.5189 108.322 75.1816 108.217 74.7852C108.117 74.3887 108.066 73.9603 108.066 73.5C108.066 72.5384 108.278 71.7113 108.702 71.0186C109.131 70.3213 109.762 69.779 110.596 69.3916C111.43 68.9997 112.448 68.7809 113.651 68.7354ZM111.334 73.3838C111.07 73.3838 110.835 73.4294 110.63 73.5205C110.425 73.6117 110.265 73.7393 110.151 73.9033C110.037 74.0674 109.98 74.2542 109.98 74.4639C109.98 74.6735 110.031 74.8672 110.131 75.0449C110.236 75.2227 110.386 75.3639 110.582 75.4688C110.783 75.5736 111.015 75.626 111.279 75.626C111.671 75.626 111.986 75.5257 112.223 75.3252C112.46 75.1201 112.578 74.8467 112.578 74.5049C112.578 74.154 112.466 73.8805 112.243 73.6846C112.024 73.484 111.721 73.3838 111.334 73.3838ZM123.063 68.8857C123.223 68.8857 123.334 68.9382 123.398 69.043C123.462 69.1478 123.494 69.3415 123.494 69.624C123.494 69.9066 123.462 70.1003 123.398 70.2051C123.334 70.3053 123.223 70.3555 123.063 70.3555H120.042L119.946 71.8799C120.383 71.7113 120.821 71.627 121.258 71.627C121.824 71.627 122.304 71.7432 122.701 71.9756C123.102 72.2035 123.405 72.5247 123.61 72.9395C123.815 73.3496 123.918 73.8236 123.918 74.3613C123.918 75.2773 123.63 75.9723 123.056 76.4463C122.487 76.9157 121.698 77.1504 120.691 77.1504C120.258 77.1504 119.827 77.098 119.399 76.9932C118.975 76.8838 118.586 76.7334 118.23 76.542C118.057 76.4463 117.97 76.3005 117.97 76.1045C117.97 75.9814 118.009 75.8174 118.087 75.6123C118.241 75.2295 118.415 75.0381 118.606 75.0381C118.643 75.0381 118.688 75.0495 118.743 75.0723C119.445 75.4232 120.094 75.5986 120.691 75.5986C121.11 75.5986 121.448 75.4893 121.703 75.2705C121.958 75.0518 122.086 74.7487 122.086 74.3613C122.086 73.9922 121.981 73.7028 121.771 73.4932C121.566 73.2835 121.274 73.1787 120.896 73.1787C120.468 73.1787 120.03 73.2607 119.584 73.4248C119.392 73.4977 119.205 73.5342 119.023 73.5342C118.731 73.5342 118.524 73.5 118.401 73.4316C118.282 73.3633 118.228 73.2493 118.237 73.0898L118.463 69.3301C118.472 69.1706 118.508 69.0566 118.572 68.9883C118.64 68.9199 118.752 68.8857 118.907 68.8857H123.063ZM130.759 68.7354C131.429 68.7354 132.012 68.9154 132.509 69.2754C133.006 69.6309 133.386 70.1276 133.651 70.7656C133.915 71.3991 134.047 72.126 134.047 72.9463C134.047 73.7666 133.915 74.4958 133.651 75.1338C133.386 75.7673 133.006 76.2617 132.509 76.6172C132.012 76.9727 131.429 77.1504 130.759 77.1504C130.089 77.1504 129.506 76.9727 129.009 76.6172C128.512 76.2617 128.132 75.7673 127.867 75.1338C127.603 74.4958 127.471 73.7666 127.471 72.9463C127.471 72.126 127.603 71.3991 127.867 70.7656C128.132 70.1276 128.512 69.6309 129.009 69.2754C129.506 68.9154 130.089 68.7354 130.759 68.7354ZM130.759 70.2871C130.285 70.2871 129.923 70.5127 129.672 70.9639C129.426 71.4105 129.303 72.0713 129.303 72.9463C129.303 73.8213 129.426 74.4821 129.672 74.9287C129.923 75.3753 130.285 75.5986 130.759 75.5986C131.233 75.5986 131.593 75.3753 131.839 74.9287C132.09 74.4821 132.215 73.8213 132.215 72.9463C132.215 72.0713 132.09 71.4105 131.839 70.9639C131.593 70.5127 131.233 70.2871 130.759 70.2871ZM140.554 68.7354C141.223 68.7354 141.807 68.9154 142.304 69.2754C142.8 69.6309 143.181 70.1276 143.445 70.7656C143.709 71.3991 143.842 72.126 143.842 72.9463C143.842 73.7666 143.709 74.4958 143.445 75.1338C143.181 75.7673 142.8 76.2617 142.304 76.6172C141.807 76.9727 141.223 77.1504 140.554 77.1504C139.884 77.1504 139.3 76.9727 138.804 76.6172C138.307 76.2617 137.926 75.7673 137.662 75.1338C137.398 74.4958 137.265 73.7666 137.265 72.9463C137.265 72.126 137.398 71.3991 137.662 70.7656C137.926 70.1276 138.307 69.6309 138.804 69.2754C139.3 68.9154 139.884 68.7354 140.554 68.7354ZM140.554 70.2871C140.08 70.2871 139.717 70.5127 139.467 70.9639C139.221 71.4105 139.097 72.0713 139.097 72.9463C139.097 73.8213 139.221 74.4821 139.467 74.9287C139.717 75.3753 140.08 75.5986 140.554 75.5986C141.027 75.5986 141.387 75.3753 141.634 74.9287C141.884 74.4821 142.01 73.8213 142.01 72.9463C142.01 72.0713 141.884 71.4105 141.634 70.9639C141.387 70.5127 141.027 70.2871 140.554 70.2871ZM153.021 75.5986C153.13 75.5986 153.215 75.6191 153.274 75.6602C153.333 75.6966 153.376 75.765 153.404 75.8652C153.436 75.9655 153.452 76.1113 153.452 76.3027C153.452 76.4941 153.436 76.64 153.404 76.7402C153.376 76.8405 153.333 76.9089 153.274 76.9453C153.215 76.9818 153.13 77 153.021 77H148.017C147.908 77 147.823 76.9818 147.764 76.9453C147.705 76.9089 147.659 76.8405 147.627 76.7402C147.6 76.64 147.586 76.4941 147.586 76.3027C147.586 76.1113 147.6 75.9655 147.627 75.8652C147.659 75.765 147.705 75.6966 147.764 75.6602C147.823 75.6191 147.908 75.5986 148.017 75.5986H149.699V70.9912L148.27 71.8047C148.188 71.8503 148.115 71.873 148.051 71.873C147.965 71.873 147.88 71.832 147.798 71.75C147.721 71.668 147.641 71.5381 147.559 71.3604C147.468 71.1598 147.422 70.9935 147.422 70.8613C147.422 70.7656 147.443 70.6859 147.484 70.6221C147.529 70.5583 147.598 70.5013 147.689 70.4512L150.574 68.8242C150.701 68.7513 150.831 68.7148 150.963 68.7148C151.095 68.7148 151.203 68.7513 151.285 68.8242C151.367 68.8971 151.408 69.0065 151.408 69.1523V75.5986H153.021ZM162.241 68.8857C162.401 68.8857 162.512 68.9382 162.576 69.043C162.64 69.1478 162.672 69.3415 162.672 69.624C162.672 69.9066 162.64 70.1003 162.576 70.2051C162.512 70.3053 162.401 70.3555 162.241 70.3555H159.22L159.124 71.8799C159.562 71.7113 159.999 71.627 160.437 71.627C161.002 71.627 161.482 71.7432 161.879 71.9756C162.28 72.2035 162.583 72.5247 162.788 72.9395C162.993 73.3496 163.096 73.8236 163.096 74.3613C163.096 75.2773 162.809 75.9723 162.234 76.4463C161.665 76.9157 160.876 77.1504 159.869 77.1504C159.436 77.1504 159.006 77.098 158.577 76.9932C158.153 76.8838 157.764 76.7334 157.408 76.542C157.235 76.4463 157.148 76.3005 157.148 76.1045C157.148 75.9814 157.187 75.8174 157.265 75.6123C157.42 75.2295 157.593 75.0381 157.784 75.0381C157.821 75.0381 157.866 75.0495 157.921 75.0723C158.623 75.4232 159.272 75.5986 159.869 75.5986C160.288 75.5986 160.626 75.4893 160.881 75.2705C161.136 75.0518 161.264 74.7487 161.264 74.3613C161.264 73.9922 161.159 73.7028 160.949 73.4932C160.744 73.2835 160.452 73.1787 160.074 73.1787C159.646 73.1787 159.208 73.2607 158.762 73.4248C158.57 73.4977 158.383 73.5342 158.201 73.5342C157.91 73.5342 157.702 73.5 157.579 73.4316C157.461 73.3633 157.406 73.2493 157.415 73.0898L157.641 69.3301C157.65 69.1706 157.686 69.0566 157.75 68.9883C157.818 68.9199 157.93 68.8857 158.085 68.8857H162.241ZM170.921 68.7354C171.186 68.7354 171.37 68.7878 171.475 68.8926C171.585 68.9974 171.639 69.1501 171.639 69.3506V73.0693H172.815C172.924 73.0693 173.009 73.0898 173.068 73.1309C173.127 73.1673 173.171 73.2357 173.198 73.3359C173.23 73.4362 173.246 73.582 173.246 73.7734C173.246 73.9648 173.23 74.1107 173.198 74.2109C173.171 74.3112 173.127 74.3796 173.068 74.416C173.009 74.4525 172.924 74.4707 172.815 74.4707H171.639V75.5986H172.61C172.719 75.5986 172.804 75.6191 172.863 75.6602C172.922 75.6966 172.965 75.765 172.993 75.8652C173.025 75.9655 173.041 76.1113 173.041 76.3027C173.041 76.4941 173.025 76.64 172.993 76.7402C172.965 76.8405 172.922 76.9089 172.863 76.9453C172.804 76.9818 172.719 77 172.61 77H168.768C168.659 77 168.574 76.9818 168.515 76.9453C168.456 76.9089 168.41 76.8405 168.379 76.7402C168.351 76.64 168.338 76.4941 168.338 76.3027C168.338 76.1113 168.351 75.9655 168.379 75.8652C168.41 75.765 168.456 75.6966 168.515 75.6602C168.574 75.6191 168.659 75.5986 168.768 75.5986H169.93V74.4707H166.991C166.881 74.4707 166.797 74.4525 166.738 74.416C166.679 74.3796 166.633 74.3112 166.601 74.2109C166.574 74.1107 166.56 73.9648 166.56 73.7734C166.56 73.4772 166.603 73.2744 166.69 73.165L169.903 69.207C170.026 69.0521 170.167 68.9359 170.327 68.8584C170.491 68.7764 170.689 68.7354 170.921 68.7354ZM168.495 73.0693H169.992L170.101 71.0732L168.495 73.0693ZM180.716 68.7354C180.98 68.7354 181.165 68.7878 181.27 68.8926C181.379 68.9974 181.434 69.1501 181.434 69.3506V73.0693H182.61C182.719 73.0693 182.803 73.0898 182.863 73.1309C182.922 73.1673 182.965 73.2357 182.992 73.3359C183.024 73.4362 183.04 73.582 183.04 73.7734C183.04 73.9648 183.024 74.1107 182.992 74.2109C182.965 74.3112 182.922 74.3796 182.863 74.416C182.803 74.4525 182.719 74.4707 182.61 74.4707H181.434V75.5986H182.404C182.514 75.5986 182.598 75.6191 182.657 75.6602C182.717 75.6966 182.76 75.765 182.787 75.8652C182.819 75.9655 182.835 76.1113 182.835 76.3027C182.835 76.4941 182.819 76.64 182.787 76.7402C182.76 76.8405 182.717 76.9089 182.657 76.9453C182.598 76.9818 182.514 77 182.404 77H178.563C178.453 77 178.369 76.9818 178.31 76.9453C178.251 76.9089 178.205 76.8405 178.173 76.7402C178.146 76.64 178.132 76.4941 178.132 76.3027C178.132 76.1113 178.146 75.9655 178.173 75.8652C178.205 75.765 178.251 75.6966 178.31 75.6602C178.369 75.6191 178.453 75.5986 178.563 75.5986H179.725V74.4707H176.785C176.676 74.4707 176.592 74.4525 176.532 74.416C176.473 74.3796 176.428 74.3112 176.396 74.2109C176.368 74.1107 176.355 73.9648 176.355 73.7734C176.355 73.4772 176.398 73.2744 176.485 73.165L179.697 69.207C179.821 69.0521 179.962 68.9359 180.121 68.8584C180.285 68.7764 180.484 68.7354 180.716 68.7354ZM178.289 73.0693H179.786L179.896 71.0732L178.289 73.0693ZM189.41 68.7354C189.984 68.7354 190.492 68.8516 190.934 69.084C191.376 69.3164 191.746 69.6514 192.042 70.0889C192.229 70.3669 192.372 70.7041 192.472 71.1006C192.577 71.4971 192.63 71.9255 192.63 72.3857C192.63 73.8714 192.21 75.0199 191.372 75.8311C190.538 76.6423 189.232 77.082 187.455 77.1504C187.336 77.1549 187.243 77.098 187.175 76.9795C187.111 76.861 187.068 76.6742 187.045 76.4189C187.036 76.3415 187.031 76.2389 187.031 76.1113C187.031 75.7148 187.124 75.5098 187.311 75.4961C188.141 75.4551 188.799 75.3503 189.287 75.1816C189.779 75.0085 190.146 74.7601 190.387 74.4365C190.629 74.113 190.784 73.6846 190.852 73.1514C190.606 73.4248 190.331 73.6276 190.025 73.7598C189.72 73.8874 189.369 73.9512 188.972 73.9512C188.467 73.9512 188.015 73.8441 187.619 73.6299C187.222 73.4111 186.913 73.1081 186.689 72.7207C186.466 72.3333 186.354 71.889 186.354 71.3877C186.354 70.8773 186.484 70.4215 186.744 70.0205C187.008 69.6149 187.373 69.3005 187.838 69.0771C188.303 68.8493 188.827 68.7354 189.41 68.7354ZM189.417 70.2598C189.025 70.2598 188.71 70.3623 188.473 70.5674C188.236 70.7679 188.118 71.0391 188.118 71.3809C188.118 71.7318 188.227 72.0075 188.446 72.208C188.669 72.404 188.975 72.502 189.362 72.502C189.626 72.502 189.861 72.4564 190.066 72.3652C190.271 72.2741 190.431 72.1465 190.545 71.9824C190.659 71.8184 190.716 71.6315 190.716 71.4219C190.716 71.2122 190.663 71.0186 190.558 70.8408C190.458 70.6631 190.308 70.5218 190.107 70.417C189.911 70.3122 189.681 70.2598 189.417 70.2598Z" fill="#CFB284"/>
<path d="M14 113C14 107.477 18.4772 103 24 103H287C292.523 103 297 107.477 297 113V129C297 134.523 292.523 139 287 139H24C18.4771 139 14 134.523 14 129V113Z" fill="white"/>
<path d="M62.1973 117.986C62.4115 117.986 62.5732 118.002 62.6826 118.034C62.792 118.062 62.8649 118.105 62.9014 118.164C62.9424 118.223 62.9629 118.308 62.9629 118.417V120.249H64.8018C64.9111 120.249 64.9954 120.27 65.0547 120.311C65.1139 120.352 65.1572 120.427 65.1846 120.536C65.2165 120.646 65.2324 120.807 65.2324 121.021C65.2324 121.236 65.2165 121.397 65.1846 121.507C65.1572 121.616 65.1139 121.691 65.0547 121.732C64.9954 121.769 64.9111 121.787 64.8018 121.787H62.9629V123.626C62.9629 123.735 62.9424 123.82 62.9014 123.879C62.8649 123.938 62.792 123.984 62.6826 124.016C62.5732 124.043 62.4115 124.057 62.1973 124.057C61.9831 124.057 61.8213 124.043 61.7119 124.016C61.6025 123.984 61.5273 123.938 61.4863 123.879C61.4453 123.82 61.4248 123.735 61.4248 123.626V121.787H59.5928C59.4834 121.787 59.3991 121.769 59.3398 121.732C59.2806 121.691 59.235 121.616 59.2031 121.507C59.1758 121.397 59.1621 121.236 59.1621 121.021C59.1621 120.807 59.1758 120.646 59.2031 120.536C59.235 120.427 59.2806 120.352 59.3398 120.311C59.3991 120.27 59.4834 120.249 59.5928 120.249H61.4248V118.417C61.4248 118.308 61.4453 118.223 61.4863 118.164C61.5273 118.105 61.6025 118.062 61.7119 118.034C61.8213 118.002 61.9831 117.986 62.1973 117.986ZM71.8756 116.735C72.4498 116.735 72.9579 116.852 73.4 117.084C73.8421 117.316 74.2112 117.651 74.5074 118.089C74.6943 118.367 74.8378 118.704 74.9381 119.101C75.0429 119.497 75.0953 119.925 75.0953 120.386C75.0953 121.871 74.676 123.02 73.8375 123.831C73.0035 124.642 71.6979 125.082 69.9205 125.15C69.802 125.155 69.7086 125.098 69.6402 124.979C69.5764 124.861 69.5331 124.674 69.5104 124.419C69.5012 124.341 69.4967 124.239 69.4967 124.111C69.4967 123.715 69.5901 123.51 69.777 123.496C70.6064 123.455 71.2649 123.35 71.7525 123.182C72.2447 123.008 72.6116 122.76 72.8531 122.437C73.0947 122.113 73.2496 121.685 73.318 121.151C73.0719 121.425 72.7962 121.628 72.4908 121.76C72.1855 121.887 71.8346 121.951 71.4381 121.951C70.9322 121.951 70.4811 121.844 70.0846 121.63C69.6881 121.411 69.3782 121.108 69.1549 120.721C68.9316 120.333 68.8199 119.889 68.8199 119.388C68.8199 118.877 68.9498 118.422 69.2096 118.021C69.4739 117.615 69.8385 117.3 70.3033 117.077C70.7682 116.849 71.2923 116.735 71.8756 116.735ZM71.8824 118.26C71.4905 118.26 71.176 118.362 70.9391 118.567C70.7021 118.768 70.5836 119.039 70.5836 119.381C70.5836 119.732 70.693 120.007 70.9117 120.208C71.135 120.404 71.4404 120.502 71.8277 120.502C72.0921 120.502 72.3268 120.456 72.5318 120.365C72.7369 120.274 72.8964 120.146 73.0104 119.982C73.1243 119.818 73.1812 119.632 73.1812 119.422C73.1812 119.212 73.1288 119.019 73.024 118.841C72.9238 118.663 72.7734 118.522 72.5729 118.417C72.3769 118.312 72.1467 118.26 71.8824 118.26ZM84.4592 123.599C84.5686 123.599 84.6529 123.619 84.7121 123.66C84.7714 123.697 84.8146 123.765 84.842 123.865C84.8739 123.965 84.8898 124.111 84.8898 124.303C84.8898 124.494 84.8739 124.64 84.842 124.74C84.8146 124.84 84.7714 124.909 84.7121 124.945C84.6529 124.982 84.5686 125 84.4592 125H79.4553C79.3459 125 79.2616 124.982 79.2023 124.945C79.1431 124.909 79.0975 124.84 79.0656 124.74C79.0383 124.64 79.0246 124.494 79.0246 124.303C79.0246 124.111 79.0383 123.965 79.0656 123.865C79.0975 123.765 79.1431 123.697 79.2023 123.66C79.2616 123.619 79.3459 123.599 79.4553 123.599H81.1369V118.991L79.7082 119.805C79.6262 119.85 79.5533 119.873 79.4895 119.873C79.4029 119.873 79.3186 119.832 79.2365 119.75C79.159 119.668 79.0793 119.538 78.9973 119.36C78.9061 119.16 78.8605 118.993 78.8605 118.861C78.8605 118.766 78.8811 118.686 78.9221 118.622C78.9676 118.558 79.036 118.501 79.1271 118.451L82.0119 116.824C82.1395 116.751 82.2694 116.715 82.4016 116.715C82.5337 116.715 82.6408 116.751 82.7229 116.824C82.8049 116.897 82.8459 117.007 82.8459 117.152V123.599H84.4592ZM101.259 116.735C101.833 116.735 102.342 116.852 102.784 117.084C103.226 117.316 103.595 117.651 103.891 118.089C104.078 118.367 104.221 118.704 104.322 119.101C104.426 119.497 104.479 119.925 104.479 120.386C104.479 121.871 104.06 123.02 103.221 123.831C102.387 124.642 101.081 125.082 99.3041 125.15C99.1856 125.155 99.0922 125.098 99.0238 124.979C98.96 124.861 98.9167 124.674 98.8939 124.419C98.8848 124.341 98.8803 124.239 98.8803 124.111C98.8803 123.715 98.9737 123.51 99.1605 123.496C99.99 123.455 100.649 123.35 101.136 123.182C101.628 123.008 101.995 122.76 102.237 122.437C102.478 122.113 102.633 121.685 102.702 121.151C102.455 121.425 102.18 121.628 101.874 121.76C101.569 121.887 101.218 121.951 100.822 121.951C100.316 121.951 99.8646 121.844 99.4682 121.63C99.0717 121.411 98.7618 121.108 98.5385 120.721C98.3152 120.333 98.2035 119.889 98.2035 119.388C98.2035 118.877 98.3334 118.422 98.5932 118.021C98.8575 117.615 99.2221 117.3 99.6869 117.077C100.152 116.849 100.676 116.735 101.259 116.735ZM101.266 118.26C100.874 118.26 100.56 118.362 100.323 118.567C100.086 118.768 99.9672 119.039 99.9672 119.381C99.9672 119.732 100.077 120.007 100.295 120.208C100.519 120.404 100.824 120.502 101.211 120.502C101.476 120.502 101.71 120.456 101.915 120.365C102.121 120.274 102.28 120.146 102.394 119.982C102.508 119.818 102.565 119.632 102.565 119.422C102.565 119.212 102.512 119.019 102.408 118.841C102.307 118.663 102.157 118.522 101.956 118.417C101.76 118.312 101.53 118.26 101.266 118.26ZM113.651 116.735C113.77 116.731 113.861 116.788 113.925 116.906C113.993 117.025 114.039 117.212 114.062 117.467C114.071 117.544 114.075 117.647 114.075 117.774C114.075 118.171 113.982 118.376 113.795 118.39C112.956 118.431 112.261 118.538 111.71 118.711C111.163 118.884 110.737 119.135 110.432 119.463C110.131 119.791 109.935 120.215 109.844 120.734C110.09 120.461 110.366 120.26 110.671 120.133C110.976 120.001 111.327 119.935 111.724 119.935C112.229 119.935 112.681 120.044 113.077 120.263C113.474 120.477 113.784 120.778 114.007 121.165C114.23 121.552 114.342 121.997 114.342 122.498C114.342 123.008 114.21 123.466 113.945 123.872C113.686 124.273 113.323 124.588 112.858 124.815C112.394 125.039 111.869 125.15 111.286 125.15C110.712 125.15 110.204 125.034 109.762 124.802C109.32 124.569 108.951 124.234 108.654 123.797C108.467 123.519 108.322 123.182 108.217 122.785C108.117 122.389 108.066 121.96 108.066 121.5C108.066 120.538 108.278 119.711 108.702 119.019C109.131 118.321 109.762 117.779 110.596 117.392C111.43 117 112.448 116.781 113.651 116.735ZM111.334 121.384C111.07 121.384 110.835 121.429 110.63 121.521C110.425 121.612 110.265 121.739 110.151 121.903C110.037 122.067 109.98 122.254 109.98 122.464C109.98 122.674 110.031 122.867 110.131 123.045C110.236 123.223 110.386 123.364 110.582 123.469C110.783 123.574 111.015 123.626 111.279 123.626C111.671 123.626 111.986 123.526 112.223 123.325C112.46 123.12 112.578 122.847 112.578 122.505C112.578 122.154 112.466 121.881 112.243 121.685C112.024 121.484 111.721 121.384 111.334 121.384ZM123.063 116.886C123.223 116.886 123.334 116.938 123.398 117.043C123.462 117.148 123.494 117.341 123.494 117.624C123.494 117.907 123.462 118.1 123.398 118.205C123.334 118.305 123.223 118.355 123.063 118.355H120.042L119.946 119.88C120.383 119.711 120.821 119.627 121.258 119.627C121.824 119.627 122.304 119.743 122.701 119.976C123.102 120.203 123.405 120.525 123.61 120.939C123.815 121.35 123.918 121.824 123.918 122.361C123.918 123.277 123.63 123.972 123.056 124.446C122.487 124.916 121.698 125.15 120.691 125.15C120.258 125.15 119.827 125.098 119.399 124.993C118.975 124.884 118.586 124.733 118.23 124.542C118.057 124.446 117.97 124.3 117.97 124.104C117.97 123.981 118.009 123.817 118.087 123.612C118.241 123.229 118.415 123.038 118.606 123.038C118.643 123.038 118.688 123.049 118.743 123.072C119.445 123.423 120.094 123.599 120.691 123.599C121.11 123.599 121.448 123.489 121.703 123.271C121.958 123.052 122.086 122.749 122.086 122.361C122.086 121.992 121.981 121.703 121.771 121.493C121.566 121.284 121.274 121.179 120.896 121.179C120.468 121.179 120.03 121.261 119.584 121.425C119.392 121.498 119.205 121.534 119.023 121.534C118.731 121.534 118.524 121.5 118.401 121.432C118.282 121.363 118.228 121.249 118.237 121.09L118.463 117.33C118.472 117.171 118.508 117.057 118.572 116.988C118.64 116.92 118.752 116.886 118.907 116.886H123.063ZM130.759 116.735C131.429 116.735 132.012 116.915 132.509 117.275C133.006 117.631 133.386 118.128 133.651 118.766C133.915 119.399 134.047 120.126 134.047 120.946C134.047 121.767 133.915 122.496 133.651 123.134C133.386 123.767 133.006 124.262 132.509 124.617C132.012 124.973 131.429 125.15 130.759 125.15C130.089 125.15 129.506 124.973 129.009 124.617C128.512 124.262 128.132 123.767 127.867 123.134C127.603 122.496 127.471 121.767 127.471 120.946C127.471 120.126 127.603 119.399 127.867 118.766C128.132 118.128 128.512 117.631 129.009 117.275C129.506 116.915 130.089 116.735 130.759 116.735ZM130.759 118.287C130.285 118.287 129.923 118.513 129.672 118.964C129.426 119.41 129.303 120.071 129.303 120.946C129.303 121.821 129.426 122.482 129.672 122.929C129.923 123.375 130.285 123.599 130.759 123.599C131.233 123.599 131.593 123.375 131.839 122.929C132.09 122.482 132.215 121.821 132.215 120.946C132.215 120.071 132.09 119.41 131.839 118.964C131.593 118.513 131.233 118.287 130.759 118.287ZM140.554 116.735C141.223 116.735 141.807 116.915 142.304 117.275C142.8 117.631 143.181 118.128 143.445 118.766C143.709 119.399 143.842 120.126 143.842 120.946C143.842 121.767 143.709 122.496 143.445 123.134C143.181 123.767 142.8 124.262 142.304 124.617C141.807 124.973 141.223 125.15 140.554 125.15C139.884 125.15 139.3 124.973 138.804 124.617C138.307 124.262 137.926 123.767 137.662 123.134C137.398 122.496 137.265 121.767 137.265 120.946C137.265 120.126 137.398 119.399 137.662 118.766C137.926 118.128 138.307 117.631 138.804 117.275C139.3 116.915 139.884 116.735 140.554 116.735ZM140.554 118.287C140.08 118.287 139.717 118.513 139.467 118.964C139.221 119.41 139.097 120.071 139.097 120.946C139.097 121.821 139.221 122.482 139.467 122.929C139.717 123.375 140.08 123.599 140.554 123.599C141.027 123.599 141.387 123.375 141.634 122.929C141.884 122.482 142.01 121.821 142.01 120.946C142.01 120.071 141.884 119.41 141.634 118.964C141.387 118.513 141.027 118.287 140.554 118.287ZM153.021 123.599C153.13 123.599 153.215 123.619 153.274 123.66C153.333 123.697 153.376 123.765 153.404 123.865C153.436 123.965 153.452 124.111 153.452 124.303C153.452 124.494 153.436 124.64 153.404 124.74C153.376 124.84 153.333 124.909 153.274 124.945C153.215 124.982 153.13 125 153.021 125H148.017C147.908 125 147.823 124.982 147.764 124.945C147.705 124.909 147.659 124.84 147.627 124.74C147.6 124.64 147.586 124.494 147.586 124.303C147.586 124.111 147.6 123.965 147.627 123.865C147.659 123.765 147.705 123.697 147.764 123.66C147.823 123.619 147.908 123.599 148.017 123.599H149.699V118.991L148.27 119.805C148.188 119.85 148.115 119.873 148.051 119.873C147.965 119.873 147.88 119.832 147.798 119.75C147.721 119.668 147.641 119.538 147.559 119.36C147.468 119.16 147.422 118.993 147.422 118.861C147.422 118.766 147.443 118.686 147.484 118.622C147.529 118.558 147.598 118.501 147.689 118.451L150.574 116.824C150.701 116.751 150.831 116.715 150.963 116.715C151.095 116.715 151.203 116.751 151.285 116.824C151.367 116.897 151.408 117.007 151.408 117.152V123.599H153.021ZM162.241 116.886C162.401 116.886 162.512 116.938 162.576 117.043C162.64 117.148 162.672 117.341 162.672 117.624C162.672 117.907 162.64 118.1 162.576 118.205C162.512 118.305 162.401 118.355 162.241 118.355H159.22L159.124 119.88C159.562 119.711 159.999 119.627 160.437 119.627C161.002 119.627 161.482 119.743 161.879 119.976C162.28 120.203 162.583 120.525 162.788 120.939C162.993 121.35 163.096 121.824 163.096 122.361C163.096 123.277 162.809 123.972 162.234 124.446C161.665 124.916 160.876 125.15 159.869 125.15C159.436 125.15 159.006 125.098 158.577 124.993C158.153 124.884 157.764 124.733 157.408 124.542C157.235 124.446 157.148 124.3 157.148 124.104C157.148 123.981 157.187 123.817 157.265 123.612C157.42 123.229 157.593 123.038 157.784 123.038C157.821 123.038 157.866 123.049 157.921 123.072C158.623 123.423 159.272 123.599 159.869 123.599C160.288 123.599 160.626 123.489 160.881 123.271C161.136 123.052 161.264 122.749 161.264 122.361C161.264 121.992 161.159 121.703 160.949 121.493C160.744 121.284 160.452 121.179 160.074 121.179C159.646 121.179 159.208 121.261 158.762 121.425C158.57 121.498 158.383 121.534 158.201 121.534C157.91 121.534 157.702 121.5 157.579 121.432C157.461 121.363 157.406 121.249 157.415 121.09L157.641 117.33C157.65 117.171 157.686 117.057 157.75 116.988C157.818 116.92 157.93 116.886 158.085 116.886H162.241ZM170.921 116.735C171.186 116.735 171.37 116.788 171.475 116.893C171.585 116.997 171.639 117.15 171.639 117.351V121.069H172.815C172.924 121.069 173.009 121.09 173.068 121.131C173.127 121.167 173.171 121.236 173.198 121.336C173.23 121.436 173.246 121.582 173.246 121.773C173.246 121.965 173.23 122.111 173.198 122.211C173.171 122.311 173.127 122.38 173.068 122.416C173.009 122.452 172.924 122.471 172.815 122.471H171.639V123.599H172.61C172.719 123.599 172.804 123.619 172.863 123.66C172.922 123.697 172.965 123.765 172.993 123.865C173.025 123.965 173.041 124.111 173.041 124.303C173.041 124.494 173.025 124.64 172.993 124.74C172.965 124.84 172.922 124.909 172.863 124.945C172.804 124.982 172.719 125 172.61 125H168.768C168.659 125 168.574 124.982 168.515 124.945C168.456 124.909 168.41 124.84 168.379 124.74C168.351 124.64 168.338 124.494 168.338 124.303C168.338 124.111 168.351 123.965 168.379 123.865C168.41 123.765 168.456 123.697 168.515 123.66C168.574 123.619 168.659 123.599 168.768 123.599H169.93V122.471H166.991C166.881 122.471 166.797 122.452 166.738 122.416C166.679 122.38 166.633 122.311 166.601 122.211C166.574 122.111 166.56 121.965 166.56 121.773C166.56 121.477 166.603 121.274 166.69 121.165L169.903 117.207C170.026 117.052 170.167 116.936 170.327 116.858C170.491 116.776 170.689 116.735 170.921 116.735ZM168.495 121.069H169.992L170.101 119.073L168.495 121.069ZM180.716 116.735C180.98 116.735 181.165 116.788 181.27 116.893C181.379 116.997 181.434 117.15 181.434 117.351V121.069H182.61C182.719 121.069 182.803 121.09 182.863 121.131C182.922 121.167 182.965 121.236 182.992 121.336C183.024 121.436 183.04 121.582 183.04 121.773C183.04 121.965 183.024 122.111 182.992 122.211C182.965 122.311 182.922 122.38 182.863 122.416C182.803 122.452 182.719 122.471 182.61 122.471H181.434V123.599H182.404C182.514 123.599 182.598 123.619 182.657 123.66C182.717 123.697 182.76 123.765 182.787 123.865C182.819 123.965 182.835 124.111 182.835 124.303C182.835 124.494 182.819 124.64 182.787 124.74C182.76 124.84 182.717 124.909 182.657 124.945C182.598 124.982 182.514 125 182.404 125H178.563C178.453 125 178.369 124.982 178.31 124.945C178.251 124.909 178.205 124.84 178.173 124.74C178.146 124.64 178.132 124.494 178.132 124.303C178.132 124.111 178.146 123.965 178.173 123.865C178.205 123.765 178.251 123.697 178.31 123.66C178.369 123.619 178.453 123.599 178.563 123.599H179.725V122.471H176.785C176.676 122.471 176.592 122.452 176.532 122.416C176.473 122.38 176.428 122.311 176.396 122.211C176.368 122.111 176.355 121.965 176.355 121.773C176.355 121.477 176.398 121.274 176.485 121.165L179.697 117.207C179.821 117.052 179.962 116.936 180.121 116.858C180.285 116.776 180.484 116.735 180.716 116.735ZM178.289 121.069H179.786L179.896 119.073L178.289 121.069ZM189.41 116.735C189.984 116.735 190.492 116.852 190.934 117.084C191.376 117.316 191.746 117.651 192.042 118.089C192.229 118.367 192.372 118.704 192.472 119.101C192.577 119.497 192.63 119.925 192.63 120.386C192.63 121.871 192.21 123.02 191.372 123.831C190.538 124.642 189.232 125.082 187.455 125.15C187.336 125.155 187.243 125.098 187.175 124.979C187.111 124.861 187.068 124.674 187.045 124.419C187.036 124.341 187.031 124.239 187.031 124.111C187.031 123.715 187.124 123.51 187.311 123.496C188.141 123.455 188.799 123.35 189.287 123.182C189.779 123.008 190.146 122.76 190.387 122.437C190.629 122.113 190.784 121.685 190.852 121.151C190.606 121.425 190.331 121.628 190.025 121.76C189.72 121.887 189.369 121.951 188.972 121.951C188.467 121.951 188.015 121.844 187.619 121.63C187.222 121.411 186.913 121.108 186.689 120.721C186.466 120.333 186.354 119.889 186.354 119.388C186.354 118.877 186.484 118.422 186.744 118.021C187.008 117.615 187.373 117.3 187.838 117.077C188.303 116.849 188.827 116.735 189.41 116.735ZM189.417 118.26C189.025 118.26 188.71 118.362 188.473 118.567C188.236 118.768 188.118 119.039 188.118 119.381C188.118 119.732 188.227 120.007 188.446 120.208C188.669 120.404 188.975 120.502 189.362 120.502C189.626 120.502 189.861 120.456 190.066 120.365C190.271 120.274 190.431 120.146 190.545 119.982C190.659 119.818 190.716 119.632 190.716 119.422C190.716 119.212 190.663 119.019 190.558 118.841C190.458 118.663 190.308 118.522 190.107 118.417C189.911 118.312 189.681 118.26 189.417 118.26Z" fill="#CFB284"/>
<g clip-path="url(#clip0)">
<path d="M45.5646 123.742L43.3317 121.51C42.5343 120.712 41.1786 121.031 40.8596 122.068C40.6204 122.785 39.823 123.184 39.1053 123.025C37.5104 122.626 35.3573 120.553 34.9585 118.878C34.7193 118.16 35.1978 117.363 35.9155 117.124C36.9522 116.805 37.2711 115.449 36.4737 114.652L34.2408 112.419C33.6029 111.86 32.6459 111.86 32.0877 112.419L30.5726 113.934C29.0574 115.529 30.7321 119.755 34.4801 123.503C38.2281 127.251 42.4545 129.006 44.0494 127.411L45.5646 125.895C46.1228 125.258 46.1228 124.301 45.5646 123.742Z" fill="#CFB284"/>
</g>
<path fill-rule="evenodd" clip-rule="evenodd" d="M24 151C18.4772 151 14 155.477 14 161V177C14 182.523 18.4771 187 24 187H287C292.523 187 297 182.523 297 177V161C297 155.477 292.523 151 287 151H24ZM42.0417 160.861C40.9867 160.812 40.67 160.802 38 160.802C35.33 160.802 35.0142 160.812 33.9592 160.86C31.2467 160.983 29.9842 162.27 29.86 164.959C29.8125 166.014 29.8017 166.33 29.8017 169C29.8017 171.671 29.8117 171.987 29.86 173.041C29.9833 175.725 31.2425 177.017 33.9592 177.141C35.0133 177.189 35.33 177.199 38 177.199C40.6717 177.199 40.9867 177.189 42.0417 177.141C44.7542 177.017 46.0167 175.729 46.1408 173.042C46.1883 171.987 46.1983 171.672 46.1983 169.001C46.1983 166.331 46.1892 166.014 46.1408 164.96C46.0175 162.27 44.7517 160.984 42.0417 160.861ZM33.8775 159.06C34.9442 159.012 35.2842 159 38 159C40.7158 159 41.0567 159.012 42.1242 159.061C45.7592 159.227 47.7767 161.249 47.94 164.877C47.9883 165.944 48 166.284 48 169C48 171.716 47.9883 172.057 47.9392 173.123C47.775 176.758 45.7517 178.773 42.1233 178.94C41.0567 178.988 40.7158 179 38 179C35.2842 179 34.9442 178.988 33.8767 178.94C30.2417 178.773 28.2267 176.755 28.06 173.123C28.0117 172.057 28 171.716 28 169C28 166.284 28.0117 165.944 28.0608 164.877C28.2275 161.242 30.2458 159.227 33.8775 159.06ZM32.865 169C32.865 166.164 35.1642 163.865 38 163.865C40.8358 163.865 43.135 166.164 43.135 169C43.135 171.837 40.8358 174.136 38 174.136C35.1642 174.136 32.865 171.836 32.865 169ZM34.6667 169C34.6667 170.842 36.1592 172.333 38 172.333C39.8408 172.333 41.3333 170.842 41.3333 169C41.3333 167.159 39.8408 165.667 38 165.667C36.1592 165.667 34.6667 167.159 34.6667 169ZM42.1375 163.662C42.1375 163 42.675 162.462 43.3383 162.462C44.0008 162.462 44.5375 163 44.5375 163.662C44.5375 164.325 44.0008 164.863 43.3383 164.863C42.675 164.863 42.1375 164.325 42.1375 163.662Z" fill="white"/>
<path d="M62.0605 164.886C62.8581 164.886 63.5439 165.043 64.1182 165.357C64.6924 165.672 65.1322 166.134 65.4375 166.745C65.7428 167.351 65.8955 168.083 65.8955 168.939C65.8955 169.796 65.7428 170.53 65.4375 171.141C65.1322 171.747 64.6924 172.209 64.1182 172.528C63.5439 172.843 62.8581 173 62.0605 173H58.8408C58.7314 173 58.6471 172.982 58.5879 172.945C58.5286 172.909 58.4831 172.84 58.4512 172.74C58.4238 172.64 58.4102 172.494 58.4102 172.303C58.4102 172.111 58.4238 171.965 58.4512 171.865C58.4831 171.765 58.5286 171.697 58.5879 171.66C58.6471 171.619 58.7314 171.599 58.8408 171.599H59.5039V166.287H58.8408C58.7314 166.287 58.6471 166.269 58.5879 166.232C58.5286 166.196 58.4831 166.128 58.4512 166.027C58.4238 165.927 58.4102 165.781 58.4102 165.59C58.4102 165.398 58.4238 165.253 58.4512 165.152C58.4831 165.052 58.5286 164.984 58.5879 164.947C58.6471 164.906 58.7314 164.886 58.8408 164.886H62.0605ZM61.2129 171.53H61.9238C62.6302 171.53 63.1634 171.312 63.5234 170.874C63.8835 170.432 64.0635 169.787 64.0635 168.939C64.0635 168.092 63.8835 167.449 63.5234 167.012C63.1634 166.574 62.6302 166.355 61.9238 166.355H61.2129V171.53ZM75.5533 164.886C75.6627 164.886 75.747 164.906 75.8062 164.947C75.8655 164.984 75.9088 165.052 75.9361 165.152C75.968 165.253 75.984 165.398 75.984 165.59C75.984 165.781 75.968 165.927 75.9361 166.027C75.9088 166.128 75.8655 166.196 75.8062 166.232C75.747 166.269 75.6627 166.287 75.5533 166.287H75.1842L75.2799 171.599H75.69C75.7994 171.599 75.8837 171.619 75.943 171.66C76.0022 171.697 76.0455 171.765 76.0729 171.865C76.1048 171.965 76.1207 172.111 76.1207 172.303C76.1207 172.494 76.1048 172.64 76.0729 172.74C76.0455 172.84 76.0022 172.909 75.943 172.945C75.8837 172.982 75.7994 173 75.69 173H73.1334C73.024 173 72.9397 172.982 72.8805 172.945C72.8212 172.909 72.7757 172.84 72.7437 172.74C72.7164 172.64 72.7027 172.494 72.7027 172.303C72.7027 172.111 72.7164 171.965 72.7437 171.865C72.7757 171.765 72.8212 171.697 72.8805 171.66C72.9397 171.619 73.024 171.599 73.1334 171.599H73.7623L73.7213 167.552L72.6891 170.341C72.6298 170.5 72.5478 170.614 72.443 170.683C72.3382 170.746 72.19 170.778 71.9986 170.778C71.8027 170.778 71.6523 170.746 71.5475 170.683C71.4426 170.614 71.3583 170.5 71.2945 170.341L70.2555 167.572L70.2145 171.599H70.8502C70.9596 171.599 71.0439 171.619 71.1031 171.66C71.1624 171.697 71.2057 171.765 71.233 171.865C71.2649 171.965 71.2809 172.111 71.2809 172.303C71.2809 172.494 71.2649 172.64 71.233 172.74C71.2057 172.84 71.1624 172.909 71.1031 172.945C71.0439 172.982 70.9596 173 70.8502 173H68.2936C68.1842 173 68.0999 172.982 68.0406 172.945C67.9814 172.909 67.9358 172.84 67.9039 172.74C67.8766 172.64 67.8629 172.494 67.8629 172.303C67.8629 172.111 67.8766 171.965 67.9039 171.865C67.9358 171.765 67.9814 171.697 68.0406 171.66C68.0999 171.619 68.1842 171.599 68.2936 171.599H68.6969L68.7994 166.287H68.4303C68.3209 166.287 68.2366 166.269 68.1773 166.232C68.1181 166.196 68.0725 166.128 68.0406 166.027C68.0133 165.927 67.9996 165.781 67.9996 165.59C67.9996 165.398 68.0133 165.253 68.0406 165.152C68.0725 165.052 68.1181 164.984 68.1773 164.947C68.2366 164.906 68.3209 164.886 68.4303 164.886H70.3717C70.4674 164.886 70.5449 164.902 70.6041 164.934C70.6679 164.965 70.7135 165.02 70.7408 165.098L71.9918 168.454L73.2359 165.098C73.2633 165.02 73.3066 164.965 73.3658 164.934C73.4296 164.902 73.5094 164.886 73.6051 164.886H75.5533ZM94.0076 166.684C94.1626 166.684 94.2719 166.718 94.3357 166.786C94.4041 166.85 94.4383 166.959 94.4383 167.114V171.599H94.9646C95.074 171.599 95.1583 171.617 95.2176 171.653C95.2768 171.69 95.3201 171.758 95.3475 171.858C95.3794 171.959 95.3953 172.104 95.3953 172.296C95.3953 172.487 95.3794 172.633 95.3475 172.733C95.3201 172.834 95.2768 172.904 95.2176 172.945C95.1583 172.982 95.074 173 94.9646 173H93.4334C93.2785 173 93.1668 172.968 93.0984 172.904C93.0346 172.836 93.0027 172.724 93.0027 172.569V171.578C92.4012 172.626 91.6492 173.15 90.7469 173.15C90.3322 173.15 89.9676 173.059 89.6531 172.877C89.3432 172.695 89.104 172.437 88.9354 172.104C88.7667 171.767 88.6824 171.373 88.6824 170.922V168.085H88.1561C88.0467 168.085 87.9624 168.067 87.9031 168.03C87.8439 167.989 87.7983 167.919 87.7664 167.818C87.7391 167.718 87.7254 167.572 87.7254 167.381C87.7254 167.189 87.7391 167.044 87.7664 166.943C87.7983 166.843 87.8439 166.775 87.9031 166.738C87.9624 166.702 88.0467 166.684 88.1561 166.684H89.9607C90.1157 166.684 90.2251 166.718 90.2889 166.786C90.3572 166.85 90.3914 166.959 90.3914 167.114V170.519C90.3914 170.874 90.4529 171.143 90.576 171.325C90.699 171.507 90.9041 171.599 91.1912 171.599C91.4555 171.599 91.7062 171.489 91.9432 171.271C92.1801 171.047 92.3693 170.751 92.5105 170.382C92.6564 170.013 92.7293 169.618 92.7293 169.199V168.085H91.9979C91.8885 168.085 91.8042 168.067 91.7449 168.03C91.6857 167.989 91.6401 167.919 91.6082 167.818C91.5809 167.718 91.5672 167.572 91.5672 167.381C91.5672 167.189 91.5809 167.044 91.6082 166.943C91.6401 166.843 91.6857 166.775 91.7449 166.738C91.8042 166.702 91.8885 166.684 91.9979 166.684H94.0076ZM103.371 166.533C103.663 166.533 103.871 166.567 103.994 166.636C104.117 166.7 104.178 166.809 104.178 166.964V168.406C104.178 168.561 104.128 168.673 104.028 168.741C103.932 168.805 103.773 168.837 103.549 168.837C103.308 168.837 103.141 168.789 103.05 168.693C102.781 168.406 102.474 168.203 102.127 168.085C101.781 167.962 101.38 167.9 100.924 167.9C100.655 167.9 100.443 167.948 100.288 168.044C100.138 168.14 100.063 168.267 100.063 168.427C100.063 168.618 100.232 168.755 100.569 168.837C100.746 168.882 101.05 168.926 101.478 168.967C101.902 169.017 102.253 169.067 102.531 169.117C102.813 169.167 103.08 169.243 103.33 169.343C103.695 169.493 103.98 169.703 104.185 169.972C104.39 170.241 104.493 170.596 104.493 171.038C104.493 171.471 104.385 171.847 104.171 172.166C103.962 172.48 103.652 172.724 103.242 172.897C102.836 173.066 102.346 173.15 101.772 173.15C101.138 173.15 100.551 172.989 100.008 172.665V172.72C100.008 172.875 99.9421 172.984 99.81 173.048C99.6778 173.116 99.4659 173.15 99.1742 173.15C98.8826 173.15 98.6752 173.116 98.5521 173.048C98.4291 172.984 98.3676 172.875 98.3676 172.72V171.195C98.3676 171.045 98.42 170.936 98.5248 170.867C98.6342 170.799 98.8005 170.765 99.0238 170.765C99.3018 170.765 99.4909 170.828 99.5912 170.956C99.8191 171.243 100.111 171.453 100.466 171.585C100.822 171.717 101.211 171.783 101.635 171.783C102.364 171.783 102.729 171.594 102.729 171.216C102.729 171.102 102.676 171.011 102.572 170.942C102.471 170.874 102.321 170.817 102.121 170.771C102.007 170.749 101.742 170.708 101.328 170.648C100.867 170.594 100.471 170.532 100.138 170.464C99.81 170.391 99.5115 170.279 99.2426 170.129C98.6137 169.783 98.2992 169.236 98.2992 168.488C98.2992 168.092 98.4063 167.745 98.6205 167.449C98.8347 167.153 99.1286 166.927 99.5023 166.772C99.8806 166.613 100.304 166.533 100.774 166.533C101.462 166.533 102.073 166.7 102.606 167.032V166.964C102.606 166.809 102.661 166.7 102.77 166.636C102.884 166.567 103.084 166.533 103.371 166.533ZM120.964 166.533C121.657 166.533 122.263 166.674 122.783 166.957C123.302 167.24 123.701 167.632 123.979 168.133C124.262 168.634 124.403 169.204 124.403 169.842C124.403 170.48 124.262 171.049 123.979 171.551C123.701 172.052 123.302 172.444 122.783 172.727C122.263 173.009 121.657 173.15 120.964 173.15C120.272 173.15 119.666 173.009 119.146 172.727C118.627 172.444 118.226 172.052 117.943 171.551C117.665 171.049 117.526 170.48 117.526 169.842C117.526 169.204 117.665 168.634 117.943 168.133C118.226 167.632 118.627 167.24 119.146 166.957C119.666 166.674 120.272 166.533 120.964 166.533ZM120.964 168.085C120.636 168.085 120.351 168.158 120.11 168.304C119.868 168.445 119.682 168.648 119.549 168.912C119.422 169.176 119.358 169.486 119.358 169.842C119.358 170.197 119.422 170.507 119.549 170.771C119.682 171.036 119.868 171.241 120.11 171.387C120.351 171.528 120.636 171.599 120.964 171.599C121.293 171.599 121.577 171.528 121.819 171.387C122.06 171.241 122.245 171.036 122.373 170.771C122.505 170.507 122.571 170.197 122.571 169.842C122.571 169.486 122.505 169.176 122.373 168.912C122.245 168.648 122.06 168.445 121.819 168.304C121.577 168.158 121.293 168.085 120.964 168.085ZM131.737 166.533C132.151 166.533 132.514 166.624 132.823 166.807C133.138 166.989 133.379 167.249 133.548 167.586C133.717 167.919 133.801 168.311 133.801 168.762V171.599H134.327C134.437 171.599 134.521 171.619 134.58 171.66C134.64 171.697 134.683 171.765 134.71 171.865C134.742 171.965 134.758 172.111 134.758 172.303C134.758 172.494 134.742 172.64 134.71 172.74C134.683 172.84 134.64 172.909 134.58 172.945C134.521 172.982 134.437 173 134.327 173H131.771C131.661 173 131.577 172.982 131.518 172.945C131.459 172.909 131.413 172.84 131.381 172.74C131.354 172.64 131.34 172.494 131.34 172.303C131.34 172.111 131.354 171.965 131.381 171.865C131.413 171.765 131.459 171.697 131.518 171.66C131.577 171.619 131.661 171.599 131.771 171.599H132.092V169.165C132.092 168.81 132.03 168.541 131.907 168.358C131.784 168.176 131.579 168.085 131.292 168.085C131.028 168.085 130.777 168.197 130.54 168.42C130.303 168.639 130.112 168.933 129.966 169.302C129.825 169.671 129.754 170.065 129.754 170.484V171.599H130.075C130.185 171.599 130.269 171.619 130.328 171.66C130.388 171.697 130.431 171.765 130.458 171.865C130.49 171.965 130.506 172.111 130.506 172.303C130.506 172.494 130.49 172.64 130.458 172.74C130.431 172.84 130.388 172.909 130.328 172.945C130.269 172.982 130.185 173 130.075 173H127.519C127.409 173 127.325 172.982 127.266 172.945C127.207 172.909 127.161 172.84 127.129 172.74C127.102 172.64 127.088 172.494 127.088 172.303C127.088 172.111 127.102 171.965 127.129 171.865C127.161 171.765 127.207 171.697 127.266 171.66C127.325 171.619 127.409 171.599 127.519 171.599H128.045V168.085H127.382C127.273 168.085 127.188 168.067 127.129 168.03C127.07 167.994 127.024 167.925 126.992 167.825C126.965 167.725 126.951 167.579 126.951 167.388C126.951 167.196 126.965 167.05 126.992 166.95C127.024 166.85 127.07 166.782 127.129 166.745C127.188 166.704 127.273 166.684 127.382 166.684H129.05C129.205 166.684 129.314 166.718 129.378 166.786C129.446 166.85 129.481 166.959 129.481 167.114V168.105C130.082 167.057 130.834 166.533 131.737 166.533ZM152.816 164.886C152.925 164.886 153.01 164.906 153.069 164.947C153.128 164.984 153.171 165.052 153.199 165.152C153.231 165.253 153.246 165.398 153.246 165.59C153.246 165.781 153.231 165.927 153.199 166.027C153.171 166.128 153.128 166.196 153.069 166.232C153.01 166.269 152.925 166.287 152.816 166.287H151.203V171.599H152.953C153.062 171.599 153.146 171.619 153.205 171.66C153.265 171.697 153.308 171.765 153.335 171.865C153.367 171.965 153.383 172.111 153.383 172.303C153.383 172.494 153.367 172.64 153.335 172.74C153.308 172.84 153.265 172.909 153.205 172.945C153.146 172.982 153.062 173 152.953 173H147.744C147.634 173 147.55 172.982 147.491 172.945C147.431 172.909 147.386 172.84 147.354 172.74C147.327 172.64 147.313 172.494 147.313 172.303C147.313 172.111 147.327 171.965 147.354 171.865C147.386 171.765 147.431 171.697 147.491 171.66C147.55 171.619 147.634 171.599 147.744 171.599H149.494V166.287H147.88C147.771 166.287 147.687 166.269 147.627 166.232C147.568 166.196 147.523 166.128 147.491 166.027C147.463 165.927 147.45 165.781 147.45 165.59C147.45 165.398 147.463 165.253 147.491 165.152C147.523 165.052 147.568 164.984 147.627 164.947C147.687 164.906 147.771 164.886 147.88 164.886H152.816ZM161.12 166.533C161.535 166.533 161.897 166.624 162.207 166.807C162.521 166.989 162.763 167.249 162.932 167.586C163.1 167.919 163.185 168.311 163.185 168.762V171.599H163.711C163.82 171.599 163.905 171.619 163.964 171.66C164.023 171.697 164.066 171.765 164.094 171.865C164.126 171.965 164.142 172.111 164.142 172.303C164.142 172.494 164.126 172.64 164.094 172.74C164.066 172.84 164.023 172.909 163.964 172.945C163.905 172.982 163.82 173 163.711 173H161.154C161.045 173 160.961 172.982 160.901 172.945C160.842 172.909 160.797 172.84 160.765 172.74C160.737 172.64 160.724 172.494 160.724 172.303C160.724 172.111 160.737 171.965 160.765 171.865C160.797 171.765 160.842 171.697 160.901 171.66C160.961 171.619 161.045 171.599 161.154 171.599H161.476V169.165C161.476 168.81 161.414 168.541 161.291 168.358C161.168 168.176 160.963 168.085 160.676 168.085C160.411 168.085 160.161 168.197 159.924 168.42C159.687 168.639 159.495 168.933 159.35 169.302C159.208 169.671 159.138 170.065 159.138 170.484V171.599H159.459C159.568 171.599 159.653 171.619 159.712 171.66C159.771 171.697 159.814 171.765 159.842 171.865C159.874 171.965 159.89 172.111 159.89 172.303C159.89 172.494 159.874 172.64 159.842 172.74C159.814 172.84 159.771 172.909 159.712 172.945C159.653 172.982 159.568 173 159.459 173H156.902C156.793 173 156.709 172.982 156.649 172.945C156.59 172.909 156.545 172.84 156.513 172.74C156.485 172.64 156.472 172.494 156.472 172.303C156.472 172.111 156.485 171.965 156.513 171.865C156.545 171.765 156.59 171.697 156.649 171.66C156.709 171.619 156.793 171.599 156.902 171.599H157.429V168.085H156.766C156.656 168.085 156.572 168.067 156.513 168.03C156.453 167.994 156.408 167.925 156.376 167.825C156.349 167.725 156.335 167.579 156.335 167.388C156.335 167.196 156.349 167.05 156.376 166.95C156.408 166.85 156.453 166.782 156.513 166.745C156.572 166.704 156.656 166.684 156.766 166.684H158.434C158.589 166.684 158.698 166.718 158.762 166.786C158.83 166.85 158.864 166.959 158.864 167.114V168.105C159.466 167.057 160.218 166.533 161.12 166.533ZM171.933 166.533C172.225 166.533 172.432 166.567 172.555 166.636C172.678 166.7 172.74 166.809 172.74 166.964V168.406C172.74 168.561 172.69 168.673 172.589 168.741C172.494 168.805 172.334 168.837 172.111 168.837C171.869 168.837 171.703 168.789 171.612 168.693C171.343 168.406 171.035 168.203 170.689 168.085C170.343 167.962 169.942 167.9 169.486 167.9C169.217 167.9 169.005 167.948 168.85 168.044C168.7 168.14 168.625 168.267 168.625 168.427C168.625 168.618 168.793 168.755 169.13 168.837C169.308 168.882 169.611 168.926 170.04 168.967C170.463 169.017 170.814 169.067 171.092 169.117C171.375 169.167 171.642 169.243 171.892 169.343C172.257 169.493 172.542 169.703 172.747 169.972C172.952 170.241 173.054 170.596 173.054 171.038C173.054 171.471 172.947 171.847 172.733 172.166C172.523 172.48 172.213 172.724 171.803 172.897C171.398 173.066 170.908 173.15 170.334 173.15C169.7 173.15 169.112 172.989 168.57 172.665V172.72C168.57 172.875 168.504 172.984 168.372 173.048C168.24 173.116 168.028 173.15 167.736 173.15C167.444 173.15 167.237 173.116 167.114 173.048C166.991 172.984 166.929 172.875 166.929 172.72V171.195C166.929 171.045 166.982 170.936 167.087 170.867C167.196 170.799 167.362 170.765 167.586 170.765C167.864 170.765 168.053 170.828 168.153 170.956C168.381 171.243 168.672 171.453 169.028 171.585C169.383 171.717 169.773 171.783 170.197 171.783C170.926 171.783 171.291 171.594 171.291 171.216C171.291 171.102 171.238 171.011 171.133 170.942C171.033 170.874 170.883 170.817 170.682 170.771C170.568 170.749 170.304 170.708 169.889 170.648C169.429 170.594 169.032 170.532 168.7 170.464C168.372 170.391 168.073 170.279 167.804 170.129C167.175 169.783 166.861 169.236 166.861 168.488C166.861 168.092 166.968 167.745 167.182 167.449C167.396 167.153 167.69 166.927 168.064 166.772C168.442 166.613 168.866 166.533 169.336 166.533C170.024 166.533 170.634 166.7 171.168 167.032V166.964C171.168 166.809 171.222 166.7 171.332 166.636C171.446 166.567 171.646 166.533 171.933 166.533ZM178.85 164.735C179.064 164.735 179.228 164.751 179.342 164.783C179.46 164.811 179.543 164.854 179.588 164.913C179.634 164.972 179.656 165.057 179.656 165.166V167.094H182.193C182.352 167.094 182.464 167.146 182.528 167.251C182.591 167.356 182.623 167.549 182.623 167.832C182.623 168.115 182.591 168.308 182.528 168.413C182.464 168.513 182.352 168.563 182.193 168.563H179.656V170.464C179.656 171.22 179.95 171.599 180.538 171.599C180.748 171.599 180.992 171.553 181.27 171.462C181.552 171.366 181.88 171.234 182.254 171.065C182.354 171.024 182.434 171.004 182.493 171.004C182.589 171.004 182.678 171.045 182.76 171.127C182.842 171.204 182.919 171.334 182.992 171.517C183.074 171.722 183.115 171.888 183.115 172.016C183.115 172.116 183.09 172.2 183.04 172.269C182.995 172.332 182.924 172.389 182.828 172.439C181.89 172.913 181.076 173.15 180.388 173.15C179.595 173.15 178.989 172.929 178.57 172.487C178.155 172.045 177.947 171.4 177.947 170.553V168.563H176.628C176.469 168.563 176.357 168.513 176.293 168.413C176.229 168.308 176.197 168.115 176.197 167.832C176.197 167.549 176.229 167.356 176.293 167.251C176.357 167.146 176.469 167.094 176.628 167.094H177.947V165.166C177.947 165.011 178.016 164.902 178.153 164.838C178.294 164.77 178.526 164.735 178.85 164.735ZM189.451 166.533C190.454 166.533 191.178 166.75 191.625 167.183C192.071 167.616 192.295 168.235 192.295 169.042V171.018C192.295 171.2 192.333 171.343 192.411 171.448C192.488 171.549 192.6 171.599 192.746 171.599H192.958C193.067 171.599 193.151 171.619 193.211 171.66C193.27 171.697 193.313 171.765 193.341 171.865C193.373 171.965 193.388 172.111 193.388 172.303C193.388 172.494 193.373 172.64 193.341 172.74C193.313 172.84 193.27 172.909 193.211 172.945C193.151 172.982 193.067 173 192.958 173H192.192C191.91 173 191.659 172.943 191.44 172.829C191.226 172.711 191.062 172.526 190.948 172.275C190.588 172.553 190.207 172.77 189.806 172.925C189.405 173.075 188.993 173.15 188.569 173.15C188.054 173.15 187.61 173.064 187.236 172.891C186.862 172.713 186.575 172.462 186.375 172.139C186.179 171.811 186.081 171.425 186.081 170.983C186.081 170.345 186.306 169.851 186.758 169.5C187.209 169.149 187.84 168.974 188.651 168.974C189.257 168.974 189.902 169.042 190.586 169.179V168.98C190.586 168.675 190.49 168.45 190.299 168.304C190.107 168.158 189.77 168.085 189.287 168.085C189.018 168.085 188.717 168.119 188.385 168.188C188.056 168.251 187.731 168.338 187.407 168.447C187.33 168.47 187.263 168.481 187.209 168.481C187.095 168.481 186.992 168.44 186.901 168.358C186.815 168.272 186.735 168.128 186.662 167.928C186.594 167.727 186.559 167.563 186.559 167.436C186.559 167.203 186.664 167.048 186.874 166.971C187.279 166.825 187.71 166.715 188.166 166.643C188.622 166.57 189.05 166.533 189.451 166.533ZM188.822 170.382C188.503 170.382 188.259 170.439 188.091 170.553C187.927 170.667 187.845 170.833 187.845 171.052C187.845 171.266 187.924 171.43 188.084 171.544C188.248 171.653 188.483 171.708 188.788 171.708C189.102 171.708 189.412 171.646 189.718 171.523C190.027 171.396 190.317 171.223 190.586 171.004V170.566C189.984 170.443 189.396 170.382 188.822 170.382ZM198.733 166.533C199.166 166.533 199.56 166.624 199.915 166.807C200.271 166.989 200.567 167.251 200.804 167.593V167.114C200.804 166.959 200.836 166.85 200.9 166.786C200.968 166.718 201.08 166.684 201.235 166.684H202.834C202.944 166.684 203.028 166.704 203.087 166.745C203.147 166.782 203.19 166.85 203.217 166.95C203.249 167.05 203.265 167.196 203.265 167.388C203.265 167.579 203.249 167.725 203.217 167.825C203.19 167.925 203.147 167.994 203.087 168.03C203.028 168.067 202.944 168.085 202.834 168.085H202.24V172.993C202.24 173.886 201.971 174.577 201.433 175.064C200.9 175.557 200.1 175.803 199.034 175.803C198.642 175.803 198.213 175.764 197.748 175.687C197.284 175.614 196.839 175.511 196.415 175.379C196.197 175.311 196.087 175.153 196.087 174.907C196.087 174.798 196.117 174.638 196.176 174.429C196.245 174.215 196.32 174.06 196.402 173.964C196.488 173.868 196.589 173.82 196.703 173.82C196.762 173.82 196.816 173.829 196.867 173.848C197.737 174.117 198.437 174.251 198.965 174.251C199.517 174.251 199.915 174.135 200.162 173.902C200.408 173.674 200.531 173.326 200.531 172.856V172.159C200.298 172.41 200.029 172.604 199.724 172.74C199.419 172.877 199.088 172.945 198.733 172.945C198.145 172.945 197.628 172.809 197.181 172.535C196.734 172.257 196.39 171.877 196.149 171.394C195.907 170.906 195.787 170.354 195.787 169.739C195.787 169.124 195.907 168.575 196.149 168.092C196.39 167.604 196.734 167.224 197.181 166.95C197.628 166.672 198.145 166.533 198.733 166.533ZM199.006 168.085C198.582 168.085 198.245 168.231 197.995 168.522C197.744 168.81 197.619 169.215 197.619 169.739C197.619 170.263 197.744 170.671 197.995 170.963C198.245 171.25 198.582 171.394 199.006 171.394C199.298 171.394 199.562 171.332 199.799 171.209C200.041 171.081 200.23 170.895 200.367 170.648C200.508 170.398 200.579 170.095 200.579 169.739C200.579 169.384 200.508 169.083 200.367 168.837C200.23 168.586 200.041 168.399 199.799 168.276C199.562 168.149 199.298 168.085 199.006 168.085ZM211.255 166.533C211.642 166.533 212.007 166.661 212.349 166.916C212.549 167.062 212.649 167.253 212.649 167.49C212.649 167.641 212.608 167.818 212.526 168.023C212.444 168.229 212.351 168.383 212.246 168.488C212.146 168.593 212.039 168.646 211.925 168.646C211.861 168.646 211.793 168.627 211.72 168.591C211.465 168.45 211.2 168.379 210.927 168.379C210.576 168.379 210.248 168.491 209.942 168.714C209.637 168.937 209.391 169.245 209.204 169.637C209.022 170.029 208.931 170.466 208.931 170.949V171.599H210.893C211.002 171.599 211.086 171.619 211.146 171.66C211.205 171.697 211.248 171.765 211.275 171.865C211.307 171.965 211.323 172.111 211.323 172.303C211.323 172.494 211.307 172.64 211.275 172.74C211.248 172.84 211.205 172.909 211.146 172.945C211.086 172.982 211.002 173 210.893 173H206.217C206.107 173 206.023 172.982 205.964 172.945C205.905 172.909 205.859 172.84 205.827 172.74C205.8 172.64 205.786 172.494 205.786 172.303C205.786 172.111 205.8 171.965 205.827 171.865C205.859 171.765 205.905 171.697 205.964 171.66C206.023 171.619 206.107 171.599 206.217 171.599H207.222V168.085H206.422C206.312 168.085 206.228 168.067 206.169 168.03C206.11 167.994 206.064 167.925 206.032 167.825C206.005 167.725 205.991 167.579 205.991 167.388C205.991 167.196 206.005 167.05 206.032 166.95C206.064 166.85 206.11 166.782 206.169 166.745C206.228 166.704 206.312 166.684 206.422 166.684H208.295C208.45 166.684 208.559 166.718 208.623 166.786C208.691 166.85 208.726 166.959 208.726 167.114V168.598C209.067 167.937 209.459 167.429 209.901 167.073C210.348 166.713 210.799 166.533 211.255 166.533ZM218.835 166.533C219.837 166.533 220.562 166.75 221.008 167.183C221.455 167.616 221.678 168.235 221.678 169.042V171.018C221.678 171.2 221.717 171.343 221.795 171.448C221.872 171.549 221.984 171.599 222.129 171.599H222.341C222.451 171.599 222.535 171.619 222.594 171.66C222.654 171.697 222.697 171.765 222.724 171.865C222.756 171.965 222.772 172.111 222.772 172.303C222.772 172.494 222.756 172.64 222.724 172.74C222.697 172.84 222.654 172.909 222.594 172.945C222.535 172.982 222.451 173 222.341 173H221.576C221.293 173 221.043 172.943 220.824 172.829C220.61 172.711 220.446 172.526 220.332 172.275C219.972 172.553 219.591 172.77 219.19 172.925C218.789 173.075 218.377 173.15 217.953 173.15C217.438 173.15 216.993 173.064 216.62 172.891C216.246 172.713 215.959 172.462 215.758 172.139C215.562 171.811 215.464 171.425 215.464 170.983C215.464 170.345 215.69 169.851 216.141 169.5C216.592 169.149 217.224 168.974 218.035 168.974C218.641 168.974 219.286 169.042 219.969 169.179V168.98C219.969 168.675 219.874 168.45 219.682 168.304C219.491 168.158 219.154 168.085 218.671 168.085C218.402 168.085 218.101 168.119 217.768 168.188C217.44 168.251 217.114 168.338 216.791 168.447C216.713 168.47 216.647 168.481 216.592 168.481C216.478 168.481 216.376 168.44 216.285 168.358C216.198 168.272 216.118 168.128 216.046 167.928C215.977 167.727 215.943 167.563 215.943 167.436C215.943 167.203 216.048 167.048 216.257 166.971C216.663 166.825 217.094 166.715 217.549 166.643C218.005 166.57 218.434 166.533 218.835 166.533ZM218.206 170.382C217.887 170.382 217.643 170.439 217.474 170.553C217.31 170.667 217.228 170.833 217.228 171.052C217.228 171.266 217.308 171.43 217.467 171.544C217.631 171.653 217.866 171.708 218.171 171.708C218.486 171.708 218.796 171.646 219.101 171.523C219.411 171.396 219.7 171.223 219.969 171.004V170.566C219.368 170.443 218.78 170.382 218.206 170.382ZM231.111 166.533C231.53 166.533 231.86 166.704 232.102 167.046C232.343 167.388 232.464 167.907 232.464 168.604V172.569C232.464 172.724 232.43 172.836 232.362 172.904C232.298 172.968 232.188 173 232.033 173H231.186C231.031 173 230.919 172.968 230.851 172.904C230.787 172.836 230.755 172.724 230.755 172.569V168.994C230.755 168.753 230.725 168.575 230.666 168.461C230.612 168.347 230.523 168.29 230.4 168.29C230.185 168.29 230.015 168.456 229.887 168.789C229.764 169.122 229.702 169.607 229.702 170.245V172.569C229.702 172.724 229.668 172.836 229.6 172.904C229.536 172.968 229.427 173 229.272 173H228.424C228.269 173 228.157 172.968 228.089 172.904C228.025 172.836 227.993 172.724 227.993 172.569V168.994C227.993 168.753 227.964 168.575 227.904 168.461C227.85 168.347 227.761 168.29 227.638 168.29C227.424 168.29 227.253 168.456 227.125 168.789C227.002 169.122 226.941 169.607 226.941 170.245V172.569C226.941 172.724 226.906 172.836 226.838 172.904C226.774 172.968 226.665 173 226.51 173H225.662C225.507 173 225.396 172.968 225.327 172.904C225.264 172.836 225.232 172.724 225.232 172.569V168.085H224.842C224.733 168.085 224.648 168.067 224.589 168.03C224.53 167.994 224.487 167.925 224.459 167.825C224.427 167.725 224.411 167.579 224.411 167.388C224.411 167.196 224.427 167.05 224.459 166.95C224.487 166.85 224.53 166.782 224.589 166.745C224.648 166.704 224.733 166.684 224.842 166.684H226.031C226.186 166.684 226.296 166.718 226.36 166.786C226.428 166.85 226.462 166.959 226.462 167.114V168.099C226.676 167.584 226.927 167.194 227.214 166.93C227.506 166.665 227.825 166.533 228.171 166.533C228.846 166.533 229.281 166.996 229.477 167.921C229.686 167.465 229.93 167.121 230.208 166.889C230.486 166.652 230.787 166.533 231.111 166.533Z" fill="#CFB284"/>
<defs>
<clipPath id="clip0">
<rect width="16" height="16" fill="white" transform="translate(30 112)"/>
</clipPath>
</defs>
</svg>
