<svg width="320" height="36" viewBox="0 0 320 36" fill="none" xmlns="http://www.w3.org/2000/svg">
<rect width="320" height="36" rx="10" fill="white"/>
<g clip-path="url(#clip0)">
<path d="M35.9784 13.4681C35.9268 12.2991 35.7378 11.4955 35.467 10.7991C35.1877 10.0599 34.7579 9.39816 34.1948 8.84802C33.6447 8.28931 32.9785 7.85518 32.2479 7.58019C31.5475 7.3094 30.7481 7.12037 29.5792 7.06883C28.4015 7.01293 28.0276 7 25.0407 7C22.0538 7 21.6799 7.01293 20.5066 7.06447C19.3377 7.116 18.534 7.3052 17.8378 7.57583C17.0985 7.85518 16.4367 8.28495 15.8866 8.84802C15.3279 9.39816 14.8939 10.0643 14.6188 10.7949C14.348 11.4955 14.1589 12.2947 14.1074 13.4637C14.0515 14.6414 14.0386 15.0152 14.0386 18.0021C14.0386 20.9891 14.0515 21.3629 14.103 22.5362C14.1546 23.7052 14.3438 24.5088 14.6146 25.2052C14.8939 25.9444 15.3279 26.6061 15.8866 27.1563C16.4367 27.715 17.1029 28.1491 17.8335 28.4241C18.534 28.6949 19.3333 28.8839 20.5024 28.9355C21.6756 28.9872 22.0496 28.9999 25.0365 28.9999C28.0234 28.9999 28.3973 28.9872 29.5706 28.9355C30.7395 28.8839 31.5432 28.6949 32.2394 28.4241C33.7179 27.8525 34.8868 26.6835 35.4584 25.2052C35.7291 24.5046 35.9183 23.7052 35.9698 22.5362C36.0213 21.3629 36.0343 20.9891 36.0343 18.0021C36.0343 15.0152 36.0299 14.6414 35.9784 13.4681ZM33.9972 22.4503C33.9499 23.5247 33.7694 24.1049 33.619 24.4917C33.2493 25.4501 32.4887 26.2108 31.5302 26.5805C31.1435 26.7309 30.5591 26.9113 29.4888 26.9585C28.3285 27.0102 27.9804 27.023 25.0451 27.023C22.1097 27.023 21.7573 27.0102 20.6011 26.9585C19.5267 26.9113 18.9465 26.7309 18.5597 26.5805C18.0828 26.4042 17.6486 26.1248 17.2963 25.7595C16.931 25.4028 16.6516 24.973 16.4753 24.4961C16.3249 24.1093 16.1445 23.5247 16.0973 22.4546C16.0456 21.2943 16.0328 20.9461 16.0328 18.0107C16.0328 15.0753 16.0456 14.723 16.0973 13.5669C16.1445 12.4925 16.3249 11.9123 16.4753 11.5255C16.6516 11.0484 16.931 10.6144 17.3006 10.2619C17.6572 9.89659 18.087 9.61724 18.5641 9.44114C18.9509 9.29072 19.5354 9.11024 20.6055 9.0629C21.7659 9.01136 22.1141 8.99844 25.0493 8.99844C27.989 8.99844 28.337 9.01136 29.4932 9.0629C30.5676 9.11024 31.1478 9.29072 31.5346 9.44114C32.0116 9.61724 32.4457 9.89659 32.7981 10.2619C33.1634 10.6186 33.4427 11.0484 33.619 11.5255C33.7694 11.9123 33.9499 12.4967 33.9972 13.5669C34.0488 14.7273 34.0617 15.0753 34.0617 18.0107C34.0617 20.9461 34.0488 21.2899 33.9972 22.4503Z" fill="#CFB284"/>
<path d="M25.0409 12.3506C21.9209 12.3506 19.3894 14.8819 19.3894 18.0021C19.3894 21.1223 21.9209 23.6536 25.0409 23.6536C28.1611 23.6536 30.6924 21.1223 30.6924 18.0021C30.6924 14.8819 28.1611 12.3506 25.0409 12.3506ZM25.0409 21.6681C23.0168 21.6681 21.3749 20.0264 21.3749 18.0021C21.3749 15.9778 23.0168 14.3361 25.0409 14.3361C27.0652 14.3361 28.7069 15.9778 28.7069 18.0021C28.7069 20.0264 27.0652 21.6681 25.0409 21.6681V21.6681Z" fill="#CFB284"/>
<path d="M32.2354 12.128C32.2354 12.8566 31.6446 13.4473 30.9158 13.4473C30.1872 13.4473 29.5964 12.8566 29.5964 12.128C29.5964 11.3992 30.1872 10.8086 30.9158 10.8086C31.6446 10.8086 32.2354 11.3992 32.2354 12.128V12.128Z" fill="#CFB284"/>
</g>
<path d="M54.0605 13.8857C54.8581 13.8857 55.5439 14.043 56.1182 14.3574C56.6924 14.6719 57.1322 15.1344 57.4375 15.7451C57.7428 16.3512 57.8955 17.0827 57.8955 17.9395C57.8955 18.7962 57.7428 19.5299 57.4375 20.1406C57.1322 20.7467 56.6924 21.2093 56.1182 21.5283C55.5439 21.8428 54.8581 22 54.0605 22H50.8408C50.7314 22 50.6471 21.9818 50.5879 21.9453C50.5286 21.9089 50.4831 21.8405 50.4512 21.7402C50.4238 21.64 50.4102 21.4941 50.4102 21.3027C50.4102 21.1113 50.4238 20.9655 50.4512 20.8652C50.4831 20.765 50.5286 20.6966 50.5879 20.6602C50.6471 20.6191 50.7314 20.5986 50.8408 20.5986H51.5039V15.2871H50.8408C50.7314 15.2871 50.6471 15.2689 50.5879 15.2324C50.5286 15.196 50.4831 15.1276 50.4512 15.0273C50.4238 14.9271 50.4102 14.7812 50.4102 14.5898C50.4102 14.3984 50.4238 14.2526 50.4512 14.1523C50.4831 14.0521 50.5286 13.9837 50.5879 13.9473C50.6471 13.9062 50.7314 13.8857 50.8408 13.8857H54.0605ZM53.2129 20.5303H53.9238C54.6302 20.5303 55.1634 20.3115 55.5234 19.874C55.8835 19.432 56.0635 18.7871 56.0635 17.9395C56.0635 17.0918 55.8835 16.4492 55.5234 16.0117C55.1634 15.5742 54.6302 15.3555 53.9238 15.3555H53.2129V20.5303ZM64.5113 15.6836C64.6663 15.6836 64.7757 15.7178 64.8395 15.7861C64.9078 15.8499 64.942 15.9593 64.942 16.1143V20.5986H66.8629C66.9723 20.5986 67.0566 20.6191 67.1158 20.6602C67.1751 20.6966 67.2184 20.765 67.2457 20.8652C67.2776 20.9655 67.2936 21.1113 67.2936 21.3027C67.2936 21.4941 67.2776 21.64 67.2457 21.7402C67.2184 21.8405 67.1751 21.9089 67.1158 21.9453C67.0566 21.9818 66.9723 22 66.8629 22H61.3668C61.2574 22 61.1731 21.9818 61.1139 21.9453C61.0546 21.9089 61.009 21.8405 60.9771 21.7402C60.9498 21.64 60.9361 21.4941 60.9361 21.3027C60.9361 21.1113 60.9498 20.9655 60.9771 20.8652C61.009 20.765 61.0546 20.6966 61.1139 20.6602C61.1731 20.6191 61.2574 20.5986 61.3668 20.5986H63.233V17.085H61.777C61.6676 17.085 61.5833 17.0667 61.524 17.0303C61.4648 16.9938 61.4192 16.9255 61.3873 16.8252C61.36 16.7249 61.3463 16.5791 61.3463 16.3877C61.3463 16.1963 61.36 16.0505 61.3873 15.9502C61.4192 15.8499 61.4648 15.7816 61.524 15.7451C61.5833 15.7041 61.6676 15.6836 61.777 15.6836H64.5113ZM64.067 12.6826C64.3906 12.6826 64.6161 12.7168 64.7437 12.7852C64.8759 12.849 64.942 12.9583 64.942 13.1133V14.2344C64.942 14.3893 64.8805 14.501 64.7574 14.5693C64.6389 14.6331 64.4202 14.665 64.1012 14.665C63.7822 14.665 63.5566 14.6331 63.4244 14.5693C63.2968 14.501 63.233 14.3893 63.233 14.2344V13.1133C63.233 12.9538 63.2923 12.8421 63.4107 12.7783C63.5292 12.7145 63.748 12.6826 64.067 12.6826ZM75.926 15.5332C76.3133 15.5332 76.6779 15.6608 77.0197 15.916C77.2202 16.0618 77.3205 16.2533 77.3205 16.4902C77.3205 16.6406 77.2795 16.8184 77.1975 17.0234C77.1154 17.2285 77.022 17.3835 76.9172 17.4883C76.8169 17.5931 76.7098 17.6455 76.5959 17.6455C76.5321 17.6455 76.4637 17.6273 76.3908 17.5908C76.1356 17.4495 75.8713 17.3789 75.5979 17.3789C75.2469 17.3789 74.9188 17.4906 74.6135 17.7139C74.3081 17.9372 74.062 18.2448 73.8752 18.6367C73.6929 19.0286 73.6018 19.4661 73.6018 19.9492V20.5986H75.5637C75.673 20.5986 75.7574 20.6191 75.8166 20.6602C75.8758 20.6966 75.9191 20.765 75.9465 20.8652C75.9784 20.9655 75.9943 21.1113 75.9943 21.3027C75.9943 21.4941 75.9784 21.64 75.9465 21.7402C75.9191 21.8405 75.8758 21.9089 75.8166 21.9453C75.7574 21.9818 75.673 22 75.5637 22H70.8879C70.7785 22 70.6942 21.9818 70.635 21.9453C70.5757 21.9089 70.5301 21.8405 70.4982 21.7402C70.4709 21.64 70.4572 21.4941 70.4572 21.3027C70.4572 21.1113 70.4709 20.9655 70.4982 20.8652C70.5301 20.765 70.5757 20.6966 70.635 20.6602C70.6942 20.6191 70.7785 20.5986 70.8879 20.5986H71.8928V17.085H71.093C70.9836 17.085 70.8993 17.0667 70.84 17.0303C70.7808 16.9938 70.7352 16.9255 70.7033 16.8252C70.676 16.7249 70.6623 16.5791 70.6623 16.3877C70.6623 16.1963 70.676 16.0505 70.7033 15.9502C70.7352 15.8499 70.7808 15.7816 70.84 15.7451C70.8993 15.7041 70.9836 15.6836 71.093 15.6836H72.966C73.121 15.6836 73.2303 15.7178 73.2941 15.7861C73.3625 15.8499 73.3967 15.9593 73.3967 16.1143V17.5977C73.7385 16.9368 74.1304 16.4287 74.5725 16.0732C75.0191 15.7132 75.4702 15.5332 75.926 15.5332ZM83.6766 15.5332C84.3693 15.5332 84.9594 15.6836 85.4471 15.9844C85.9347 16.2806 86.3016 16.6953 86.5477 17.2285C86.7983 17.7572 86.9236 18.3633 86.9236 19.0469C86.9236 19.2018 86.8895 19.3112 86.8211 19.375C86.7573 19.4388 86.6479 19.4707 86.493 19.4707H82.1043C82.1909 19.8353 82.3755 20.1156 82.658 20.3115C82.9451 20.5029 83.3074 20.5986 83.7449 20.5986C84.4513 20.5986 85.2169 20.4733 86.0418 20.2227C86.0965 20.2044 86.1512 20.1953 86.2059 20.1953C86.3061 20.1953 86.3927 20.2409 86.4656 20.332C86.5385 20.4232 86.6046 20.5781 86.6639 20.7969C86.7094 20.9655 86.7322 21.109 86.7322 21.2275C86.7322 21.346 86.7049 21.4395 86.6502 21.5078C86.6001 21.5716 86.5158 21.624 86.3973 21.665C85.9415 21.8154 85.4767 21.9339 85.0027 22.0205C84.5288 22.1071 84.0639 22.1504 83.6082 22.1504C82.9155 22.1504 82.3185 22.0091 81.8172 21.7266C81.3159 21.444 80.9331 21.0544 80.6688 20.5576C80.409 20.0563 80.2791 19.4844 80.2791 18.8418C80.2791 18.2038 80.4158 17.6341 80.6893 17.1328C80.9627 16.6315 81.3569 16.2396 81.8719 15.957C82.3868 15.6745 82.9884 15.5332 83.6766 15.5332ZM83.6766 17.085C82.8426 17.085 82.3276 17.4359 82.1316 18.1377H85.1395C85.062 17.805 84.8956 17.5475 84.6404 17.3652C84.3898 17.1784 84.0685 17.085 83.6766 17.085ZM95.7064 15.5332C95.989 15.5332 96.1827 15.5651 96.2875 15.6289C96.3923 15.6927 96.4447 15.8044 96.4447 15.9639V18.1582C96.4447 18.3132 96.3741 18.4248 96.2328 18.4932C96.0961 18.557 95.8659 18.5889 95.5424 18.5889C95.3282 18.5889 95.1618 18.5752 95.0434 18.5479C94.9294 18.516 94.8497 18.4704 94.8041 18.4111C94.7585 18.3519 94.7357 18.2676 94.7357 18.1582C94.7357 17.9668 94.6879 17.7891 94.5922 17.625C94.501 17.4609 94.362 17.3311 94.1752 17.2354C93.9929 17.1351 93.7719 17.085 93.5121 17.085C93.184 17.085 92.8969 17.1579 92.6508 17.3037C92.4047 17.445 92.2133 17.6501 92.0766 17.9189C91.9444 18.1833 91.8783 18.4909 91.8783 18.8418C91.8783 19.1927 91.9444 19.5026 92.0766 19.7715C92.2133 20.0358 92.4047 20.2409 92.6508 20.3867C92.8969 20.528 93.184 20.5986 93.5121 20.5986C93.863 20.5986 94.2208 20.5417 94.5854 20.4277C94.9545 20.3138 95.3122 20.1566 95.6586 19.9561C95.7406 19.9105 95.8158 19.8877 95.8842 19.8877C96.0893 19.8877 96.2693 20.0677 96.4242 20.4277C96.5062 20.6237 96.5473 20.79 96.5473 20.9268C96.5473 21.1318 96.4493 21.2891 96.2533 21.3984C95.8295 21.6354 95.3829 21.82 94.9135 21.9521C94.4486 22.0843 93.9815 22.1504 93.5121 22.1504C92.8194 22.1504 92.211 22.0091 91.6869 21.7266C91.1628 21.444 90.7572 21.0521 90.4701 20.5508C90.1876 20.0495 90.0463 19.4798 90.0463 18.8418C90.0463 18.2038 90.1898 17.6341 90.477 17.1328C90.7641 16.627 91.1537 16.235 91.6459 15.957C92.1426 15.6745 92.6964 15.5332 93.307 15.5332C94.0453 15.5332 94.5671 15.7998 94.8725 16.333V15.9639C94.8725 15.8089 94.9385 15.6995 95.0707 15.6357C95.2029 15.5674 95.4148 15.5332 95.7064 15.5332ZM102.288 13.7354C102.502 13.7354 102.666 13.7513 102.78 13.7832C102.899 13.8105 102.981 13.8538 103.026 13.9131C103.072 13.9723 103.095 14.0566 103.095 14.166V16.0938H105.631C105.79 16.0938 105.902 16.1462 105.966 16.251C106.03 16.3558 106.062 16.5495 106.062 16.832C106.062 17.1146 106.03 17.3083 105.966 17.4131C105.902 17.5133 105.79 17.5635 105.631 17.5635H103.095V19.4639C103.095 20.2204 103.389 20.5986 103.977 20.5986C104.186 20.5986 104.43 20.5531 104.708 20.4619C104.991 20.3662 105.319 20.234 105.692 20.0654C105.793 20.0244 105.872 20.0039 105.932 20.0039C106.027 20.0039 106.116 20.0449 106.198 20.127C106.28 20.2044 106.358 20.3343 106.431 20.5166C106.513 20.7217 106.554 20.888 106.554 21.0156C106.554 21.1159 106.529 21.2002 106.479 21.2686C106.433 21.3324 106.362 21.3893 106.267 21.4395C105.328 21.9134 104.514 22.1504 103.826 22.1504C103.033 22.1504 102.427 21.9294 102.008 21.4873C101.593 21.0452 101.386 20.4004 101.386 19.5527V17.5635H100.066C99.9069 17.5635 99.7952 17.5133 99.7314 17.4131C99.6676 17.3083 99.6357 17.1146 99.6357 16.832C99.6357 16.5495 99.6676 16.3558 99.7314 16.251C99.7952 16.1462 99.9069 16.0938 100.066 16.0938H101.386V14.166C101.386 14.0111 101.454 13.9017 101.591 13.8379C101.732 13.7695 101.965 13.7354 102.288 13.7354ZM126.321 13.8857C126.43 13.8857 126.514 13.9062 126.573 13.9473C126.633 13.9837 126.676 14.0521 126.703 14.1523C126.735 14.2526 126.751 14.3984 126.751 14.5898C126.751 14.7812 126.735 14.9271 126.703 15.0273C126.676 15.1276 126.633 15.196 126.573 15.2324C126.514 15.2689 126.43 15.2871 126.321 15.2871H125.951L126.047 20.5986H126.457C126.567 20.5986 126.651 20.6191 126.71 20.6602C126.769 20.6966 126.813 20.765 126.84 20.8652C126.872 20.9655 126.888 21.1113 126.888 21.3027C126.888 21.4941 126.872 21.64 126.84 21.7402C126.813 21.8405 126.769 21.9089 126.71 21.9453C126.651 21.9818 126.567 22 126.457 22H123.901C123.791 22 123.707 21.9818 123.648 21.9453C123.588 21.9089 123.543 21.8405 123.511 21.7402C123.484 21.64 123.47 21.4941 123.47 21.3027C123.47 21.1113 123.484 20.9655 123.511 20.8652C123.543 20.765 123.588 20.6966 123.648 20.6602C123.707 20.6191 123.791 20.5986 123.901 20.5986H124.529L124.488 16.5518L123.456 19.3408C123.397 19.5003 123.315 19.6143 123.21 19.6826C123.105 19.7464 122.957 19.7783 122.766 19.7783C122.57 19.7783 122.419 19.7464 122.315 19.6826C122.21 19.6143 122.126 19.5003 122.062 19.3408L121.023 16.5723L120.982 20.5986H121.617C121.727 20.5986 121.811 20.6191 121.87 20.6602C121.93 20.6966 121.973 20.765 122 20.8652C122.032 20.9655 122.048 21.1113 122.048 21.3027C122.048 21.4941 122.032 21.64 122 21.7402C121.973 21.8405 121.93 21.9089 121.87 21.9453C121.811 21.9818 121.727 22 121.617 22H119.061C118.951 22 118.867 21.9818 118.808 21.9453C118.749 21.9089 118.703 21.8405 118.671 21.7402C118.644 21.64 118.63 21.4941 118.63 21.3027C118.63 21.1113 118.644 20.9655 118.671 20.8652C118.703 20.765 118.749 20.6966 118.808 20.6602C118.867 20.6191 118.951 20.5986 119.061 20.5986H119.464L119.567 15.2871H119.197C119.088 15.2871 119.004 15.2689 118.945 15.2324C118.885 15.196 118.84 15.1276 118.808 15.0273C118.78 14.9271 118.767 14.7812 118.767 14.5898C118.767 14.3984 118.78 14.2526 118.808 14.1523C118.84 14.0521 118.885 13.9837 118.945 13.9473C119.004 13.9062 119.088 13.8857 119.197 13.8857H121.139C121.235 13.8857 121.312 13.9017 121.371 13.9336C121.435 13.9655 121.481 14.0202 121.508 14.0977L122.759 17.4541L124.003 14.0977C124.03 14.0202 124.074 13.9655 124.133 13.9336C124.197 13.9017 124.277 13.8857 124.372 13.8857H126.321ZM132.649 15.5332C133.342 15.5332 133.932 15.6836 134.42 15.9844C134.907 16.2806 135.274 16.6953 135.52 17.2285C135.771 17.7572 135.896 18.3633 135.896 19.0469C135.896 19.2018 135.862 19.3112 135.794 19.375C135.73 19.4388 135.621 19.4707 135.466 19.4707H131.077C131.164 19.8353 131.348 20.1156 131.631 20.3115C131.918 20.5029 132.28 20.5986 132.718 20.5986C133.424 20.5986 134.19 20.4733 135.014 20.2227C135.069 20.2044 135.124 20.1953 135.179 20.1953C135.279 20.1953 135.365 20.2409 135.438 20.332C135.511 20.4232 135.577 20.5781 135.637 20.7969C135.682 20.9655 135.705 21.109 135.705 21.2275C135.705 21.346 135.678 21.4395 135.623 21.5078C135.573 21.5716 135.488 21.624 135.37 21.665C134.914 21.8154 134.449 21.9339 133.975 22.0205C133.501 22.1071 133.037 22.1504 132.581 22.1504C131.888 22.1504 131.291 22.0091 130.79 21.7266C130.289 21.444 129.906 21.0544 129.641 20.5576C129.382 20.0563 129.252 19.4844 129.252 18.8418C129.252 18.2038 129.388 17.6341 129.662 17.1328C129.935 16.6315 130.33 16.2396 130.845 15.957C131.36 15.6745 131.961 15.5332 132.649 15.5332ZM132.649 17.085C131.815 17.085 131.3 17.4359 131.104 18.1377H134.112C134.035 17.805 133.868 17.5475 133.613 17.3652C133.362 17.1784 133.041 17.085 132.649 17.085ZM144.344 15.5332C144.636 15.5332 144.843 15.5674 144.966 15.6357C145.089 15.6995 145.151 15.8089 145.151 15.9639V17.4062C145.151 17.5612 145.101 17.6729 145 17.7412C144.905 17.805 144.745 17.8369 144.522 17.8369C144.28 17.8369 144.114 17.7891 144.023 17.6934C143.754 17.4062 143.446 17.2035 143.1 17.085C142.754 16.9619 142.353 16.9004 141.897 16.9004C141.628 16.9004 141.416 16.9482 141.261 17.0439C141.111 17.1396 141.036 17.2673 141.036 17.4268C141.036 17.6182 141.204 17.7549 141.541 17.8369C141.719 17.8825 142.022 17.9258 142.451 17.9668C142.874 18.0169 143.225 18.0671 143.503 18.1172C143.786 18.1673 144.052 18.2425 144.303 18.3428C144.668 18.4932 144.953 18.7028 145.158 18.9717C145.363 19.2406 145.465 19.596 145.465 20.0381C145.465 20.471 145.358 20.847 145.144 21.166C144.934 21.4805 144.624 21.7243 144.214 21.8975C143.809 22.0661 143.319 22.1504 142.745 22.1504C142.111 22.1504 141.523 21.9886 140.981 21.665V21.7197C140.981 21.8747 140.915 21.984 140.783 22.0479C140.65 22.1162 140.439 22.1504 140.147 22.1504C139.855 22.1504 139.648 22.1162 139.525 22.0479C139.402 21.984 139.34 21.8747 139.34 21.7197V20.1953C139.34 20.0449 139.393 19.9355 139.497 19.8672C139.607 19.7988 139.773 19.7646 139.996 19.7646C140.274 19.7646 140.464 19.8285 140.564 19.9561C140.792 20.2432 141.083 20.4528 141.439 20.585C141.794 20.7171 142.184 20.7832 142.608 20.7832C143.337 20.7832 143.702 20.5941 143.702 20.2158C143.702 20.1019 143.649 20.0107 143.544 19.9424C143.444 19.874 143.294 19.8171 143.093 19.7715C142.979 19.7487 142.715 19.7077 142.3 19.6484C141.84 19.5938 141.443 19.5322 141.111 19.4639C140.783 19.391 140.484 19.2793 140.215 19.1289C139.586 18.7826 139.272 18.2357 139.272 17.4883C139.272 17.0918 139.379 16.7454 139.593 16.4492C139.807 16.153 140.101 15.9274 140.475 15.7725C140.853 15.613 141.277 15.5332 141.746 15.5332C142.435 15.5332 143.045 15.6995 143.579 16.0322V15.9639C143.579 15.8089 143.633 15.6995 143.743 15.6357C143.857 15.5674 144.057 15.5332 144.344 15.5332ZM154.139 15.5332C154.43 15.5332 154.638 15.5674 154.761 15.6357C154.884 15.6995 154.945 15.8089 154.945 15.9639V17.4062C154.945 17.5612 154.895 17.6729 154.795 17.7412C154.699 17.805 154.54 17.8369 154.316 17.8369C154.075 17.8369 153.909 17.7891 153.817 17.6934C153.549 17.4062 153.241 17.2035 152.895 17.085C152.548 16.9619 152.147 16.9004 151.691 16.9004C151.423 16.9004 151.211 16.9482 151.056 17.0439C150.905 17.1396 150.83 17.2673 150.83 17.4268C150.83 17.6182 150.999 17.7549 151.336 17.8369C151.514 17.8825 151.817 17.9258 152.245 17.9668C152.669 18.0169 153.02 18.0671 153.298 18.1172C153.58 18.1673 153.847 18.2425 154.098 18.3428C154.462 18.4932 154.747 18.7028 154.952 18.9717C155.157 19.2406 155.26 19.596 155.26 20.0381C155.26 20.471 155.153 20.847 154.938 21.166C154.729 21.4805 154.419 21.7243 154.009 21.8975C153.603 22.0661 153.113 22.1504 152.539 22.1504C151.906 22.1504 151.318 21.9886 150.775 21.665V21.7197C150.775 21.8747 150.709 21.984 150.577 22.0479C150.445 22.1162 150.233 22.1504 149.941 22.1504C149.65 22.1504 149.442 22.1162 149.319 22.0479C149.196 21.984 149.135 21.8747 149.135 21.7197V20.1953C149.135 20.0449 149.187 19.9355 149.292 19.8672C149.401 19.7988 149.568 19.7646 149.791 19.7646C150.069 19.7646 150.258 19.8285 150.358 19.9561C150.586 20.2432 150.878 20.4528 151.233 20.585C151.589 20.7171 151.979 20.7832 152.402 20.7832C153.132 20.7832 153.496 20.5941 153.496 20.2158C153.496 20.1019 153.444 20.0107 153.339 19.9424C153.239 19.874 153.088 19.8171 152.888 19.7715C152.774 19.7487 152.509 19.7077 152.095 19.6484C151.634 19.5938 151.238 19.5322 150.905 19.4639C150.577 19.391 150.279 19.2793 150.01 19.1289C149.381 18.7826 149.066 18.2357 149.066 17.4883C149.066 17.0918 149.174 16.7454 149.388 16.4492C149.602 16.153 149.896 15.9274 150.27 15.7725C150.648 15.613 151.072 15.5332 151.541 15.5332C152.229 15.5332 152.84 15.6995 153.373 16.0322V15.9639C153.373 15.8089 153.428 15.6995 153.537 15.6357C153.651 15.5674 153.852 15.5332 154.139 15.5332ZM161.862 15.5332C162.865 15.5332 163.589 15.7497 164.036 16.1826C164.482 16.6156 164.706 17.2354 164.706 18.042V20.0176C164.706 20.1999 164.744 20.3434 164.822 20.4482C164.899 20.5485 165.011 20.5986 165.157 20.5986H165.369C165.478 20.5986 165.562 20.6191 165.622 20.6602C165.681 20.6966 165.724 20.765 165.752 20.8652C165.783 20.9655 165.799 21.1113 165.799 21.3027C165.799 21.4941 165.783 21.64 165.752 21.7402C165.724 21.8405 165.681 21.9089 165.622 21.9453C165.562 21.9818 165.478 22 165.369 22H164.603C164.321 22 164.07 21.943 163.851 21.8291C163.637 21.7106 163.473 21.526 163.359 21.2754C162.999 21.5534 162.618 21.7699 162.217 21.9248C161.816 22.0752 161.404 22.1504 160.98 22.1504C160.465 22.1504 160.021 22.0638 159.647 21.8906C159.273 21.7129 158.986 21.4622 158.786 21.1387C158.59 20.8105 158.492 20.4255 158.492 19.9834C158.492 19.3454 158.717 18.8509 159.169 18.5C159.62 18.1491 160.251 17.9736 161.062 17.9736C161.668 17.9736 162.313 18.042 162.997 18.1787V17.9805C162.997 17.6751 162.901 17.4495 162.71 17.3037C162.518 17.1579 162.181 17.085 161.698 17.085C161.429 17.085 161.128 17.1191 160.796 17.1875C160.467 17.2513 160.142 17.3379 159.818 17.4473C159.74 17.4701 159.674 17.4814 159.62 17.4814C159.506 17.4814 159.403 17.4404 159.312 17.3584C159.226 17.2718 159.146 17.1283 159.073 16.9277C159.004 16.7272 158.97 16.5632 158.97 16.4355C158.97 16.2031 159.075 16.0482 159.285 15.9707C159.69 15.8249 160.121 15.7155 160.577 15.6426C161.032 15.5697 161.461 15.5332 161.862 15.5332ZM161.233 19.3818C160.914 19.3818 160.67 19.4388 160.502 19.5527C160.338 19.6667 160.255 19.833 160.255 20.0518C160.255 20.266 160.335 20.43 160.495 20.5439C160.659 20.6533 160.893 20.708 161.199 20.708C161.513 20.708 161.823 20.6465 162.129 20.5234C162.438 20.3958 162.728 20.2227 162.997 20.0039V19.5664C162.395 19.4434 161.807 19.3818 161.233 19.3818ZM171.144 15.5332C171.577 15.5332 171.971 15.6243 172.326 15.8066C172.682 15.9889 172.978 16.251 173.215 16.5928V16.1143C173.215 15.9593 173.247 15.8499 173.311 15.7861C173.379 15.7178 173.491 15.6836 173.646 15.6836H175.245C175.355 15.6836 175.439 15.7041 175.498 15.7451C175.557 15.7816 175.601 15.8499 175.628 15.9502C175.66 16.0505 175.676 16.1963 175.676 16.3877C175.676 16.5791 175.66 16.7249 175.628 16.8252C175.601 16.9255 175.557 16.9938 175.498 17.0303C175.439 17.0667 175.355 17.085 175.245 17.085H174.651V21.9932C174.651 22.8864 174.382 23.5768 173.844 24.0645C173.311 24.5566 172.511 24.8027 171.445 24.8027C171.053 24.8027 170.624 24.764 170.159 24.6865C169.695 24.6136 169.25 24.5111 168.826 24.3789C168.608 24.3105 168.498 24.1533 168.498 23.9072C168.498 23.7979 168.528 23.6383 168.587 23.4287C168.655 23.2145 168.731 23.0596 168.813 22.9639C168.899 22.8682 169 22.8203 169.113 22.8203C169.173 22.8203 169.227 22.8294 169.278 22.8477C170.148 23.1165 170.848 23.251 171.376 23.251C171.928 23.251 172.326 23.1348 172.572 22.9023C172.819 22.6745 172.942 22.3258 172.942 21.8564V21.1592C172.709 21.4098 172.44 21.6035 172.135 21.7402C171.83 21.877 171.499 21.9453 171.144 21.9453C170.556 21.9453 170.039 21.8086 169.592 21.5352C169.145 21.2572 168.801 20.8766 168.56 20.3936C168.318 19.9059 168.197 19.3545 168.197 18.7393C168.197 18.124 168.318 17.5749 168.56 17.0918C168.801 16.6042 169.145 16.2236 169.592 15.9502C170.039 15.6722 170.556 15.5332 171.144 15.5332ZM171.417 17.085C170.993 17.085 170.656 17.2308 170.405 17.5225C170.155 17.8096 170.029 18.2152 170.029 18.7393C170.029 19.2633 170.155 19.6712 170.405 19.9629C170.656 20.25 170.993 20.3936 171.417 20.3936C171.709 20.3936 171.973 20.332 172.21 20.209C172.452 20.0814 172.641 19.8945 172.778 19.6484C172.919 19.3978 172.989 19.0947 172.989 18.7393C172.989 18.3838 172.919 18.083 172.778 17.8369C172.641 17.5863 172.452 17.3994 172.21 17.2764C171.973 17.1488 171.709 17.085 171.417 17.085ZM181.622 15.5332C182.315 15.5332 182.905 15.6836 183.392 15.9844C183.88 16.2806 184.247 16.6953 184.493 17.2285C184.744 17.7572 184.869 18.3633 184.869 19.0469C184.869 19.2018 184.835 19.3112 184.766 19.375C184.703 19.4388 184.593 19.4707 184.438 19.4707H180.05C180.136 19.8353 180.321 20.1156 180.603 20.3115C180.89 20.5029 181.253 20.5986 181.69 20.5986C182.397 20.5986 183.162 20.4733 183.987 20.2227C184.042 20.2044 184.096 20.1953 184.151 20.1953C184.251 20.1953 184.338 20.2409 184.411 20.332C184.484 20.4232 184.55 20.5781 184.609 20.7969C184.655 20.9655 184.678 21.109 184.678 21.2275C184.678 21.346 184.65 21.4395 184.596 21.5078C184.545 21.5716 184.461 21.624 184.343 21.665C183.887 21.8154 183.422 21.9339 182.948 22.0205C182.474 22.1071 182.009 22.1504 181.554 22.1504C180.861 22.1504 180.264 22.0091 179.762 21.7266C179.261 21.444 178.878 21.0544 178.614 20.5576C178.354 20.0563 178.224 19.4844 178.224 18.8418C178.224 18.2038 178.361 17.6341 178.635 17.1328C178.908 16.6315 179.302 16.2396 179.817 15.957C180.332 15.6745 180.934 15.5332 181.622 15.5332ZM181.622 17.085C180.788 17.085 180.273 17.4359 180.077 18.1377H183.085C183.007 17.805 182.841 17.5475 182.586 17.3652C182.335 17.1784 182.014 17.085 181.622 17.085Z" fill="#CFB284"/>
<defs>
<clipPath id="clip0">
<rect width="22" height="22" fill="white" transform="translate(14 7)"/>
</clipPath>
</defs>
</svg>
