<svg width="283" height="36" viewBox="0 0 283 36" fill="none" xmlns="http://www.w3.org/2000/svg">
<path fill-rule="evenodd" clip-rule="evenodd" d="M10 0C4.47715 0 0 4.47715 0 10V26C0 31.5228 4.47714 36 9.99999 36H273C278.523 36 283 31.5228 283 26V10C283 4.47715 278.523 0 273 0H10ZM28.0417 9.86083C26.9867 9.8125 26.67 9.8025 24 9.8025C21.33 9.8025 21.0142 9.8125 19.9592 9.86C17.2467 9.98333 15.9842 11.27 15.86 13.9592C15.8125 15.0142 15.8017 15.33 15.8017 18C15.8017 20.6708 15.8117 20.9867 15.86 22.0408C15.9833 24.725 17.2425 26.0167 19.9592 26.1408C21.0133 26.1892 21.33 26.1992 24 26.1992C26.6717 26.1992 26.9867 26.1892 28.0417 26.1408C30.7542 26.0175 32.0167 24.7292 32.1408 22.0417C32.1883 20.9875 32.1983 20.6717 32.1983 18.0008C32.1983 15.3308 32.1892 15.0142 32.1408 13.96C32.0175 11.27 30.7517 9.98417 28.0417 9.86083ZM19.8775 8.06C20.9442 8.01167 21.2842 8 24 8C26.7158 8 27.0567 8.01167 28.1242 8.06083C31.7592 8.2275 33.7767 10.2492 33.94 13.8775C33.9883 14.9442 34 15.2842 34 18C34 20.7158 33.9883 21.0567 33.9392 22.1233C33.775 25.7583 31.7517 27.7733 28.1233 27.94C27.0567 27.9883 26.7158 28 24 28C21.2842 28 20.9442 27.9883 19.8767 27.94C16.2417 27.7733 14.2267 25.755 14.06 22.1233C14.0117 21.0567 14 20.7158 14 18C14 15.2842 14.0117 14.9442 14.0608 13.8767C14.2275 10.2417 16.2458 8.22667 19.8775 8.06ZM18.865 18C18.865 15.1642 21.1642 12.865 24 12.865C26.8358 12.865 29.135 15.1642 29.135 18C29.135 20.8367 26.8358 23.1358 24 23.1358C21.1642 23.1358 18.865 20.8358 18.865 18ZM20.6667 18C20.6667 19.8417 22.1592 21.3333 24 21.3333C25.8408 21.3333 27.3333 19.8417 27.3333 18C27.3333 16.1592 25.8408 14.6667 24 14.6667C22.1592 14.6667 20.6667 16.1592 20.6667 18ZM28.1375 12.6625C28.1375 12 28.675 11.4625 29.3383 11.4625C30.0008 11.4625 30.5375 12 30.5375 12.6625C30.5375 13.325 30.0008 13.8625 29.3383 13.8625C28.675 13.8625 28.1375 13.325 28.1375 12.6625Z" fill="white"/>
<path d="M48.0605 13.8857C48.8581 13.8857 49.5439 14.043 50.1182 14.3574C50.6924 14.6719 51.1322 15.1344 51.4375 15.7451C51.7428 16.3512 51.8955 17.0827 51.8955 17.9395C51.8955 18.7962 51.7428 19.5299 51.4375 20.1406C51.1322 20.7467 50.6924 21.2093 50.1182 21.5283C49.5439 21.8428 48.8581 22 48.0605 22H44.8408C44.7314 22 44.6471 21.9818 44.5879 21.9453C44.5286 21.9089 44.4831 21.8405 44.4512 21.7402C44.4238 21.64 44.4102 21.4941 44.4102 21.3027C44.4102 21.1113 44.4238 20.9655 44.4512 20.8652C44.4831 20.765 44.5286 20.6966 44.5879 20.6602C44.6471 20.6191 44.7314 20.5986 44.8408 20.5986H45.5039V15.2871H44.8408C44.7314 15.2871 44.6471 15.2689 44.5879 15.2324C44.5286 15.196 44.4831 15.1276 44.4512 15.0273C44.4238 14.9271 44.4102 14.7812 44.4102 14.5898C44.4102 14.3984 44.4238 14.2526 44.4512 14.1523C44.4831 14.0521 44.5286 13.9837 44.5879 13.9473C44.6471 13.9062 44.7314 13.8857 44.8408 13.8857H48.0605ZM47.2129 20.5303H47.9238C48.6302 20.5303 49.1634 20.3115 49.5234 19.874C49.8835 19.432 50.0635 18.7871 50.0635 17.9395C50.0635 17.0918 49.8835 16.4492 49.5234 16.0117C49.1634 15.5742 48.6302 15.3555 47.9238 15.3555H47.2129V20.5303ZM61.5533 13.8857C61.6627 13.8857 61.747 13.9062 61.8062 13.9473C61.8655 13.9837 61.9088 14.0521 61.9361 14.1523C61.968 14.2526 61.984 14.3984 61.984 14.5898C61.984 14.7812 61.968 14.9271 61.9361 15.0273C61.9088 15.1276 61.8655 15.196 61.8062 15.2324C61.747 15.2689 61.6627 15.2871 61.5533 15.2871H61.1842L61.2799 20.5986H61.69C61.7994 20.5986 61.8837 20.6191 61.943 20.6602C62.0022 20.6966 62.0455 20.765 62.0729 20.8652C62.1048 20.9655 62.1207 21.1113 62.1207 21.3027C62.1207 21.4941 62.1048 21.64 62.0729 21.7402C62.0455 21.8405 62.0022 21.9089 61.943 21.9453C61.8837 21.9818 61.7994 22 61.69 22H59.1334C59.024 22 58.9397 21.9818 58.8805 21.9453C58.8212 21.9089 58.7757 21.8405 58.7437 21.7402C58.7164 21.64 58.7027 21.4941 58.7027 21.3027C58.7027 21.1113 58.7164 20.9655 58.7437 20.8652C58.7757 20.765 58.8212 20.6966 58.8805 20.6602C58.9397 20.6191 59.024 20.5986 59.1334 20.5986H59.7623L59.7213 16.5518L58.6891 19.3408C58.6298 19.5003 58.5478 19.6143 58.443 19.6826C58.3382 19.7464 58.19 19.7783 57.9986 19.7783C57.8027 19.7783 57.6523 19.7464 57.5475 19.6826C57.4426 19.6143 57.3583 19.5003 57.2945 19.3408L56.2555 16.5723L56.2145 20.5986H56.8502C56.9596 20.5986 57.0439 20.6191 57.1031 20.6602C57.1624 20.6966 57.2057 20.765 57.233 20.8652C57.2649 20.9655 57.2809 21.1113 57.2809 21.3027C57.2809 21.4941 57.2649 21.64 57.233 21.7402C57.2057 21.8405 57.1624 21.9089 57.1031 21.9453C57.0439 21.9818 56.9596 22 56.8502 22H54.2936C54.1842 22 54.0999 21.9818 54.0406 21.9453C53.9814 21.9089 53.9358 21.8405 53.9039 21.7402C53.8766 21.64 53.8629 21.4941 53.8629 21.3027C53.8629 21.1113 53.8766 20.9655 53.9039 20.8652C53.9358 20.765 53.9814 20.6966 54.0406 20.6602C54.0999 20.6191 54.1842 20.5986 54.2936 20.5986H54.6969L54.7994 15.2871H54.4303C54.3209 15.2871 54.2366 15.2689 54.1773 15.2324C54.1181 15.196 54.0725 15.1276 54.0406 15.0273C54.0133 14.9271 53.9996 14.7812 53.9996 14.5898C53.9996 14.3984 54.0133 14.2526 54.0406 14.1523C54.0725 14.0521 54.1181 13.9837 54.1773 13.9473C54.2366 13.9062 54.3209 13.8857 54.4303 13.8857H56.3717C56.4674 13.8857 56.5449 13.9017 56.6041 13.9336C56.6679 13.9655 56.7135 14.0202 56.7408 14.0977L57.9918 17.4541L59.2359 14.0977C59.2633 14.0202 59.3066 13.9655 59.3658 13.9336C59.4296 13.9017 59.5094 13.8857 59.6051 13.8857H61.5533ZM80.0076 15.6836C80.1626 15.6836 80.2719 15.7178 80.3357 15.7861C80.4041 15.8499 80.4383 15.9593 80.4383 16.1143V20.5986H80.9646C81.074 20.5986 81.1583 20.6169 81.2176 20.6533C81.2768 20.6898 81.3201 20.7581 81.3475 20.8584C81.3794 20.9587 81.3953 21.1045 81.3953 21.2959C81.3953 21.4873 81.3794 21.6331 81.3475 21.7334C81.3201 21.8337 81.2768 21.9043 81.2176 21.9453C81.1583 21.9818 81.074 22 80.9646 22H79.4334C79.2785 22 79.1668 21.9681 79.0984 21.9043C79.0346 21.8359 79.0027 21.7243 79.0027 21.5693V20.5781C78.4012 21.6263 77.6492 22.1504 76.7469 22.1504C76.3322 22.1504 75.9676 22.0592 75.6531 21.877C75.3432 21.6947 75.104 21.4372 74.9354 21.1045C74.7667 20.7673 74.6824 20.373 74.6824 19.9219V17.085H74.1561C74.0467 17.085 73.9624 17.0667 73.9031 17.0303C73.8439 16.9893 73.7983 16.9186 73.7664 16.8184C73.7391 16.7181 73.7254 16.5723 73.7254 16.3809C73.7254 16.1895 73.7391 16.0436 73.7664 15.9434C73.7983 15.8431 73.8439 15.7747 73.9031 15.7383C73.9624 15.7018 74.0467 15.6836 74.1561 15.6836H75.9607C76.1157 15.6836 76.2251 15.7178 76.2889 15.7861C76.3572 15.8499 76.3914 15.9593 76.3914 16.1143V19.5186C76.3914 19.874 76.4529 20.1429 76.576 20.3252C76.699 20.5075 76.9041 20.5986 77.1912 20.5986C77.4555 20.5986 77.7062 20.4893 77.9432 20.2705C78.1801 20.0472 78.3693 19.751 78.5105 19.3818C78.6564 19.0127 78.7293 18.6185 78.7293 18.1992V17.085H77.9979C77.8885 17.085 77.8042 17.0667 77.7449 17.0303C77.6857 16.9893 77.6401 16.9186 77.6082 16.8184C77.5809 16.7181 77.5672 16.5723 77.5672 16.3809C77.5672 16.1895 77.5809 16.0436 77.6082 15.9434C77.6401 15.8431 77.6857 15.7747 77.7449 15.7383C77.8042 15.7018 77.8885 15.6836 77.9979 15.6836H80.0076ZM89.3715 15.5332C89.6631 15.5332 89.8705 15.5674 89.9936 15.6357C90.1166 15.6995 90.1781 15.8089 90.1781 15.9639V17.4062C90.1781 17.5612 90.128 17.6729 90.0277 17.7412C89.932 17.805 89.7725 17.8369 89.5492 17.8369C89.3077 17.8369 89.1413 17.7891 89.0502 17.6934C88.7813 17.4062 88.4737 17.2035 88.1273 17.085C87.781 16.9619 87.3799 16.9004 86.9242 16.9004C86.6553 16.9004 86.4434 16.9482 86.2885 17.0439C86.1381 17.1396 86.0629 17.2673 86.0629 17.4268C86.0629 17.6182 86.2315 17.7549 86.5687 17.8369C86.7465 17.8825 87.0495 17.9258 87.4779 17.9668C87.9018 18.0169 88.2527 18.0671 88.5307 18.1172C88.8132 18.1673 89.0798 18.2425 89.3305 18.3428C89.6951 18.4932 89.9799 18.7028 90.185 18.9717C90.39 19.2406 90.4926 19.596 90.4926 20.0381C90.4926 20.471 90.3855 20.847 90.1713 21.166C89.9617 21.4805 89.6518 21.7243 89.2416 21.8975C88.836 22.0661 88.3461 22.1504 87.7719 22.1504C87.1384 22.1504 86.5505 21.9886 86.0082 21.665V21.7197C86.0082 21.8747 85.9421 21.984 85.81 22.0479C85.6778 22.1162 85.4659 22.1504 85.1742 22.1504C84.8826 22.1504 84.6752 22.1162 84.5521 22.0479C84.4291 21.984 84.3676 21.8747 84.3676 21.7197V20.1953C84.3676 20.0449 84.42 19.9355 84.5248 19.8672C84.6342 19.7988 84.8005 19.7646 85.0238 19.7646C85.3018 19.7646 85.4909 19.8285 85.5912 19.9561C85.8191 20.2432 86.1107 20.4528 86.4662 20.585C86.8217 20.7171 87.2113 20.7832 87.6352 20.7832C88.3643 20.7832 88.7289 20.5941 88.7289 20.2158C88.7289 20.1019 88.6765 20.0107 88.5717 19.9424C88.4714 19.874 88.321 19.8171 88.1205 19.7715C88.0066 19.7487 87.7423 19.7077 87.3275 19.6484C86.8673 19.5938 86.4708 19.5322 86.1381 19.4639C85.81 19.391 85.5115 19.2793 85.2426 19.1289C84.6137 18.7826 84.2992 18.2357 84.2992 17.4883C84.2992 17.0918 84.4063 16.7454 84.6205 16.4492C84.8347 16.153 85.1286 15.9274 85.5023 15.7725C85.8806 15.613 86.3044 15.5332 86.7738 15.5332C87.462 15.5332 88.0727 15.6995 88.6059 16.0322V15.9639C88.6059 15.8089 88.6605 15.6995 88.7699 15.6357C88.8839 15.5674 89.0844 15.5332 89.3715 15.5332ZM106.964 15.5332C107.657 15.5332 108.263 15.6745 108.783 15.957C109.302 16.2396 109.701 16.6315 109.979 17.1328C110.262 17.6341 110.403 18.2038 110.403 18.8418C110.403 19.4798 110.262 20.0495 109.979 20.5508C109.701 21.0521 109.302 21.444 108.783 21.7266C108.263 22.0091 107.657 22.1504 106.964 22.1504C106.272 22.1504 105.666 22.0091 105.146 21.7266C104.627 21.444 104.226 21.0521 103.943 20.5508C103.665 20.0495 103.526 19.4798 103.526 18.8418C103.526 18.2038 103.665 17.6341 103.943 17.1328C104.226 16.6315 104.627 16.2396 105.146 15.957C105.666 15.6745 106.272 15.5332 106.964 15.5332ZM106.964 17.085C106.636 17.085 106.351 17.1579 106.11 17.3037C105.868 17.445 105.682 17.6478 105.549 17.9121C105.422 18.1764 105.358 18.4863 105.358 18.8418C105.358 19.1973 105.422 19.5072 105.549 19.7715C105.682 20.0358 105.868 20.2409 106.11 20.3867C106.351 20.528 106.636 20.5986 106.964 20.5986C107.293 20.5986 107.577 20.528 107.819 20.3867C108.06 20.2409 108.245 20.0358 108.373 19.7715C108.505 19.5072 108.571 19.1973 108.571 18.8418C108.571 18.4863 108.505 18.1764 108.373 17.9121C108.245 17.6478 108.06 17.445 107.819 17.3037C107.577 17.1579 107.293 17.085 106.964 17.085ZM117.737 15.5332C118.151 15.5332 118.514 15.6243 118.823 15.8066C119.138 15.9889 119.379 16.2487 119.548 16.5859C119.717 16.9186 119.801 17.3105 119.801 17.7617V20.5986H120.327C120.437 20.5986 120.521 20.6191 120.58 20.6602C120.64 20.6966 120.683 20.765 120.71 20.8652C120.742 20.9655 120.758 21.1113 120.758 21.3027C120.758 21.4941 120.742 21.64 120.71 21.7402C120.683 21.8405 120.64 21.9089 120.58 21.9453C120.521 21.9818 120.437 22 120.327 22H117.771C117.661 22 117.577 21.9818 117.518 21.9453C117.459 21.9089 117.413 21.8405 117.381 21.7402C117.354 21.64 117.34 21.4941 117.34 21.3027C117.34 21.1113 117.354 20.9655 117.381 20.8652C117.413 20.765 117.459 20.6966 117.518 20.6602C117.577 20.6191 117.661 20.5986 117.771 20.5986H118.092V18.165C118.092 17.8096 118.03 17.5407 117.907 17.3584C117.784 17.1761 117.579 17.085 117.292 17.085C117.028 17.085 116.777 17.1966 116.54 17.4199C116.303 17.6387 116.112 17.9326 115.966 18.3018C115.825 18.6709 115.754 19.0651 115.754 19.4844V20.5986H116.075C116.185 20.5986 116.269 20.6191 116.328 20.6602C116.388 20.6966 116.431 20.765 116.458 20.8652C116.49 20.9655 116.506 21.1113 116.506 21.3027C116.506 21.4941 116.49 21.64 116.458 21.7402C116.431 21.8405 116.388 21.9089 116.328 21.9453C116.269 21.9818 116.185 22 116.075 22H113.519C113.409 22 113.325 21.9818 113.266 21.9453C113.207 21.9089 113.161 21.8405 113.129 21.7402C113.102 21.64 113.088 21.4941 113.088 21.3027C113.088 21.1113 113.102 20.9655 113.129 20.8652C113.161 20.765 113.207 20.6966 113.266 20.6602C113.325 20.6191 113.409 20.5986 113.519 20.5986H114.045V17.085H113.382C113.273 17.085 113.188 17.0667 113.129 17.0303C113.07 16.9938 113.024 16.9255 112.992 16.8252C112.965 16.7249 112.951 16.5791 112.951 16.3877C112.951 16.1963 112.965 16.0505 112.992 15.9502C113.024 15.8499 113.07 15.7816 113.129 15.7451C113.188 15.7041 113.273 15.6836 113.382 15.6836H115.05C115.205 15.6836 115.314 15.7178 115.378 15.7861C115.446 15.8499 115.481 15.9593 115.481 16.1143V17.1055C116.082 16.0573 116.834 15.5332 117.737 15.5332ZM138.816 13.8857C138.925 13.8857 139.01 13.9062 139.069 13.9473C139.128 13.9837 139.171 14.0521 139.199 14.1523C139.231 14.2526 139.246 14.3984 139.246 14.5898C139.246 14.7812 139.231 14.9271 139.199 15.0273C139.171 15.1276 139.128 15.196 139.069 15.2324C139.01 15.2689 138.925 15.2871 138.816 15.2871H137.203V20.5986H138.953C139.062 20.5986 139.146 20.6191 139.205 20.6602C139.265 20.6966 139.308 20.765 139.335 20.8652C139.367 20.9655 139.383 21.1113 139.383 21.3027C139.383 21.4941 139.367 21.64 139.335 21.7402C139.308 21.8405 139.265 21.9089 139.205 21.9453C139.146 21.9818 139.062 22 138.953 22H133.744C133.634 22 133.55 21.9818 133.491 21.9453C133.431 21.9089 133.386 21.8405 133.354 21.7402C133.327 21.64 133.313 21.4941 133.313 21.3027C133.313 21.1113 133.327 20.9655 133.354 20.8652C133.386 20.765 133.431 20.6966 133.491 20.6602C133.55 20.6191 133.634 20.5986 133.744 20.5986H135.494V15.2871H133.88C133.771 15.2871 133.687 15.2689 133.627 15.2324C133.568 15.196 133.523 15.1276 133.491 15.0273C133.463 14.9271 133.45 14.7812 133.45 14.5898C133.45 14.3984 133.463 14.2526 133.491 14.1523C133.523 14.0521 133.568 13.9837 133.627 13.9473C133.687 13.9062 133.771 13.8857 133.88 13.8857H138.816ZM147.12 15.5332C147.535 15.5332 147.897 15.6243 148.207 15.8066C148.521 15.9889 148.763 16.2487 148.932 16.5859C149.1 16.9186 149.185 17.3105 149.185 17.7617V20.5986H149.711C149.82 20.5986 149.905 20.6191 149.964 20.6602C150.023 20.6966 150.066 20.765 150.094 20.8652C150.126 20.9655 150.142 21.1113 150.142 21.3027C150.142 21.4941 150.126 21.64 150.094 21.7402C150.066 21.8405 150.023 21.9089 149.964 21.9453C149.905 21.9818 149.82 22 149.711 22H147.154C147.045 22 146.961 21.9818 146.901 21.9453C146.842 21.9089 146.797 21.8405 146.765 21.7402C146.737 21.64 146.724 21.4941 146.724 21.3027C146.724 21.1113 146.737 20.9655 146.765 20.8652C146.797 20.765 146.842 20.6966 146.901 20.6602C146.961 20.6191 147.045 20.5986 147.154 20.5986H147.476V18.165C147.476 17.8096 147.414 17.5407 147.291 17.3584C147.168 17.1761 146.963 17.085 146.676 17.085C146.411 17.085 146.161 17.1966 145.924 17.4199C145.687 17.6387 145.495 17.9326 145.35 18.3018C145.208 18.6709 145.138 19.0651 145.138 19.4844V20.5986H145.459C145.568 20.5986 145.653 20.6191 145.712 20.6602C145.771 20.6966 145.814 20.765 145.842 20.8652C145.874 20.9655 145.89 21.1113 145.89 21.3027C145.89 21.4941 145.874 21.64 145.842 21.7402C145.814 21.8405 145.771 21.9089 145.712 21.9453C145.653 21.9818 145.568 22 145.459 22H142.902C142.793 22 142.709 21.9818 142.649 21.9453C142.59 21.9089 142.545 21.8405 142.513 21.7402C142.485 21.64 142.472 21.4941 142.472 21.3027C142.472 21.1113 142.485 20.9655 142.513 20.8652C142.545 20.765 142.59 20.6966 142.649 20.6602C142.709 20.6191 142.793 20.5986 142.902 20.5986H143.429V17.085H142.766C142.656 17.085 142.572 17.0667 142.513 17.0303C142.453 16.9938 142.408 16.9255 142.376 16.8252C142.349 16.7249 142.335 16.5791 142.335 16.3877C142.335 16.1963 142.349 16.0505 142.376 15.9502C142.408 15.8499 142.453 15.7816 142.513 15.7451C142.572 15.7041 142.656 15.6836 142.766 15.6836H144.434C144.589 15.6836 144.698 15.7178 144.762 15.7861C144.83 15.8499 144.864 15.9593 144.864 16.1143V17.1055C145.466 16.0573 146.218 15.5332 147.12 15.5332ZM157.933 15.5332C158.225 15.5332 158.432 15.5674 158.555 15.6357C158.678 15.6995 158.74 15.8089 158.74 15.9639V17.4062C158.74 17.5612 158.69 17.6729 158.589 17.7412C158.494 17.805 158.334 17.8369 158.111 17.8369C157.869 17.8369 157.703 17.7891 157.612 17.6934C157.343 17.4062 157.035 17.2035 156.689 17.085C156.343 16.9619 155.942 16.9004 155.486 16.9004C155.217 16.9004 155.005 16.9482 154.85 17.0439C154.7 17.1396 154.625 17.2673 154.625 17.4268C154.625 17.6182 154.793 17.7549 155.13 17.8369C155.308 17.8825 155.611 17.9258 156.04 17.9668C156.463 18.0169 156.814 18.0671 157.092 18.1172C157.375 18.1673 157.642 18.2425 157.892 18.3428C158.257 18.4932 158.542 18.7028 158.747 18.9717C158.952 19.2406 159.054 19.596 159.054 20.0381C159.054 20.471 158.947 20.847 158.733 21.166C158.523 21.4805 158.213 21.7243 157.803 21.8975C157.398 22.0661 156.908 22.1504 156.334 22.1504C155.7 22.1504 155.112 21.9886 154.57 21.665V21.7197C154.57 21.8747 154.504 21.984 154.372 22.0479C154.24 22.1162 154.028 22.1504 153.736 22.1504C153.444 22.1504 153.237 22.1162 153.114 22.0479C152.991 21.984 152.929 21.8747 152.929 21.7197V20.1953C152.929 20.0449 152.982 19.9355 153.087 19.8672C153.196 19.7988 153.362 19.7646 153.586 19.7646C153.864 19.7646 154.053 19.8285 154.153 19.9561C154.381 20.2432 154.672 20.4528 155.028 20.585C155.383 20.7171 155.773 20.7832 156.197 20.7832C156.926 20.7832 157.291 20.5941 157.291 20.2158C157.291 20.1019 157.238 20.0107 157.133 19.9424C157.033 19.874 156.883 19.8171 156.682 19.7715C156.568 19.7487 156.304 19.7077 155.889 19.6484C155.429 19.5938 155.032 19.5322 154.7 19.4639C154.372 19.391 154.073 19.2793 153.804 19.1289C153.175 18.7826 152.861 18.2357 152.861 17.4883C152.861 17.0918 152.968 16.7454 153.182 16.4492C153.396 16.153 153.69 15.9274 154.064 15.7725C154.442 15.613 154.866 15.5332 155.336 15.5332C156.024 15.5332 156.634 15.6995 157.168 16.0322V15.9639C157.168 15.8089 157.222 15.6995 157.332 15.6357C157.446 15.5674 157.646 15.5332 157.933 15.5332ZM164.85 13.7354C165.064 13.7354 165.228 13.7513 165.342 13.7832C165.46 13.8105 165.543 13.8538 165.588 13.9131C165.634 13.9723 165.656 14.0566 165.656 14.166V16.0938H168.193C168.352 16.0938 168.464 16.1462 168.528 16.251C168.591 16.3558 168.623 16.5495 168.623 16.832C168.623 17.1146 168.591 17.3083 168.528 17.4131C168.464 17.5133 168.352 17.5635 168.193 17.5635H165.656V19.4639C165.656 20.2204 165.95 20.5986 166.538 20.5986C166.748 20.5986 166.992 20.5531 167.27 20.4619C167.552 20.3662 167.88 20.234 168.254 20.0654C168.354 20.0244 168.434 20.0039 168.493 20.0039C168.589 20.0039 168.678 20.0449 168.76 20.127C168.842 20.2044 168.919 20.3343 168.992 20.5166C169.074 20.7217 169.115 20.888 169.115 21.0156C169.115 21.1159 169.09 21.2002 169.04 21.2686C168.995 21.3324 168.924 21.3893 168.828 21.4395C167.89 21.9134 167.076 22.1504 166.388 22.1504C165.595 22.1504 164.989 21.9294 164.57 21.4873C164.155 21.0452 163.947 20.4004 163.947 19.5527V17.5635H162.628C162.469 17.5635 162.357 17.5133 162.293 17.4131C162.229 17.3083 162.197 17.1146 162.197 16.832C162.197 16.5495 162.229 16.3558 162.293 16.251C162.357 16.1462 162.469 16.0938 162.628 16.0938H163.947V14.166C163.947 14.0111 164.016 13.9017 164.153 13.8379C164.294 13.7695 164.526 13.7354 164.85 13.7354ZM175.451 15.5332C176.454 15.5332 177.178 15.7497 177.625 16.1826C178.071 16.6156 178.295 17.2354 178.295 18.042V20.0176C178.295 20.1999 178.333 20.3434 178.411 20.4482C178.488 20.5485 178.6 20.5986 178.746 20.5986H178.958C179.067 20.5986 179.151 20.6191 179.211 20.6602C179.27 20.6966 179.313 20.765 179.341 20.8652C179.373 20.9655 179.388 21.1113 179.388 21.3027C179.388 21.4941 179.373 21.64 179.341 21.7402C179.313 21.8405 179.27 21.9089 179.211 21.9453C179.151 21.9818 179.067 22 178.958 22H178.192C177.91 22 177.659 21.943 177.44 21.8291C177.226 21.7106 177.062 21.526 176.948 21.2754C176.588 21.5534 176.207 21.7699 175.806 21.9248C175.405 22.0752 174.993 22.1504 174.569 22.1504C174.054 22.1504 173.61 22.0638 173.236 21.8906C172.862 21.7129 172.575 21.4622 172.375 21.1387C172.179 20.8105 172.081 20.4255 172.081 19.9834C172.081 19.3454 172.306 18.8509 172.758 18.5C173.209 18.1491 173.84 17.9736 174.651 17.9736C175.257 17.9736 175.902 18.042 176.586 18.1787V17.9805C176.586 17.6751 176.49 17.4495 176.299 17.3037C176.107 17.1579 175.77 17.085 175.287 17.085C175.018 17.085 174.717 17.1191 174.385 17.1875C174.056 17.2513 173.731 17.3379 173.407 17.4473C173.33 17.4701 173.263 17.4814 173.209 17.4814C173.095 17.4814 172.992 17.4404 172.901 17.3584C172.815 17.2718 172.735 17.1283 172.662 16.9277C172.594 16.7272 172.559 16.5632 172.559 16.4355C172.559 16.2031 172.664 16.0482 172.874 15.9707C173.279 15.8249 173.71 15.7155 174.166 15.6426C174.622 15.5697 175.05 15.5332 175.451 15.5332ZM174.822 19.3818C174.503 19.3818 174.259 19.4388 174.091 19.5527C173.927 19.6667 173.845 19.833 173.845 20.0518C173.845 20.266 173.924 20.43 174.084 20.5439C174.248 20.6533 174.483 20.708 174.788 20.708C175.102 20.708 175.412 20.6465 175.718 20.5234C176.027 20.3958 176.317 20.2227 176.586 20.0039V19.5664C175.984 19.4434 175.396 19.3818 174.822 19.3818ZM184.733 15.5332C185.166 15.5332 185.56 15.6243 185.915 15.8066C186.271 15.9889 186.567 16.251 186.804 16.5928V16.1143C186.804 15.9593 186.836 15.8499 186.9 15.7861C186.968 15.7178 187.08 15.6836 187.235 15.6836H188.834C188.944 15.6836 189.028 15.7041 189.087 15.7451C189.147 15.7816 189.19 15.8499 189.217 15.9502C189.249 16.0505 189.265 16.1963 189.265 16.3877C189.265 16.5791 189.249 16.7249 189.217 16.8252C189.19 16.9255 189.147 16.9938 189.087 17.0303C189.028 17.0667 188.944 17.085 188.834 17.085H188.24V21.9932C188.24 22.8864 187.971 23.5768 187.433 24.0645C186.9 24.5566 186.1 24.8027 185.034 24.8027C184.642 24.8027 184.213 24.764 183.748 24.6865C183.284 24.6136 182.839 24.5111 182.415 24.3789C182.197 24.3105 182.087 24.1533 182.087 23.9072C182.087 23.7979 182.117 23.6383 182.176 23.4287C182.245 23.2145 182.32 23.0596 182.402 22.9639C182.488 22.8682 182.589 22.8203 182.703 22.8203C182.762 22.8203 182.816 22.8294 182.867 22.8477C183.737 23.1165 184.437 23.251 184.965 23.251C185.517 23.251 185.915 23.1348 186.162 22.9023C186.408 22.6745 186.531 22.3258 186.531 21.8564V21.1592C186.298 21.4098 186.029 21.6035 185.724 21.7402C185.419 21.877 185.088 21.9453 184.733 21.9453C184.145 21.9453 183.628 21.8086 183.181 21.5352C182.734 21.2572 182.39 20.8766 182.149 20.3936C181.907 19.9059 181.787 19.3545 181.787 18.7393C181.787 18.124 181.907 17.5749 182.149 17.0918C182.39 16.6042 182.734 16.2236 183.181 15.9502C183.628 15.6722 184.145 15.5332 184.733 15.5332ZM185.006 17.085C184.582 17.085 184.245 17.2308 183.995 17.5225C183.744 17.8096 183.619 18.2152 183.619 18.7393C183.619 19.2633 183.744 19.6712 183.995 19.9629C184.245 20.25 184.582 20.3936 185.006 20.3936C185.298 20.3936 185.562 20.332 185.799 20.209C186.041 20.0814 186.23 19.8945 186.367 19.6484C186.508 19.3978 186.579 19.0947 186.579 18.7393C186.579 18.3838 186.508 18.083 186.367 17.8369C186.23 17.5863 186.041 17.3994 185.799 17.2764C185.562 17.1488 185.298 17.085 185.006 17.085ZM197.255 15.5332C197.642 15.5332 198.007 15.6608 198.349 15.916C198.549 16.0618 198.649 16.2533 198.649 16.4902C198.649 16.6406 198.608 16.8184 198.526 17.0234C198.444 17.2285 198.351 17.3835 198.246 17.4883C198.146 17.5931 198.039 17.6455 197.925 17.6455C197.861 17.6455 197.793 17.6273 197.72 17.5908C197.465 17.4495 197.2 17.3789 196.927 17.3789C196.576 17.3789 196.248 17.4906 195.942 17.7139C195.637 17.9372 195.391 18.2448 195.204 18.6367C195.022 19.0286 194.931 19.4661 194.931 19.9492V20.5986H196.893C197.002 20.5986 197.086 20.6191 197.146 20.6602C197.205 20.6966 197.248 20.765 197.275 20.8652C197.307 20.9655 197.323 21.1113 197.323 21.3027C197.323 21.4941 197.307 21.64 197.275 21.7402C197.248 21.8405 197.205 21.9089 197.146 21.9453C197.086 21.9818 197.002 22 196.893 22H192.217C192.107 22 192.023 21.9818 191.964 21.9453C191.905 21.9089 191.859 21.8405 191.827 21.7402C191.8 21.64 191.786 21.4941 191.786 21.3027C191.786 21.1113 191.8 20.9655 191.827 20.8652C191.859 20.765 191.905 20.6966 191.964 20.6602C192.023 20.6191 192.107 20.5986 192.217 20.5986H193.222V17.085H192.422C192.312 17.085 192.228 17.0667 192.169 17.0303C192.11 16.9938 192.064 16.9255 192.032 16.8252C192.005 16.7249 191.991 16.5791 191.991 16.3877C191.991 16.1963 192.005 16.0505 192.032 15.9502C192.064 15.8499 192.11 15.7816 192.169 15.7451C192.228 15.7041 192.312 15.6836 192.422 15.6836H194.295C194.45 15.6836 194.559 15.7178 194.623 15.7861C194.691 15.8499 194.726 15.9593 194.726 16.1143V17.5977C195.067 16.9368 195.459 16.4287 195.901 16.0732C196.348 15.7132 196.799 15.5332 197.255 15.5332ZM204.835 15.5332C205.837 15.5332 206.562 15.7497 207.008 16.1826C207.455 16.6156 207.678 17.2354 207.678 18.042V20.0176C207.678 20.1999 207.717 20.3434 207.795 20.4482C207.872 20.5485 207.984 20.5986 208.129 20.5986H208.341C208.451 20.5986 208.535 20.6191 208.594 20.6602C208.654 20.6966 208.697 20.765 208.724 20.8652C208.756 20.9655 208.772 21.1113 208.772 21.3027C208.772 21.4941 208.756 21.64 208.724 21.7402C208.697 21.8405 208.654 21.9089 208.594 21.9453C208.535 21.9818 208.451 22 208.341 22H207.576C207.293 22 207.043 21.943 206.824 21.8291C206.61 21.7106 206.446 21.526 206.332 21.2754C205.972 21.5534 205.591 21.7699 205.19 21.9248C204.789 22.0752 204.377 22.1504 203.953 22.1504C203.438 22.1504 202.993 22.0638 202.62 21.8906C202.246 21.7129 201.959 21.4622 201.758 21.1387C201.562 20.8105 201.464 20.4255 201.464 19.9834C201.464 19.3454 201.69 18.8509 202.141 18.5C202.592 18.1491 203.224 17.9736 204.035 17.9736C204.641 17.9736 205.286 18.042 205.969 18.1787V17.9805C205.969 17.6751 205.874 17.4495 205.682 17.3037C205.491 17.1579 205.154 17.085 204.671 17.085C204.402 17.085 204.101 17.1191 203.768 17.1875C203.44 17.2513 203.114 17.3379 202.791 17.4473C202.713 17.4701 202.647 17.4814 202.592 17.4814C202.478 17.4814 202.376 17.4404 202.285 17.3584C202.198 17.2718 202.118 17.1283 202.046 16.9277C201.977 16.7272 201.943 16.5632 201.943 16.4355C201.943 16.2031 202.048 16.0482 202.257 15.9707C202.663 15.8249 203.094 15.7155 203.549 15.6426C204.005 15.5697 204.434 15.5332 204.835 15.5332ZM204.206 19.3818C203.887 19.3818 203.643 19.4388 203.474 19.5527C203.31 19.6667 203.228 19.833 203.228 20.0518C203.228 20.266 203.308 20.43 203.467 20.5439C203.631 20.6533 203.866 20.708 204.171 20.708C204.486 20.708 204.796 20.6465 205.101 20.5234C205.411 20.3958 205.7 20.2227 205.969 20.0039V19.5664C205.368 19.4434 204.78 19.3818 204.206 19.3818ZM217.111 15.5332C217.53 15.5332 217.86 15.7041 218.102 16.0459C218.343 16.3877 218.464 16.9072 218.464 17.6045V21.5693C218.464 21.7243 218.43 21.8359 218.362 21.9043C218.298 21.9681 218.188 22 218.033 22H217.186C217.031 22 216.919 21.9681 216.851 21.9043C216.787 21.8359 216.755 21.7243 216.755 21.5693V17.9941C216.755 17.7526 216.725 17.5749 216.666 17.4609C216.612 17.347 216.523 17.29 216.4 17.29C216.185 17.29 216.015 17.4564 215.887 17.7891C215.764 18.1217 215.702 18.6071 215.702 19.2451V21.5693C215.702 21.7243 215.668 21.8359 215.6 21.9043C215.536 21.9681 215.427 22 215.272 22H214.424C214.269 22 214.157 21.9681 214.089 21.9043C214.025 21.8359 213.993 21.7243 213.993 21.5693V17.9941C213.993 17.7526 213.964 17.5749 213.904 17.4609C213.85 17.347 213.761 17.29 213.638 17.29C213.424 17.29 213.253 17.4564 213.125 17.7891C213.002 18.1217 212.941 18.6071 212.941 19.2451V21.5693C212.941 21.7243 212.906 21.8359 212.838 21.9043C212.774 21.9681 212.665 22 212.51 22H211.662C211.507 22 211.396 21.9681 211.327 21.9043C211.264 21.8359 211.232 21.7243 211.232 21.5693V17.085H210.842C210.733 17.085 210.648 17.0667 210.589 17.0303C210.53 16.9938 210.487 16.9255 210.459 16.8252C210.427 16.7249 210.411 16.5791 210.411 16.3877C210.411 16.1963 210.427 16.0505 210.459 15.9502C210.487 15.8499 210.53 15.7816 210.589 15.7451C210.648 15.7041 210.733 15.6836 210.842 15.6836H212.031C212.186 15.6836 212.296 15.7178 212.36 15.7861C212.428 15.8499 212.462 15.9593 212.462 16.1143V17.0986C212.676 16.5837 212.927 16.194 213.214 15.9297C213.506 15.6654 213.825 15.5332 214.171 15.5332C214.846 15.5332 215.281 15.9958 215.477 16.9209C215.686 16.4652 215.93 16.1211 216.208 15.8887C216.486 15.6517 216.787 15.5332 217.111 15.5332Z" fill="#CFB284"/>
</svg>
