<svg width="315" height="44" viewBox="0 0 315 44" fill="none" xmlns="http://www.w3.org/2000/svg">
<path d="M40.8008 16.5254C41.6973 16.5254 42.4824 16.7305 43.1562 17.1406C43.8359 17.5449 44.3604 18.1104 44.7295 18.8369C45.0986 19.5635 45.2832 20.3955 45.2832 21.333C45.2832 22.0127 45.1807 22.6162 44.9756 23.1436C44.7705 23.665 44.4805 24.0723 44.1055 24.3652C43.7305 24.6523 43.2998 24.7959 42.8135 24.7959C42.4326 24.7959 42.1045 24.6992 41.8291 24.5059C41.5596 24.3125 41.3574 24.0312 41.2227 23.6621C40.918 24.0547 40.6279 24.3506 40.3525 24.5498C40.0771 24.7432 39.7549 24.8398 39.3857 24.8398C39.0986 24.8398 38.835 24.7607 38.5947 24.6025C38.3604 24.4443 38.1758 24.2188 38.041 23.9258C37.9062 23.627 37.8389 23.2725 37.8389 22.8623C37.8389 22.3291 37.9648 21.7666 38.2168 21.1748C38.4688 20.583 38.8086 20.0908 39.2363 19.6982C39.6641 19.2998 40.127 19.1006 40.625 19.1006C41.1289 19.1006 41.5039 19.3936 41.75 19.9795L42.0225 19.4258C42.0576 19.3613 42.1309 19.3291 42.2422 19.3291C42.3301 19.3291 42.4297 19.3496 42.541 19.3906C42.6582 19.4316 42.749 19.4902 42.8135 19.5664C42.8838 19.6367 42.9072 19.7129 42.8838 19.7949L42.207 22.4492C42.166 22.6074 42.1455 22.7598 42.1455 22.9062C42.1455 23.1523 42.2041 23.3457 42.3213 23.4863C42.4385 23.6211 42.5996 23.6885 42.8047 23.6885C43.2441 23.6885 43.5898 23.4746 43.8418 23.0469C44.0938 22.6133 44.2197 22.042 44.2197 21.333C44.2197 20.5713 44.0791 19.9121 43.7979 19.3555C43.5166 18.793 43.1152 18.3623 42.5938 18.0635C42.0781 17.7588 41.4658 17.6064 40.7568 17.6064C39.96 17.6064 39.2363 17.8262 38.5859 18.2656C37.9414 18.6992 37.4346 19.2939 37.0654 20.0498C36.7021 20.8057 36.5205 21.6494 36.5205 22.5811C36.5205 23.3311 36.6523 23.9844 36.916 24.541C37.1797 25.0918 37.5664 25.5166 38.0762 25.8154C38.5859 26.1143 39.2012 26.2637 39.9219 26.2637C40.3262 26.2637 40.7217 26.2344 41.1084 26.1758C41.501 26.1172 41.8525 26.0381 42.1631 25.9385C42.21 25.9268 42.2422 25.9209 42.2598 25.9209C42.4238 25.9209 42.5439 26.0527 42.6201 26.3164C42.6494 26.4219 42.6641 26.5039 42.6641 26.5625C42.6641 26.7207 42.5938 26.8291 42.4531 26.8877C42.1367 27.0283 41.7559 27.1396 41.3105 27.2217C40.8711 27.3037 40.4141 27.3447 39.9395 27.3447C39.0078 27.3447 38.2051 27.1514 37.5312 26.7646C36.8574 26.3838 36.3389 25.8359 35.9756 25.1211C35.6182 24.4062 35.4395 23.5596 35.4395 22.5811C35.4395 21.4443 35.6709 20.416 36.1338 19.4961C36.6025 18.5703 37.2441 17.8438 38.0586 17.3164C38.873 16.7891 39.7871 16.5254 40.8008 16.5254ZM40.5898 20.2168C40.3789 20.2168 40.1475 20.3486 39.8955 20.6123C39.6494 20.8701 39.4414 21.2041 39.2715 21.6143C39.1074 22.0186 39.0254 22.4287 39.0254 22.8447C39.0254 23.1201 39.0781 23.3252 39.1836 23.46C39.2891 23.5947 39.4297 23.6621 39.6055 23.6621C39.8926 23.6621 40.1621 23.5303 40.4141 23.2666C40.6719 22.9971 40.877 22.6602 41.0293 22.2559C41.1816 21.8516 41.2578 21.4561 41.2578 21.0693C41.2578 20.7998 41.1992 20.5918 41.082 20.4453C40.9648 20.293 40.8008 20.2168 40.5898 20.2168ZM53.0246 17.6855C54.1262 17.6855 54.9523 17.9316 55.5031 18.4238C56.0539 18.916 56.3293 19.6455 56.3293 20.6123V24.1104C56.3293 24.5732 56.5227 24.8047 56.9094 24.8047H57.217C57.4162 24.8047 57.5568 24.8516 57.6389 24.9453C57.7268 25.0332 57.7707 25.1855 57.7707 25.4023C57.7707 25.6191 57.7268 25.7744 57.6389 25.8682C57.5568 25.9561 57.4162 26 57.217 26H56.6545C56.2736 26 55.9455 25.9062 55.6701 25.7188C55.4006 25.5254 55.2248 25.2441 55.1428 24.875C54.6623 25.2969 54.1408 25.6221 53.5783 25.8506C53.0217 26.0791 52.4299 26.1934 51.8029 26.1934C51.2111 26.1934 50.6867 26.0938 50.2297 25.8945C49.7785 25.6895 49.424 25.3936 49.1662 25.0068C48.9084 24.6201 48.7795 24.1602 48.7795 23.627C48.7795 22.7012 49.1105 22.0186 49.7727 21.5791C50.4348 21.1338 51.2902 20.9111 52.3391 20.9111C53.2707 20.9111 54.1613 21.0605 55.0109 21.3594V20.6123C55.0109 20.0439 54.8498 19.6279 54.5275 19.3643C54.2111 19.0947 53.6984 18.96 52.9895 18.96C52.55 18.96 52.093 19.0215 51.6184 19.1445C51.1438 19.2676 50.6926 19.4375 50.2648 19.6543C50.1652 19.707 50.0744 19.7334 49.9924 19.7334C49.799 19.7334 49.6379 19.5928 49.509 19.3115C49.4445 19.1709 49.4123 19.0537 49.4123 18.96C49.4123 18.7549 49.5207 18.5967 49.7375 18.4854C50.2297 18.2275 50.757 18.0312 51.3195 17.8965C51.8879 17.7559 52.4563 17.6855 53.0246 17.6855ZM52.3479 22.1504C51.674 22.1504 51.1408 22.2676 50.7482 22.502C50.3615 22.7305 50.1682 23.0967 50.1682 23.6006C50.1682 24.0283 50.3146 24.3623 50.6076 24.6025C50.9064 24.8369 51.3225 24.9541 51.8557 24.9541C53.0217 24.9541 54.0734 24.4707 55.0109 23.5039V22.5459C54.6125 22.417 54.1848 22.3203 53.7277 22.2559C53.2707 22.1855 52.8107 22.1504 52.3479 22.1504ZM71.0229 28.2148C71.0932 28.2148 71.143 28.2529 71.1723 28.3291C71.2074 28.4053 71.225 28.5664 71.225 28.8125C71.225 29.0586 71.2074 29.2197 71.1723 29.2959C71.143 29.3721 71.0932 29.4102 71.0229 29.4102H60.142C60.0717 29.4102 60.0219 29.3721 59.9926 29.2959C59.9574 29.2197 59.9398 29.0586 59.9398 28.8125C59.9398 28.5664 59.9574 28.4053 59.9926 28.3291C60.0219 28.2529 60.0717 28.2148 60.142 28.2148H71.0229ZM75.3189 14.4688C75.5182 14.4688 75.6588 14.5156 75.7408 14.6094C75.8287 14.6973 75.8727 14.8496 75.8727 15.0664V19.1357C76.6285 18.1689 77.5572 17.6855 78.6588 17.6855C79.3854 17.6855 80.0357 17.8584 80.61 18.2041C81.1842 18.5439 81.6354 19.0361 81.9635 19.6807C82.2916 20.3193 82.4557 21.0723 82.4557 21.9395C82.4557 22.8066 82.2916 23.5625 81.9635 24.207C81.6354 24.8457 81.1842 25.3379 80.61 25.6836C80.0357 26.0234 79.3854 26.1934 78.6588 26.1934C78.0846 26.1934 77.5543 26.0645 77.068 25.8066C76.5816 25.5488 76.1539 25.1797 75.7848 24.6992V25.4023C75.7848 25.6191 75.7408 25.7744 75.6529 25.8682C75.5709 25.9561 75.4303 26 75.2311 26H73.8336C73.6344 26 73.4908 25.9561 73.4029 25.8682C73.3209 25.7744 73.2799 25.6191 73.2799 25.4023C73.2799 25.1855 73.3209 25.0332 73.4029 24.9453C73.4908 24.8516 73.6344 24.8047 73.8336 24.8047H74.5543V15.6641H73.6578C73.4586 15.6641 73.315 15.6201 73.2271 15.5322C73.1451 15.4385 73.1041 15.2832 73.1041 15.0664C73.1041 14.8496 73.1451 14.6973 73.2271 14.6094C73.315 14.5156 73.4586 14.4688 73.6578 14.4688H75.3189ZM78.5709 18.9863C78.0494 18.9863 77.5836 19.1035 77.1734 19.3379C76.7691 19.5723 76.4498 19.9121 76.2154 20.3574C75.9869 20.8027 75.8727 21.3301 75.8727 21.9395C75.8727 22.5488 75.9869 23.0762 76.2154 23.5215C76.4498 23.9668 76.7691 24.3066 77.1734 24.541C77.5836 24.7754 78.0494 24.8926 78.5709 24.8926C79.0924 24.8926 79.5406 24.7695 79.9156 24.5234C80.2906 24.2715 80.5748 23.9229 80.7682 23.4775C80.9674 23.0322 81.067 22.5195 81.067 21.9395C81.067 21.3594 80.9674 20.8467 80.7682 20.4014C80.5748 19.9561 80.2906 19.6104 79.9156 19.3643C79.5406 19.1123 79.0924 18.9863 78.5709 18.9863ZM93.4578 17.6855C93.9148 17.6855 94.3426 17.8027 94.741 18.0371C94.9754 18.1777 95.0926 18.3594 95.0926 18.582C95.0926 18.6875 95.0662 18.8105 95.0135 18.9512C94.8904 19.2852 94.7205 19.4521 94.5037 19.4521C94.4158 19.4521 94.3338 19.4287 94.2576 19.3818C93.9705 19.2236 93.6629 19.1445 93.3348 19.1445C92.8074 19.1445 92.2771 19.3291 91.7439 19.6982C91.2107 20.0615 90.7713 20.5479 90.4256 21.1572C90.0857 21.7666 89.9158 22.4141 89.9158 23.0996V24.8047H92.8777C93.077 24.8047 93.2176 24.8516 93.2996 24.9453C93.3875 25.0332 93.4314 25.1855 93.4314 25.4023C93.4314 25.6191 93.3875 25.7744 93.2996 25.8682C93.2176 25.9561 93.077 26 92.8777 26H87.2176C87.0184 26 86.8748 25.9561 86.7869 25.8682C86.7049 25.7744 86.6639 25.6191 86.6639 25.4023C86.6639 25.1855 86.7049 25.0332 86.7869 24.9453C86.8748 24.8516 87.0184 24.8047 87.2176 24.8047H88.5975V19.0742H87.4813C87.282 19.0742 87.1385 19.0303 87.0506 18.9424C86.9686 18.8486 86.9275 18.6934 86.9275 18.4766C86.9275 18.2598 86.9686 18.1074 87.0506 18.0195C87.1385 17.9258 87.282 17.8789 87.4813 17.8789H89.2742C89.4734 17.8789 89.6141 17.9258 89.6961 18.0195C89.784 18.1074 89.8279 18.2598 89.8279 18.4766V20.252C90.1092 19.7363 90.449 19.2852 90.8475 18.8984C91.2459 18.5117 91.6707 18.2129 92.1219 18.002C92.573 17.791 93.0184 17.6855 93.4578 17.6855ZM103.44 17.6855C104.29 17.6855 105.014 17.8584 105.611 18.2041C106.215 18.5439 106.678 19.0186 107 19.6279C107.322 20.2314 107.507 20.9287 107.554 21.7197C107.554 21.9189 107.51 22.0596 107.422 22.1416C107.34 22.2236 107.199 22.2646 107 22.2646H100.637C100.678 23.1377 100.936 23.7998 101.41 24.251C101.891 24.6963 102.567 24.9189 103.44 24.9189C103.979 24.9189 104.513 24.8516 105.04 24.7168C105.567 24.5762 106.03 24.3916 106.429 24.1631C106.528 24.1104 106.619 24.084 106.701 24.084C106.906 24.084 107.073 24.2393 107.202 24.5498C107.255 24.6729 107.281 24.7842 107.281 24.8838C107.281 25.1182 107.152 25.2998 106.895 25.4287C106.443 25.6572 105.91 25.8418 105.295 25.9824C104.68 26.123 104.062 26.1934 103.44 26.1934C102.556 26.1934 101.8 26.0234 101.173 25.6836C100.546 25.3438 100.068 24.8545 99.7402 24.2158C99.4121 23.5771 99.248 22.8184 99.248 21.9395C99.248 21.1016 99.4268 20.3604 99.7842 19.7158C100.142 19.0713 100.637 18.5732 101.27 18.2217C101.902 17.8643 102.626 17.6855 103.44 17.6855ZM103.44 18.96C102.72 18.96 102.122 19.1445 101.647 19.5137C101.179 19.877 100.871 20.3838 100.725 21.0342H106.095C105.972 20.3604 105.688 19.8477 105.242 19.4961C104.803 19.1387 104.202 18.96 103.44 18.96ZM120.885 17.8789C121.084 17.8789 121.225 17.9258 121.307 18.0195C121.395 18.1074 121.439 18.2598 121.439 18.4766C121.439 18.6934 121.395 18.8486 121.307 18.9424C121.225 19.0303 121.084 19.0742 120.885 19.0742H120.674L118.943 25.6221C118.884 25.833 118.796 25.9795 118.679 26.0615C118.568 26.1494 118.401 26.1934 118.178 26.1934C117.926 26.1934 117.727 26.1465 117.58 26.0527C117.44 25.9648 117.334 25.8213 117.264 25.6221L115.919 21.8076L114.557 25.6221C114.487 25.8213 114.375 25.9648 114.223 26.0527C114.076 26.1465 113.877 26.1934 113.625 26.1934C113.403 26.1934 113.236 26.1494 113.124 26.0615C113.013 25.9795 112.931 25.833 112.878 25.6221L111.182 19.0742H111.024C110.824 19.0742 110.681 19.0303 110.593 18.9424C110.511 18.8486 110.47 18.6934 110.47 18.4766C110.47 18.2598 110.511 18.1074 110.593 18.0195C110.681 17.9258 110.824 17.8789 111.024 17.8789H113.608C113.807 17.8789 113.947 17.9258 114.029 18.0195C114.117 18.1074 114.161 18.2598 114.161 18.4766C114.161 18.6934 114.117 18.8486 114.029 18.9424C113.947 19.0303 113.807 19.0742 113.608 19.0742H112.527L113.792 24.1895L115.26 20.1113C115.301 19.9883 115.377 19.8887 115.488 19.8125C115.6 19.7363 115.746 19.6982 115.928 19.6982C116.297 19.6982 116.523 19.8154 116.605 20.0498L118.064 24.1895L119.364 19.0742H118.477C118.278 19.0742 118.134 19.0303 118.046 18.9424C117.964 18.8486 117.923 18.6934 117.923 18.4766C117.923 18.2598 117.964 18.1074 118.046 18.0195C118.134 17.9258 118.278 17.8789 118.477 17.8789H120.885ZM128.864 17.8789C129.063 17.8789 129.204 17.9258 129.286 18.0195C129.373 18.1074 129.417 18.2598 129.417 18.4766V24.8047H132.239C132.438 24.8047 132.579 24.8516 132.661 24.9453C132.748 25.0332 132.792 25.1855 132.792 25.4023C132.792 25.6191 132.748 25.7744 132.661 25.8682C132.579 25.9561 132.438 26 132.239 26H125.348C125.149 26 125.005 25.9561 124.917 25.8682C124.835 25.7744 124.794 25.6191 124.794 25.4023C124.794 25.1855 124.835 25.0332 124.917 24.9453C125.005 24.8516 125.149 24.8047 125.348 24.8047H128.099V19.0742H125.875C125.676 19.0742 125.533 19.0303 125.445 18.9424C125.363 18.8486 125.322 18.6934 125.322 18.4766C125.322 18.2598 125.363 18.1074 125.445 18.0195C125.533 17.9258 125.676 17.8789 125.875 17.8789H128.864ZM128.582 14.0205C128.905 14.0205 129.124 14.0645 129.242 14.1523C129.359 14.2344 129.417 14.3809 129.417 14.5918V15.7344C129.417 15.9453 129.359 16.0947 129.242 16.1826C129.124 16.2646 128.905 16.3057 128.582 16.3057C128.26 16.3057 128.04 16.2646 127.923 16.1826C127.806 16.0947 127.747 15.9453 127.747 15.7344V14.5918C127.747 14.3809 127.806 14.2344 127.923 14.1523C128.04 14.0645 128.26 14.0205 128.582 14.0205ZM142.133 17.6855C142.667 17.6855 143.129 17.8027 143.522 18.0371C143.915 18.2656 144.216 18.5967 144.427 19.0303C144.638 19.4639 144.744 19.9707 144.744 20.5508V24.8047H145.464C145.664 24.8047 145.804 24.8516 145.886 24.9453C145.974 25.0332 146.018 25.1855 146.018 25.4023C146.018 25.6191 145.974 25.7744 145.886 25.8682C145.804 25.9561 145.664 26 145.464 26H142.617C142.418 26 142.274 25.9561 142.186 25.8682C142.104 25.7744 142.063 25.6191 142.063 25.4023C142.063 25.1855 142.104 25.0332 142.186 24.9453C142.274 24.8516 142.418 24.8047 142.617 24.8047H143.425V20.6826C143.425 20.1611 143.305 19.748 143.065 19.4434C142.825 19.1387 142.47 18.9863 142.002 18.9863C141.504 18.9863 141.038 19.1299 140.604 19.417C140.176 19.7041 139.834 20.0996 139.576 20.6035C139.318 21.1074 139.189 21.6699 139.189 22.291V24.8047H139.998C140.197 24.8047 140.338 24.8516 140.42 24.9453C140.507 25.0332 140.551 25.1855 140.551 25.4023C140.551 25.6191 140.507 25.7744 140.42 25.8682C140.338 25.9561 140.197 26 139.998 26H137.15C136.951 26 136.807 25.9561 136.719 25.8682C136.637 25.7744 136.596 25.6191 136.596 25.4023C136.596 25.1855 136.637 25.0332 136.719 24.9453C136.807 24.8516 136.951 24.8047 137.15 24.8047H137.871V19.0742H136.974C136.775 19.0742 136.631 19.0303 136.544 18.9424C136.462 18.8486 136.421 18.6934 136.421 18.4766C136.421 18.2598 136.462 18.1074 136.544 18.0195C136.631 17.9258 136.775 17.8789 136.974 17.8789H138.547C138.747 17.8789 138.887 17.9258 138.969 18.0195C139.057 18.1074 139.101 18.2598 139.101 18.4766V19.5312C139.488 18.9336 139.939 18.4766 140.455 18.1602C140.976 17.8438 141.536 17.6855 142.133 17.6855ZM153.25 17.6855C153.824 17.6855 154.354 17.8145 154.841 18.0723C155.327 18.3301 155.755 18.6992 156.124 19.1797V18.4766C156.124 18.2598 156.165 18.1074 156.247 18.0195C156.335 17.9258 156.478 17.8789 156.678 17.8789H158.075C158.274 17.8789 158.415 17.9258 158.497 18.0195C158.585 18.1074 158.629 18.2598 158.629 18.4766C158.629 18.6934 158.585 18.8486 158.497 18.9424C158.415 19.0303 158.274 19.0742 158.075 19.0742H157.354V26.2637C157.354 26.9609 157.205 27.5586 156.906 28.0566C156.613 28.5605 156.185 28.9443 155.623 29.208C155.06 29.4717 154.384 29.6035 153.593 29.6035C153.03 29.6035 152.462 29.5537 151.887 29.4541C151.313 29.3604 150.777 29.2227 150.279 29.041C150.051 28.959 149.936 28.8037 149.936 28.5752C149.936 28.4814 149.96 28.3643 150.007 28.2236C150.112 27.9014 150.279 27.7402 150.508 27.7402C150.572 27.7402 150.637 27.752 150.701 27.7754C151.158 27.9395 151.638 28.0684 152.142 28.1621C152.646 28.2559 153.13 28.3027 153.593 28.3027C154.401 28.3027 155.011 28.1094 155.421 27.7227C155.831 27.3418 156.036 26.8174 156.036 26.1494V24.3828C155.309 25.2969 154.381 25.7539 153.25 25.7539C152.523 25.7539 151.873 25.5928 151.299 25.2705C150.724 24.9424 150.273 24.4736 149.945 23.8643C149.617 23.2549 149.453 22.54 149.453 21.7197C149.453 20.8994 149.617 20.1846 149.945 19.5752C150.273 18.9658 150.724 18.5 151.299 18.1777C151.873 17.8496 152.523 17.6855 153.25 17.6855ZM153.338 18.9863C152.816 18.9863 152.368 19.1035 151.993 19.3379C151.618 19.5664 151.331 19.8887 151.132 20.3047C150.938 20.7148 150.842 21.1865 150.842 21.7197C150.842 22.2529 150.938 22.7275 151.132 23.1436C151.331 23.5537 151.618 23.876 151.993 24.1104C152.368 24.3389 152.816 24.4531 153.338 24.4531C153.859 24.4531 154.322 24.3447 154.726 24.1279C155.137 23.9111 155.456 23.5977 155.684 23.1875C155.919 22.7715 156.036 22.2822 156.036 21.7197C156.036 21.1572 155.919 20.6709 155.684 20.2607C155.456 19.8447 155.137 19.5283 154.726 19.3115C154.322 19.0947 153.859 18.9863 153.338 18.9863ZM169.71 15.374C169.95 15.374 170.12 15.418 170.22 15.5059C170.319 15.5938 170.369 15.7402 170.369 15.9453V18.8457C170.369 19.0508 170.319 19.1973 170.22 19.2852C170.12 19.373 169.95 19.417 169.71 19.417C169.47 19.417 169.3 19.373 169.2 19.2852C169.101 19.1973 169.051 19.0508 169.051 18.8457C169.051 18.4473 168.96 18.084 168.778 17.7559C168.603 17.4277 168.33 17.167 167.961 16.9736C167.592 16.7744 167.135 16.6748 166.59 16.6748C165.957 16.6748 165.395 16.8418 164.902 17.1758C164.416 17.5098 164.035 17.9873 163.76 18.6084C163.49 19.2295 163.355 19.9561 163.355 20.7881C163.355 21.6201 163.484 22.3467 163.742 22.9678C164 23.583 164.366 24.0576 164.841 24.3916C165.315 24.7256 165.869 24.8926 166.502 24.8926C167.082 24.8926 167.636 24.8076 168.163 24.6377C168.69 24.4678 169.165 24.2217 169.587 23.8994C169.687 23.8174 169.795 23.7764 169.912 23.7764C170.088 23.7764 170.243 23.8906 170.378 24.1191C170.483 24.2949 170.536 24.4502 170.536 24.585C170.536 24.7607 170.445 24.9131 170.264 25.042C169.719 25.4229 169.124 25.71 168.479 25.9033C167.841 26.0967 167.182 26.1934 166.502 26.1934C165.588 26.1934 164.788 25.9707 164.103 25.5254C163.423 25.0742 162.896 24.4414 162.521 23.627C162.151 22.8125 161.967 21.8662 161.967 20.7881C161.967 19.7158 162.157 18.7725 162.538 17.958C162.919 17.1377 163.452 16.502 164.138 16.0508C164.829 15.5996 165.617 15.374 166.502 15.374C167.053 15.374 167.542 15.4678 167.97 15.6553C168.397 15.8428 168.758 16.1094 169.051 16.4551V15.9453C169.051 15.7402 169.101 15.5938 169.2 15.5059C169.3 15.418 169.47 15.374 169.71 15.374ZM178.919 17.6855C179.722 17.6855 180.446 17.8672 181.09 18.2305C181.735 18.5938 182.238 19.1006 182.602 19.751C182.971 20.3955 183.155 21.125 183.155 21.9395C183.155 22.7539 182.971 23.4863 182.602 24.1367C182.238 24.7812 181.735 25.2852 181.09 25.6484C180.446 26.0117 179.722 26.1934 178.919 26.1934C178.116 26.1934 177.393 26.0117 176.748 25.6484C176.104 25.2852 175.597 24.7812 175.228 24.1367C174.864 23.4863 174.683 22.7539 174.683 21.9395C174.683 21.125 174.864 20.3955 175.228 19.751C175.597 19.1006 176.104 18.5938 176.748 18.2305C177.393 17.8672 178.116 17.6855 178.919 17.6855ZM178.919 18.9863C178.351 18.9863 177.85 19.1123 177.416 19.3643C176.988 19.6104 176.657 19.959 176.423 20.4102C176.189 20.8555 176.071 21.3652 176.071 21.9395C176.071 22.5137 176.189 23.0264 176.423 23.4775C176.657 23.9229 176.988 24.2715 177.416 24.5234C177.85 24.7695 178.351 24.8926 178.919 24.8926C179.488 24.8926 179.986 24.7695 180.413 24.5234C180.847 24.2715 181.181 23.9229 181.415 23.4775C181.65 23.0264 181.767 22.5137 181.767 21.9395C181.767 21.3652 181.65 20.8555 181.415 20.4102C181.181 19.959 180.847 19.6104 180.413 19.3643C179.986 19.1123 179.488 18.9863 178.919 18.9863ZM196.583 24.8047C196.783 24.8047 196.923 24.8516 197.005 24.9453C197.093 25.0332 197.137 25.1855 197.137 25.4023C197.137 25.6191 197.093 25.7744 197.005 25.8682C196.923 25.9561 196.783 26 196.583 26H195.274C195.075 26 194.931 25.9561 194.843 25.8682C194.761 25.7744 194.72 25.6191 194.72 25.4023V20.1992C194.72 19.7949 194.653 19.4932 194.518 19.2939C194.389 19.0889 194.178 18.9863 193.885 18.9863C193.61 18.9863 193.355 19.1152 193.121 19.373C192.886 19.625 192.699 19.9795 192.558 20.4365C192.423 20.8877 192.356 21.4033 192.356 21.9834V24.8047H192.857C193.056 24.8047 193.197 24.8516 193.279 24.9453C193.367 25.0332 193.411 25.1855 193.411 25.4023C193.411 25.6191 193.367 25.7744 193.279 25.8682C193.197 25.9561 193.056 26 192.857 26H191.591C191.392 26 191.248 25.9561 191.161 25.8682C191.079 25.7744 191.038 25.6191 191.038 25.4023V20.1992C191.038 19.7949 190.97 19.4932 190.835 19.2939C190.706 19.0889 190.496 18.9863 190.203 18.9863C189.927 18.9863 189.672 19.1152 189.438 19.373C189.204 19.625 189.016 19.9795 188.875 20.4365C188.741 20.8877 188.673 21.4033 188.673 21.9834V24.8047H189.13C189.329 24.8047 189.47 24.8516 189.552 24.9453C189.64 25.0332 189.684 25.1855 189.684 25.4023C189.684 25.6191 189.64 25.7744 189.552 25.8682C189.47 25.9561 189.329 26 189.13 26H186.634C186.435 26 186.291 25.9561 186.204 25.8682C186.121 25.7744 186.08 25.6191 186.08 25.4023C186.08 25.1855 186.121 25.0332 186.204 24.9453C186.291 24.8516 186.435 24.8047 186.634 24.8047H187.355V19.0742H186.634C186.435 19.0742 186.291 19.0303 186.204 18.9424C186.121 18.8486 186.08 18.6934 186.08 18.4766C186.08 18.2598 186.121 18.1074 186.204 18.0195C186.291 17.9258 186.435 17.8789 186.634 17.8789H187.944C188.143 17.8789 188.284 17.9258 188.366 18.0195C188.454 18.1074 188.497 18.2598 188.497 18.4766V19.3467C188.749 18.7959 189.051 18.3828 189.403 18.1074C189.754 17.8262 190.135 17.6855 190.545 17.6855C190.944 17.6855 191.292 17.8203 191.591 18.0898C191.89 18.3594 192.092 18.7549 192.198 19.2764C192.719 18.2158 193.393 17.6855 194.219 17.6855C194.565 17.6855 194.872 17.7734 195.142 17.9492C195.417 18.1191 195.634 18.3828 195.792 18.7402C195.956 19.0918 196.038 19.5254 196.038 20.041V24.8047H196.583ZM204.588 17.6855C205.315 17.6855 205.965 17.8584 206.54 18.2041C207.114 18.5439 207.565 19.0361 207.893 19.6807C208.221 20.3193 208.385 21.0723 208.385 21.9395C208.385 22.8066 208.221 23.5625 207.893 24.207C207.565 24.8457 207.114 25.3379 206.54 25.6836C205.965 26.0234 205.315 26.1934 204.588 26.1934C203.487 26.1934 202.558 25.71 201.802 24.7432V28.2148H203.314C203.513 28.2148 203.654 28.2588 203.736 28.3467C203.824 28.4404 203.868 28.5957 203.868 28.8125C203.868 29.0293 203.824 29.1816 203.736 29.2695C203.654 29.3633 203.513 29.4102 203.314 29.4102H199.587C199.388 29.4102 199.245 29.3633 199.157 29.2695C199.075 29.1816 199.034 29.0293 199.034 28.8125C199.034 28.5957 199.075 28.4404 199.157 28.3467C199.245 28.2588 199.388 28.2148 199.587 28.2148H200.484V19.0742H199.763C199.564 19.0742 199.421 19.0303 199.333 18.9424C199.251 18.8486 199.21 18.6934 199.21 18.4766C199.21 18.2598 199.251 18.1074 199.333 18.0195C199.421 17.9258 199.564 17.8789 199.763 17.8789H201.161C201.36 17.8789 201.501 17.9258 201.583 18.0195C201.671 18.1074 201.714 18.2598 201.714 18.4766V19.1797C202.084 18.6992 202.511 18.3301 202.998 18.0723C203.484 17.8145 204.014 17.6855 204.588 17.6855ZM204.501 18.9863C203.979 18.9863 203.513 19.1035 203.103 19.3379C202.699 19.5723 202.379 19.9121 202.145 20.3574C201.917 20.8027 201.802 21.3301 201.802 21.9395C201.802 22.5488 201.917 23.0762 202.145 23.5215C202.379 23.9668 202.699 24.3066 203.103 24.541C203.513 24.7754 203.979 24.8926 204.501 24.8926C205.022 24.8926 205.47 24.7695 205.845 24.5234C206.22 24.2715 206.504 23.9229 206.698 23.4775C206.897 23.0322 206.997 22.5195 206.997 21.9395C206.997 21.3594 206.897 20.8467 206.698 20.4014C206.504 19.9561 206.22 19.6104 205.845 19.3643C205.47 19.1123 205.022 18.9863 204.501 18.9863ZM216.733 17.6855C217.835 17.6855 218.661 17.9316 219.212 18.4238C219.762 18.916 220.038 19.6455 220.038 20.6123V24.1104C220.038 24.5732 220.231 24.8047 220.618 24.8047H220.926C221.125 24.8047 221.265 24.8516 221.347 24.9453C221.435 25.0332 221.479 25.1855 221.479 25.4023C221.479 25.6191 221.435 25.7744 221.347 25.8682C221.265 25.9561 221.125 26 220.926 26H220.363C219.982 26 219.654 25.9062 219.379 25.7188C219.109 25.5254 218.933 25.2441 218.851 24.875C218.371 25.2969 217.849 25.6221 217.287 25.8506C216.73 26.0791 216.138 26.1934 215.512 26.1934C214.92 26.1934 214.395 26.0938 213.938 25.8945C213.487 25.6895 213.133 25.3936 212.875 25.0068C212.617 24.6201 212.488 24.1602 212.488 23.627C212.488 22.7012 212.819 22.0186 213.481 21.5791C214.143 21.1338 214.999 20.9111 216.048 20.9111C216.979 20.9111 217.87 21.0605 218.72 21.3594V20.6123C218.72 20.0439 218.558 19.6279 218.236 19.3643C217.92 19.0947 217.407 18.96 216.698 18.96C216.259 18.96 215.802 19.0215 215.327 19.1445C214.852 19.2676 214.401 19.4375 213.973 19.6543C213.874 19.707 213.783 19.7334 213.701 19.7334C213.508 19.7334 213.346 19.5928 213.218 19.3115C213.153 19.1709 213.121 19.0537 213.121 18.96C213.121 18.7549 213.229 18.5967 213.446 18.4854C213.938 18.2275 214.466 18.0312 215.028 17.8965C215.596 17.7559 216.165 17.6855 216.733 17.6855ZM216.056 22.1504C215.383 22.1504 214.849 22.2676 214.457 22.502C214.07 22.7305 213.877 23.0967 213.877 23.6006C213.877 24.0283 214.023 24.3623 214.316 24.6025C214.615 24.8369 215.031 24.9541 215.564 24.9541C216.73 24.9541 217.782 24.4707 218.72 23.5039V22.5459C218.321 22.417 217.893 22.3203 217.436 22.2559C216.979 22.1855 216.519 22.1504 216.056 22.1504ZM230.284 17.6855C230.817 17.6855 231.28 17.8027 231.673 18.0371C232.065 18.2656 232.367 18.5967 232.578 19.0303C232.789 19.4639 232.895 19.9707 232.895 20.5508V24.8047H233.615C233.814 24.8047 233.955 24.8516 234.037 24.9453C234.125 25.0332 234.169 25.1855 234.169 25.4023C234.169 25.6191 234.125 25.7744 234.037 25.8682C233.955 25.9561 233.814 26 233.615 26H230.768C230.568 26 230.425 25.9561 230.337 25.8682C230.255 25.7744 230.214 25.6191 230.214 25.4023C230.214 25.1855 230.255 25.0332 230.337 24.9453C230.425 24.8516 230.568 24.8047 230.768 24.8047H231.576V20.6826C231.576 20.1611 231.456 19.748 231.216 19.4434C230.976 19.1387 230.621 18.9863 230.152 18.9863C229.654 18.9863 229.188 19.1299 228.755 19.417C228.327 19.7041 227.984 20.0996 227.727 20.6035C227.469 21.1074 227.34 21.6699 227.34 22.291V24.8047H228.148C228.348 24.8047 228.488 24.8516 228.57 24.9453C228.658 25.0332 228.702 25.1855 228.702 25.4023C228.702 25.6191 228.658 25.7744 228.57 25.8682C228.488 25.9561 228.348 26 228.148 26H225.301C225.102 26 224.958 25.9561 224.87 25.8682C224.788 25.7744 224.747 25.6191 224.747 25.4023C224.747 25.1855 224.788 25.0332 224.87 24.9453C224.958 24.8516 225.102 24.8047 225.301 24.8047H226.021V19.0742H225.125C224.926 19.0742 224.782 19.0303 224.694 18.9424C224.612 18.8486 224.571 18.6934 224.571 18.4766C224.571 18.2598 224.612 18.1074 224.694 18.0195C224.782 17.9258 224.926 17.8789 225.125 17.8789H226.698C226.897 17.8789 227.038 17.9258 227.12 18.0195C227.208 18.1074 227.252 18.2598 227.252 18.4766V19.5312C227.639 18.9336 228.09 18.4766 228.605 18.1602C229.127 17.8438 229.687 17.6855 230.284 17.6855ZM246.287 17.8789C246.487 17.8789 246.627 17.9258 246.709 18.0195C246.797 18.1074 246.841 18.2598 246.841 18.4766C246.841 18.6934 246.797 18.8486 246.709 18.9424C246.627 19.0303 246.487 19.0742 246.287 19.0742H245.742L242.148 26.4395C241.767 27.2188 241.395 27.8311 241.031 28.2764C240.668 28.7217 240.258 29.0469 239.801 29.252C239.35 29.4629 238.799 29.5801 238.149 29.6035C237.944 29.6094 237.785 29.5566 237.674 29.4453C237.563 29.3398 237.507 29.1494 237.507 28.874C237.507 28.4932 237.662 28.2939 237.973 28.2764C238.535 28.2471 238.981 28.1533 239.309 27.9951C239.643 27.8369 239.947 27.5645 240.223 27.1777C240.504 26.7969 240.847 26.1992 241.251 25.3848L238.034 19.0742H237.481C237.281 19.0742 237.138 19.0303 237.05 18.9424C236.968 18.8486 236.927 18.6934 236.927 18.4766C236.927 18.2598 236.968 18.1074 237.05 18.0195C237.138 17.9258 237.281 17.8789 237.481 17.8789H240.592C240.791 17.8789 240.932 17.9258 241.014 18.0195C241.102 18.1074 241.146 18.2598 241.146 18.4766C241.146 18.6934 241.102 18.8486 241.014 18.9424C240.932 19.0303 240.791 19.0742 240.592 19.0742H239.467L241.946 24.0137L244.31 19.0742H243.528C243.328 19.0742 243.185 19.0303 243.097 18.9424C243.015 18.8486 242.974 18.6934 242.974 18.4766C242.974 18.2598 243.015 18.1074 243.097 18.0195C243.185 17.9258 243.328 17.8789 243.528 17.8789H246.287Z" fill="white"/>
<g clip-path="url(#clip0)">
<path d="M24.9755 16.3501C24.917 15.0217 24.7022 14.1085 24.3944 13.3172C24.077 12.4772 23.5886 11.7252 22.9488 11.1C22.3236 10.4651 21.5666 9.97179 20.7364 9.65931C19.9405 9.35159 19.032 9.13678 17.7037 9.07822C16.3654 9.01469 15.9406 9 12.5464 9C9.15215 9 8.72731 9.01469 7.394 9.07326C6.06566 9.13182 5.15243 9.34682 4.3613 9.65435C3.52114 9.97179 2.76912 10.4602 2.14396 11.1C1.50907 11.7252 1.01593 12.4822 0.703253 13.3124C0.395538 14.1085 0.180729 15.0168 0.122162 16.3451C0.0586347 17.6834 0.0439453 18.1082 0.0439453 21.5024C0.0439453 24.8967 0.0586347 25.3215 0.117202 26.6548C0.175769 27.9832 0.390768 28.8964 0.698483 29.6877C1.01593 30.5277 1.50907 31.2797 2.14396 31.9049C2.76912 32.5398 3.5261 33.0331 4.35634 33.3456C5.15243 33.6533 6.0607 33.8681 7.38923 33.9267C8.72235 33.9854 9.14739 33.9999 12.5416 33.9999C15.9358 33.9999 16.3607 33.9854 17.694 33.9267C19.0223 33.8681 19.9355 33.6533 20.7267 33.3456C22.4068 32.696 23.7351 31.3676 24.3847 29.6877C24.6922 28.8916 24.9072 27.9832 24.9658 26.6548C25.0244 25.3215 25.0391 24.8967 25.0391 21.5024C25.0391 18.1082 25.0341 17.6834 24.9755 16.3501ZM22.7242 26.5571C22.6704 27.7781 22.4654 28.4374 22.2944 28.8769C21.8743 29.966 21.01 30.8304 19.9208 31.2505C19.4813 31.4214 18.8172 31.6265 17.6011 31.6801C16.2824 31.7389 15.887 31.7534 12.5513 31.7534C9.21568 31.7534 8.81525 31.7389 7.50141 31.6801C6.28047 31.6265 5.62116 31.4214 5.18162 31.2505C4.63964 31.0502 4.1463 30.7328 3.74587 30.3176C3.33075 29.9122 3.01331 29.4239 2.813 28.8819C2.64207 28.4424 2.43699 27.7781 2.38338 26.5621C2.32462 25.2435 2.31012 24.8478 2.31012 21.5122C2.31012 18.1765 2.32462 17.7761 2.38338 16.4624C2.43699 15.2415 2.64207 14.5822 2.813 14.1426C3.01331 13.6005 3.33075 13.1073 3.75083 12.7067C4.15603 12.2916 4.64441 11.9741 5.18658 11.774C5.62612 11.6031 6.29039 11.398 7.50637 11.3442C8.82498 11.2856 9.22064 11.271 12.5561 11.271C15.8967 11.271 16.2922 11.2856 17.606 11.3442C18.827 11.398 19.4863 11.6031 19.9258 11.774C20.4678 11.9741 20.9611 12.2916 21.3616 12.7067C21.7767 13.1121 22.0941 13.6005 22.2944 14.1426C22.4654 14.5822 22.6704 15.2463 22.7242 16.4624C22.7828 17.781 22.7975 18.1765 22.7975 21.5122C22.7975 24.8478 22.7828 25.2385 22.7242 26.5571Z" fill="white"/>
<path d="M12.5464 15.0801C9.00092 15.0801 6.12427 17.9565 6.12427 21.5022C6.12427 25.0479 9.00092 27.9244 12.5464 27.9244C16.0921 27.9244 18.9686 25.0479 18.9686 21.5022C18.9686 17.9565 16.0921 15.0801 12.5464 15.0801ZM12.5464 25.6681C10.2463 25.6681 8.38053 23.8026 8.38053 21.5022C8.38053 19.2019 10.2463 17.3363 12.5464 17.3363C14.8467 17.3363 16.7123 19.2019 16.7123 21.5022C16.7123 23.8026 14.8467 25.6681 12.5464 25.6681Z" fill="white"/>
<path d="M20.7219 14.8274C20.7219 15.6554 20.0506 16.3267 19.2224 16.3267C18.3945 16.3267 17.7231 15.6554 17.7231 14.8274C17.7231 13.9993 18.3945 13.3281 19.2224 13.3281C20.0506 13.3281 20.7219 13.9993 20.7219 14.8274Z" fill="white"/>
</g>
<defs>
<clipPath id="clip0">
<rect width="25" height="25" fill="white" transform="translate(0 9)"/>
</clipPath>
</defs>
</svg>
