<svg width="416" height="63" viewBox="0 0 416 63" fill="none" xmlns="http://www.w3.org/2000/svg">
<path fill-rule="evenodd" clip-rule="evenodd" d="M240 0L243 5.5L245.5 9.5L249.5 15L259 24.5L272 35L286 43L302 50L314.5 54L333 59L344.5 61L356.811 62.8238L356 62L355.5 61L354.5 58V55.5V55L355 52.5L355.5 50.5L356 49.5L357 48L357.342 47.6585C357.365 47.601 357.389 47.5437 357.413 47.4866L344.5 45.5L331.5 43L318 39.5L305 35L293 29.5L284.5 24.5L276.5 19.5L270 14L263 7L257.398 0H240Z" fill="#F7F7F2"/>
</svg>
