<svg width="417" height="461" viewBox="0 0 417 461" fill="none" xmlns="http://www.w3.org/2000/svg">
<path fill-rule="evenodd" clip-rule="evenodd" d="M267.755 500L267.189 499.151L266.623 498.301V497.452V496.603V495.753V494.904V494.338V493.488V490.657H267.189V488.958H267.755V486.976L268.322 486.41V485.278L268.888 484.428V479.615V478.766L268.322 478.199V473.386L268.888 472.82V471.121L268.322 470.272H266.057L264.924 468.573L263.225 468.007L261.81 467.157L257.563 461.212L254.165 456.682L251.051 452.152L248.503 447.622L245.388 442.526L244.071 439.978H228.314L228.967 441.676L230.949 445.64L232.931 448.755L234.063 451.303L236.045 454.134L237.744 457.248L240.009 460.929L241.425 462.911L244.256 466.591L253.033 477.633L255.864 481.031L258.412 483.862L260.111 485.844L261.243 487.26L261.527 489.525L263.225 490.657L263.508 495.187L264.358 496.603L265.773 498.301L267.755 500ZM241.587 435.177L241.916 435.813L241.708 435.448L241.587 435.177ZM238.876 428.651L240.575 432.9L239.443 430.352L238.876 428.651ZM234.441 414.591L235.267 417.541L234.913 416.479L234.441 414.591ZM233.78 412.231L234.335 414.214H220.285L219.341 409.966L218.208 405.153L217.642 397.226L215.943 394.111L214.245 392.412L211.13 394.961L209.148 396.093L206.317 397.226H202.92L200.371 396.659L198.106 396.093L195.841 394.961L193.01 392.696L191.311 390.147L190.462 386.467H188.763H186.498L183.667 385.901L181.119 384.768L178.854 383.636L177.438 381.937L176.023 380.238L175.456 377.69V373.726L176.306 370.329L177.438 368.064L179.137 366.082H177.721H174.324L171.493 364.383L168.661 362.684L166.679 361.269L164.414 357.871L162.999 356.172L160.734 352.492L159.601 353.341L157.336 355.889L155.071 359.287L153.089 361.269L152.24 362.967L153.089 365.232L151.674 364.666L149.975 363.817L148.559 364.666L146.011 366.082L144.313 366.365L141.481 367.214L138.933 367.781L136.385 369.762L134.969 372.877L134.12 375.425L133.271 377.973L131.855 380.521L129.024 383.636L127.042 386.184V391.28L126.476 390.714L125.06 389.298L123.644 387.599L122.795 385.617L121.946 382.786V379.389L121.096 376.274L119.114 373.16L118.265 369.479V366.365L118.548 363.25L119.681 360.136L121.096 357.871L122.795 355.889L125.626 353.341L130.156 350.51L132.704 347.962L133.837 345.697L135.253 342.865L134.686 339.468V334.655L136.102 330.974L136.385 325.595L135.253 321.914L133.837 317.384L134.403 311.155L135.253 308.607L136.385 304.927L138.933 300.397L141.764 297.282L146.011 293.602L148.276 290.77L149.409 287.373L150.541 284.542L151.391 281.993L152.24 280.295L153.656 277.18L156.487 274.066L159.601 271.518L163.282 269.819L166.963 268.686H173.474L175.739 269.253L179.703 270.951L182.818 272.084L186.498 274.066L189.896 275.481L192.727 276.614L195.841 277.18H201.221L202.92 276.614L207.733 275.481L212.829 274.066L217.359 271.801L221.889 269.819L225.853 268.686L230.1 267.554H240.858L243.406 267.837L247.37 268.403L249.635 266.138L252.75 265.006L257.28 264.723L257.846 263.024L258.412 261.325L258.978 258.494L257.28 259.06H250.201L247.936 258.494L245.388 257.361L243.406 256.229L241.708 254.247L240.575 251.699L239.726 251.133L238.027 249.717L237.178 248.585L235.479 246.886L234.913 243.771V239.524L235.479 236.976L236.611 234.428L234.913 232.446L232.365 227.916L231.232 225.651L229.816 223.953L227.551 222.254L224.72 221.404L221.323 220.555H210.564L209.998 222.537L209.148 225.651L206.034 230.464L202.92 233.579L197.54 235.561L192.727 234.994L188.763 233.579L187.064 233.296L185.083 232.446H181.685L179.137 232.729L176.872 233.579L174.324 234.994L170.643 235.561L168.661 234.994L166.396 234.428L163.282 233.579L161.583 232.729L157.903 232.446L153.656 233.296L155.921 231.031L157.619 229.615L160.168 227.067L162.433 224.802L165.264 221.688L166.963 219.989L170.36 217.441L172.908 216.308L175.456 215.176L178.004 213.194L180.553 210.646L181.685 207.814L182.818 204.417L183.384 202.718L182.818 201.586L180.553 201.869L178.571 202.718L173.758 205.266L170.926 208.664L168.944 212.061L167.812 214.043L165.547 218.007L163.565 219.989L158.469 223.953L153.373 227.067L151.108 229.615L149.126 232.729L147.993 235.561L147.427 241.223L146.294 237.543L146.011 234.428L144.879 228.483L144.313 224.519L144.879 221.688L146.011 219.139L147.993 217.158L148.559 214.043L147.993 211.778V206.116L148.843 203.568L149.692 201.303L152.523 198.471L155.071 196.206L157.903 193.941L163.565 192.809L172.059 192.242L179.137 191.676L183.667 191.11L188.48 189.977L191.311 189.128L193.86 187.429L198.106 184.032L201.221 182.05L203.203 181.201L205.185 179.219L206.883 177.237L209.431 175.255L212.546 173.839L215.943 172.424H224.437L227.268 172.99L229.25 173.839L232.648 175.255L235.196 176.671L238.593 178.086L242.557 179.502H247.087L251.334 178.369L258.695 173.839L258.412 172.99L257.417 170.725L256.43 171.857L255.581 172.99L253.316 174.972L251.9 175.255L248.503 174.689L249.635 174.406L251.617 172.141L251.9 170.725L252.466 168.743L253.599 167.327L254.731 167.044L256.713 166.195L255.015 165.062L253.316 165.912L249.635 168.46L249.918 167.327L251.617 165.062L253.316 164.213L254.731 163.364L254.448 162.231L250.768 161.948L252.75 160.532L254.731 160.815H257.28L256.147 159.683L255.298 157.701L255.864 154.02V155.153L256.147 156.569L256.713 158.267L258.129 159.117L258.412 157.984L258.129 154.304L258.412 152.322L259.545 150.34L260.96 148.358L264.075 146.376V146.942L263.508 150.34L263.225 151.472L262.376 153.454L261.243 155.719L260.677 158.677V160.532L262.093 162.231L262.659 160.815L263.508 159.117L265.207 157.418L268.038 157.135L269.454 156.002L268.322 154.304L265.49 154.02L267.472 152.888L267.755 150.906L266.906 149.207L266.057 146.942L265.207 144.96L262.376 142.412L260.111 140.147H258.978L258.129 142.695L256.996 140.997L255.581 142.979L253.882 144.394L252.183 145.244L250.485 145.81L246.804 146.659L247.37 145.527L248.22 144.394L249.069 143.262L249.635 141.563L250.201 140.147L250.768 139.015L252.466 137.033L253.882 135.617H252.75L250.201 136.184V135.9L251.334 134.485L253.599 133.352L253.882 132.22H252.183L250.768 132.786L249.352 133.919L247.936 135.617L246.238 138.165V141.28L245.671 143.545L244.256 145.81L243.406 146.942L243.123 149.774L243.69 151.472H247.37L250.201 150.34L249.069 152.039L246.804 154.87H244.539L241.991 152.888L240.009 150.906L239.443 152.605L240.009 156.002L238.027 154.02L237.875 150.34L236.611 152.039L235.479 155.436L234.913 153.171L235.196 150.34L232.081 151.189L234.346 149.207L234.063 148.075L232.081 147.792H229.533L233.497 146.659L233.214 145.244L232.365 144.394L230.666 143.545L229.25 142.695L227.268 140.43L229.816 141.28L232.081 142.129L231.798 140.997L231.232 140.147L230.383 138.165L225.003 135.051H221.889L218.775 135.617L213.678 135.9L211.13 135.051L209.431 134.485L208.865 135.334L207.45 136.75L206.034 139.298L204.901 141.846L203.486 145.527L202.07 148.358L198.956 152.322L195.558 155.719L191.028 158.267L187.348 159.683L182.534 161.382L179.42 162.797L176.872 163.93L175.173 166.761L173.758 169.592L172.342 171.574L170.643 174.122L168.944 175.538L166.963 177.52L164.131 181.484L162.716 183.466L161.866 186.297L161.3 188.562V192.526L160.451 191.676L159.318 191.11L157.903 190.261L156.204 187.996L154.505 183.466L154.222 177.237L155.638 172.99V168.46L154.505 165.629V162.231L155.071 159.4L156.204 157.418L157.336 154.87L159.601 152.605L161.583 150.906L163.565 148.924L164.981 147.509L165.83 144.677L166.679 141.846V140.43L167.529 137.033L168.378 135.051L168.944 133.352L170.077 131.654L171.209 130.238L173.191 127.69L175.456 125.991L177.155 124.859L178.571 124.292L180.836 123.726L185.932 123.16H198.673L203.769 123.443L208.016 124.292L212.263 124.859L216.226 125.425L221.606 125.991L224.154 125.142V122.594L224.72 120.612L225.853 119.479L226.419 118.347H224.72L223.305 118.63L221.04 120.045L221.606 118.347L222.738 116.365L223.871 115.515L225.286 114.666L226.985 114.1V113.25L226.419 112.118V110.985L226.136 109.287V107.588L226.985 105.323L228.684 103.907V105.606V107.022L229.25 107.871L230.1 106.455L230.666 105.323L231.232 103.907L233.497 102.775V101.925L232.081 101.076L225.853 96.829L223.871 95.6965H221.04L218.775 96.2628H215.094H209.148L206.883 97.1122L205.185 97.9616L203.203 99.3772L200.371 102.208L198.39 104.19L196.125 105.606L194.143 107.022L190.745 107.871L187.631 108.437H182.818L180.269 107.871L178.004 107.305L175.456 107.022H173.191H169.511H166.963L164.414 107.871L162.999 109.003L161.3 110.136L160.168 110.985L158.186 112.684L156.487 114.1L155.638 115.798L154.788 117.497L153.939 119.479L153.373 120.612L152.24 122.027L151.108 123.16L149.126 125.142L147.993 125.991L146.294 126.84H144.313H142.331L140.632 127.407L139.216 128.256L137.518 129.389L135.536 131.654L133.271 133.635L131.006 135.051L128.174 136.75L125.909 138.165L123.644 139.298L120.813 140.997L118.831 142.695L117.699 145.527L117.133 144.677L116.566 143.545L116 142.129V139.298V137.316V133.919L116.566 131.654L117.133 128.822L117.699 126.274V120.328V116.931L118.265 115.798L118.831 113.533L119.681 111.835L120.813 109.57L121.663 107.871L122.795 106.172L124.211 104.19L126.193 102.208L128.174 100.793L130.156 99.6603L132.704 97.9616L134.686 97.1122L136.951 95.9797L138.933 94.2809L140.066 92.5822L140.915 91.1665L142.048 89.4678L143.463 87.769L145.162 85.7871L146.861 84.3715L148.559 83.8053L151.108 82.9559H159.601L164.414 82.1065L166.396 80.974L168.661 79.8415L173.191 78.9921H179.986L182.818 79.8415L184.799 81.2571L187.064 82.1065L188.763 83.239L191.878 85.504L194.426 87.4859L198.39 90.3172L201.504 92.0159L207.45 92.5822L211.413 92.0159H216.793V91.4497L216.226 90.8834L214.528 89.7509L211.98 87.4859L209.148 85.504H209.998L211.696 85.7871L212.829 86.0703L214.528 86.6365L216.226 87.2028V86.6365L215.66 85.2209L215.094 84.0884L212.829 80.6909L211.13 78.709L210.564 77.5765L209.431 76.1609L208.299 74.179L207.733 73.0465L204.901 70.2152L203.769 69.0827L202.636 68.2333L201.221 67.384L200.371 66.8177L197.54 64.8358L195.558 63.1371L193.01 59.4564L191.028 55.2095L189.896 50.3964V47.8483L190.462 42.1858V39.9207L189.613 35.3907L189.896 30.2945L190.745 27.7463L192.161 25.1982L195.275 22.0838L198.673 19.8188L201.504 17.5538L203.486 15.855L204.618 13.59L207.166 9.90941L208.865 8.21065L211.696 6.79502H214.104L216.51 6.5119L219.341 6.79502L222.455 7.36127L229.25 8.7769L232.365 9.06003L234.063 7.36127L236.611 3.96376L238.31 2.26501L240.292 0.566252L242.557 0.283126L244.539 0L246.804 0.566252L248.503 1.1325L251.051 2.83126L252.466 4.24689L253.316 5.37939L254.165 7.6444L254.731 9.34315L255.864 11.0419L256.713 12.7407L257.563 14.4394L257.846 16.1382L257.563 18.1201L256.43 19.8188L255.581 21.8007L255.298 20.1019V18.6863L254.731 17.2707L252.75 15.855L246.521 15.5719L241.425 15.2888L239.443 15.0057L237.461 14.1563L236.045 13.3069L234.63 12.1744L233.214 11.0419L232.081 12.1744L231.232 15.0057L229.533 18.6863L225.853 22.3669L220.756 27.1801V31.427L221.606 34.5414L222.738 36.5232L223.305 37.9389L224.72 41.3364L225.003 43.3183V47.282L224.154 49.547L222.455 53.2277L220.473 55.2095L217.925 58.6071L215.377 62.0046L213.395 64.2696L211.696 67.384V73.0465L213.112 75.8777L216.226 78.709L217.076 80.6909L218.208 82.9559L220.756 85.2209L223.021 86.6365L226.419 90.3172L229.25 92.0159L231.232 93.4315L233.497 94.564L236.611 96.829L239.443 98.8109L243.123 101.076L241.991 99.6603L240.858 98.2447L240.009 96.829L238.593 95.4134L236.045 92.5822L234.63 91.4497H236.045L238.027 91.7328L239.726 92.0159L240.292 93.1484L242.274 94.8472L244.539 96.2628V95.4134V93.1484V92.0159V90.8834L247.936 86.3534V87.2028L248.503 89.4678L248.786 90.8834V93.1484V94.8472L249.352 97.1122L250.201 96.5459L251.617 95.4134L253.316 94.8472L255.015 94.2809L255.581 93.1484V90.8834L255.864 88.3353L256.147 87.2028L256.713 85.7871L257.846 84.0884L259.262 82.6728L260.394 81.5403L264.641 79.2752L268.888 77.8596L278.797 77.2934L292.67 76.7271L295.502 76.444L299.465 75.8777L303.146 75.0284L306.543 74.4621L308.242 73.3296L310.79 71.6308L313.338 69.649L315.32 67.9502L317.585 66.2515L319.85 65.1189L321.832 63.9865L323.814 62.8539L327.212 62.5708L329.477 62.8539L331.458 63.4202L333.44 64.2696L335.422 65.1189L335.989 67.1008L336.555 69.0827L337.97 70.4983L339.952 73.0465L342.5 74.4621L345.332 77.2934L346.747 78.709L347.597 81.5403L347.88 82.3896L347.597 85.7871L347.314 92.0159L347.597 93.9978L348.446 95.9797L349.295 97.6784L349.862 100.227V110.702L350.145 112.118L350.428 113.817L351.56 115.798L350.994 115.232L349.012 114.666L347.314 113.817L345.049 112.684L343.35 111.268L340.802 109.287L339.386 107.588L338.254 106.738L337.121 105.323L336.272 103.907L335.422 101.925L334.29 99.3772L332.591 98.2447L331.458 97.6784H329.477L327.495 98.2447H326.362L324.38 99.3772H321.549H319.567L317.019 98.5278L315.603 97.6784L314.188 96.829L312.489 95.1303L311.923 93.9978L310.507 92.5822L308.525 89.4678L307.393 88.3353L306.26 86.9196L303.712 86.0703L301.447 86.6365L300.032 86.9196L297.767 88.0521L295.785 88.6184L294.086 89.1847L293.803 90.3172L293.237 91.7328L292.104 93.9978L290.688 95.9797L288.99 97.1122L287.291 98.5278L285.026 99.9434L283.044 101.076L280.779 102.492L278.797 103.341L276.249 105.889L274.55 107.305L273.418 108.437L272.285 110.136L271.153 111.835L270.303 112.684L268.888 116.082L270.303 114.383L272.002 113.25L273.701 112.118L276.249 110.419L276.532 111.136L275.117 114.383L274.55 115.798L273.701 117.214L272.852 118.346L271.153 120.895L275.117 120.611L277.948 121.461L279.647 121.744L282.478 122.593L281.628 123.16L280.213 124.009L278.231 124.858L276.532 125.425L273.135 126.274L270.587 127.69L272.002 127.973L274.267 128.539L276.532 129.671L275.966 130.238L274.833 131.087L276.249 133.352L277.382 134.485L277.948 136.183L278.514 137.882L278.231 137.599H276.532L273.984 136.466L271.719 135.334L270.303 134.201V135.617L271.436 137.599L272.002 139.015L272.285 141.28L272.568 143.261L272.852 145.243L273.984 146.659L275.4 146.942L277.382 146.659L277.098 144.111L278.514 144.96L279.647 146.376L281.062 147.508H282.478L283.327 146.376L283.61 141.846L284.743 144.394L285.026 146.942L285.875 148.924L287.008 149.49L289.273 149.773L290.688 148.641L290.972 146.942V144.96L291.255 141.563L291.538 138.165L292.387 135.617L293.237 133.918L294.086 131.936L295.218 130.521L297.483 129.388L299.465 128.822L302.297 129.388L304.278 130.521L306.26 132.22L307.959 133.352L310.224 135.334L312.489 137.316L315.603 139.015H318.152L320.983 138.165L325.513 136.75L328.061 135.9L332.308 134.768L335.705 133.918L338.82 132.786L341.651 132.22L343.916 131.087H346.747H349.862H352.127L353.825 131.653L355.807 132.786L358.639 134.768L360.337 135.9L362.602 136.466L364.867 137.882L366 139.864L366.849 141.846L367.132 144.111V144.96V146.376V149.49L368.831 151.189L370.53 152.038L374.777 154.587L375.909 156.852L376.475 158.833V161.098L375.909 163.93L375.626 167.327V169.875V172.707V174.122L375.06 177.237V180.351L374.777 183.748L374.21 182.05L372.795 180.351L371.662 179.218L370.247 177.237L368.831 175.538L367.699 173.273L367.132 171.291L366 168.743L365.15 167.61L363.735 165.628L362.602 164.496L360.054 163.08L357.789 162.231L357.223 161.948L355.807 161.665L354.392 161.382L352.976 161.098L351.56 160.815L349.579 159.966L347.314 158.833L345.898 158.267L344.199 157.135L341.651 155.719L338.537 152.888L337.121 149.773L334.856 148.075L334.007 146.942L332.308 146.376L332.025 146.093L330.326 146.942L328.061 148.075L326.362 148.641L324.097 149.773L322.115 151.189L321.549 151.755L320.983 152.888L320.133 154.02L319.85 155.719L319.001 157.984L318.435 159.966L317.019 162.231L316.453 163.363L315.037 164.496L312.489 166.478L310.79 167.327L309.092 168.177L308.242 169.309L307.11 170.725L305.128 172.423L303.712 173.273L302.297 174.122L299.748 174.972L300.095 175.538L300.881 177.803L301.164 179.502L301.258 181.2L301.164 182.333L300.598 183.748L300.032 184.598L299.182 185.73L298.899 187.712L298.05 189.411L296.351 190.543L294.369 190.26L292.953 189.411H293.52L294.935 188.562L296.068 187.429L297.767 186.013L298.616 184.881L298.899 182.616L298.616 181.2L298.333 180.068L297.2 178.935L296.917 178.369L296.634 178.935V180.634L296.068 182.333L295.218 184.315L293.803 186.297L292.67 187.712L290.972 189.128L289.273 189.977H287.291L285.875 189.694L287.008 188.562L288.423 187.146L289.556 185.447L290.122 184.032L290.972 182.333L292.104 180.634L293.803 179.218L294.369 178.652V177.52L294.086 176.387L293.52 175.821L291.821 175.538L288.99 175.255L287.291 175.538L285.592 176.387L284.46 177.52L284.177 179.218V184.315V190.543V194.224V197.905V202.435V204.983V208.097L283.327 209.23L282.478 211.212V214.326L283.327 213.477L284.46 212.344L286.442 211.495H289.273L293.803 211.212L296.351 210.079L299.182 207.531L300.032 206.682L303.712 204.983H306.543L309.375 205.832L311.64 207.531L315.887 210.079L320.983 212.344L324.663 214.609L328.061 216.025L332.591 216.874L336.272 216.025L340.802 215.459L345.049 214.609L351.277 213.194L357.223 210.362L360.904 208.947L363.452 207.531L365.434 207.248H367.699L369.964 207.814L371.662 208.947L373.644 210.079L375.626 211.778L377.325 213.477L379.307 216.025L380.439 218.29L382.421 220.838L386.668 223.386L389.782 225.085L392.897 226.217L394.595 227.633L398.842 230.181L401.391 232.446L403.939 236.127L405.921 240.94V243.205L406.204 248.301L407.619 251.416L409.601 255.096L411.3 257.078L412.999 259.626L414.131 261.608L415.264 263.59L416.113 267.271V274.632L415.264 278.596L413.848 281.993L412.716 286.24V281.427L412.432 279.162L411.3 276.331L409.601 274.349L408.186 273.216L405.354 272.084L403.089 271.234L398.559 270.385L396.294 270.102L392.897 269.819L388.933 268.686L385.819 266.704L383.27 265.289L382.421 263.59L377.325 254.53L372.512 250.566L368.831 249.434H363.169H362.885H360.62L355.241 249.717L350.994 249.151L346.181 246.602L344.199 245.47L340.802 241.506L338.82 238.109L336.838 236.127L335.139 234.711L332.591 233.579L328.344 232.729L325.796 232.163H323.248L320.983 230.747L317.302 228.199L316.453 226.5L315.32 225.651H314.471L312.772 227.35L310.507 229.049L308.808 230.747L306.827 232.163L304.278 233.579L300.881 234.711L301.447 235.56L302.58 236.693L302.863 237.826V239.807V241.789L302.58 244.054L301.164 247.735L299.465 250L297.767 251.416L296.634 252.548V255.379L295.785 259.909L298.333 261.325L300.598 263.024L302.863 265.289L304.562 267.554L305.694 268.969L308.525 271.517H325.513H328.061L330.892 271.801L332.874 272.367L334.007 273.216L335.989 274.349L337.97 275.198L340.235 277.463L341.934 280.011L342.784 281.427L343.633 283.975V287.656V289.354L343.067 292.186L341.934 294.168L341.368 295.3V298.131L341.934 299.83L343.067 302.095L343.633 302.661L343.916 305.21V307.758V309.456L341.934 312.571L341.085 314.553L339.952 317.384L339.386 318.8L336.838 321.631L337.404 320.498V318.8L335.989 316.535L335.139 314.553L334.007 312.571V309.456V307.191L333.44 304.36L332.874 302.661L331.458 301.246L328.91 299.83L326.928 298.698L324.663 297.848L322.682 295.583L320.417 293.318L319.001 291.336L317.302 289.638L316.736 288.222L315.887 286.523L314.754 283.975L314.188 284.541L313.055 285.391L311.073 287.089L309.658 287.656L307.11 288.222L304.562 287.656L302.863 287.089H300.598H298.899L297.2 287.373L295.502 288.222L293.803 289.354L291.538 291.053L289.839 293.318L288.707 294.734L287.574 296.433L286.158 297.848L285.026 298.698L282.761 300.113L281.062 300.396L279.647 300.963V301.812V303.511V304.926L279.08 306.908L277.665 308.89L276.249 310.589L273.418 312.854L272.002 313.42L269.171 314.553H266.623H264.075L261.243 313.986L259.262 313.42V314.553V315.402L258.978 316.251L258.129 317.384L257.563 318.516L255.864 319.649L254.165 320.498L252.183 321.348H249.918L247.653 321.065L245.955 320.215L244.539 319.649L243.406 318.516L242.557 319.649L241.708 321.631L240.292 324.745L243.406 325.311L246.238 326.727L247.653 327.576L249.918 331.257L251.051 334.088L251.334 336.636V339.468L252.75 339.751L254.731 340.034L256.43 341.166L257.563 341.733L258.978 343.431L260.394 345.98L260.96 348.528L261.243 349.943L260.96 352.208L261.243 354.19L262.093 355.323L263.792 356.172L264.924 357.022L268.038 358.437L271.153 359.853L274.833 360.985L278.797 361.835L282.478 362.118L288.423 361.835H290.405L292.387 362.118L294.086 362.684L296.634 363.533H299.465L302.297 363.25L305.977 362.684L308.525 362.118L310.224 361.268L313.338 360.419L315.887 359.853H317.868H319.85L321.832 360.419L323.814 360.985L325.796 362.118L327.495 363.533L328.91 364.666L331.175 366.648L334.007 368.347L336.838 369.479L339.669 370.045L342.217 370.612L345.615 372.027L348.729 373.443L350.428 374.858L352.127 376.274L354.109 378.539L355.807 381.37L357.223 384.202L357.506 386.75V389.581L357.223 392.129L356.374 394.394L355.807 395.527L354.958 397.225V399.207V402.039L355.241 403.737L355.807 405.436L356.94 407.701L357.506 409.683V411.382V413.08V414.496L357.223 415.062L356.94 416.761V418.46L356.657 420.159L355.241 422.707L354.109 424.972L353.542 426.104L352.693 427.52L350.994 429.502L349.862 430.917L349.012 432.05L348.163 433.749L347.597 435.447L346.464 437.995L344.199 440.827L343.067 441.959L341.368 444.79L341.934 443.092L342.5 441.676L343.067 440.827L343.633 438.845V437.146L343.067 434.881L342.217 432.899L340.519 431.2L339.103 430.068L336.272 427.803L334.856 426.104L334.007 423.839L333.157 420.725L331.742 418.177L330.043 416.195L328.344 415.062L326.645 414.496L324.38 414.213H321.549L319.284 413.364L317.585 411.948L316.17 410.815L315.32 409.4L314.754 408.267L314.188 406.002V400.906V398.924L313.622 396.659L311.923 394.96L309.941 394.111L308.242 393.262H305.977H303.995H300.881L297.767 392.979L293.803 392.695L290.405 391.563L288.14 390.43L285.309 388.732L282.761 387.033L280.496 384.768L278.797 382.503L277.098 380.238L275.966 378.256L275.117 376.557L273.984 373.443L272.568 370.612L271.719 368.913L270.87 369.762L268.322 372.31L266.623 374.009L264.924 375.142L262.376 376.274L260.394 376.84L257.28 377.123H255.864H254.165H251.9V377.973L251.617 379.105L251.051 379.672L250.485 380.521L249.352 381.37L250.768 382.22L251.617 383.069L252.75 384.202L254.165 385.9L255.298 387.599L255.864 388.732L256.43 389.864L256.996 391.28L257.28 392.695L257.563 394.111V395.244V396.376L257.28 397.509L256.996 398.641L256.43 399.774L255.864 400.906L255.298 402.039L254.448 402.888L253.316 404.02L251.617 405.153L250.201 406.002L248.503 406.285H246.521L242.557 405.719L240.575 405.153L239.443 404.587L237.461 403.171L235.762 401.755L233.78 399.49L233.214 398.075L232.365 396.376V397.792V400.34V403.737L232.931 407.984L233.78 412.231ZM221.323 419.309L221.04 417.894L221.323 418.744L221.497 419.964L221.323 419.309ZM224.72 430.351L223.984 427.407L224.154 427.804L224.72 430.351ZM225.852 329.559L226.702 327.294L227.268 325.029L228.117 322.764L228.967 320.499L229.533 318.234L230.099 316.535V314.553V312.288H228.117H224.72L222.455 311.439L220.473 310.307L218.491 309.174L216.792 307.192L215.943 306.06L215.094 303.512L215.377 299.548L216.792 297.283L218.491 295.018L220.473 293.319L221.606 292.47H222.455L223.021 291.903L220.473 290.488L218.491 289.355L216.226 288.789L215.094 287.373L213.112 285.958L211.413 283.976L209.997 282.56L208.582 283.976L207.732 286.524L205.751 289.355L203.486 291.903L201.504 294.168L198.672 295.584L195.841 296.716L192.161 297.849L189.046 298.415L185.082 299.548L182.534 300.114L179.137 302.096L176.589 303.795L174.607 306.626L174.04 308.608L173.757 312.572V315.403L174.04 316.818L174.607 319.367L174.04 323.047L173.757 326.728L172.908 329.559L171.209 332.107L168.378 333.806L164.98 336.071L162.715 338.336L161.866 341.167L160.167 343.999L158.752 345.131L157.902 345.98L159.035 346.83L160.167 347.962H164.98L167.812 346.547L169.227 345.414L171.209 344.565L173.191 343.715L175.173 342.583L176.872 341.734L178.854 340.601L181.968 339.469L185.649 338.902L187.914 338.336H190.745L193.859 338.902L196.124 340.318L197.257 341.167L198.956 337.487L200.654 335.788L203.202 334.372L206.883 332.957H210.281H212.262L214.244 333.806V332.39L215.377 330.692L217.076 329.842L218.774 328.993L223.871 328.71L225.852 329.559ZM271.153 270.385L270.586 272.084L272.568 270.668L273.418 269.252L274.55 267.554L275.4 266.421L276.532 265.005L277.098 264.156L276.815 263.024L276.249 261.891L275.683 261.042L275.4 261.325L274.55 262.74L273.984 263.59L273.418 265.005L272.851 266.421L272.285 267.27L271.719 268.686L271.153 270.385ZM256.43 196.772L257.28 194.79L258.412 193.091L259.262 190.826L259.828 189.128L260.394 187.429L260.96 185.73V183.748L261.527 182.899L262.376 183.748L263.508 184.314L265.49 184.881H267.189L268.888 184.314H270.303H271.719L272.285 184.881L273.135 186.579L273.418 187.995L274.267 189.128V190.826L274.833 192.525L275.4 193.658L275.966 194.79L276.249 197.621V200.169V203.284L275.966 206.398V209.229L275.4 211.494L274.267 212.061H273.135L270.587 212.91L268.888 213.759L267.189 214.892L266.057 216.308L264.641 217.157V215.458V211.494L264.358 210.079L263.508 206.964L262.376 204.699L261.527 203.284L260.394 201.019L259.262 200.169L258.129 198.754L256.43 197.621H255.864L256.43 196.772Z" fill="#F7F7F2"/>
<path d="M7.24219 420.914C8.71094 420.914 9.8125 421.242 10.5469 421.898C11.2812 422.555 11.6484 423.527 11.6484 424.816V429.48C11.6484 430.098 11.9062 430.406 12.4219 430.406H12.832C13.0977 430.406 13.2852 430.469 13.3945 430.594C13.5117 430.711 13.5703 430.914 13.5703 431.203C13.5703 431.492 13.5117 431.699 13.3945 431.824C13.2852 431.941 13.0977 432 12.832 432H12.082C11.5742 432 11.1367 431.875 10.7695 431.625C10.4102 431.367 10.1758 430.992 10.0664 430.5C9.42578 431.062 8.73047 431.496 7.98047 431.801C7.23828 432.105 6.44922 432.258 5.61328 432.258C4.82422 432.258 4.125 432.125 3.51562 431.859C2.91406 431.586 2.44141 431.191 2.09766 430.676C1.75391 430.16 1.58203 429.547 1.58203 428.836C1.58203 427.602 2.02344 426.691 2.90625 426.105C3.78906 425.512 4.92969 425.215 6.32812 425.215C7.57031 425.215 8.75781 425.414 9.89062 425.812V424.816C9.89062 424.059 9.67578 423.504 9.24609 423.152C8.82422 422.793 8.14062 422.613 7.19531 422.613C6.60938 422.613 6 422.695 5.36719 422.859C4.73438 423.023 4.13281 423.25 3.5625 423.539C3.42969 423.609 3.30859 423.645 3.19922 423.645C2.94141 423.645 2.72656 423.457 2.55469 423.082C2.46875 422.895 2.42578 422.738 2.42578 422.613C2.42578 422.34 2.57031 422.129 2.85938 421.98C3.51562 421.637 4.21875 421.375 4.96875 421.195C5.72656 421.008 6.48438 420.914 7.24219 420.914ZM6.33984 426.867C5.44141 426.867 4.73047 427.023 4.20703 427.336C3.69141 427.641 3.43359 428.129 3.43359 428.801C3.43359 429.371 3.62891 429.816 4.01953 430.137C4.41797 430.449 4.97266 430.605 5.68359 430.605C7.23828 430.605 8.64062 429.961 9.89062 428.672V427.395C9.35938 427.223 8.78906 427.094 8.17969 427.008C7.57031 426.914 6.95703 426.867 6.33984 426.867ZM31.2398 434.953C31.3336 434.953 31.4 435.004 31.4391 435.105C31.4859 435.207 31.5094 435.422 31.5094 435.75C31.5094 436.078 31.4859 436.293 31.4391 436.395C31.4 436.496 31.3336 436.547 31.2398 436.547H16.732C16.6383 436.547 16.5719 436.496 16.5328 436.395C16.4859 436.293 16.4625 436.078 16.4625 435.75C16.4625 435.422 16.4859 435.207 16.5328 435.105C16.5719 435.004 16.6383 434.953 16.732 434.953H31.2398ZM36.968 416.625C37.2336 416.625 37.4211 416.688 37.5305 416.812C37.6477 416.93 37.7062 417.133 37.7062 417.422V422.848C38.7141 421.559 39.9523 420.914 41.4211 420.914C42.3898 420.914 43.257 421.145 44.0227 421.605C44.7883 422.059 45.3898 422.715 45.8273 423.574C46.2648 424.426 46.4836 425.43 46.4836 426.586C46.4836 427.742 46.2648 428.75 45.8273 429.609C45.3898 430.461 44.7883 431.117 44.0227 431.578C43.257 432.031 42.3898 432.258 41.4211 432.258C40.6555 432.258 39.9484 432.086 39.3 431.742C38.6516 431.398 38.0812 430.906 37.5891 430.266V431.203C37.5891 431.492 37.5305 431.699 37.4133 431.824C37.3039 431.941 37.1164 432 36.8508 432H34.9875C34.7219 432 34.5305 431.941 34.4133 431.824C34.3039 431.699 34.2492 431.492 34.2492 431.203C34.2492 430.914 34.3039 430.711 34.4133 430.594C34.5305 430.469 34.7219 430.406 34.9875 430.406H35.9484V418.219H34.7531C34.4875 418.219 34.2961 418.16 34.1789 418.043C34.0695 417.918 34.0148 417.711 34.0148 417.422C34.0148 417.133 34.0695 416.93 34.1789 416.812C34.2961 416.688 34.4875 416.625 34.7531 416.625H36.968ZM41.3039 422.648C40.6086 422.648 39.9875 422.805 39.4406 423.117C38.9016 423.43 38.4758 423.883 38.1633 424.477C37.8586 425.07 37.7062 425.773 37.7062 426.586C37.7062 427.398 37.8586 428.102 38.1633 428.695C38.4758 429.289 38.9016 429.742 39.4406 430.055C39.9875 430.367 40.6086 430.523 41.3039 430.523C41.9992 430.523 42.5969 430.359 43.0969 430.031C43.5969 429.695 43.9758 429.23 44.2336 428.637C44.4992 428.043 44.632 427.359 44.632 426.586C44.632 425.812 44.4992 425.129 44.2336 424.535C43.9758 423.941 43.5969 423.48 43.0969 423.152C42.5969 422.816 41.9992 422.648 41.3039 422.648ZM61.1531 420.914C61.7625 420.914 62.3328 421.07 62.8641 421.383C63.1766 421.57 63.3328 421.812 63.3328 422.109C63.3328 422.25 63.2977 422.414 63.2273 422.602C63.0633 423.047 62.8367 423.27 62.5477 423.27C62.4305 423.27 62.3211 423.238 62.2195 423.176C61.8367 422.965 61.4266 422.859 60.9891 422.859C60.2859 422.859 59.5789 423.105 58.868 423.598C58.157 424.082 57.5711 424.73 57.1102 425.543C56.657 426.355 56.4305 427.219 56.4305 428.133V430.406H60.3797C60.6453 430.406 60.8328 430.469 60.9422 430.594C61.0594 430.711 61.118 430.914 61.118 431.203C61.118 431.492 61.0594 431.699 60.9422 431.824C60.8328 431.941 60.6453 432 60.3797 432H52.8328C52.5672 432 52.3758 431.941 52.2586 431.824C52.1492 431.699 52.0945 431.492 52.0945 431.203C52.0945 430.914 52.1492 430.711 52.2586 430.594C52.3758 430.469 52.5672 430.406 52.8328 430.406H54.6727V422.766H53.1844C52.9188 422.766 52.7273 422.707 52.6102 422.59C52.5008 422.465 52.4461 422.258 52.4461 421.969C52.4461 421.68 52.5008 421.477 52.6102 421.359C52.7273 421.234 52.9188 421.172 53.1844 421.172H55.575C55.8406 421.172 56.0281 421.234 56.1375 421.359C56.2547 421.477 56.3133 421.68 56.3133 421.969V424.336C56.6883 423.648 57.1414 423.047 57.6727 422.531C58.2039 422.016 58.7703 421.617 59.3719 421.336C59.9734 421.055 60.5672 420.914 61.1531 420.914ZM74.4633 420.914C75.5961 420.914 76.5609 421.145 77.3578 421.605C78.1625 422.059 78.7797 422.691 79.2094 423.504C79.6391 424.309 79.8852 425.238 79.9477 426.293C79.9477 426.559 79.8891 426.746 79.7719 426.855C79.6625 426.965 79.475 427.02 79.2094 427.02H70.725C70.7797 428.184 71.1234 429.066 71.7562 429.668C72.3969 430.262 73.2992 430.559 74.4633 430.559C75.182 430.559 75.893 430.469 76.5961 430.289C77.2992 430.102 77.9164 429.855 78.4477 429.551C78.5805 429.48 78.7016 429.445 78.8109 429.445C79.0844 429.445 79.307 429.652 79.4789 430.066C79.5492 430.23 79.5844 430.379 79.5844 430.512C79.5844 430.824 79.4125 431.066 79.0687 431.238C78.4672 431.543 77.7562 431.789 76.9359 431.977C76.1156 432.164 75.2914 432.258 74.4633 432.258C73.2836 432.258 72.2758 432.031 71.4398 431.578C70.6039 431.125 69.9672 430.473 69.5297 429.621C69.0922 428.77 68.8734 427.758 68.8734 426.586C68.8734 425.469 69.1117 424.48 69.5883 423.621C70.0648 422.762 70.725 422.098 71.5687 421.629C72.4125 421.152 73.3773 420.914 74.4633 420.914ZM74.4633 422.613C73.5023 422.613 72.7055 422.859 72.0727 423.352C71.4477 423.836 71.0375 424.512 70.8422 425.379H78.0023C77.8383 424.48 77.4594 423.797 76.8656 423.328C76.2797 422.852 75.4789 422.613 74.4633 422.613ZM97.7227 421.172C97.9883 421.172 98.1758 421.234 98.2852 421.359C98.4023 421.477 98.4609 421.68 98.4609 421.969C98.4609 422.258 98.4023 422.465 98.2852 422.59C98.1758 422.707 97.9883 422.766 97.7227 422.766H97.4414L95.1328 431.496C95.0547 431.777 94.9375 431.973 94.7812 432.082C94.6328 432.199 94.4102 432.258 94.1133 432.258C93.7773 432.258 93.5117 432.195 93.3164 432.07C93.1289 431.953 92.9883 431.762 92.8945 431.496L91.1016 426.41L89.2852 431.496C89.1914 431.762 89.043 431.953 88.8398 432.07C88.6445 432.195 88.3789 432.258 88.043 432.258C87.7461 432.258 87.5234 432.199 87.375 432.082C87.2266 431.973 87.1172 431.777 87.0469 431.496L84.7852 422.766H84.5742C84.3086 422.766 84.1172 422.707 84 422.59C83.8906 422.465 83.8359 422.258 83.8359 421.969C83.8359 421.68 83.8906 421.477 84 421.359C84.1172 421.234 84.3086 421.172 84.5742 421.172H88.0195C88.2852 421.172 88.4727 421.234 88.582 421.359C88.6992 421.477 88.7578 421.68 88.7578 421.969C88.7578 422.258 88.6992 422.465 88.582 422.59C88.4727 422.707 88.2852 422.766 88.0195 422.766H86.5781L88.2656 429.586L90.2227 424.148C90.2773 423.984 90.3789 423.852 90.5273 423.75C90.6758 423.648 90.8711 423.598 91.1133 423.598C91.6055 423.598 91.9062 423.754 92.0156 424.066L93.9609 429.586L95.6953 422.766H94.5117C94.2461 422.766 94.0547 422.707 93.9375 422.59C93.8281 422.465 93.7734 422.258 93.7734 421.969C93.7734 421.68 93.8281 421.477 93.9375 421.359C94.0547 421.234 94.2461 421.172 94.5117 421.172H97.7227ZM108.361 421.172C108.627 421.172 108.814 421.234 108.923 421.359C109.041 421.477 109.099 421.68 109.099 421.969V430.406H112.861C113.127 430.406 113.314 430.469 113.423 430.594C113.541 430.711 113.599 430.914 113.599 431.203C113.599 431.492 113.541 431.699 113.423 431.824C113.314 431.941 113.127 432 112.861 432H103.673C103.408 432 103.216 431.941 103.099 431.824C102.99 431.699 102.935 431.492 102.935 431.203C102.935 430.914 102.99 430.711 103.099 430.594C103.216 430.469 103.408 430.406 103.673 430.406H107.341V422.766H104.377C104.111 422.766 103.92 422.707 103.802 422.59C103.693 422.465 103.638 422.258 103.638 421.969C103.638 421.68 103.693 421.477 103.802 421.359C103.92 421.234 104.111 421.172 104.377 421.172H108.361ZM107.986 416.027C108.416 416.027 108.709 416.086 108.865 416.203C109.021 416.312 109.099 416.508 109.099 416.789V418.312C109.099 418.594 109.021 418.793 108.865 418.91C108.709 419.02 108.416 419.074 107.986 419.074C107.556 419.074 107.263 419.02 107.107 418.91C106.951 418.793 106.873 418.594 106.873 418.312V416.789C106.873 416.508 106.951 416.312 107.107 416.203C107.263 416.086 107.556 416.027 107.986 416.027ZM126.054 420.914C126.765 420.914 127.382 421.07 127.905 421.383C128.429 421.688 128.831 422.129 129.113 422.707C129.394 423.285 129.534 423.961 129.534 424.734V430.406H130.495C130.761 430.406 130.948 430.469 131.058 430.594C131.175 430.711 131.234 430.914 131.234 431.203C131.234 431.492 131.175 431.699 131.058 431.824C130.948 431.941 130.761 432 130.495 432H126.698C126.433 432 126.241 431.941 126.124 431.824C126.015 431.699 125.96 431.492 125.96 431.203C125.96 430.914 126.015 430.711 126.124 430.594C126.241 430.469 126.433 430.406 126.698 430.406H127.777V424.91C127.777 424.215 127.616 423.664 127.296 423.258C126.976 422.852 126.503 422.648 125.878 422.648C125.214 422.648 124.593 422.84 124.015 423.223C123.445 423.605 122.988 424.133 122.644 424.805C122.3 425.477 122.128 426.227 122.128 427.055V430.406H123.206C123.472 430.406 123.659 430.469 123.769 430.594C123.886 430.711 123.945 430.914 123.945 431.203C123.945 431.492 123.886 431.699 123.769 431.824C123.659 431.941 123.472 432 123.206 432H119.409C119.144 432 118.952 431.941 118.835 431.824C118.726 431.699 118.671 431.492 118.671 431.203C118.671 430.914 118.726 430.711 118.835 430.594C118.952 430.469 119.144 430.406 119.409 430.406H120.37V422.766H119.175C118.909 422.766 118.718 422.707 118.601 422.59C118.491 422.465 118.437 422.258 118.437 421.969C118.437 421.68 118.491 421.477 118.601 421.359C118.718 421.234 118.909 421.172 119.175 421.172H121.273C121.538 421.172 121.726 421.234 121.835 421.359C121.952 421.477 122.011 421.68 122.011 421.969V423.375C122.527 422.578 123.128 421.969 123.816 421.547C124.511 421.125 125.257 420.914 126.054 420.914ZM140.876 420.914C141.641 420.914 142.348 421.086 142.997 421.43C143.645 421.773 144.216 422.266 144.708 422.906V421.969C144.708 421.68 144.762 421.477 144.872 421.359C144.989 421.234 145.18 421.172 145.446 421.172H147.309C147.575 421.172 147.762 421.234 147.872 421.359C147.989 421.477 148.048 421.68 148.048 421.969C148.048 422.258 147.989 422.465 147.872 422.59C147.762 422.707 147.575 422.766 147.309 422.766H146.348V432.352C146.348 433.281 146.149 434.078 145.751 434.742C145.36 435.414 144.79 435.926 144.04 436.277C143.29 436.629 142.387 436.805 141.333 436.805C140.583 436.805 139.825 436.738 139.059 436.605C138.294 436.48 137.579 436.297 136.915 436.055C136.61 435.945 136.458 435.738 136.458 435.434C136.458 435.309 136.489 435.152 136.552 434.965C136.692 434.535 136.915 434.32 137.22 434.32C137.305 434.32 137.391 434.336 137.477 434.367C138.087 434.586 138.727 434.758 139.399 434.883C140.071 435.008 140.716 435.07 141.333 435.07C142.411 435.07 143.223 434.812 143.77 434.297C144.317 433.789 144.591 433.09 144.591 432.199V429.844C143.622 431.062 142.384 431.672 140.876 431.672C139.907 431.672 139.04 431.457 138.274 431.027C137.509 430.59 136.907 429.965 136.47 429.152C136.032 428.34 135.813 427.387 135.813 426.293C135.813 425.199 136.032 424.246 136.47 423.434C136.907 422.621 137.509 422 138.274 421.57C139.04 421.133 139.907 420.914 140.876 420.914ZM140.993 422.648C140.298 422.648 139.7 422.805 139.2 423.117C138.7 423.422 138.317 423.852 138.052 424.406C137.794 424.953 137.665 425.582 137.665 426.293C137.665 427.004 137.794 427.637 138.052 428.191C138.317 428.738 138.7 429.168 139.2 429.48C139.7 429.785 140.298 429.938 140.993 429.938C141.688 429.938 142.305 429.793 142.845 429.504C143.391 429.215 143.817 428.797 144.122 428.25C144.434 427.695 144.591 427.043 144.591 426.293C144.591 425.543 144.434 424.895 144.122 424.348C143.817 423.793 143.391 423.371 142.845 423.082C142.305 422.793 141.688 422.648 140.993 422.648ZM162.823 417.832C163.143 417.832 163.37 417.891 163.502 418.008C163.635 418.125 163.702 418.32 163.702 418.594V422.461C163.702 422.734 163.635 422.93 163.502 423.047C163.37 423.164 163.143 423.223 162.823 423.223C162.502 423.223 162.276 423.164 162.143 423.047C162.01 422.93 161.944 422.734 161.944 422.461C161.944 421.93 161.823 421.445 161.58 421.008C161.346 420.57 160.983 420.223 160.491 419.965C159.998 419.699 159.389 419.566 158.663 419.566C157.819 419.566 157.069 419.789 156.413 420.234C155.764 420.68 155.256 421.316 154.889 422.145C154.53 422.973 154.35 423.941 154.35 425.051C154.35 426.16 154.522 427.129 154.866 427.957C155.209 428.777 155.698 429.41 156.33 429.855C156.963 430.301 157.702 430.523 158.545 430.523C159.319 430.523 160.057 430.41 160.76 430.184C161.463 429.957 162.096 429.629 162.659 429.199C162.791 429.09 162.936 429.035 163.092 429.035C163.327 429.035 163.534 429.188 163.713 429.492C163.854 429.727 163.924 429.934 163.924 430.113C163.924 430.348 163.803 430.551 163.561 430.723C162.834 431.23 162.041 431.613 161.182 431.871C160.33 432.129 159.452 432.258 158.545 432.258C157.327 432.258 156.26 431.961 155.346 431.367C154.44 430.766 153.737 429.922 153.237 428.836C152.745 427.75 152.498 426.488 152.498 425.051C152.498 423.621 152.752 422.363 153.26 421.277C153.768 420.184 154.479 419.336 155.393 418.734C156.315 418.133 157.366 417.832 158.545 417.832C159.28 417.832 159.932 417.957 160.502 418.207C161.073 418.457 161.553 418.812 161.944 419.273V418.594C161.944 418.32 162.01 418.125 162.143 418.008C162.276 417.891 162.502 417.832 162.823 417.832ZM175.102 420.914C176.172 420.914 177.137 421.156 177.996 421.641C178.855 422.125 179.527 422.801 180.012 423.668C180.504 424.527 180.75 425.5 180.75 426.586C180.75 427.672 180.504 428.648 180.012 429.516C179.527 430.375 178.855 431.047 177.996 431.531C177.137 432.016 176.172 432.258 175.102 432.258C174.031 432.258 173.066 432.016 172.207 431.531C171.348 431.047 170.672 430.375 170.18 429.516C169.695 428.648 169.453 427.672 169.453 426.586C169.453 425.5 169.695 424.527 170.18 423.668C170.672 422.801 171.348 422.125 172.207 421.641C173.066 421.156 174.031 420.914 175.102 420.914ZM175.102 422.648C174.344 422.648 173.676 422.816 173.098 423.152C172.527 423.48 172.086 423.945 171.773 424.547C171.461 425.141 171.305 425.82 171.305 426.586C171.305 427.352 171.461 428.035 171.773 428.637C172.086 429.23 172.527 429.695 173.098 430.031C173.676 430.359 174.344 430.523 175.102 430.523C175.859 430.523 176.523 430.359 177.094 430.031C177.672 429.695 178.117 429.23 178.43 428.637C178.742 428.035 178.898 427.352 178.898 426.586C178.898 425.82 178.742 425.141 178.43 424.547C178.117 423.945 177.672 423.48 177.094 423.152C176.523 422.816 175.859 422.648 175.102 422.648ZM198.654 430.406C198.92 430.406 199.107 430.469 199.216 430.594C199.334 430.711 199.392 430.914 199.392 431.203C199.392 431.492 199.334 431.699 199.216 431.824C199.107 431.941 198.92 432 198.654 432H196.908C196.642 432 196.451 431.941 196.334 431.824C196.224 431.699 196.17 431.492 196.17 431.203V424.266C196.17 423.727 196.08 423.324 195.9 423.059C195.728 422.785 195.447 422.648 195.056 422.648C194.689 422.648 194.349 422.82 194.037 423.164C193.724 423.5 193.474 423.973 193.287 424.582C193.107 425.184 193.017 425.871 193.017 426.645V430.406H193.685C193.951 430.406 194.138 430.469 194.248 430.594C194.365 430.711 194.423 430.914 194.423 431.203C194.423 431.492 194.365 431.699 194.248 431.824C194.138 431.941 193.951 432 193.685 432H191.998C191.732 432 191.541 431.941 191.423 431.824C191.314 431.699 191.259 431.492 191.259 431.203V424.266C191.259 423.727 191.17 423.324 190.99 423.059C190.818 422.785 190.537 422.648 190.146 422.648C189.779 422.648 189.439 422.82 189.127 423.164C188.814 423.5 188.564 423.973 188.377 424.582C188.197 425.184 188.107 425.871 188.107 426.645V430.406H188.716C188.982 430.406 189.17 430.469 189.279 430.594C189.396 430.711 189.455 430.914 189.455 431.203C189.455 431.492 189.396 431.699 189.279 431.824C189.17 431.941 188.982 432 188.716 432H185.388C185.123 432 184.931 431.941 184.814 431.824C184.705 431.699 184.65 431.492 184.65 431.203C184.65 430.914 184.705 430.711 184.814 430.594C184.931 430.469 185.123 430.406 185.388 430.406H186.349V422.766H185.388C185.123 422.766 184.931 422.707 184.814 422.59C184.705 422.465 184.65 422.258 184.65 421.969C184.65 421.68 184.705 421.477 184.814 421.359C184.931 421.234 185.123 421.172 185.388 421.172H187.134C187.4 421.172 187.587 421.234 187.697 421.359C187.814 421.477 187.873 421.68 187.873 421.969V423.129C188.209 422.395 188.611 421.844 189.08 421.477C189.548 421.102 190.056 420.914 190.603 420.914C191.134 420.914 191.599 421.094 191.998 421.453C192.396 421.812 192.666 422.34 192.806 423.035C193.502 421.621 194.4 420.914 195.502 420.914C195.962 420.914 196.373 421.031 196.732 421.266C197.099 421.492 197.388 421.844 197.599 422.32C197.818 422.789 197.927 423.367 197.927 424.055V430.406H198.654ZM209.327 420.914C210.296 420.914 211.163 421.145 211.929 421.605C212.695 422.059 213.296 422.715 213.734 423.574C214.171 424.426 214.39 425.43 214.39 426.586C214.39 427.742 214.171 428.75 213.734 429.609C213.296 430.461 212.695 431.117 211.929 431.578C211.163 432.031 210.296 432.258 209.327 432.258C207.859 432.258 206.62 431.613 205.613 430.324V434.953H207.628C207.894 434.953 208.081 435.012 208.191 435.129C208.308 435.254 208.366 435.461 208.366 435.75C208.366 436.039 208.308 436.242 208.191 436.359C208.081 436.484 207.894 436.547 207.628 436.547H202.659C202.394 436.547 202.202 436.484 202.085 436.359C201.976 436.242 201.921 436.039 201.921 435.75C201.921 435.461 201.976 435.254 202.085 435.129C202.202 435.012 202.394 434.953 202.659 434.953H203.855V422.766H202.894C202.628 422.766 202.437 422.707 202.32 422.59C202.21 422.465 202.155 422.258 202.155 421.969C202.155 421.68 202.21 421.477 202.32 421.359C202.437 421.234 202.628 421.172 202.894 421.172H204.757C205.023 421.172 205.21 421.234 205.32 421.359C205.437 421.477 205.495 421.68 205.495 421.969V422.906C205.988 422.266 206.558 421.773 207.206 421.43C207.855 421.086 208.562 420.914 209.327 420.914ZM209.21 422.648C208.515 422.648 207.894 422.805 207.347 423.117C206.808 423.43 206.382 423.883 206.07 424.477C205.765 425.07 205.613 425.773 205.613 426.586C205.613 427.398 205.765 428.102 206.07 428.695C206.382 429.289 206.808 429.742 207.347 430.055C207.894 430.367 208.515 430.523 209.21 430.523C209.905 430.523 210.503 430.359 211.003 430.031C211.503 429.695 211.882 429.23 212.14 428.637C212.405 428.043 212.538 427.359 212.538 426.586C212.538 425.812 212.405 425.129 212.14 424.535C211.882 423.941 211.503 423.48 211.003 423.152C210.503 422.816 209.905 422.648 209.21 422.648ZM225.52 420.914C226.989 420.914 228.091 421.242 228.825 421.898C229.559 422.555 229.927 423.527 229.927 424.816V429.48C229.927 430.098 230.184 430.406 230.7 430.406H231.11C231.376 430.406 231.563 430.469 231.673 430.594C231.79 430.711 231.848 430.914 231.848 431.203C231.848 431.492 231.79 431.699 231.673 431.824C231.563 431.941 231.376 432 231.11 432H230.36C229.852 432 229.415 431.875 229.048 431.625C228.688 431.367 228.454 430.992 228.345 430.5C227.704 431.062 227.009 431.496 226.259 431.801C225.516 432.105 224.727 432.258 223.891 432.258C223.102 432.258 222.403 432.125 221.794 431.859C221.192 431.586 220.72 431.191 220.376 430.676C220.032 430.16 219.86 429.547 219.86 428.836C219.86 427.602 220.302 426.691 221.184 426.105C222.067 425.512 223.208 425.215 224.606 425.215C225.848 425.215 227.036 425.414 228.169 425.812V424.816C228.169 424.059 227.954 423.504 227.524 423.152C227.102 422.793 226.419 422.613 225.473 422.613C224.887 422.613 224.278 422.695 223.645 422.859C223.012 423.023 222.411 423.25 221.841 423.539C221.708 423.609 221.587 423.645 221.477 423.645C221.22 423.645 221.005 423.457 220.833 423.082C220.747 422.895 220.704 422.738 220.704 422.613C220.704 422.34 220.848 422.129 221.137 421.98C221.794 421.637 222.497 421.375 223.247 421.195C224.005 421.008 224.762 420.914 225.52 420.914ZM224.618 426.867C223.72 426.867 223.009 427.023 222.485 427.336C221.97 427.641 221.712 428.129 221.712 428.801C221.712 429.371 221.907 429.816 222.298 430.137C222.696 430.449 223.251 430.605 223.962 430.605C225.516 430.605 226.919 429.961 228.169 428.672V427.395C227.637 427.223 227.067 427.094 226.458 427.008C225.848 426.914 225.235 426.867 224.618 426.867ZM243.588 420.914C244.299 420.914 244.916 421.07 245.44 421.383C245.963 421.688 246.366 422.129 246.647 422.707C246.928 423.285 247.069 423.961 247.069 424.734V430.406H248.03C248.295 430.406 248.483 430.469 248.592 430.594C248.709 430.711 248.768 430.914 248.768 431.203C248.768 431.492 248.709 431.699 248.592 431.824C248.483 431.941 248.295 432 248.03 432H244.233C243.967 432 243.776 431.941 243.659 431.824C243.549 431.699 243.495 431.492 243.495 431.203C243.495 430.914 243.549 430.711 243.659 430.594C243.776 430.469 243.967 430.406 244.233 430.406H245.311V424.91C245.311 424.215 245.151 423.664 244.83 423.258C244.51 422.852 244.038 422.648 243.413 422.648C242.748 422.648 242.127 422.84 241.549 423.223C240.979 423.605 240.522 424.133 240.178 424.805C239.834 425.477 239.663 426.227 239.663 427.055V430.406H240.741C241.006 430.406 241.194 430.469 241.303 430.594C241.42 430.711 241.479 430.914 241.479 431.203C241.479 431.492 241.42 431.699 241.303 431.824C241.194 431.941 241.006 432 240.741 432H236.944C236.678 432 236.487 431.941 236.37 431.824C236.26 431.699 236.205 431.492 236.205 431.203C236.205 430.914 236.26 430.711 236.37 430.594C236.487 430.469 236.678 430.406 236.944 430.406H237.905V422.766H236.709C236.444 422.766 236.252 422.707 236.135 422.59C236.026 422.465 235.971 422.258 235.971 421.969C235.971 421.68 236.026 421.477 236.135 421.359C236.252 421.234 236.444 421.172 236.709 421.172H238.807C239.073 421.172 239.26 421.234 239.37 421.359C239.487 421.477 239.545 421.68 239.545 421.969V423.375C240.061 422.578 240.663 421.969 241.35 421.547C242.045 421.125 242.791 420.914 243.588 420.914ZM264.926 421.172C265.191 421.172 265.379 421.234 265.488 421.359C265.605 421.477 265.664 421.68 265.664 421.969C265.664 422.258 265.605 422.465 265.488 422.59C265.379 422.707 265.191 422.766 264.926 422.766H264.199L259.406 432.586C258.898 433.625 258.402 434.441 257.918 435.035C257.434 435.629 256.887 436.062 256.277 436.336C255.676 436.617 254.941 436.773 254.074 436.805C253.801 436.812 253.59 436.742 253.441 436.594C253.293 436.453 253.219 436.199 253.219 435.832C253.219 435.324 253.426 435.059 253.84 435.035C254.59 434.996 255.184 434.871 255.621 434.66C256.066 434.449 256.473 434.086 256.84 433.57C257.215 433.062 257.672 432.266 258.211 431.18L253.922 422.766H253.184C252.918 422.766 252.727 422.707 252.609 422.59C252.5 422.465 252.445 422.258 252.445 421.969C252.445 421.68 252.5 421.477 252.609 421.359C252.727 421.234 252.918 421.172 253.184 421.172H257.332C257.598 421.172 257.785 421.234 257.895 421.359C258.012 421.477 258.07 421.68 258.07 421.969C258.07 422.258 258.012 422.465 257.895 422.59C257.785 422.707 257.598 422.766 257.332 422.766H255.832L259.137 429.352L262.289 422.766H261.246C260.98 422.766 260.789 422.707 260.672 422.59C260.562 422.465 260.508 422.258 260.508 421.969C260.508 421.68 260.562 421.477 260.672 421.359C260.789 421.234 260.98 421.172 261.246 421.172H264.926Z" fill="white"/>
</svg>
