<svg width="150" height="44" viewBox="0 0 150 44" fill="none" xmlns="http://www.w3.org/2000/svg">
<path d="M60.8125 27.3438C60.8125 27.151 60.8568 26.9844 60.9453 26.8438C61.0339 26.6979 61.1771 26.625 61.375 26.625H62.7969V18.3516L58.0781 27.2031C58.026 27.3385 57.9349 27.4583 57.8047 27.5625C57.6745 27.6615 57.5208 27.7109 57.3438 27.7109C57.1823 27.7109 57.0365 27.6693 56.9062 27.5859C56.7812 27.4974 56.6927 27.3958 56.6406 27.2812L52.2188 18.2422V26.625H53.8047C54.0026 26.625 54.1458 26.6979 54.2344 26.8438C54.3229 26.9844 54.3672 27.151 54.3672 27.3438C54.3672 27.5156 54.3151 27.6693 54.2109 27.8047C54.112 27.9349 53.9714 28 53.7891 28H48.8594C48.6771 28 48.5339 27.9349 48.4297 27.8047C48.3307 27.6693 48.2812 27.5156 48.2812 27.3438C48.2812 27.151 48.3255 26.9844 48.4141 26.8438C48.5026 26.6979 48.6458 26.625 48.8438 26.625H50.5859V15.9844H49.0078C48.8099 15.9844 48.6667 15.9141 48.5781 15.7734C48.4896 15.6276 48.4453 15.4583 48.4453 15.2656C48.4453 15.0938 48.4948 14.9427 48.5938 14.8125C48.6979 14.6771 48.8411 14.6094 49.0234 14.6094H51.6484C51.7891 14.6094 51.8984 14.651 51.9766 14.7344C52.0599 14.8177 52.125 14.9089 52.1719 15.0078L57.3438 25.4375L62.8594 14.9453C62.9062 14.8568 62.9714 14.7786 63.0547 14.7109C63.138 14.6432 63.2448 14.6094 63.375 14.6094H65.8672C66.0495 14.6094 66.1901 14.6771 66.2891 14.8125C66.3932 14.9427 66.4453 15.0938 66.4453 15.2656C66.4453 15.4583 66.401 15.6276 66.3125 15.7734C66.224 15.9141 66.0807 15.9844 65.8828 15.9844H64.4609V26.625H66.0469C66.2448 26.625 66.3854 26.6979 66.4688 26.8438C66.5573 26.9844 66.6016 27.151 66.6016 27.3438C66.6016 27.5156 66.5521 27.6693 66.4531 27.8047C66.3542 27.9349 66.2135 28 66.0312 28H61.3906C61.2083 28 61.0651 27.9349 60.9609 27.8047C60.862 27.6693 60.8125 27.5156 60.8125 27.3438ZM73.8891 20.0469C72.8995 20.0469 72.1313 20.3672 71.5844 21.0078C71.0427 21.6484 70.7719 22.4635 70.7719 23.4531C70.7719 24.4479 71.0427 25.2656 71.5844 25.9062C72.1313 26.5469 72.8995 26.8672 73.8891 26.8672C74.8526 26.8672 75.5974 26.5417 76.1234 25.8906C76.6495 25.2396 76.9125 24.4271 76.9125 23.4531C76.9125 22.4792 76.6495 21.6693 76.1234 21.0234C75.5974 20.3724 74.8526 20.0469 73.8891 20.0469ZM73.8891 28.1953C72.4464 28.1953 71.2771 27.7656 70.3813 26.9062C69.4854 26.0469 69.0375 24.8958 69.0375 23.4531C69.0375 22.0052 69.4854 20.8542 70.3813 20C71.2823 19.1458 72.4516 18.7188 73.8891 18.7188C75.3057 18.7188 76.4516 19.1536 77.3266 20.0234C78.2016 20.888 78.6391 22.0312 78.6391 23.4531C78.6391 24.875 78.2016 26.0208 77.3266 26.8906C76.4516 27.7604 75.3057 28.1953 73.8891 28.1953ZM87.7 20.1406C87.075 20.1406 86.5177 20.2786 86.0281 20.5547C85.5385 20.8307 85.1661 21.1589 84.9109 21.5391V26.625H87.0047C87.2026 26.625 87.3458 26.6979 87.4344 26.8438C87.5229 26.9844 87.5672 27.151 87.5672 27.3438C87.5672 27.5156 87.5151 27.6693 87.4109 27.8047C87.312 27.9349 87.1714 28 86.9891 28H81.825C81.6063 28 81.4448 27.9375 81.3406 27.8125C81.2365 27.6875 81.1844 27.526 81.1844 27.3281C81.1844 27.1354 81.2313 26.9714 81.325 26.8359C81.424 26.6953 81.575 26.625 81.7781 26.625H83.3094V20.3516L82.1922 20.625C82.1818 20.6302 82.1661 20.6354 82.1453 20.6406C82.1297 20.6406 82.1089 20.6406 82.0828 20.6406C81.9266 20.6406 81.7807 20.5781 81.6453 20.4531C81.5099 20.3229 81.4422 20.1771 81.4422 20.0156C81.4422 19.8385 81.4786 19.6979 81.5516 19.5938C81.6297 19.4844 81.7417 19.4062 81.8875 19.3594L84.0672 18.7344C84.088 18.7344 84.101 18.7318 84.1063 18.7266C84.1115 18.7214 84.1245 18.7188 84.1453 18.7188H84.1922C84.3016 18.7188 84.3953 18.7526 84.4734 18.8203C84.5516 18.8828 84.5906 18.9714 84.5906 19.0859L84.7547 20.5625C85.1141 20.0156 85.5854 19.5729 86.1688 19.2344C86.7573 18.8906 87.5073 18.7188 88.4188 18.7188C88.5906 18.7188 88.7417 18.7708 88.8719 18.875C89.0073 18.974 89.075 19.1146 89.075 19.2969V20.9609C89.075 21.1797 89.0125 21.3411 88.8875 21.4453C88.7625 21.5495 88.601 21.6016 88.4031 21.6016C88.2104 21.6016 88.0438 21.5547 87.9031 21.4609C87.7677 21.362 87.7 21.2109 87.7 21.0078V20.1406ZM93.3078 23.6328C93.3078 24.6536 93.6255 25.4323 94.2609 25.9688C94.9016 26.5 95.688 26.7656 96.6203 26.7656C97.2818 26.7656 97.8 26.6432 98.175 26.3984C98.5552 26.1484 98.9172 25.8646 99.2609 25.5469C99.3391 25.4792 99.4224 25.4297 99.5109 25.3984C99.5995 25.362 99.688 25.3438 99.7766 25.3438C99.9849 25.3438 100.162 25.4089 100.308 25.5391C100.454 25.6641 100.527 25.8333 100.527 26.0469C100.527 26.7135 100.042 27.2396 99.0734 27.625C98.1099 28.0052 97.2714 28.1953 96.5578 28.1953C95.1307 28.1953 93.9536 27.7734 93.0266 26.9297C92.1047 26.0807 91.6437 24.9401 91.6437 23.5078C91.6437 22.0911 92.0682 20.9401 92.9172 20.0547C93.7661 19.1641 94.9172 18.7188 96.3703 18.7188C97.412 18.7188 98.3625 19.0807 99.2219 19.8047C100.081 20.5234 100.511 21.4531 100.511 22.5938C100.511 22.9844 100.389 23.2188 100.144 23.2969C99.9042 23.375 99.5995 23.4323 99.2297 23.4688L93.3078 23.6328ZM98.55 22.0938C98.55 21.349 98.3208 20.8229 97.8625 20.5156C97.4094 20.2031 96.912 20.0469 96.3703 20.0469C95.4536 20.0469 94.7245 20.2734 94.1828 20.7266C93.6464 21.1797 93.3443 21.7812 93.2766 22.5312L97.9719 22.4297C98.1177 22.4245 98.2505 22.3984 98.3703 22.3516C98.4901 22.2995 98.55 22.2135 98.55 22.0938ZM111.328 16.8516C111 16.8516 110.719 16.737 110.484 16.5078C110.255 16.2734 110.141 15.9922 110.141 15.6641C110.141 15.3359 110.255 15.0573 110.484 14.8281C110.719 14.5938 111 14.4766 111.328 14.4766C111.656 14.4766 111.935 14.5938 112.164 14.8281C112.393 15.0573 112.508 15.3359 112.508 15.6641C112.508 15.9922 112.393 16.2734 112.164 16.5078C111.935 16.737 111.656 16.8516 111.328 16.8516ZM108.922 27.3516C108.922 27.1589 108.969 26.9948 109.062 26.8594C109.161 26.7188 109.312 26.6484 109.516 26.6484H110.586V20.3203L109.469 20.625C109.458 20.6302 109.443 20.6354 109.422 20.6406C109.406 20.6406 109.385 20.6406 109.359 20.6406C109.203 20.6406 109.057 20.5781 108.922 20.4531C108.786 20.3229 108.719 20.1771 108.719 20.0156C108.719 19.849 108.755 19.7083 108.828 19.5938C108.906 19.474 109.018 19.3958 109.164 19.3594L111.664 18.7344C111.68 18.7292 111.698 18.7266 111.719 18.7266C111.74 18.7214 111.763 18.7188 111.789 18.7188C111.904 18.7188 111.997 18.7526 112.07 18.8203C112.148 18.8828 112.188 18.9714 112.188 19.0859V26.6484H113.391C113.589 26.6484 113.732 26.7214 113.82 26.8672C113.909 27.0078 113.953 27.1745 113.953 27.3672C113.953 27.5391 113.901 27.6875 113.797 27.8125C113.698 27.9375 113.557 28 113.375 28H109.562C109.344 28 109.182 27.9427 109.078 27.8281C108.974 27.7083 108.922 27.5495 108.922 27.3516ZM122.67 20.0469C121.972 20.0469 121.308 20.2786 120.678 20.7422C120.053 21.2005 119.741 21.7786 119.741 22.4766V26.625H120.881C121.079 26.625 121.22 26.6979 121.303 26.8438C121.392 26.9844 121.436 27.151 121.436 27.3438C121.436 27.5156 121.386 27.6693 121.287 27.8047C121.189 27.9349 121.048 28 120.866 28H117.217C116.998 28 116.837 27.9375 116.733 27.8125C116.629 27.6875 116.577 27.526 116.577 27.3281C116.577 27.1354 116.623 26.9714 116.717 26.8359C116.816 26.6953 116.967 26.625 117.17 26.625H118.139V20.3516L117.022 20.625C117.011 20.6302 116.996 20.6354 116.975 20.6406C116.959 20.6406 116.939 20.6406 116.912 20.6406C116.756 20.6406 116.61 20.5781 116.475 20.4531C116.34 20.3229 116.272 20.1771 116.272 20.0156C116.272 19.8385 116.308 19.6979 116.381 19.5938C116.459 19.4844 116.571 19.4062 116.717 19.3594L118.897 18.7344C118.918 18.7344 118.931 18.7318 118.936 18.7266C118.941 18.7214 118.954 18.7188 118.975 18.7188H119.022C119.131 18.7188 119.225 18.7526 119.303 18.8203C119.381 18.8828 119.42 18.9714 119.42 19.0859L119.584 20.5625C119.85 20.0833 120.295 19.6562 120.92 19.2812C121.551 18.9062 122.23 18.7188 122.959 18.7188C123.933 18.7188 124.707 19.0052 125.28 19.5781C125.853 20.151 126.139 20.9271 126.139 21.9062V26.625H127.116C127.314 26.625 127.457 26.6979 127.545 26.8438C127.634 26.9844 127.678 27.151 127.678 27.3438C127.678 27.5156 127.626 27.6693 127.522 27.8047C127.423 27.9349 127.282 28 127.1 28H123.295C123.077 28 122.915 27.9375 122.811 27.8125C122.707 27.6875 122.655 27.526 122.655 27.3281C122.655 27.1354 122.702 26.9714 122.795 26.8359C122.894 26.6953 123.045 26.625 123.248 26.625H124.561V22.0469C124.561 21.4271 124.402 20.9401 124.084 20.5859C123.772 20.2266 123.301 20.0469 122.67 20.0469ZM136.778 16.9766C136.585 16.9766 136.419 16.9297 136.278 16.8359C136.137 16.737 136.067 16.5859 136.067 16.3828V15.8438C135.239 15.9167 134.677 16.1458 134.38 16.5312C134.083 16.9167 133.934 17.5339 133.934 18.3828C133.934 18.4349 133.934 18.487 133.934 18.5391C133.94 18.5911 133.942 18.6432 133.942 18.6953L133.958 19.2344H135.669C135.867 19.2344 136.01 19.3073 136.098 19.4531C136.187 19.5938 136.231 19.7604 136.231 19.9531C136.231 20.125 136.179 20.2786 136.075 20.4141C135.976 20.5443 135.835 20.6094 135.653 20.6094H133.942L133.958 26.625H135.927C136.124 26.625 136.268 26.6979 136.356 26.8438C136.445 26.9844 136.489 27.151 136.489 27.3438C136.489 27.5156 136.437 27.6693 136.333 27.8047C136.234 27.9349 136.093 28 135.911 28H130.677C130.458 28 130.296 27.9375 130.192 27.8125C130.088 27.6875 130.036 27.526 130.036 27.3281C130.036 27.1354 130.083 26.9714 130.177 26.8359C130.276 26.6953 130.427 26.625 130.63 26.625H132.356V20.6094H130.966C130.747 20.6094 130.585 20.5469 130.481 20.4219C130.377 20.2969 130.325 20.1354 130.325 19.9375C130.325 19.7448 130.372 19.5807 130.466 19.4453C130.565 19.3047 130.716 19.2344 130.919 19.2344H132.356V18.4141C132.356 17.0443 132.747 16.0365 133.528 15.3906C134.309 14.7396 135.398 14.4141 136.794 14.4141C136.966 14.4141 137.117 14.4661 137.247 14.5703C137.382 14.6693 137.45 14.8099 137.45 14.9922V16.3359C137.45 16.5547 137.387 16.7161 137.262 16.8203C137.137 16.9245 136.976 16.9766 136.778 16.9766ZM144.683 20.0469C143.693 20.0469 142.925 20.3672 142.378 21.0078C141.836 21.6484 141.566 22.4635 141.566 23.4531C141.566 24.4479 141.836 25.2656 142.378 25.9062C142.925 26.5469 143.693 26.8672 144.683 26.8672C145.646 26.8672 146.391 26.5417 146.917 25.8906C147.443 25.2396 147.706 24.4271 147.706 23.4531C147.706 22.4792 147.443 21.6693 146.917 21.0234C146.391 20.3724 145.646 20.0469 144.683 20.0469ZM144.683 28.1953C143.24 28.1953 142.071 27.7656 141.175 26.9062C140.279 26.0469 139.831 24.8958 139.831 23.4531C139.831 22.0052 140.279 20.8542 141.175 20C142.076 19.1458 143.245 18.7188 144.683 18.7188C146.099 18.7188 147.245 19.1536 148.12 20.0234C148.995 20.888 149.433 22.0312 149.433 23.4531C149.433 24.875 148.995 26.0208 148.12 26.8906C147.245 27.7604 146.099 28.1953 144.683 28.1953Z" fill="white"/>
<g filter="url(#filter0_d)">
<path fill-rule="evenodd" clip-rule="evenodd" d="M22 41C33.0457 41 42 32.0457 42 21C42 9.95432 33.0457 1 22 1C10.9543 1 2 9.95432 2 21C2 32.0457 10.9543 41 22 41ZM22.7939 19.4629C22.7165 19.3744 22.5837 19.3301 22.3955 19.3301H19.5732C19.3851 19.3301 19.2495 19.3744 19.1665 19.4629C19.089 19.5459 19.0503 19.6898 19.0503 19.8945C19.0503 20.0993 19.089 20.2459 19.1665 20.3345C19.2495 20.4175 19.3851 20.459 19.5732 20.459H21.6733V25.8711H19.0752C18.887 25.8711 18.7515 25.9154 18.6685 26.0039C18.591 26.0869 18.5522 26.2308 18.5522 26.4355C18.5522 26.6403 18.591 26.787 18.6685 26.8755C18.7515 26.9585 18.887 27 19.0752 27H25.583C25.7712 27 25.904 26.9585 25.9814 26.8755C26.0645 26.787 26.106 26.6403 26.106 26.4355C26.106 26.2308 26.0645 26.0869 25.9814 26.0039C25.904 25.9154 25.7712 25.8711 25.583 25.8711H22.9185V19.8945C22.9185 19.6898 22.877 19.5459 22.7939 19.4629ZM22.7524 15.8105C22.6418 15.7275 22.4342 15.686 22.1299 15.686C21.8255 15.686 21.618 15.7275 21.5073 15.8105C21.3966 15.888 21.3413 16.0264 21.3413 16.2256V17.3047C21.3413 17.5039 21.3966 17.645 21.5073 17.728C21.618 17.8055 21.8255 17.8442 22.1299 17.8442C22.4342 17.8442 22.6418 17.8055 22.7524 17.728C22.8631 17.645 22.9185 17.5039 22.9185 17.3047V16.2256C22.9185 16.0264 22.8631 15.888 22.7524 15.8105Z" fill="white"/>
</g>
<defs>
<filter id="filter0_d" x="0" y="0" width="44" height="44" filterUnits="userSpaceOnUse" color-interpolation-filters="sRGB">
<feFlood flood-opacity="0" result="BackgroundImageFix"/>
<feColorMatrix in="SourceAlpha" type="matrix" values="0 0 0 0 0 0 0 0 0 0 0 0 0 0 0 0 0 0 127 0"/>
<feOffset dy="1"/>
<feGaussianBlur stdDeviation="1"/>
<feColorMatrix type="matrix" values="0 0 0 0 0 0 0 0 0 0 0 0 0 0 0 0 0 0 0.1 0"/>
<feBlend mode="normal" in2="BackgroundImageFix" result="effect1_dropShadow"/>
<feBlend mode="normal" in="SourceGraphic" in2="effect1_dropShadow" result="shape"/>
</filter>
</defs>
</svg>
