<svg width="84" height="114" viewBox="0 0 84 114" fill="none" xmlns="http://www.w3.org/2000/svg">
<path d="M18.5469 109.195C16.5104 109.195 14.8438 108.573 13.5469 107.328C12.25 106.078 11.6016 104.422 11.6016 102.359C11.6016 100.292 12.25 98.6172 13.5469 97.3359C14.8438 96.0547 16.5104 95.4141 18.5469 95.4141C20.6094 95.4141 22.2917 96.0547 23.5938 97.3359C24.901 98.6172 25.5547 100.292 25.5547 102.359C25.5547 104.422 24.8984 106.078 23.5859 107.328C22.2786 108.573 20.599 109.195 18.5469 109.195ZM18.4766 96.8906C16.9245 96.8906 15.7161 97.4089 14.8516 98.4453C13.987 99.4766 13.5547 100.781 13.5547 102.359C13.5547 103.938 13.9974 105.227 14.8828 106.227C15.7734 107.221 17.0156 107.719 18.6094 107.719C20.1667 107.719 21.3906 107.227 22.2812 106.242C23.1719 105.258 23.6172 103.969 23.6172 102.375C23.6172 100.766 23.1589 99.4505 22.2422 98.4297C21.3307 97.4036 20.0755 96.8906 18.4766 96.8906ZM34.6625 101.141C34.0375 101.141 33.4802 101.279 32.9906 101.555C32.501 101.831 32.1286 102.159 31.8734 102.539V107.625H33.9672C34.1651 107.625 34.3083 107.698 34.3969 107.844C34.4854 107.984 34.5297 108.151 34.5297 108.344C34.5297 108.516 34.4776 108.669 34.3734 108.805C34.2745 108.935 34.1339 109 33.9516 109H28.7875C28.5688 109 28.4073 108.938 28.3031 108.812C28.199 108.688 28.1469 108.526 28.1469 108.328C28.1469 108.135 28.1938 107.971 28.2875 107.836C28.3865 107.695 28.5375 107.625 28.7406 107.625H30.2719V101.352L29.1547 101.625C29.1443 101.63 29.1286 101.635 29.1078 101.641C29.0922 101.641 29.0714 101.641 29.0453 101.641C28.8891 101.641 28.7432 101.578 28.6078 101.453C28.4724 101.323 28.4047 101.177 28.4047 101.016C28.4047 100.839 28.4411 100.698 28.5141 100.594C28.5922 100.484 28.7042 100.406 28.85 100.359L31.0297 99.7344C31.0505 99.7344 31.0635 99.7318 31.0688 99.7266C31.074 99.7214 31.087 99.7188 31.1078 99.7188H31.1547C31.2641 99.7188 31.3578 99.7526 31.4359 99.8203C31.5141 99.8828 31.5531 99.9714 31.5531 100.086L31.7172 101.562C32.0766 101.016 32.5479 100.573 33.1313 100.234C33.7198 99.8906 34.4698 99.7188 35.3813 99.7188C35.5531 99.7188 35.7042 99.7708 35.8344 99.875C35.9698 99.974 36.0375 100.115 36.0375 100.297V101.961C36.0375 102.18 35.975 102.341 35.85 102.445C35.725 102.549 35.5635 102.602 35.3656 102.602C35.1729 102.602 35.0063 102.555 34.8656 102.461C34.7302 102.362 34.6625 102.211 34.6625 102.008V101.141ZM40.3406 104.453C40.3406 105.359 40.5698 106.156 41.0281 106.844C41.4917 107.526 42.174 107.867 43.075 107.867C43.6948 107.867 44.2313 107.732 44.6844 107.461C45.1375 107.19 45.5021 106.859 45.7781 106.469V102.117C45.45 101.784 45.0542 101.523 44.5906 101.336C44.1323 101.143 43.601 101.047 42.9969 101.047C42.1167 101.047 41.4526 101.396 41.0047 102.094C40.562 102.786 40.3406 103.573 40.3406 104.453ZM38.6063 104.453C38.6063 103.125 38.9943 102.005 39.7703 101.094C40.5516 100.177 41.6036 99.7188 42.9266 99.7188C43.5464 99.7188 44.0828 99.8177 44.5359 100.016C44.9891 100.214 45.4031 100.461 45.7781 100.758V97.0938L43.9344 97.5781C43.9135 97.5781 43.9005 97.5807 43.8953 97.5859C43.8901 97.5911 43.8771 97.5938 43.8563 97.5938C43.6948 97.5938 43.549 97.5234 43.4188 97.3828C43.2938 97.237 43.2313 97.0833 43.2313 96.9219C43.2313 96.6979 43.2885 96.5521 43.4031 96.4844C43.5229 96.4115 43.6688 96.349 43.8406 96.2969L46.8484 95.4297C46.8589 95.4245 46.8745 95.4219 46.8953 95.4219C46.9161 95.4167 46.9396 95.4141 46.9656 95.4141C47.075 95.4141 47.1714 95.4505 47.2547 95.5234C47.338 95.5911 47.3797 95.6823 47.3797 95.7969V107.625L48.5125 107.461C48.5385 107.456 48.5698 107.453 48.6063 107.453C48.6427 107.448 48.6818 107.445 48.7234 107.445C48.9318 107.445 49.0984 107.497 49.2234 107.602C49.3484 107.701 49.4109 107.841 49.4109 108.023C49.4109 108.445 49.1818 108.69 48.7234 108.758C48.2703 108.82 47.8745 108.87 47.5359 108.906C47.3328 108.938 47.1036 108.974 46.8484 109.016C46.5984 109.057 46.3901 109.078 46.2234 109.078C46.0411 109.078 45.9214 109.008 45.8641 108.867C45.8068 108.727 45.7781 108.568 45.7781 108.391V107.828C45.4813 108.188 45.0906 108.505 44.6063 108.781C44.1219 109.057 43.575 109.195 42.9656 109.195C41.5958 109.195 40.5255 108.747 39.7547 107.852C38.9891 106.951 38.6063 105.818 38.6063 104.453ZM53.5734 104.633C53.5734 105.654 53.8911 106.432 54.5266 106.969C55.1672 107.5 55.9536 107.766 56.8859 107.766C57.5474 107.766 58.0656 107.643 58.4406 107.398C58.8208 107.148 59.1828 106.865 59.5266 106.547C59.6047 106.479 59.688 106.43 59.7766 106.398C59.8651 106.362 59.9536 106.344 60.0422 106.344C60.2505 106.344 60.4276 106.409 60.5734 106.539C60.7193 106.664 60.7922 106.833 60.7922 107.047C60.7922 107.714 60.3078 108.24 59.3391 108.625C58.3755 109.005 57.537 109.195 56.8234 109.195C55.3964 109.195 54.2193 108.773 53.2922 107.93C52.3703 107.081 51.9094 105.94 51.9094 104.508C51.9094 103.091 52.3339 101.94 53.1828 101.055C54.0318 100.164 55.1828 99.7188 56.6359 99.7188C57.6776 99.7188 58.6281 100.081 59.4875 100.805C60.3469 101.523 60.7766 102.453 60.7766 103.594C60.7766 103.984 60.6542 104.219 60.4094 104.297C60.1698 104.375 59.8651 104.432 59.4953 104.469L53.5734 104.633ZM58.8156 103.094C58.8156 102.349 58.5865 101.823 58.1281 101.516C57.675 101.203 57.1776 101.047 56.6359 101.047C55.7193 101.047 54.9901 101.273 54.4484 101.727C53.912 102.18 53.6099 102.781 53.5422 103.531L58.2375 103.43C58.3833 103.424 58.5161 103.398 58.6359 103.352C58.7557 103.299 58.8156 103.214 58.8156 103.094ZM70.0563 101.141C69.4313 101.141 68.874 101.279 68.3844 101.555C67.8948 101.831 67.5224 102.159 67.2672 102.539V107.625H69.3609C69.5589 107.625 69.7021 107.698 69.7906 107.844C69.8792 107.984 69.9234 108.151 69.9234 108.344C69.9234 108.516 69.8714 108.669 69.7672 108.805C69.6682 108.935 69.5276 109 69.3453 109H64.1813C63.9625 109 63.801 108.938 63.6969 108.812C63.5927 108.688 63.5406 108.526 63.5406 108.328C63.5406 108.135 63.5875 107.971 63.6813 107.836C63.7802 107.695 63.9313 107.625 64.1344 107.625H65.6656V101.352L64.5484 101.625C64.538 101.63 64.5224 101.635 64.5016 101.641C64.4859 101.641 64.4651 101.641 64.4391 101.641C64.2828 101.641 64.137 101.578 64.0016 101.453C63.8661 101.323 63.7984 101.177 63.7984 101.016C63.7984 100.839 63.8349 100.698 63.9078 100.594C63.9859 100.484 64.0979 100.406 64.2438 100.359L66.4234 99.7344C66.4443 99.7344 66.4573 99.7318 66.4625 99.7266C66.4677 99.7214 66.4807 99.7188 66.5016 99.7188H66.5484C66.6578 99.7188 66.7516 99.7526 66.8297 99.8203C66.9078 99.8828 66.9469 99.9714 66.9469 100.086L67.1109 101.562C67.4703 101.016 67.9417 100.573 68.525 100.234C69.1135 99.8906 69.8635 99.7188 70.775 99.7188C70.9469 99.7188 71.0979 99.7708 71.2281 99.875C71.3635 99.974 71.4313 100.115 71.4313 100.297V101.961C71.4313 102.18 71.3688 102.341 71.2438 102.445C71.1188 102.549 70.9573 102.602 70.7594 102.602C70.5667 102.602 70.4 102.555 70.2594 102.461C70.124 102.362 70.0563 102.211 70.0563 102.008V101.141Z" fill="white"/>
<g filter="url(#filter0_d)">
<path fill-rule="evenodd" clip-rule="evenodd" d="M42 81C64.0914 81 82 63.0914 82 41C82 18.9086 64.0914 1 42 1C19.9086 1 2 18.9086 2 41C2 63.0914 19.9086 81 42 81ZM50.6057 46.3949H34.7266C34.2425 46.3949 33.8477 46.7888 33.8477 47.2738C33.8477 47.7588 34.2425 48.1527 34.7266 48.1527H50.6057C51.0916 48.1527 51.4846 48.5459 51.4846 49.0316C51.4846 49.5175 51.0916 49.9105 50.6057 49.9105H48.884C50.3215 49.93 51.4846 51.1052 51.4846 52.547C51.4846 54.0011 50.3019 55.1837 48.8479 55.1837C47.394 55.1837 46.2112 54.0011 46.2112 52.547C46.2112 51.1052 47.3745 49.93 48.8117 49.9105H36.5207C37.9579 49.93 39.1212 51.1052 39.1212 52.547C39.1212 54.0011 37.9384 55.1837 36.4845 55.1837C35.0304 55.1837 33.8476 54.0011 33.8476 52.547C33.8476 51.1052 35.0109 49.93 36.4483 49.9105H34.7266C33.2727 49.9105 32.0898 48.7277 32.0898 47.2738C32.0898 46.1921 32.7456 45.2626 33.6794 44.8566L30.5055 30.5744H25.8789C25.3932 30.5744 25 30.1814 25 29.6955C25 29.2098 25.3932 28.8166 25.8789 28.8166H31.2109C31.6229 28.8166 31.98 29.1024 32.0692 29.505L32.6975 32.3322H54.1213C54.3978 32.3322 54.6569 32.462 54.8235 32.6817C54.9899 32.9021 55.0417 33.1871 54.9661 33.4523L51.4503 45.7572C51.3438 46.1349 50.9989 46.3949 50.6057 46.3949Z" fill="white"/>
</g>
<defs>
<filter id="filter0_d" x="0" y="0" width="84" height="84" filterUnits="userSpaceOnUse" color-interpolation-filters="sRGB">
<feFlood flood-opacity="0" result="BackgroundImageFix"/>
<feColorMatrix in="SourceAlpha" type="matrix" values="0 0 0 0 0 0 0 0 0 0 0 0 0 0 0 0 0 0 127 0"/>
<feOffset dy="1"/>
<feGaussianBlur stdDeviation="1"/>
<feColorMatrix type="matrix" values="0 0 0 0 0 0 0 0 0 0 0 0 0 0 0 0 0 0 0.1 0"/>
<feBlend mode="normal" in2="BackgroundImageFix" result="effect1_dropShadow"/>
<feBlend mode="normal" in="SourceGraphic" in2="effect1_dropShadow" result="shape"/>
</filter>
</defs>
</svg>
