<svg width="320" height="91" viewBox="0 0 320 91" fill="none" xmlns="http://www.w3.org/2000/svg">
<rect width="320" height="44" rx="10" fill="white"/>
<path d="M56.2344 18.7266C57.4323 18.7266 58.3385 18.9974 58.9531 19.5391C59.5729 20.0755 59.8828 20.8516 59.8828 21.8672C59.8828 22.8828 59.5729 23.6615 58.9531 24.2031C58.3385 24.7448 57.4323 25.0156 56.2344 25.0156H55.0625V26.3984H56.7578C56.8828 26.3984 56.9792 26.4219 57.0469 26.4688C57.1146 26.5104 57.1641 26.5885 57.1953 26.7031C57.2318 26.8177 57.25 26.9844 57.25 27.2031C57.25 27.4219 57.2318 27.5885 57.1953 27.7031C57.1641 27.8177 57.1146 27.8958 57.0469 27.9375C56.9792 27.9792 56.8828 28 56.7578 28H51.9609C51.8359 28 51.7396 27.9792 51.6719 27.9375C51.6042 27.8958 51.5521 27.8177 51.5156 27.7031C51.4844 27.5885 51.4688 27.4219 51.4688 27.2031C51.4688 26.9844 51.4844 26.8177 51.5156 26.7031C51.5521 26.5885 51.6042 26.5104 51.6719 26.4688C51.7396 26.4219 51.8359 26.3984 51.9609 26.3984H53.1094V20.3281H51.9609C51.8359 20.3281 51.7396 20.3073 51.6719 20.2656C51.6042 20.224 51.5521 20.1458 51.5156 20.0312C51.4844 19.9167 51.4688 19.75 51.4688 19.5312C51.4688 19.3125 51.4844 19.1458 51.5156 19.0312C51.5521 18.9167 51.6042 18.8385 51.6719 18.7969C51.7396 18.75 51.8359 18.7266 51.9609 18.7266H56.2344ZM55.0625 23.3359H55.9922C56.612 23.3359 57.0781 23.2161 57.3906 22.9766C57.7083 22.737 57.8672 22.3672 57.8672 21.8672C57.8672 21.3672 57.7083 21 57.3906 20.7656C57.0781 20.526 56.612 20.4062 55.9922 20.4062H55.0625V23.3359ZM67.5063 17.75C67.6833 17.75 67.8083 17.7891 67.8813 17.8672C67.9594 17.9401 67.9984 18.0651 67.9984 18.2422V26.3984H70.1938C70.3188 26.3984 70.4151 26.4219 70.4828 26.4688C70.5505 26.5104 70.6 26.5885 70.6313 26.7031C70.6677 26.8177 70.6859 26.9844 70.6859 27.2031C70.6859 27.4219 70.6677 27.5885 70.6313 27.7031C70.6 27.8177 70.5505 27.8958 70.4828 27.9375C70.4151 27.9792 70.3188 28 70.1938 28H63.9125C63.7875 28 63.6911 27.9792 63.6234 27.9375C63.5557 27.8958 63.5036 27.8177 63.4672 27.7031C63.4359 27.5885 63.4203 27.4219 63.4203 27.2031C63.4203 26.9844 63.4359 26.8177 63.4672 26.7031C63.5036 26.5885 63.5557 26.5104 63.6234 26.4688C63.6911 26.4219 63.7875 26.3984 63.9125 26.3984H66.0453V19.3516H64.225C64.1 19.3516 64.0036 19.3307 63.9359 19.2891C63.8682 19.2474 63.8161 19.1693 63.7797 19.0547C63.7484 18.9401 63.7328 18.7734 63.7328 18.5547C63.7328 18.3359 63.7484 18.1693 63.7797 18.0547C63.8161 17.9401 63.8682 17.862 63.9359 17.8203C64.0036 17.7734 64.1 17.75 64.225 17.75H67.5063ZM78.0984 20.6094C79.2443 20.6094 80.0724 20.8568 80.5828 21.3516C81.0932 21.8464 81.3484 22.5547 81.3484 23.4766V25.7344C81.3484 25.9427 81.3927 26.1068 81.4813 26.2266C81.5698 26.3411 81.6974 26.3984 81.8641 26.3984H82.1063C82.2313 26.3984 82.3276 26.4219 82.3953 26.4688C82.463 26.5104 82.5125 26.5885 82.5438 26.7031C82.5802 26.8177 82.5984 26.9844 82.5984 27.2031C82.5984 27.4219 82.5802 27.5885 82.5438 27.7031C82.5125 27.8177 82.463 27.8958 82.3953 27.9375C82.3276 27.9792 82.2313 28 82.1063 28H81.2313C80.9083 28 80.6219 27.9349 80.3719 27.8047C80.1271 27.6693 79.9396 27.4583 79.8094 27.1719C79.3979 27.4896 78.963 27.737 78.5047 27.9141C78.0464 28.0859 77.575 28.1719 77.0906 28.1719C76.5021 28.1719 75.9943 28.0729 75.5672 27.875C75.1401 27.6719 74.812 27.3854 74.5828 27.0156C74.3589 26.6406 74.2469 26.2005 74.2469 25.6953C74.2469 24.9661 74.5047 24.401 75.0203 24C75.5359 23.599 76.2573 23.3984 77.1844 23.3984C77.8771 23.3984 78.6141 23.4766 79.3953 23.6328V23.4062C79.3953 23.0573 79.2859 22.7995 79.0672 22.6328C78.8484 22.4661 78.463 22.3828 77.9109 22.3828C77.6036 22.3828 77.2599 22.4219 76.8797 22.5C76.5047 22.5729 76.1323 22.6719 75.7625 22.7969C75.674 22.8229 75.5984 22.8359 75.5359 22.8359C75.4057 22.8359 75.2885 22.7891 75.1844 22.6953C75.0854 22.5964 74.9943 22.4323 74.9109 22.2031C74.8328 21.974 74.7938 21.7865 74.7938 21.6406C74.7938 21.375 74.9135 21.1979 75.1531 21.1094C75.6167 20.9427 76.1089 20.8177 76.6297 20.7344C77.1505 20.651 77.6401 20.6094 78.0984 20.6094ZM77.3797 25.0078C77.0151 25.0078 76.7365 25.0729 76.5438 25.2031C76.3563 25.3333 76.2625 25.5234 76.2625 25.7734C76.2625 26.0182 76.3536 26.2057 76.5359 26.3359C76.7234 26.4609 76.9917 26.5234 77.3406 26.5234C77.7 26.5234 78.0542 26.4531 78.4031 26.3125C78.7573 26.1667 79.088 25.9688 79.3953 25.7188V25.2188C78.7078 25.0781 78.0359 25.0078 77.3797 25.0078ZM92.0422 20.6094C92.3651 20.6094 92.5865 20.6458 92.7062 20.7188C92.826 20.7917 92.8859 20.9193 92.8859 21.1016V23.6094C92.8859 23.7865 92.8052 23.9141 92.6437 23.9922C92.4875 24.0651 92.2245 24.1016 91.8547 24.1016C91.6099 24.1016 91.4198 24.0859 91.2844 24.0547C91.1542 24.0182 91.063 23.9661 91.0109 23.8984C90.9589 23.8307 90.9328 23.7344 90.9328 23.6094C90.9328 23.3906 90.8781 23.1875 90.7687 23C90.6646 22.8125 90.5057 22.6641 90.2922 22.5547C90.0839 22.4401 89.8312 22.3828 89.5344 22.3828C89.1594 22.3828 88.8312 22.4661 88.55 22.6328C88.2687 22.7943 88.05 23.0286 87.8937 23.3359C87.7427 23.638 87.6672 23.9896 87.6672 24.3906C87.6672 24.7917 87.7427 25.1458 87.8937 25.4531C88.05 25.7552 88.2687 25.9896 88.55 26.1562C88.8312 26.3177 89.1594 26.3984 89.5344 26.3984C89.9354 26.3984 90.3443 26.3333 90.7609 26.2031C91.1828 26.0729 91.5917 25.8932 91.9875 25.6641C92.0812 25.612 92.1672 25.5859 92.2453 25.5859C92.4797 25.5859 92.6854 25.7917 92.8625 26.2031C92.9562 26.4271 93.0031 26.6172 93.0031 26.7734C93.0031 27.0078 92.8911 27.1875 92.6672 27.3125C92.1828 27.5833 91.6724 27.7943 91.1359 27.9453C90.6047 28.0964 90.0708 28.1719 89.5344 28.1719C88.7427 28.1719 88.0474 28.0104 87.4484 27.6875C86.8495 27.3646 86.3859 26.9167 86.0578 26.3438C85.7349 25.7708 85.5734 25.1198 85.5734 24.3906C85.5734 23.6615 85.7375 23.0104 86.0656 22.4375C86.3937 21.8594 86.8391 21.4115 87.4016 21.0938C87.9693 20.7708 88.6021 20.6094 89.3 20.6094C90.1437 20.6094 90.7401 20.9141 91.0891 21.5234V21.1016C91.0891 20.9245 91.1646 20.7995 91.3156 20.7266C91.4667 20.6484 91.7089 20.6094 92.0422 20.6094ZM100.681 20.6094C101.473 20.6094 102.147 20.7812 102.705 21.125C103.262 21.4635 103.681 21.9375 103.963 22.5469C104.249 23.151 104.392 23.8438 104.392 24.625C104.392 24.8021 104.353 24.9271 104.275 25C104.202 25.0729 104.077 25.1094 103.9 25.1094H98.8844C98.9833 25.526 99.1943 25.8464 99.5172 26.0703C99.8453 26.2891 100.259 26.3984 100.759 26.3984C101.567 26.3984 102.442 26.2552 103.384 25.9688C103.447 25.9479 103.509 25.9375 103.572 25.9375C103.686 25.9375 103.785 25.9896 103.869 26.0938C103.952 26.1979 104.028 26.375 104.095 26.625C104.147 26.8177 104.173 26.9818 104.173 27.1172C104.173 27.2526 104.142 27.3594 104.08 27.4375C104.022 27.5104 103.926 27.5703 103.791 27.6172C103.27 27.7891 102.739 27.9245 102.197 28.0234C101.655 28.1224 101.124 28.1719 100.603 28.1719C99.8115 28.1719 99.1292 28.0104 98.5563 27.6875C97.9833 27.3646 97.5458 26.9193 97.2438 26.3516C96.9469 25.7786 96.7984 25.125 96.7984 24.3906C96.7984 23.6615 96.9547 23.0104 97.2672 22.4375C97.5797 21.8646 98.0302 21.4167 98.6188 21.0938C99.2073 20.7708 99.8948 20.6094 100.681 20.6094ZM100.681 22.3828C99.7281 22.3828 99.1396 22.7839 98.9156 23.5859H102.353C102.265 23.2057 102.074 22.9115 101.783 22.7031C101.496 22.4896 101.129 22.3828 100.681 22.3828ZM126.952 20.7812C127.077 20.7812 127.173 20.8047 127.241 20.8516C127.308 20.8932 127.358 20.9714 127.389 21.0859C127.426 21.2005 127.444 21.3672 127.444 21.5859C127.444 21.8047 127.426 21.9714 127.389 22.0859C127.358 22.2005 127.308 22.2786 127.241 22.3203C127.173 22.362 127.077 22.3828 126.952 22.3828H126.452L123.459 28.4453C123.095 29.1797 122.746 29.737 122.412 30.1172C122.084 30.5026 121.707 30.7734 121.28 30.9297C120.858 31.0911 120.311 31.1823 119.639 31.2031C119.452 31.2083 119.308 31.138 119.209 30.9922C119.116 30.8464 119.069 30.5807 119.069 30.1953C119.069 29.9297 119.103 29.7396 119.17 29.625C119.243 29.5104 119.345 29.4479 119.475 29.4375C119.886 29.4115 120.22 29.3333 120.475 29.2031C120.735 29.0729 120.97 28.8646 121.178 28.5781C121.392 28.2969 121.647 27.8698 121.944 27.2969L119.553 22.3828H118.967C118.842 22.3828 118.746 22.362 118.678 22.3203C118.61 22.2786 118.558 22.2005 118.522 22.0859C118.491 21.9714 118.475 21.8047 118.475 21.5859C118.475 21.3672 118.491 21.2005 118.522 21.0859C118.558 20.9714 118.61 20.8932 118.678 20.8516C118.746 20.8047 118.842 20.7812 118.967 20.7812H122.123C122.248 20.7812 122.345 20.8047 122.412 20.8516C122.48 20.8932 122.53 20.9714 122.561 21.0859C122.597 21.2005 122.616 21.3672 122.616 21.5859C122.616 21.8047 122.597 21.9714 122.561 22.0859C122.53 22.2005 122.48 22.2786 122.412 22.3203C122.345 22.362 122.248 22.3828 122.123 22.3828H121.655L123.014 25.3516L124.373 22.3828H123.952C123.827 22.3828 123.73 22.362 123.662 22.3203C123.595 22.2786 123.543 22.2005 123.506 22.0859C123.475 21.9714 123.459 21.8047 123.459 21.5859C123.459 21.3672 123.475 21.2005 123.506 21.0859C123.543 20.9714 123.595 20.8932 123.662 20.8516C123.73 20.8047 123.827 20.7812 123.952 20.7812H126.952ZM134.153 20.6094C134.945 20.6094 135.637 20.7708 136.231 21.0938C136.825 21.4167 137.281 21.8646 137.598 22.4375C137.921 23.0104 138.083 23.6615 138.083 24.3906C138.083 25.1198 137.921 25.7708 137.598 26.3438C137.281 26.9167 136.825 27.3646 136.231 27.6875C135.637 28.0104 134.945 28.1719 134.153 28.1719C133.361 28.1719 132.669 28.0104 132.075 27.6875C131.481 27.3646 131.023 26.9167 130.7 26.3438C130.382 25.7708 130.223 25.1198 130.223 24.3906C130.223 23.6615 130.382 23.0104 130.7 22.4375C131.023 21.8646 131.481 21.4167 132.075 21.0938C132.669 20.7708 133.361 20.6094 134.153 20.6094ZM134.153 22.3828C133.778 22.3828 133.453 22.4661 133.177 22.6328C132.901 22.7943 132.687 23.026 132.536 23.3281C132.39 23.6302 132.317 23.9844 132.317 24.3906C132.317 24.7969 132.39 25.151 132.536 25.4531C132.687 25.7552 132.901 25.9896 133.177 26.1562C133.453 26.3177 133.778 26.3984 134.153 26.3984C134.528 26.3984 134.854 26.3177 135.13 26.1562C135.406 25.9896 135.617 25.7552 135.762 25.4531C135.914 25.151 135.989 24.7969 135.989 24.3906C135.989 23.9844 135.914 23.6302 135.762 23.3281C135.617 23.026 135.406 22.7943 135.13 22.6328C134.854 22.4661 134.528 22.3828 134.153 22.3828ZM148.12 20.7812C148.297 20.7812 148.422 20.8203 148.495 20.8984C148.573 20.9714 148.613 21.0964 148.613 21.2734V26.3984H149.214C149.339 26.3984 149.435 26.4193 149.503 26.4609C149.571 26.5026 149.62 26.5807 149.652 26.6953C149.688 26.8099 149.706 26.9766 149.706 27.1953C149.706 27.4141 149.688 27.5807 149.652 27.6953C149.62 27.8099 149.571 27.8906 149.503 27.9375C149.435 27.9792 149.339 28 149.214 28H147.464C147.287 28 147.159 27.9635 147.081 27.8906C147.008 27.8125 146.972 27.6849 146.972 27.5078V26.375C146.284 27.5729 145.425 28.1719 144.394 28.1719C143.92 28.1719 143.503 28.0677 143.144 27.8594C142.79 27.651 142.516 27.3568 142.323 26.9766C142.131 26.5911 142.034 26.1406 142.034 25.625V22.3828H141.433C141.308 22.3828 141.211 22.362 141.144 22.3203C141.076 22.2734 141.024 22.1927 140.988 22.0781C140.956 21.9635 140.941 21.7969 140.941 21.5781C140.941 21.3594 140.956 21.1927 140.988 21.0781C141.024 20.9635 141.076 20.8854 141.144 20.8438C141.211 20.8021 141.308 20.7812 141.433 20.7812H143.495C143.672 20.7812 143.797 20.8203 143.87 20.8984C143.948 20.9714 143.988 21.0964 143.988 21.2734V25.1641C143.988 25.5703 144.058 25.8776 144.198 26.0859C144.339 26.2943 144.573 26.3984 144.902 26.3984C145.204 26.3984 145.49 26.2734 145.761 26.0234C146.032 25.7682 146.248 25.4297 146.409 25.0078C146.576 24.5859 146.659 24.1354 146.659 23.6562V22.3828H145.823C145.698 22.3828 145.602 22.362 145.534 22.3203C145.467 22.2734 145.415 22.1927 145.378 22.0781C145.347 21.9635 145.331 21.7969 145.331 21.5781C145.331 21.3594 145.347 21.1927 145.378 21.0781C145.415 20.9635 145.467 20.8854 145.534 20.8438C145.602 20.8021 145.698 20.7812 145.823 20.7812H148.12ZM158.986 20.6094C159.429 20.6094 159.845 20.7552 160.236 21.0469C160.465 21.2135 160.58 21.4323 160.58 21.7031C160.58 21.875 160.533 22.0781 160.439 22.3125C160.345 22.5469 160.239 22.724 160.119 22.8438C160.004 22.9635 159.882 23.0234 159.752 23.0234C159.679 23.0234 159.601 23.0026 159.517 22.9609C159.226 22.7995 158.923 22.7188 158.611 22.7188C158.21 22.7188 157.835 22.8464 157.486 23.1016C157.137 23.3568 156.856 23.7083 156.642 24.1562C156.434 24.6042 156.33 25.1042 156.33 25.6562V26.3984H158.572C158.697 26.3984 158.793 26.4219 158.861 26.4688C158.929 26.5104 158.978 26.5885 159.009 26.7031C159.046 26.8177 159.064 26.9844 159.064 27.2031C159.064 27.4219 159.046 27.5885 159.009 27.7031C158.978 27.8177 158.929 27.8958 158.861 27.9375C158.793 27.9792 158.697 28 158.572 28H153.228C153.103 28 153.007 27.9792 152.939 27.9375C152.871 27.8958 152.819 27.8177 152.783 27.7031C152.752 27.5885 152.736 27.4219 152.736 27.2031C152.736 26.9844 152.752 26.8177 152.783 26.7031C152.819 26.5885 152.871 26.5104 152.939 26.4688C153.007 26.4219 153.103 26.3984 153.228 26.3984H154.377V22.3828H153.463C153.338 22.3828 153.241 22.362 153.173 22.3203C153.106 22.2786 153.054 22.2005 153.017 22.0859C152.986 21.9714 152.97 21.8047 152.97 21.5859C152.97 21.3672 152.986 21.2005 153.017 21.0859C153.054 20.9714 153.106 20.8932 153.173 20.8516C153.241 20.8047 153.338 20.7812 153.463 20.7812H155.603C155.78 20.7812 155.905 20.8203 155.978 20.8984C156.056 20.9714 156.095 21.0964 156.095 21.2734V22.9688C156.486 22.2135 156.934 21.6328 157.439 21.2266C157.949 20.8151 158.465 20.6094 158.986 20.6094ZM178.928 20.6094C179.72 20.6094 180.412 20.7708 181.006 21.0938C181.6 21.4167 182.056 21.8646 182.373 22.4375C182.696 23.0104 182.858 23.6615 182.858 24.3906C182.858 25.1198 182.696 25.7708 182.373 26.3438C182.056 26.9167 181.6 27.3646 181.006 27.6875C180.412 28.0104 179.72 28.1719 178.928 28.1719C178.136 28.1719 177.444 28.0104 176.85 27.6875C176.256 27.3646 175.798 26.9167 175.475 26.3438C175.157 25.7708 174.998 25.1198 174.998 24.3906C174.998 23.6615 175.157 23.0104 175.475 22.4375C175.798 21.8646 176.256 21.4167 176.85 21.0938C177.444 20.7708 178.136 20.6094 178.928 20.6094ZM178.928 22.3828C178.553 22.3828 178.228 22.4661 177.952 22.6328C177.676 22.7943 177.462 23.026 177.311 23.3281C177.165 23.6302 177.092 23.9844 177.092 24.3906C177.092 24.7969 177.165 25.151 177.311 25.4531C177.462 25.7552 177.676 25.9896 177.952 26.1562C178.228 26.3177 178.553 26.3984 178.928 26.3984C179.303 26.3984 179.629 26.3177 179.905 26.1562C180.181 25.9896 180.392 25.7552 180.537 25.4531C180.689 25.151 180.764 24.7969 180.764 24.3906C180.764 23.9844 180.689 23.6302 180.537 23.3281C180.392 23.026 180.181 22.7943 179.905 22.6328C179.629 22.4661 179.303 22.3828 178.928 22.3828ZM192.567 20.6094C193.01 20.6094 193.427 20.7552 193.817 21.0469C194.046 21.2135 194.161 21.4323 194.161 21.7031C194.161 21.875 194.114 22.0781 194.02 22.3125C193.927 22.5469 193.82 22.724 193.7 22.8438C193.585 22.9635 193.463 23.0234 193.333 23.0234C193.26 23.0234 193.182 23.0026 193.098 22.9609C192.807 22.7995 192.505 22.7188 192.192 22.7188C191.791 22.7188 191.416 22.8464 191.067 23.1016C190.718 23.3568 190.437 23.7083 190.223 24.1562C190.015 24.6042 189.911 25.1042 189.911 25.6562V26.3984H192.153C192.278 26.3984 192.374 26.4219 192.442 26.4688C192.51 26.5104 192.559 26.5885 192.591 26.7031C192.627 26.8177 192.645 26.9844 192.645 27.2031C192.645 27.4219 192.627 27.5885 192.591 27.7031C192.559 27.8177 192.51 27.8958 192.442 27.9375C192.374 27.9792 192.278 28 192.153 28H186.809C186.684 28 186.588 27.9792 186.52 27.9375C186.453 27.8958 186.401 27.8177 186.364 27.7031C186.333 27.5885 186.317 27.4219 186.317 27.2031C186.317 26.9844 186.333 26.8177 186.364 26.7031C186.401 26.5885 186.453 26.5104 186.52 26.4688C186.588 26.4219 186.684 26.3984 186.809 26.3984H187.958V22.3828H187.044C186.919 22.3828 186.822 22.362 186.755 22.3203C186.687 22.2786 186.635 22.2005 186.598 22.0859C186.567 21.9714 186.552 21.8047 186.552 21.5859C186.552 21.3672 186.567 21.2005 186.598 21.0859C186.635 20.9714 186.687 20.8932 186.755 20.8516C186.822 20.8047 186.919 20.7812 187.044 20.7812H189.184C189.361 20.7812 189.486 20.8203 189.559 20.8984C189.637 20.9714 189.677 21.0964 189.677 21.2734V22.9688C190.067 22.2135 190.515 21.6328 191.02 21.2266C191.531 20.8151 192.046 20.6094 192.567 20.6094ZM204.159 17.75C204.336 17.75 204.461 17.7891 204.534 17.8672C204.613 17.9401 204.652 18.0651 204.652 18.2422V26.3984H205.331C205.456 26.3984 205.553 26.4193 205.62 26.4609C205.688 26.5026 205.738 26.5807 205.769 26.6953C205.805 26.8099 205.823 26.9766 205.823 27.1953C205.823 27.4141 205.805 27.5807 205.769 27.6953C205.738 27.8099 205.688 27.8906 205.62 27.9375C205.553 27.9792 205.456 28 205.331 28H203.503C203.326 28 203.198 27.9635 203.12 27.8906C203.047 27.8125 203.011 27.6849 203.011 27.5078V26.8516C202.74 27.2682 202.402 27.5938 201.995 27.8281C201.589 28.0573 201.139 28.1719 200.644 28.1719C199.961 28.1719 199.365 28.0052 198.855 27.6719C198.344 27.3385 197.954 26.8854 197.683 26.3125C197.412 25.7396 197.277 25.099 197.277 24.3906C197.277 23.6823 197.412 23.0417 197.683 22.4688C197.954 21.8958 198.344 21.4427 198.855 21.1094C199.365 20.776 199.961 20.6094 200.644 20.6094C201.05 20.6094 201.428 20.6901 201.777 20.8516C202.126 21.0078 202.433 21.2344 202.698 21.5312V19.3516H201.55C201.425 19.3516 201.329 19.3307 201.261 19.2891C201.193 19.2474 201.141 19.1693 201.105 19.0547C201.073 18.9401 201.058 18.7734 201.058 18.5547C201.058 18.3359 201.073 18.1693 201.105 18.0547C201.141 17.9401 201.193 17.862 201.261 17.8203C201.329 17.7734 201.425 17.75 201.55 17.75H204.159ZM200.956 22.3828C200.633 22.3828 200.352 22.4661 200.113 22.6328C199.873 22.7943 199.688 23.026 199.558 23.3281C199.433 23.6302 199.37 23.9844 199.37 24.3906C199.37 24.7969 199.433 25.151 199.558 25.4531C199.688 25.7552 199.873 25.9896 200.113 26.1562C200.352 26.3177 200.633 26.3984 200.956 26.3984C201.29 26.3984 201.592 26.3203 201.863 26.1641C202.133 26.0078 202.349 25.7786 202.511 25.4766C202.672 25.1693 202.753 24.8073 202.753 24.3906C202.753 23.974 202.672 23.6146 202.511 23.3125C202.349 23.0052 202.133 22.7734 201.863 22.6172C201.592 22.4609 201.29 22.3828 200.956 22.3828ZM212.619 20.6094C213.41 20.6094 214.085 20.7812 214.642 21.125C215.199 21.4635 215.619 21.9375 215.9 22.5469C216.186 23.151 216.33 23.8438 216.33 24.625C216.33 24.8021 216.291 24.9271 216.212 25C216.14 25.0729 216.015 25.1094 215.837 25.1094H210.822C210.921 25.526 211.132 25.8464 211.455 26.0703C211.783 26.2891 212.197 26.3984 212.697 26.3984C213.504 26.3984 214.379 26.2552 215.322 25.9688C215.384 25.9479 215.447 25.9375 215.509 25.9375C215.624 25.9375 215.723 25.9896 215.806 26.0938C215.89 26.1979 215.965 26.375 216.033 26.625C216.085 26.8177 216.111 26.9818 216.111 27.1172C216.111 27.2526 216.08 27.3594 216.017 27.4375C215.96 27.5104 215.864 27.5703 215.728 27.6172C215.207 27.7891 214.676 27.9245 214.134 28.0234C213.593 28.1224 213.061 28.1719 212.541 28.1719C211.749 28.1719 211.067 28.0104 210.494 27.6875C209.921 27.3646 209.483 26.9193 209.181 26.3516C208.884 25.7786 208.736 25.125 208.736 24.3906C208.736 23.6615 208.892 23.0104 209.205 22.4375C209.517 21.8646 209.968 21.4167 210.556 21.0938C211.145 20.7708 211.832 20.6094 212.619 20.6094ZM212.619 22.3828C211.666 22.3828 211.077 22.7839 210.853 23.5859H214.291C214.202 23.2057 214.012 22.9115 213.72 22.7031C213.434 22.4896 213.067 22.3828 212.619 22.3828ZM226.148 20.6094C226.591 20.6094 227.008 20.7552 227.398 21.0469C227.628 21.2135 227.742 21.4323 227.742 21.7031C227.742 21.875 227.695 22.0781 227.602 22.3125C227.508 22.5469 227.401 22.724 227.281 22.8438C227.167 22.9635 227.044 23.0234 226.914 23.0234C226.841 23.0234 226.763 23.0026 226.68 22.9609C226.388 22.7995 226.086 22.7188 225.773 22.7188C225.372 22.7188 224.997 22.8464 224.648 23.1016C224.299 23.3568 224.018 23.7083 223.805 24.1562C223.596 24.6042 223.492 25.1042 223.492 25.6562V26.3984H225.734C225.859 26.3984 225.956 26.4219 226.023 26.4688C226.091 26.5104 226.141 26.5885 226.172 26.7031C226.208 26.8177 226.227 26.9844 226.227 27.2031C226.227 27.4219 226.208 27.5885 226.172 27.7031C226.141 27.8177 226.091 27.8958 226.023 27.9375C225.956 27.9792 225.859 28 225.734 28H220.391C220.266 28 220.169 27.9792 220.102 27.9375C220.034 27.8958 219.982 27.8177 219.945 27.7031C219.914 27.5885 219.898 27.4219 219.898 27.2031C219.898 26.9844 219.914 26.8177 219.945 26.7031C219.982 26.5885 220.034 26.5104 220.102 26.4688C220.169 26.4219 220.266 26.3984 220.391 26.3984H221.539V22.3828H220.625C220.5 22.3828 220.404 22.362 220.336 22.3203C220.268 22.2786 220.216 22.2005 220.18 22.0859C220.148 21.9714 220.133 21.8047 220.133 21.5859C220.133 21.3672 220.148 21.2005 220.18 21.0859C220.216 20.9714 220.268 20.8932 220.336 20.8516C220.404 20.8047 220.5 20.7812 220.625 20.7812H222.766C222.943 20.7812 223.068 20.8203 223.141 20.8984C223.219 20.9714 223.258 21.0964 223.258 21.2734V22.9688C223.648 22.2135 224.096 21.6328 224.602 21.2266C225.112 20.8151 225.628 20.6094 226.148 20.6094ZM234.897 23.3594C234.444 23.3594 234.116 23.3229 233.913 23.25C233.709 23.1719 233.608 23.0443 233.608 22.8672V21.1953C233.608 21.0182 233.709 20.8932 233.913 20.8203C234.116 20.7422 234.444 20.7031 234.897 20.7031C235.35 20.7031 235.678 20.7422 235.881 20.8203C236.084 20.8932 236.186 21.0182 236.186 21.1953V22.8672C236.186 23.0443 236.084 23.1719 235.881 23.25C235.678 23.3229 235.35 23.3594 234.897 23.3594ZM234.897 28.0781C234.444 28.0781 234.116 28.0417 233.913 27.9688C233.709 27.8906 233.608 27.763 233.608 27.5859V25.9141C233.608 25.737 233.709 25.612 233.913 25.5391C234.116 25.4609 234.444 25.4219 234.897 25.4219C235.35 25.4219 235.678 25.4609 235.881 25.5391C236.084 25.612 236.186 25.737 236.186 25.9141V27.5859C236.186 27.763 236.084 27.8906 235.881 27.9688C235.678 28.0417 235.35 28.0781 234.897 28.0781Z" fill="#CFB284"/>
<g clip-path="url(#clip0)">
<path d="M18.7266 26.3948H34.6057C34.9989 26.3948 35.3438 26.1348 35.4503 25.7571L38.9661 13.4522C39.0417 13.1869 38.9899 12.9019 38.8235 12.6815C38.6569 12.4618 38.3978 12.332 38.1213 12.332H16.6975L16.0692 9.50488C15.98 9.10228 15.6229 8.81641 15.2109 8.81641H9.87891C9.39322 8.81641 9 9.20963 9 9.69531C9 10.1812 9.39322 10.5742 9.87891 10.5742H14.5055L17.6794 24.8564C16.7456 25.2625 16.0898 26.192 16.0898 27.2737C16.0898 28.7275 17.2727 29.9104 18.7266 29.9104H34.6057C35.0916 29.9104 35.4846 29.5174 35.4846 29.0315C35.4846 28.5458 35.0916 28.1526 34.6057 28.1526H18.7266C18.2425 28.1526 17.8477 27.7587 17.8477 27.2737C17.8477 26.7887 18.2425 26.3948 18.7266 26.3948Z" fill="#CFB284"/>
<path d="M17.8477 32.5469C17.8477 34.001 19.0305 35.1836 20.4846 35.1836C21.9385 35.1836 23.1213 34.001 23.1213 32.5469C23.1213 31.093 21.9385 29.9102 20.4846 29.9102C19.0305 29.9102 17.8477 31.093 17.8477 32.5469Z" fill="#CFB284"/>
<path d="M30.2112 32.5469C30.2112 34.001 31.394 35.1836 32.8479 35.1836C34.302 35.1836 35.4846 34.001 35.4846 32.5469C35.4846 31.093 34.302 29.9102 32.8479 29.9102C31.394 29.9102 30.2112 31.093 30.2112 32.5469Z" fill="#CFB284"/>
</g>
<rect y="55" width="320" height="36" rx="10" fill="white"/>
<path fill-rule="evenodd" clip-rule="evenodd" d="M33.7906 64.1756C31.598 61.9803 28.6819 60.7708 25.5752 60.7695C19.1737 60.7695 13.9638 65.9793 13.9612 72.3826C13.9603 74.4295 14.4951 76.4276 15.5114 78.1889L13.8638 84.207L20.0205 82.592C21.717 83.5174 23.6269 84.005 25.5705 84.0056H25.5754C31.9762 84.0056 37.1867 78.7954 37.1891 72.3919C37.1904 69.2885 35.9835 66.3707 33.7906 64.1756ZM25.5752 82.0442H25.5712C23.8392 82.0435 22.1404 81.578 20.6581 80.6987L20.3058 80.4894L16.6523 81.4479L17.6274 77.8857L17.3978 77.5205C16.4315 75.9836 15.9213 74.2072 15.9221 72.3833C15.9241 67.0611 20.2546 62.731 25.5791 62.731C28.1574 62.7319 30.5812 63.7373 32.4036 65.5619C34.2261 67.3865 35.2292 69.8118 35.2283 72.3911C35.226 77.7138 30.8959 82.0442 25.5752 82.0442V82.0442ZM30.8701 74.8146C30.58 74.6692 29.1532 73.9674 28.8871 73.8704C28.6214 73.7736 28.4277 73.7254 28.2344 74.0158C28.0409 74.3062 27.4848 74.9599 27.3154 75.1535C27.1461 75.3472 26.977 75.3715 26.6867 75.2261C26.3965 75.0809 25.4615 74.7744 24.353 73.7858C23.4904 73.0163 22.908 72.066 22.7387 71.7756C22.5696 71.4849 22.7372 71.343 22.866 71.1834C23.1801 70.7933 23.4947 70.3843 23.5914 70.1907C23.6882 69.997 23.6397 69.8275 23.5671 69.6823C23.4947 69.5371 22.9143 68.1088 22.6726 67.5276C22.4368 66.9619 22.1978 67.0383 22.0195 67.0294C21.8505 67.021 21.6569 67.0193 21.4634 67.0193C21.27 67.0193 20.9555 67.0918 20.6895 67.3825C20.4235 67.673 19.6739 68.375 19.6739 69.8034C19.6739 71.2317 20.7138 72.6116 20.8588 72.8053C21.0039 72.999 22.9052 75.9301 25.8161 77.1869C26.5085 77.4862 27.0489 77.6646 27.4705 77.7983C28.1657 78.0192 28.7982 77.988 29.2983 77.9133C29.8559 77.83 31.015 77.2113 31.2571 76.5335C31.4988 75.8556 31.4988 75.2746 31.4262 75.1535C31.3538 75.0324 31.1602 74.9599 30.8701 74.8146V74.8146Z" fill="#CFB284"/>
<path d="M54.1973 69.9863C54.4115 69.9863 54.5732 70.0023 54.6826 70.0342C54.792 70.0615 54.8649 70.1048 54.9014 70.1641C54.9424 70.2233 54.9629 70.3076 54.9629 70.417V72.249H56.8018C56.9111 72.249 56.9954 72.2695 57.0547 72.3105C57.1139 72.3516 57.1572 72.4268 57.1846 72.5361C57.2165 72.6455 57.2324 72.8073 57.2324 73.0215C57.2324 73.2357 57.2165 73.3975 57.1846 73.5068C57.1572 73.6162 57.1139 73.6914 57.0547 73.7324C56.9954 73.7689 56.9111 73.7871 56.8018 73.7871H54.9629V75.626C54.9629 75.7354 54.9424 75.8197 54.9014 75.8789C54.8649 75.9382 54.792 75.9837 54.6826 76.0156C54.5732 76.043 54.4115 76.0566 54.1973 76.0566C53.9831 76.0566 53.8213 76.043 53.7119 76.0156C53.6025 75.9837 53.5273 75.9382 53.4863 75.8789C53.4453 75.8197 53.4248 75.7354 53.4248 75.626V73.7871H51.5928C51.4834 73.7871 51.3991 73.7689 51.3398 73.7324C51.2806 73.6914 51.235 73.6162 51.2031 73.5068C51.1758 73.3975 51.1621 73.2357 51.1621 73.0215C51.1621 72.8073 51.1758 72.6455 51.2031 72.5361C51.235 72.4268 51.2806 72.3516 51.3398 72.3105C51.3991 72.2695 51.4834 72.249 51.5928 72.249H53.4248V70.417C53.4248 70.3076 53.4453 70.2233 53.4863 70.1641C53.5273 70.1048 53.6025 70.0615 53.7119 70.0342C53.8213 70.0023 53.9831 69.9863 54.1973 69.9863ZM63.8756 68.7354C64.4498 68.7354 64.9579 68.8516 65.4 69.084C65.8421 69.3164 66.2112 69.6514 66.5074 70.0889C66.6943 70.3669 66.8378 70.7041 66.9381 71.1006C67.0429 71.4971 67.0953 71.9255 67.0953 72.3857C67.0953 73.8714 66.676 75.0199 65.8375 75.8311C65.0035 76.6423 63.6979 77.082 61.9205 77.1504C61.802 77.1549 61.7086 77.098 61.6402 76.9795C61.5764 76.861 61.5331 76.6742 61.5104 76.4189C61.5012 76.3415 61.4967 76.2389 61.4967 76.1113C61.4967 75.7148 61.5901 75.5098 61.777 75.4961C62.6064 75.4551 63.2649 75.3503 63.7525 75.1816C64.2447 75.0085 64.6116 74.7601 64.8531 74.4365C65.0947 74.113 65.2496 73.6846 65.318 73.1514C65.0719 73.4248 64.7962 73.6276 64.4908 73.7598C64.1855 73.8874 63.8346 73.9512 63.4381 73.9512C62.9322 73.9512 62.4811 73.8441 62.0846 73.6299C61.6881 73.4111 61.3782 73.1081 61.1549 72.7207C60.9316 72.3333 60.8199 71.889 60.8199 71.3877C60.8199 70.8773 60.9498 70.4215 61.2096 70.0205C61.4739 69.6149 61.8385 69.3005 62.3033 69.0771C62.7682 68.8493 63.2923 68.7354 63.8756 68.7354ZM63.8824 70.2598C63.4905 70.2598 63.176 70.3623 62.9391 70.5674C62.7021 70.7679 62.5836 71.0391 62.5836 71.3809C62.5836 71.7318 62.693 72.0075 62.9117 72.208C63.135 72.404 63.4404 72.502 63.8277 72.502C64.0921 72.502 64.3268 72.4564 64.5318 72.3652C64.7369 72.2741 64.8964 72.1465 65.0104 71.9824C65.1243 71.8184 65.1812 71.6315 65.1812 71.4219C65.1812 71.2122 65.1288 71.0186 65.024 70.8408C64.9238 70.6631 64.7734 70.5218 64.5729 70.417C64.3769 70.3122 64.1467 70.2598 63.8824 70.2598ZM76.4592 75.5986C76.5686 75.5986 76.6529 75.6191 76.7121 75.6602C76.7714 75.6966 76.8146 75.765 76.842 75.8652C76.8739 75.9655 76.8898 76.1113 76.8898 76.3027C76.8898 76.4941 76.8739 76.64 76.842 76.7402C76.8146 76.8405 76.7714 76.9089 76.7121 76.9453C76.6529 76.9818 76.5686 77 76.4592 77H71.4553C71.3459 77 71.2616 76.9818 71.2023 76.9453C71.1431 76.9089 71.0975 76.8405 71.0656 76.7402C71.0383 76.64 71.0246 76.4941 71.0246 76.3027C71.0246 76.1113 71.0383 75.9655 71.0656 75.8652C71.0975 75.765 71.1431 75.6966 71.2023 75.6602C71.2616 75.6191 71.3459 75.5986 71.4553 75.5986H73.1369V70.9912L71.7082 71.8047C71.6262 71.8503 71.5533 71.873 71.4895 71.873C71.4029 71.873 71.3186 71.832 71.2365 71.75C71.159 71.668 71.0793 71.5381 70.9973 71.3604C70.9061 71.1598 70.8605 70.9935 70.8605 70.8613C70.8605 70.7656 70.8811 70.6859 70.9221 70.6221C70.9676 70.5583 71.036 70.5013 71.1271 70.4512L74.0119 68.8242C74.1395 68.7513 74.2694 68.7148 74.4016 68.7148C74.5337 68.7148 74.6408 68.7513 74.7229 68.8242C74.8049 68.8971 74.8459 69.0065 74.8459 69.1523V75.5986H76.4592ZM93.2592 68.7354C93.8334 68.7354 94.3415 68.8516 94.7836 69.084C95.2256 69.3164 95.5948 69.6514 95.891 70.0889C96.0779 70.3669 96.2214 70.7041 96.3217 71.1006C96.4265 71.4971 96.4789 71.9255 96.4789 72.3857C96.4789 73.8714 96.0596 75.0199 95.2211 75.8311C94.3871 76.6423 93.0814 77.082 91.3041 77.1504C91.1856 77.1549 91.0922 77.098 91.0238 76.9795C90.96 76.861 90.9167 76.6742 90.8939 76.4189C90.8848 76.3415 90.8803 76.2389 90.8803 76.1113C90.8803 75.7148 90.9737 75.5098 91.1605 75.4961C91.99 75.4551 92.6485 75.3503 93.1361 75.1816C93.6283 75.0085 93.9952 74.7601 94.2367 74.4365C94.4783 74.113 94.6332 73.6846 94.7016 73.1514C94.4555 73.4248 94.1798 73.6276 93.8744 73.7598C93.5691 73.8874 93.2182 73.9512 92.8217 73.9512C92.3158 73.9512 91.8646 73.8441 91.4682 73.6299C91.0717 73.4111 90.7618 73.1081 90.5385 72.7207C90.3152 72.3333 90.2035 71.889 90.2035 71.3877C90.2035 70.8773 90.3334 70.4215 90.5932 70.0205C90.8575 69.6149 91.2221 69.3005 91.6869 69.0771C92.1518 68.8493 92.6758 68.7354 93.2592 68.7354ZM93.266 70.2598C92.8741 70.2598 92.5596 70.3623 92.3227 70.5674C92.0857 70.7679 91.9672 71.0391 91.9672 71.3809C91.9672 71.7318 92.0766 72.0075 92.2953 72.208C92.5186 72.404 92.824 72.502 93.2113 72.502C93.4756 72.502 93.7104 72.4564 93.9154 72.3652C94.1205 72.2741 94.28 72.1465 94.3939 71.9824C94.5079 71.8184 94.5648 71.6315 94.5648 71.4219C94.5648 71.2122 94.5124 71.0186 94.4076 70.8408C94.3074 70.6631 94.157 70.5218 93.9564 70.417C93.7605 70.3122 93.5303 70.2598 93.266 70.2598ZM105.651 68.7354C105.77 68.7308 105.861 68.7878 105.925 68.9062C105.993 69.0247 106.039 69.2116 106.062 69.4668C106.071 69.5443 106.075 69.6468 106.075 69.7744C106.075 70.1709 105.982 70.376 105.795 70.3896C104.956 70.4307 104.261 70.5378 103.71 70.7109C103.163 70.8841 102.737 71.1348 102.432 71.4629C102.131 71.791 101.935 72.2148 101.844 72.7344C102.09 72.4609 102.366 72.2604 102.671 72.1328C102.976 72.0007 103.327 71.9346 103.724 71.9346C104.229 71.9346 104.681 72.0439 105.077 72.2627C105.474 72.4769 105.784 72.7777 106.007 73.165C106.23 73.5524 106.342 73.9967 106.342 74.498C106.342 75.0085 106.21 75.4665 105.945 75.8721C105.686 76.2731 105.323 76.5876 104.858 76.8154C104.394 77.0387 103.869 77.1504 103.286 77.1504C102.712 77.1504 102.204 77.0342 101.762 76.8018C101.32 76.5693 100.951 76.2344 100.654 75.7969C100.467 75.5189 100.322 75.1816 100.217 74.7852C100.117 74.3887 100.066 73.9603 100.066 73.5C100.066 72.5384 100.278 71.7113 100.702 71.0186C101.131 70.3213 101.762 69.779 102.596 69.3916C103.43 68.9997 104.448 68.7809 105.651 68.7354ZM103.334 73.3838C103.07 73.3838 102.835 73.4294 102.63 73.5205C102.425 73.6117 102.265 73.7393 102.151 73.9033C102.037 74.0674 101.98 74.2542 101.98 74.4639C101.98 74.6735 102.031 74.8672 102.131 75.0449C102.236 75.2227 102.386 75.3639 102.582 75.4688C102.783 75.5736 103.015 75.626 103.279 75.626C103.671 75.626 103.986 75.5257 104.223 75.3252C104.46 75.1201 104.578 74.8467 104.578 74.5049C104.578 74.154 104.466 73.8805 104.243 73.6846C104.024 73.484 103.721 73.3838 103.334 73.3838ZM115.063 68.8857C115.223 68.8857 115.334 68.9382 115.398 69.043C115.462 69.1478 115.494 69.3415 115.494 69.624C115.494 69.9066 115.462 70.1003 115.398 70.2051C115.334 70.3053 115.223 70.3555 115.063 70.3555H112.042L111.946 71.8799C112.383 71.7113 112.821 71.627 113.258 71.627C113.824 71.627 114.304 71.7432 114.701 71.9756C115.102 72.2035 115.405 72.5247 115.61 72.9395C115.815 73.3496 115.918 73.8236 115.918 74.3613C115.918 75.2773 115.63 75.9723 115.056 76.4463C114.487 76.9157 113.698 77.1504 112.691 77.1504C112.258 77.1504 111.827 77.098 111.399 76.9932C110.975 76.8838 110.586 76.7334 110.23 76.542C110.057 76.4463 109.97 76.3005 109.97 76.1045C109.97 75.9814 110.009 75.8174 110.087 75.6123C110.241 75.2295 110.415 75.0381 110.606 75.0381C110.643 75.0381 110.688 75.0495 110.743 75.0723C111.445 75.4232 112.094 75.5986 112.691 75.5986C113.11 75.5986 113.448 75.4893 113.703 75.2705C113.958 75.0518 114.086 74.7487 114.086 74.3613C114.086 73.9922 113.981 73.7028 113.771 73.4932C113.566 73.2835 113.274 73.1787 112.896 73.1787C112.468 73.1787 112.03 73.2607 111.584 73.4248C111.392 73.4977 111.205 73.5342 111.023 73.5342C110.731 73.5342 110.524 73.5 110.401 73.4316C110.282 73.3633 110.228 73.2493 110.237 73.0898L110.463 69.3301C110.472 69.1706 110.508 69.0566 110.572 68.9883C110.64 68.9199 110.752 68.8857 110.907 68.8857H115.063ZM122.759 68.7354C123.429 68.7354 124.012 68.9154 124.509 69.2754C125.006 69.6309 125.386 70.1276 125.651 70.7656C125.915 71.3991 126.047 72.126 126.047 72.9463C126.047 73.7666 125.915 74.4958 125.651 75.1338C125.386 75.7673 125.006 76.2617 124.509 76.6172C124.012 76.9727 123.429 77.1504 122.759 77.1504C122.089 77.1504 121.506 76.9727 121.009 76.6172C120.512 76.2617 120.132 75.7673 119.867 75.1338C119.603 74.4958 119.471 73.7666 119.471 72.9463C119.471 72.126 119.603 71.3991 119.867 70.7656C120.132 70.1276 120.512 69.6309 121.009 69.2754C121.506 68.9154 122.089 68.7354 122.759 68.7354ZM122.759 70.2871C122.285 70.2871 121.923 70.5127 121.672 70.9639C121.426 71.4105 121.303 72.0713 121.303 72.9463C121.303 73.8213 121.426 74.4821 121.672 74.9287C121.923 75.3753 122.285 75.5986 122.759 75.5986C123.233 75.5986 123.593 75.3753 123.839 74.9287C124.09 74.4821 124.215 73.8213 124.215 72.9463C124.215 72.0713 124.09 71.4105 123.839 70.9639C123.593 70.5127 123.233 70.2871 122.759 70.2871ZM132.554 68.7354C133.223 68.7354 133.807 68.9154 134.304 69.2754C134.8 69.6309 135.181 70.1276 135.445 70.7656C135.709 71.3991 135.842 72.126 135.842 72.9463C135.842 73.7666 135.709 74.4958 135.445 75.1338C135.181 75.7673 134.8 76.2617 134.304 76.6172C133.807 76.9727 133.223 77.1504 132.554 77.1504C131.884 77.1504 131.3 76.9727 130.804 76.6172C130.307 76.2617 129.926 75.7673 129.662 75.1338C129.398 74.4958 129.265 73.7666 129.265 72.9463C129.265 72.126 129.398 71.3991 129.662 70.7656C129.926 70.1276 130.307 69.6309 130.804 69.2754C131.3 68.9154 131.884 68.7354 132.554 68.7354ZM132.554 70.2871C132.08 70.2871 131.717 70.5127 131.467 70.9639C131.221 71.4105 131.097 72.0713 131.097 72.9463C131.097 73.8213 131.221 74.4821 131.467 74.9287C131.717 75.3753 132.08 75.5986 132.554 75.5986C133.027 75.5986 133.387 75.3753 133.634 74.9287C133.884 74.4821 134.01 73.8213 134.01 72.9463C134.01 72.0713 133.884 71.4105 133.634 70.9639C133.387 70.5127 133.027 70.2871 132.554 70.2871ZM145.021 75.5986C145.13 75.5986 145.215 75.6191 145.274 75.6602C145.333 75.6966 145.376 75.765 145.404 75.8652C145.436 75.9655 145.452 76.1113 145.452 76.3027C145.452 76.4941 145.436 76.64 145.404 76.7402C145.376 76.8405 145.333 76.9089 145.274 76.9453C145.215 76.9818 145.13 77 145.021 77H140.017C139.908 77 139.823 76.9818 139.764 76.9453C139.705 76.9089 139.659 76.8405 139.627 76.7402C139.6 76.64 139.586 76.4941 139.586 76.3027C139.586 76.1113 139.6 75.9655 139.627 75.8652C139.659 75.765 139.705 75.6966 139.764 75.6602C139.823 75.6191 139.908 75.5986 140.017 75.5986H141.699V70.9912L140.27 71.8047C140.188 71.8503 140.115 71.873 140.051 71.873C139.965 71.873 139.88 71.832 139.798 71.75C139.721 71.668 139.641 71.5381 139.559 71.3604C139.468 71.1598 139.422 70.9935 139.422 70.8613C139.422 70.7656 139.443 70.6859 139.484 70.6221C139.529 70.5583 139.598 70.5013 139.689 70.4512L142.574 68.8242C142.701 68.7513 142.831 68.7148 142.963 68.7148C143.095 68.7148 143.203 68.7513 143.285 68.8242C143.367 68.8971 143.408 69.0065 143.408 69.1523V75.5986H145.021ZM154.241 68.8857C154.401 68.8857 154.512 68.9382 154.576 69.043C154.64 69.1478 154.672 69.3415 154.672 69.624C154.672 69.9066 154.64 70.1003 154.576 70.2051C154.512 70.3053 154.401 70.3555 154.241 70.3555H151.22L151.124 71.8799C151.562 71.7113 151.999 71.627 152.437 71.627C153.002 71.627 153.482 71.7432 153.879 71.9756C154.28 72.2035 154.583 72.5247 154.788 72.9395C154.993 73.3496 155.096 73.8236 155.096 74.3613C155.096 75.2773 154.809 75.9723 154.234 76.4463C153.665 76.9157 152.876 77.1504 151.869 77.1504C151.436 77.1504 151.006 77.098 150.577 76.9932C150.153 76.8838 149.764 76.7334 149.408 76.542C149.235 76.4463 149.148 76.3005 149.148 76.1045C149.148 75.9814 149.187 75.8174 149.265 75.6123C149.42 75.2295 149.593 75.0381 149.784 75.0381C149.821 75.0381 149.866 75.0495 149.921 75.0723C150.623 75.4232 151.272 75.5986 151.869 75.5986C152.288 75.5986 152.626 75.4893 152.881 75.2705C153.136 75.0518 153.264 74.7487 153.264 74.3613C153.264 73.9922 153.159 73.7028 152.949 73.4932C152.744 73.2835 152.452 73.1787 152.074 73.1787C151.646 73.1787 151.208 73.2607 150.762 73.4248C150.57 73.4977 150.383 73.5342 150.201 73.5342C149.91 73.5342 149.702 73.5 149.579 73.4316C149.461 73.3633 149.406 73.2493 149.415 73.0898L149.641 69.3301C149.65 69.1706 149.686 69.0566 149.75 68.9883C149.818 68.9199 149.93 68.8857 150.085 68.8857H154.241ZM162.921 68.7354C163.186 68.7354 163.37 68.7878 163.475 68.8926C163.585 68.9974 163.639 69.1501 163.639 69.3506V73.0693H164.815C164.924 73.0693 165.009 73.0898 165.068 73.1309C165.127 73.1673 165.171 73.2357 165.198 73.3359C165.23 73.4362 165.246 73.582 165.246 73.7734C165.246 73.9648 165.23 74.1107 165.198 74.2109C165.171 74.3112 165.127 74.3796 165.068 74.416C165.009 74.4525 164.924 74.4707 164.815 74.4707H163.639V75.5986H164.61C164.719 75.5986 164.804 75.6191 164.863 75.6602C164.922 75.6966 164.965 75.765 164.993 75.8652C165.025 75.9655 165.041 76.1113 165.041 76.3027C165.041 76.4941 165.025 76.64 164.993 76.7402C164.965 76.8405 164.922 76.9089 164.863 76.9453C164.804 76.9818 164.719 77 164.61 77H160.768C160.659 77 160.574 76.9818 160.515 76.9453C160.456 76.9089 160.41 76.8405 160.379 76.7402C160.351 76.64 160.338 76.4941 160.338 76.3027C160.338 76.1113 160.351 75.9655 160.379 75.8652C160.41 75.765 160.456 75.6966 160.515 75.6602C160.574 75.6191 160.659 75.5986 160.768 75.5986H161.93V74.4707H158.991C158.881 74.4707 158.797 74.4525 158.738 74.416C158.679 74.3796 158.633 74.3112 158.601 74.2109C158.574 74.1107 158.56 73.9648 158.56 73.7734C158.56 73.4772 158.603 73.2744 158.69 73.165L161.903 69.207C162.026 69.0521 162.167 68.9359 162.327 68.8584C162.491 68.7764 162.689 68.7354 162.921 68.7354ZM160.495 73.0693H161.992L162.101 71.0732L160.495 73.0693ZM172.716 68.7354C172.98 68.7354 173.165 68.7878 173.27 68.8926C173.379 68.9974 173.434 69.1501 173.434 69.3506V73.0693H174.61C174.719 73.0693 174.803 73.0898 174.863 73.1309C174.922 73.1673 174.965 73.2357 174.992 73.3359C175.024 73.4362 175.04 73.582 175.04 73.7734C175.04 73.9648 175.024 74.1107 174.992 74.2109C174.965 74.3112 174.922 74.3796 174.863 74.416C174.803 74.4525 174.719 74.4707 174.61 74.4707H173.434V75.5986H174.404C174.514 75.5986 174.598 75.6191 174.657 75.6602C174.717 75.6966 174.76 75.765 174.787 75.8652C174.819 75.9655 174.835 76.1113 174.835 76.3027C174.835 76.4941 174.819 76.64 174.787 76.7402C174.76 76.8405 174.717 76.9089 174.657 76.9453C174.598 76.9818 174.514 77 174.404 77H170.563C170.453 77 170.369 76.9818 170.31 76.9453C170.251 76.9089 170.205 76.8405 170.173 76.7402C170.146 76.64 170.132 76.4941 170.132 76.3027C170.132 76.1113 170.146 75.9655 170.173 75.8652C170.205 75.765 170.251 75.6966 170.31 75.6602C170.369 75.6191 170.453 75.5986 170.563 75.5986H171.725V74.4707H168.785C168.676 74.4707 168.592 74.4525 168.532 74.416C168.473 74.3796 168.428 74.3112 168.396 74.2109C168.368 74.1107 168.355 73.9648 168.355 73.7734C168.355 73.4772 168.398 73.2744 168.485 73.165L171.697 69.207C171.821 69.0521 171.962 68.9359 172.121 68.8584C172.285 68.7764 172.484 68.7354 172.716 68.7354ZM170.289 73.0693H171.786L171.896 71.0732L170.289 73.0693ZM181.41 68.7354C181.984 68.7354 182.492 68.8516 182.934 69.084C183.376 69.3164 183.746 69.6514 184.042 70.0889C184.229 70.3669 184.372 70.7041 184.472 71.1006C184.577 71.4971 184.63 71.9255 184.63 72.3857C184.63 73.8714 184.21 75.0199 183.372 75.8311C182.538 76.6423 181.232 77.082 179.455 77.1504C179.336 77.1549 179.243 77.098 179.175 76.9795C179.111 76.861 179.068 76.6742 179.045 76.4189C179.036 76.3415 179.031 76.2389 179.031 76.1113C179.031 75.7148 179.124 75.5098 179.311 75.4961C180.141 75.4551 180.799 75.3503 181.287 75.1816C181.779 75.0085 182.146 74.7601 182.387 74.4365C182.629 74.113 182.784 73.6846 182.852 73.1514C182.606 73.4248 182.331 73.6276 182.025 73.7598C181.72 73.8874 181.369 73.9512 180.972 73.9512C180.467 73.9512 180.015 73.8441 179.619 73.6299C179.222 73.4111 178.913 73.1081 178.689 72.7207C178.466 72.3333 178.354 71.889 178.354 71.3877C178.354 70.8773 178.484 70.4215 178.744 70.0205C179.008 69.6149 179.373 69.3005 179.838 69.0771C180.303 68.8493 180.827 68.7354 181.41 68.7354ZM181.417 70.2598C181.025 70.2598 180.71 70.3623 180.473 70.5674C180.236 70.7679 180.118 71.0391 180.118 71.3809C180.118 71.7318 180.227 72.0075 180.446 72.208C180.669 72.404 180.975 72.502 181.362 72.502C181.626 72.502 181.861 72.4564 182.066 72.3652C182.271 72.2741 182.431 72.1465 182.545 71.9824C182.659 71.8184 182.716 71.6315 182.716 71.4219C182.716 71.2122 182.663 71.0186 182.558 70.8408C182.458 70.6631 182.308 70.5218 182.107 70.417C181.911 70.3122 181.681 70.2598 181.417 70.2598Z" fill="#CFB284"/>
<defs>
<clipPath id="clip0">
<rect width="30" height="30" fill="white" transform="translate(9 7)"/>
</clipPath>
</defs>
</svg>
