<svg width="369" height="21" viewBox="0 0 369 21" fill="none" xmlns="http://www.w3.org/2000/svg">
<path d="M18.2119 2.6123C18.5439 2.6123 18.7783 2.69043 18.915 2.84668C19.0615 2.99316 19.1348 3.24707 19.1348 3.6084C19.1348 3.96973 19.0615 4.22852 18.915 4.38477C18.7783 4.53125 18.5439 4.60449 18.2119 4.60449H17.4209L15.3994 19.3701C15.3506 19.7217 15.2236 19.9658 15.0186 20.1025C14.8232 20.249 14.5303 20.3223 14.1396 20.3223C13.3389 20.3223 12.8408 20.0049 12.6455 19.3701L9.93555 10.8594L7.19629 19.3701C6.99121 20.0049 6.4834 20.3223 5.67285 20.3223C5.29199 20.3223 4.99902 20.249 4.79395 20.1025C4.59863 19.9561 4.48145 19.7119 4.44238 19.3701L2.49414 4.60449H1.77637C1.44434 4.60449 1.20508 4.53125 1.05859 4.38477C0.921875 4.22852 0.853516 3.96973 0.853516 3.6084C0.853516 3.24707 0.921875 2.99316 1.05859 2.84668C1.20508 2.69043 1.44434 2.6123 1.77637 2.6123H6.81543C7.14746 2.6123 7.38184 2.69043 7.51855 2.84668C7.66504 2.99316 7.73828 3.24707 7.73828 3.6084C7.73828 3.96973 7.66504 4.22852 7.51855 4.38477C7.38184 4.53125 7.14746 4.60449 6.81543 4.60449H4.67676L6.1416 16.3379L8.89551 7.72461C9.03223 7.26562 9.38379 7.03613 9.9502 7.03613C10.2627 7.03613 10.502 7.08496 10.668 7.18262C10.8438 7.28027 10.9609 7.42676 11.0195 7.62207L13.7588 16.3379L15.2822 4.60449H13.4658C13.1338 4.60449 12.8945 4.53125 12.748 4.38477C12.6113 4.22852 12.543 3.96973 12.543 3.6084C12.543 3.24707 12.6113 2.99316 12.748 2.84668C12.8945 2.69043 13.1338 2.6123 13.4658 2.6123H18.2119ZM31.1143 6.14258C32.5303 6.14258 33.7363 6.43066 34.7324 7.00684C35.7383 7.57324 36.5098 8.36426 37.0469 9.37988C37.584 10.3857 37.8916 11.5479 37.9697 12.8662C37.9697 13.1982 37.8965 13.4326 37.75 13.5693C37.6133 13.7061 37.3789 13.7744 37.0469 13.7744H26.4414C26.5098 15.2295 26.9395 16.333 27.7305 17.085C28.5312 17.8271 29.6592 18.1982 31.1143 18.1982C32.0127 18.1982 32.9014 18.0859 33.7803 17.8613C34.6592 17.627 35.4307 17.3193 36.0947 16.9385C36.2607 16.8506 36.4121 16.8066 36.5488 16.8066C36.8906 16.8066 37.1689 17.0654 37.3838 17.583C37.4717 17.7881 37.5156 17.9736 37.5156 18.1396C37.5156 18.5303 37.3008 18.833 36.8711 19.0479C36.1191 19.4287 35.2305 19.7363 34.2051 19.9707C33.1797 20.2051 32.1494 20.3223 31.1143 20.3223C29.6396 20.3223 28.3799 20.0391 27.335 19.4727C26.29 18.9062 25.4941 18.0908 24.9473 17.0264C24.4004 15.9619 24.127 14.6973 24.127 13.2324C24.127 11.8359 24.4248 10.6006 25.0205 9.52637C25.6162 8.45215 26.4414 7.62207 27.4961 7.03613C28.5508 6.44043 29.7568 6.14258 31.1143 6.14258ZM31.1143 8.2666C29.9131 8.2666 28.917 8.57422 28.126 9.18945C27.3447 9.79492 26.832 10.6396 26.5879 11.7236H35.5381C35.333 10.6006 34.8594 9.74609 34.1172 9.16016C33.3848 8.56445 32.3838 8.2666 31.1143 8.2666ZM77.5732 6.14258C77.9736 6.14258 78.2568 6.21582 78.4229 6.3623C78.5889 6.50879 78.6719 6.75293 78.6719 7.09473V9.87793C78.6719 10.2197 78.5889 10.4639 78.4229 10.6104C78.2568 10.7568 77.9736 10.8301 77.5732 10.8301C77.2412 10.8301 77.0068 10.7031 76.8701 10.4492C76.4502 9.64844 75.8398 9.08691 75.0391 8.76465C74.2383 8.43262 73.2227 8.2666 71.9922 8.2666C71.0449 8.2666 70.3027 8.4375 69.7656 8.7793C69.2383 9.11133 68.9746 9.58008 68.9746 10.1855C68.9746 10.498 69.0723 10.752 69.2676 10.9473C69.4727 11.1426 69.7705 11.3037 70.1611 11.4307C70.4834 11.5381 70.8545 11.6211 71.2744 11.6797C71.7041 11.7383 72.2559 11.8018 72.9297 11.8701C73.877 11.9775 74.6387 12.0801 75.2148 12.1777C75.8008 12.2656 76.3525 12.4023 76.8701 12.5879C77.6514 12.8711 78.2568 13.2812 78.6865 13.8184C79.126 14.3555 79.3457 15.0635 79.3457 15.9424C79.3457 16.8213 79.1211 17.5928 78.6719 18.2568C78.2324 18.9111 77.583 19.4189 76.7236 19.7803C75.874 20.1416 74.8535 20.3223 73.6621 20.3223C72.6074 20.3223 71.6797 20.1758 70.8789 19.8828C70.0781 19.5898 69.3799 19.1455 68.7842 18.5498V19.3701C68.7842 19.7119 68.7012 19.9561 68.5352 20.1025C68.3691 20.249 68.0859 20.3223 67.6855 20.3223C67.2852 20.3223 67.002 20.249 66.8359 20.1025C66.6699 19.9561 66.5869 19.7119 66.5869 19.3701V15.8545C66.5869 15.5127 66.6699 15.2686 66.8359 15.1221C67.002 14.9756 67.2852 14.9023 67.6855 14.9023C67.8906 14.9023 68.0518 14.9512 68.1689 15.0488C68.2861 15.1367 68.3887 15.2881 68.4766 15.5029C68.8281 16.4404 69.4141 17.124 70.2344 17.5537C71.0547 17.9834 72.1484 18.1982 73.5156 18.1982C74.6484 18.1982 75.5176 17.9932 76.123 17.583C76.7285 17.1729 77.0312 16.626 77.0312 15.9424C77.0312 15.6104 76.9238 15.3369 76.709 15.1221C76.4941 14.9072 76.1865 14.7314 75.7861 14.5947C75.4443 14.4873 75.0488 14.3994 74.5996 14.3311C74.1602 14.2529 73.5986 14.1797 72.915 14.1113C71.9971 14.0137 71.2305 13.9111 70.6152 13.8037C70 13.6963 69.4336 13.54 68.916 13.335C68.2031 13.0518 67.6465 12.6611 67.2461 12.1631C66.8555 11.6553 66.6602 10.9961 66.6602 10.1855C66.6602 9.33594 66.8799 8.6084 67.3193 8.00293C67.7686 7.3877 68.3838 6.92383 69.165 6.61133C69.9561 6.29883 70.8496 6.14258 71.8457 6.14258C72.793 6.14258 73.6572 6.28418 74.4385 6.56738C75.2295 6.85059 75.9082 7.24609 76.4746 7.75391V7.09473C76.4746 6.75293 76.5576 6.50879 76.7236 6.3623C76.8896 6.21582 77.1729 6.14258 77.5732 6.14258ZM94.0791 6.14258C95.4951 6.14258 96.7012 6.43066 97.6973 7.00684C98.7031 7.57324 99.4746 8.36426 100.012 9.37988C100.549 10.3857 100.856 11.5479 100.935 12.8662C100.935 13.1982 100.861 13.4326 100.715 13.5693C100.578 13.7061 100.344 13.7744 100.012 13.7744H89.4062C89.4746 15.2295 89.9043 16.333 90.6953 17.085C91.4961 17.8271 92.624 18.1982 94.0791 18.1982C94.9775 18.1982 95.8662 18.0859 96.7451 17.8613C97.624 17.627 98.3955 17.3193 99.0596 16.9385C99.2256 16.8506 99.377 16.8066 99.5137 16.8066C99.8555 16.8066 100.134 17.0654 100.349 17.583C100.437 17.7881 100.48 17.9736 100.48 18.1396C100.48 18.5303 100.266 18.833 99.8359 19.0479C99.084 19.4287 98.1953 19.7363 97.1699 19.9707C96.1445 20.2051 95.1143 20.3223 94.0791 20.3223C92.6045 20.3223 91.3447 20.0391 90.2998 19.4727C89.2549 18.9062 88.459 18.0908 87.9121 17.0264C87.3652 15.9619 87.0918 14.6973 87.0918 13.2324C87.0918 11.8359 87.3896 10.6006 87.9854 9.52637C88.5811 8.45215 89.4062 7.62207 90.4609 7.03613C91.5156 6.44043 92.7217 6.14258 94.0791 6.14258ZM94.0791 8.2666C92.8779 8.2666 91.8818 8.57422 91.0908 9.18945C90.3096 9.79492 89.7969 10.6396 89.5527 11.7236H98.5029C98.2979 10.6006 97.8242 9.74609 97.082 9.16016C96.3496 8.56445 95.3486 8.2666 94.0791 8.2666ZM115.316 0.78125C115.648 0.78125 115.883 0.859375 116.02 1.01562C116.166 1.16211 116.239 1.41602 116.239 1.77734V18.0078H120.941C121.273 18.0078 121.508 18.0859 121.645 18.2422C121.791 18.3887 121.864 18.6426 121.864 19.0039C121.864 19.3652 121.791 19.624 121.645 19.7803C121.508 19.9268 121.273 20 120.941 20H109.457C109.125 20 108.886 19.9268 108.739 19.7803C108.603 19.624 108.534 19.3652 108.534 19.0039C108.534 18.6426 108.603 18.3887 108.739 18.2422C108.886 18.0859 109.125 18.0078 109.457 18.0078H114.042V2.77344H110.043C109.711 2.77344 109.472 2.7002 109.325 2.55371C109.188 2.39746 109.12 2.13867 109.12 1.77734C109.12 1.41602 109.188 1.16211 109.325 1.01562C109.472 0.859375 109.711 0.78125 110.043 0.78125H115.316ZM136.305 0.78125C136.637 0.78125 136.871 0.859375 137.008 1.01562C137.154 1.16211 137.228 1.41602 137.228 1.77734V18.0078H141.93C142.262 18.0078 142.496 18.0859 142.633 18.2422C142.779 18.3887 142.853 18.6426 142.853 19.0039C142.853 19.3652 142.779 19.624 142.633 19.7803C142.496 19.9268 142.262 20 141.93 20H130.445C130.113 20 129.874 19.9268 129.728 19.7803C129.591 19.624 129.522 19.3652 129.522 19.0039C129.522 18.6426 129.591 18.3887 129.728 18.2422C129.874 18.0859 130.113 18.0078 130.445 18.0078H135.03V2.77344H131.031C130.699 2.77344 130.46 2.7002 130.313 2.55371C130.177 2.39746 130.108 2.13867 130.108 1.77734C130.108 1.41602 130.177 1.16211 130.313 1.01562C130.46 0.859375 130.699 0.78125 131.031 0.78125H136.305ZM183.174 6.14258C183.574 6.14258 183.857 6.21582 184.023 6.3623C184.189 6.50879 184.272 6.75293 184.272 7.09473V11.3428C184.272 11.6846 184.189 11.9287 184.023 12.0752C183.857 12.2217 183.574 12.2949 183.174 12.2949C182.773 12.2949 182.49 12.2217 182.324 12.0752C182.158 11.9287 182.075 11.6846 182.075 11.3428C182.075 10.7471 181.919 10.2197 181.606 9.76074C181.294 9.30176 180.825 8.94531 180.2 8.69141C179.585 8.4375 178.843 8.31055 177.974 8.31055C177.036 8.31055 176.196 8.52051 175.454 8.94043C174.712 9.36035 174.131 9.94629 173.711 10.6982C173.291 11.4502 173.081 12.2949 173.081 13.2324C173.081 14.1797 173.276 15.0293 173.667 15.7812C174.067 16.5234 174.624 17.1045 175.337 17.5244C176.06 17.9443 176.89 18.1543 177.827 18.1543C178.726 18.1543 179.595 18.0176 180.435 17.7441C181.284 17.4609 182.056 17.0557 182.749 16.5283C182.954 16.3721 183.145 16.2939 183.32 16.2939C183.604 16.2939 183.867 16.4941 184.111 16.8945C184.258 17.1387 184.331 17.373 184.331 17.5977C184.331 17.9395 184.175 18.2227 183.862 18.4473C183.081 19.0332 182.158 19.4922 181.094 19.8242C180.029 20.1562 178.94 20.3223 177.827 20.3223C176.431 20.3223 175.195 20.0146 174.121 19.3994C173.057 18.7842 172.231 17.9395 171.646 16.8652C171.06 15.791 170.767 14.5801 170.767 13.2324C170.767 11.8848 171.064 10.6738 171.66 9.59961C172.256 8.52539 173.086 7.68066 174.15 7.06543C175.225 6.4502 176.45 6.14258 177.827 6.14258C178.696 6.14258 179.492 6.30371 180.215 6.62598C180.947 6.93848 181.567 7.3877 182.075 7.97363V7.09473C182.075 6.75293 182.158 6.50879 182.324 6.3623C182.49 6.21582 182.773 6.14258 183.174 6.14258ZM198.889 6.14258C200.227 6.14258 201.433 6.44531 202.507 7.05078C203.581 7.65625 204.421 8.50098 205.026 9.58496C205.642 10.6592 205.949 11.875 205.949 13.2324C205.949 14.5898 205.642 15.8105 205.026 16.8945C204.421 17.9688 203.581 18.8086 202.507 19.4141C201.433 20.0195 200.227 20.3223 198.889 20.3223C197.551 20.3223 196.345 20.0195 195.271 19.4141C194.196 18.8086 193.352 17.9688 192.736 16.8945C192.131 15.8105 191.828 14.5898 191.828 13.2324C191.828 11.875 192.131 10.6592 192.736 9.58496C193.352 8.50098 194.196 7.65625 195.271 7.05078C196.345 6.44531 197.551 6.14258 198.889 6.14258ZM198.889 8.31055C197.941 8.31055 197.106 8.52051 196.384 8.94043C195.671 9.35059 195.119 9.93164 194.729 10.6836C194.338 11.4258 194.143 12.2754 194.143 13.2324C194.143 14.1895 194.338 15.0439 194.729 15.7959C195.119 16.5381 195.671 17.1191 196.384 17.5391C197.106 17.9492 197.941 18.1543 198.889 18.1543C199.836 18.1543 200.666 17.9492 201.379 17.5391C202.102 17.1191 202.658 16.5381 203.049 15.7959C203.439 15.0439 203.635 14.1895 203.635 13.2324C203.635 12.2754 203.439 11.4258 203.049 10.6836C202.658 9.93164 202.102 9.35059 201.379 8.94043C200.666 8.52051 199.836 8.31055 198.889 8.31055ZM220.258 0.78125C220.59 0.78125 220.824 0.859375 220.961 1.01562C221.107 1.16211 221.181 1.41602 221.181 1.77734V18.0078H225.883C226.215 18.0078 226.449 18.0859 226.586 18.2422C226.732 18.3887 226.806 18.6426 226.806 19.0039C226.806 19.3652 226.732 19.624 226.586 19.7803C226.449 19.9268 226.215 20 225.883 20H214.398C214.066 20 213.827 19.9268 213.681 19.7803C213.544 19.624 213.476 19.3652 213.476 19.0039C213.476 18.6426 213.544 18.3887 213.681 18.2422C213.827 18.0859 214.066 18.0078 214.398 18.0078H218.983V2.77344H214.984C214.652 2.77344 214.413 2.7002 214.267 2.55371C214.13 2.39746 214.062 2.13867 214.062 1.77734C214.062 1.41602 214.13 1.16211 214.267 1.01562C214.413 0.859375 214.652 0.78125 214.984 0.78125H220.258ZM245.978 0.78125C246.31 0.78125 246.544 0.859375 246.681 1.01562C246.827 1.16211 246.9 1.41602 246.9 1.77734V18.0078H248.102C248.434 18.0078 248.668 18.0859 248.805 18.2422C248.951 18.3887 249.024 18.6426 249.024 19.0039C249.024 19.3652 248.951 19.624 248.805 19.7803C248.668 19.9268 248.434 20 248.102 20H245.772C245.44 20 245.201 19.9268 245.055 19.7803C244.918 19.624 244.85 19.3652 244.85 19.0039V17.832C244.234 18.6328 243.521 19.248 242.711 19.6777C241.9 20.1074 241.017 20.3223 240.06 20.3223C238.849 20.3223 237.765 20.0391 236.808 19.4727C235.851 18.8965 235.099 18.0762 234.552 17.0117C234.005 15.9375 233.731 14.6777 233.731 13.2324C233.731 11.7871 234.005 10.5322 234.552 9.46777C235.099 8.39355 235.851 7.57324 236.808 7.00684C237.765 6.43066 238.849 6.14258 240.06 6.14258C241.896 6.14258 243.443 6.94824 244.703 8.55957V2.77344H242.33C241.998 2.77344 241.759 2.7002 241.612 2.55371C241.476 2.39746 241.407 2.13867 241.407 1.77734C241.407 1.41602 241.476 1.16211 241.612 1.01562C241.759 0.859375 241.998 0.78125 242.33 0.78125H245.978ZM240.206 8.31055C239.337 8.31055 238.59 8.52051 237.965 8.94043C237.34 9.35059 236.861 9.92676 236.529 10.6689C236.207 11.4111 236.046 12.2656 236.046 13.2324C236.046 14.1992 236.207 15.0537 236.529 15.7959C236.861 16.5381 237.34 17.1191 237.965 17.5391C238.59 17.9492 239.337 18.1543 240.206 18.1543C241.075 18.1543 241.847 17.959 242.521 17.5684C243.204 17.1777 243.736 16.6113 244.117 15.8691C244.508 15.127 244.703 14.248 244.703 13.2324C244.703 12.2168 244.508 11.3379 244.117 10.5957C243.736 9.85352 243.204 9.28711 242.521 8.89648C241.847 8.50586 241.075 8.31055 240.206 8.31055ZM278.081 0.78125C278.413 0.78125 278.647 0.859375 278.784 1.01562C278.931 1.16211 279.004 1.41602 279.004 1.77734V8.55957C280.264 6.94824 281.812 6.14258 283.647 6.14258C284.858 6.14258 285.942 6.43066 286.899 7.00684C287.856 7.57324 288.608 8.39355 289.155 9.46777C289.702 10.5322 289.976 11.7871 289.976 13.2324C289.976 14.6777 289.702 15.9375 289.155 17.0117C288.608 18.0762 287.856 18.8965 286.899 19.4727C285.942 20.0391 284.858 20.3223 283.647 20.3223C282.69 20.3223 281.807 20.1074 280.996 19.6777C280.186 19.248 279.473 18.6328 278.857 17.832V19.0039C278.857 19.3652 278.784 19.624 278.638 19.7803C278.501 19.9268 278.267 20 277.935 20H275.605C275.273 20 275.034 19.9268 274.888 19.7803C274.751 19.624 274.683 19.3652 274.683 19.0039C274.683 18.6426 274.751 18.3887 274.888 18.2422C275.034 18.0859 275.273 18.0078 275.605 18.0078H276.807V2.77344H275.312C274.98 2.77344 274.741 2.7002 274.595 2.55371C274.458 2.39746 274.39 2.13867 274.39 1.77734C274.39 1.41602 274.458 1.16211 274.595 1.01562C274.741 0.859375 274.98 0.78125 275.312 0.78125H278.081ZM283.501 8.31055C282.632 8.31055 281.855 8.50586 281.172 8.89648C280.498 9.28711 279.966 9.85352 279.575 10.5957C279.194 11.3379 279.004 12.2168 279.004 13.2324C279.004 14.248 279.194 15.127 279.575 15.8691C279.966 16.6113 280.498 17.1777 281.172 17.5684C281.855 17.959 282.632 18.1543 283.501 18.1543C284.37 18.1543 285.117 17.9492 285.742 17.5391C286.367 17.1191 286.841 16.5381 287.163 15.7959C287.495 15.0537 287.661 14.1992 287.661 13.2324C287.661 12.2656 287.495 11.4111 287.163 10.6689C286.841 9.92676 286.367 9.35059 285.742 8.94043C285.117 8.52051 284.37 8.31055 283.501 8.31055ZM308.312 6.14258C309.074 6.14258 309.787 6.33789 310.451 6.72852C310.842 6.96289 311.037 7.26562 311.037 7.63672C311.037 7.8125 310.993 8.01758 310.905 8.25195C310.7 8.80859 310.417 9.08691 310.056 9.08691C309.909 9.08691 309.772 9.04785 309.646 8.96973C309.167 8.70605 308.654 8.57422 308.107 8.57422C307.229 8.57422 306.345 8.88184 305.456 9.49707C304.567 10.1025 303.835 10.9131 303.259 11.9287C302.692 12.9443 302.409 14.0234 302.409 15.166V18.0078H307.346C307.678 18.0078 307.912 18.0859 308.049 18.2422C308.195 18.3887 308.269 18.6426 308.269 19.0039C308.269 19.3652 308.195 19.624 308.049 19.7803C307.912 19.9268 307.678 20 307.346 20H297.912C297.58 20 297.341 19.9268 297.194 19.7803C297.058 19.624 296.989 19.3652 296.989 19.0039C296.989 18.6426 297.058 18.3887 297.194 18.2422C297.341 18.0859 297.58 18.0078 297.912 18.0078H300.212V8.45703H298.352C298.02 8.45703 297.78 8.38379 297.634 8.2373C297.497 8.08105 297.429 7.82227 297.429 7.46094C297.429 7.09961 297.497 6.8457 297.634 6.69922C297.78 6.54297 298.02 6.46484 298.352 6.46484H301.34C301.672 6.46484 301.906 6.54297 302.043 6.69922C302.189 6.8457 302.263 7.09961 302.263 7.46094V10.4199C302.731 9.56055 303.298 8.80859 303.962 8.16406C304.626 7.51953 305.334 7.02148 306.086 6.66992C306.838 6.31836 307.58 6.14258 308.312 6.14258ZM324.95 6.14258C326.366 6.14258 327.572 6.43066 328.568 7.00684C329.574 7.57324 330.346 8.36426 330.883 9.37988C331.42 10.3857 331.728 11.5479 331.806 12.8662C331.806 13.1982 331.732 13.4326 331.586 13.5693C331.449 13.7061 331.215 13.7744 330.883 13.7744H320.277C320.346 15.2295 320.775 16.333 321.566 17.085C322.367 17.8271 323.495 18.1982 324.95 18.1982C325.849 18.1982 326.737 18.0859 327.616 17.8613C328.495 17.627 329.267 17.3193 329.931 16.9385C330.097 16.8506 330.248 16.8066 330.385 16.8066C330.727 16.8066 331.005 17.0654 331.22 17.583C331.308 17.7881 331.352 17.9736 331.352 18.1396C331.352 18.5303 331.137 18.833 330.707 19.0479C329.955 19.4287 329.066 19.7363 328.041 19.9707C327.016 20.2051 325.985 20.3223 324.95 20.3223C323.476 20.3223 322.216 20.0391 321.171 19.4727C320.126 18.9062 319.33 18.0908 318.783 17.0264C318.236 15.9619 317.963 14.6973 317.963 13.2324C317.963 11.8359 318.261 10.6006 318.856 9.52637C319.452 8.45215 320.277 7.62207 321.332 7.03613C322.387 6.44043 323.593 6.14258 324.95 6.14258ZM324.95 8.2666C323.749 8.2666 322.753 8.57422 321.962 9.18945C321.181 9.79492 320.668 10.6396 320.424 11.7236H329.374C329.169 10.6006 328.695 9.74609 327.953 9.16016C327.221 8.56445 326.22 8.2666 324.95 8.2666ZM354.024 6.46484C354.356 6.46484 354.591 6.54297 354.728 6.69922C354.874 6.8457 354.947 7.09961 354.947 7.46094C354.947 7.82227 354.874 8.08105 354.728 8.2373C354.591 8.38379 354.356 8.45703 354.024 8.45703H353.673L350.787 19.3701C350.689 19.7217 350.543 19.9658 350.348 20.1025C350.162 20.249 349.884 20.3223 349.513 20.3223C349.093 20.3223 348.761 20.2441 348.517 20.0879C348.282 19.9414 348.106 19.7021 347.989 19.3701L345.748 13.0127L343.478 19.3701C343.36 19.7021 343.175 19.9414 342.921 20.0879C342.677 20.2441 342.345 20.3223 341.925 20.3223C341.554 20.3223 341.275 20.249 341.09 20.1025C340.904 19.9658 340.768 19.7217 340.68 19.3701L337.853 8.45703H337.589C337.257 8.45703 337.018 8.38379 336.871 8.2373C336.734 8.08105 336.666 7.82227 336.666 7.46094C336.666 7.09961 336.734 6.8457 336.871 6.69922C337.018 6.54297 337.257 6.46484 337.589 6.46484H341.896C342.228 6.46484 342.462 6.54297 342.599 6.69922C342.745 6.8457 342.818 7.09961 342.818 7.46094C342.818 7.82227 342.745 8.08105 342.599 8.2373C342.462 8.38379 342.228 8.45703 341.896 8.45703H340.094L342.203 16.9824L344.649 10.1855C344.718 9.98047 344.845 9.81445 345.03 9.6875C345.216 9.56055 345.46 9.49707 345.763 9.49707C346.378 9.49707 346.754 9.69238 346.891 10.083L349.322 16.9824L351.49 8.45703H350.011C349.679 8.45703 349.439 8.38379 349.293 8.2373C349.156 8.08105 349.088 7.82227 349.088 7.46094C349.088 7.09961 349.156 6.8457 349.293 6.69922C349.439 6.54297 349.679 6.46484 350.011 6.46484H354.024ZM366.795 15.6055C367.498 15.6055 368.001 15.6787 368.304 15.8252C368.616 15.9619 368.772 16.1963 368.772 16.5283V19.2236C368.772 19.5557 368.616 19.7949 368.304 19.9414C368.001 20.0781 367.498 20.1465 366.795 20.1465C366.092 20.1465 365.584 20.0781 365.271 19.9414C364.969 19.7949 364.817 19.5557 364.817 19.2236V16.5283C364.817 16.1963 364.969 15.9619 365.271 15.8252C365.584 15.6787 366.092 15.6055 366.795 15.6055Z" fill="white"/>
</svg>
